<?xml version="1.0" encoding="UTF-8" standalone="no"?>
<!-- Created with Inkscape (http://www.inkscape.org/) -->

<svg
   width="360mm"
   height="120mm"
   viewBox="0 0 360 120"
   version="1.1"
   id="svg1"
   xml:space="preserve"
   inkscape:version="1.3.2 (091e20e, 2023-11-25)"
   sodipodi:docname="BirdTogether.svg"
   xmlns:inkscape="http://www.inkscape.org/namespaces/inkscape"
   xmlns:sodipodi="http://sodipodi.sourceforge.net/DTD/sodipodi-0.dtd"
   xmlns:xlink="http://www.w3.org/1999/xlink"
   xmlns="http://www.w3.org/2000/svg"
   xmlns:svg="http://www.w3.org/2000/svg"><sodipodi:namedview
     id="namedview1"
     pagecolor="#ffffff"
     bordercolor="#000000"
     borderopacity="0.25"
     inkscape:showpageshadow="2"
     inkscape:pageopacity="0.0"
     inkscape:pagecheckerboard="0"
     inkscape:deskcolor="#d1d1d1"
     inkscape:document-units="mm"
     inkscape:zoom="0.20364513"
     inkscape:cx="665.37314"
     inkscape:cy="942.81655"
     inkscape:current-layer="layer1" /><defs
     id="defs1"><inkscape:path-effect
       back_thickness="0.25"
       front_thickness="1"
       stroke_width_bottom="1"
       stroke_width_top="1"
       fat_output="false"
       bottom_smth_variation="0;1"
       top_smth_variation="0;1"
       scale_tb="2"
       scale_tf="2"
       scale_bb="2"
       scale_bf="2"
       top_tgt_variation="0;1"
       bottom_tgt_variation="0;1"
       top_edge_variation="0;1"
       bottom_edge_variation="0;1"
       bender="1522.1071,406.78552 , 5,0"
       do_bend="true"
       growth="0"
       dist_rdm="0;1"
       direction="1522.1071,401.78552 , 20.946224,21.787234"
       is_visible="true"
       id="path-effect4116"
       effect="rough_hatches"
       lpeversion="0" /><linearGradient
       x1="1.9698247"
       y1="34.874969"
       x2="14.761634"
       xlink:href="#imagebot_35"
       y2="34.788586"
       id="imagebot_25"
       gradientTransform="scale(1.0944943,0.913664)"
       gradientUnits="userSpaceOnUse" /><linearGradient
       id="imagebot_35"><stop
         offset="0"
         stop-color="#9a5723"
         id="imagebot_39" /><stop
         offset="1"
         stop-color="#db9762"
         id="imagebot_38" /></linearGradient><linearGradient
       x2="6.4821496"
       y2="14.783549"
       y1="14.783549"
       xlink:href="#imagebot_35"
       id="imagebot_23"
       gradientTransform="scale(0.4868775,2.0539047)"
       x1="0.32040915"
       gradientUnits="userSpaceOnUse" /><linearGradient
       x2="14.128051"
       y2="24.911909"
       y1="12.332888"
       xlink:href="#imagebot_35"
       id="imagebot_21"
       gradientTransform="scale(1.143535,0.87448136)"
       x1="8.0067511"
       gradientUnits="userSpaceOnUse" /><linearGradient
       x1="-1.0948765"
       y1="9.0848875"
       x2="14.472001"
       xlink:href="#imagebot_35"
       y2="18.33567"
       id="imagebot_19"
       gradientTransform="scale(0.77089087,1.2972005)"
       gradientUnits="userSpaceOnUse" /><linearGradient
       x2="21.019093"
       y2="37.72084"
       y1="27.523834"
       xlink:href="#imagebot_35"
       id="imagebot_17"
       gradientTransform="scale(1.0540926,0.9486833)"
       x1="2.9940445"
       gradientUnits="userSpaceOnUse" /><linearGradient
       x2="28.298302"
       y2="13.339052"
       y1="8.3322973"
       xlink:href="#imagebot_35"
       id="imagebot_15"
       gradientTransform="scale(0.92429937,1.0819006)"
       x1="16.602846"
       gradientUnits="userSpaceOnUse" /><linearGradient
       x1="12.695371"
       y1="14.845891"
       x2="4.4375334"
       xlink:href="#imagebot_34"
       y2="13.40415"
       id="imagebot_13"
       gradientTransform="scale(0.74442254,1.3433231)"
       gradientUnits="userSpaceOnUse" /><linearGradient
       id="imagebot_34"><stop
         offset="0"
         stop-color="#7ed249"
         id="imagebot_37" /><stop
         offset="1"
         stop-color="#286325"
         id="imagebot_36" /></linearGradient><linearGradient
       x1="20.774029"
       y1="26.279816"
       x2="11.03502"
       xlink:href="#imagebot_34"
       y2="20.825972"
       id="imagebot_11"
       gradientTransform="scale(0.92514559,1.0809109)"
       gradientUnits="userSpaceOnUse" /><filter
       x="-0.153"
       height="1.3478"
       width="1.306"
       y="-0.17389999"
       id="imagebot_9"
       color-interpolation-filters="sRGB"><feGaussianBlur
         stdDeviation="0.25713"
         id="imagebot_33" /></filter><filter
       x="-0.21352001"
       height="1.4493001"
       width="1.427"
       y="-0.22465"
       id="imagebot_7"
       color-interpolation-filters="sRGB"><feGaussianBlur
         stdDeviation="0.25713"
         id="imagebot_32" /></filter><filter
       x="-0.13411"
       height="1.1229"
       width="1.2682"
       y="-0.061469998"
       id="imagebot_5"
       color-interpolation-filters="sRGB"><feGaussianBlur
         stdDeviation="0.21961"
         id="imagebot_31" /></filter><filter
       id="imagebot_3"
       color-interpolation-filters="sRGB"><feGaussianBlur
         stdDeviation="0.17322"
         id="imagebot_30" /></filter><inkscape:path-effect
       effect="rough_hatches"
       id="path-effect3982"
       is_visible="true"
       direction="1522.2031,401.90626 , 22.487883,24.510638"
       dist_rdm="0;1"
       growth="0"
       do_bend="true"
       bender="1522.2031,406.90626 , 5,0"
       bottom_edge_variation="0;1"
       top_edge_variation="0;1"
       bottom_tgt_variation="0;1"
       top_tgt_variation="0;1"
       scale_bf="2"
       scale_bb="2"
       scale_tf="2"
       scale_tb="2"
       top_smth_variation="0;1"
       bottom_smth_variation="0;1"
       fat_output="false"
       stroke_width_top="1"
       stroke_width_bottom="1"
       front_thickness="1"
       back_thickness="0.25"
       lpeversion="0" /><inkscape:path-effect
       back_thickness="0.25"
       front_thickness="1"
       stroke_width_bottom="1"
       stroke_width_top="1"
       fat_output="false"
       bottom_smth_variation="0;1"
       top_smth_variation="0;1"
       scale_tb="2"
       scale_tf="2"
       scale_bb="2"
       scale_bf="2"
       top_tgt_variation="0;1"
       bottom_tgt_variation="0;1"
       top_edge_variation="0;1"
       bottom_edge_variation="0;1"
       bender="1522.1071,406.78552 , 5,0"
       do_bend="true"
       growth="0"
       dist_rdm="0;1"
       direction="1522.1071,401.78552 , 20.946224,21.787234"
       is_visible="true"
       id="path-effect4116-3"
       effect="rough_hatches"
       lpeversion="0" /><rect
       x="761.89117"
       y="76.95871"
       width="304.75647"
       height="161.61328"
       id="rect97" /></defs><g
     inkscape:label="Layer 1"
     inkscape:groupmode="layer"
     id="layer1"
     transform="translate(-7.7985383,15)"><g
       inkscape:label="Birds Together"
       id="layer1-2"
       transform="translate(0.20239198,-16.587501)"
       style="display:inline"><path
         d="m 57.064398,62.727056 c 1.385487,-2.003874 2.934701,-3.909316 3.642385,-6.283148 0.92654,-2.210413 1.646822,-4.537593 3.314792,-6.32827 1.384816,-2.217192 4.079577,-3.127243 6.598049,-2.844457 0.846007,0.483383 3.160943,-0.653191 2.512166,0.75723 -0.563929,3.093688 -1.801631,6.068193 -3.291379,8.819163 -0.99423,1.619028 -2.850787,2.476822 -4.338038,3.598553 -2.030584,1.486311 -4.601835,2.239037 -7.08295,2.312164 -0.426116,-0.18283 -1.993677,-0.451781 -0.625712,-0.487068"
         stroke="inherit"
         stroke-width="inherit"
         fill="none"
         id="path5-9-31-8-7"
         style="stroke:#000000;stroke-width:0.8;stroke-linecap:round;stroke-linejoin:round;stroke-dasharray:none" /><path
         d="m 65.725009,55.160416 c -1.027827,0.843874 -1.396072,2.443454 -2.428932,3.402449 -1.186962,1.519103 -2.716915,2.939401 -4.499558,3.708365"
         stroke="inherit"
         stroke-width="inherit"
         fill="none"
         id="path6-7-2-0-2"
         style="stroke:#000000;stroke-width:0.8;stroke-linecap:round;stroke-linejoin:round;stroke-dasharray:none" /><path
         d="m 68.824597,47.046791 c 0.871953,-2.198749 2.583872,-4.020817 4.375874,-5.561024 1.701301,-0.479583 3.522279,-1.195156 5.282605,-0.902537 1.075434,0.593247 2.544604,1.124598 2.379274,2.623718 0.197591,1.649756 -1.062452,3.123277 -0.887951,4.824588 0.272896,2.278162 0.818715,4.555105 0.610382,6.882214 -0.08953,2.408529 -1.695426,4.495747 -3.440701,6.030728 -1.407651,1.048394 -2.979395,1.934353 -4.777259,1.931238 -1.768785,0.641251 -3.750821,0.377288 -5.569842,0.178289 -1.515349,0.0315 -2.678748,-0.657892 -4.080406,-1.147423"
         stroke="inherit"
         stroke-width="inherit"
         fill="none"
         id="path7-5-1-9-6"
         style="stroke:#000000;stroke-width:0.8;stroke-linecap:round;stroke-linejoin:round;stroke-dasharray:none" /><path
         d="m 63.445901,62.362398 c -0.849503,0.876633 -1.410931,2.047043 -2.408187,2.843114 -1.458337,1.566222 -2.748352,3.28395 -4.246795,4.814696 -1.326409,-0.281373 -2.84411,-0.165412 -3.709915,-1.403509 -1.619599,-0.850344 0.705883,-1.809242 1.260181,-2.710589 1.298108,-1.006861 2.785751,-1.776799 3.953119,-2.977827 l 0.137571,-0.110057"
         stroke="inherit"
         stroke-width="inherit"
         fill="none"
         id="path8-3-2-5-5"
         style="stroke:#000000;stroke-width:0.8;stroke-linecap:round;stroke-linejoin:round;stroke-dasharray:none" /><path
         d="m 60.163986,62.635891 c -1.770447,2.102808 -3.810175,4.248325 -5.412885,6.324529 l 0.125353,-0.03419"
         stroke="inherit"
         stroke-width="inherit"
         fill="none"
         id="path9-9-56-7-0"
         style="stroke:#000000;stroke-width:0.8;stroke-linecap:round;stroke-linejoin:round;stroke-dasharray:none" /><path
         d="m 77.120551,44.31186 c -1.533564,-0.992755 -0.493133,2.157054 0.182328,0.434371 0.261902,-0.979798 -0.668859,-1.118745 -0.729315,-0.160878"
         stroke="inherit"
         stroke-width="inherit"
         fill="none"
         id="path10-9-48-9-2"
         style="stroke:#000000;stroke-width:0.8;stroke-linecap:round;stroke-linejoin:round;stroke-dasharray:none" /><path
         d="m 81.131781,42.944396 c 0.967917,0.477843 3.060408,1.179378 0.871888,1.235687 -0.351405,0.04393 -0.702811,0.08785 -1.054216,0.131777"
         stroke="inherit"
         stroke-width="inherit"
         fill="none"
         id="path11-4-0-3-2"
         style="stroke:#000000;stroke-width:0.8;stroke-linecap:round;stroke-linejoin:round;stroke-dasharray:none" /><path
         d="m 65.725009,63.000549 c 0.04304,1.330501 1.046883,2.792287 0.273493,4.011231 0.562303,-1.652376 0.8516,-0.593141 1.823287,0.09116"
         stroke="inherit"
         stroke-width="inherit"
         fill="none"
         id="path12-9-1-3-1"
         style="stroke:#000000;stroke-width:0.8;stroke-linecap:round;stroke-linejoin:round;stroke-dasharray:none" /><path
         d="m 66.727817,66.1913 c 0.15194,0.455822 0.303881,0.911644 0.455821,1.367466"
         stroke="inherit"
         stroke-width="inherit"
         fill="none"
         id="path13-1-0-3-8"
         style="stroke:#000000;stroke-width:0.8;stroke-linecap:round;stroke-linejoin:round;stroke-dasharray:none" /><path
         d="m 70.830212,63.365206 c -0.256719,1.737167 1.157352,3.261735 1.093965,4.922875 -0.617544,-2.170163 1.444054,-0.524703 1.383977,-0.300775 -1.857169,-1.586109 -0.852217,-0.02578 -0.198827,0.938925"
         stroke="inherit"
         stroke-width="inherit"
         fill="none"
         id="path14-5-5-2-6"
         style="stroke:#000000;stroke-width:0.8;stroke-linecap:round;stroke-linejoin:round;stroke-dasharray:none" /><path
         d="m 82.316917,59.718633 c -0.466265,0.242374 -2.994343,1.281626 -1.714794,1.602595 0.638178,0.293501 1.323671,0.455653 1.988287,0.676514"
         stroke="inherit"
         stroke-width="inherit"
         fill="none"
         id="path15-9-4-4-6"
         style="stroke:#000000;stroke-width:0.8;stroke-linecap:round;stroke-linejoin:round;stroke-dasharray:none" /><path
         d="m 82.316917,59.353975 c 0.489512,-1.0377 1.917564,-1.890455 3.008437,-2.552588 1.497826,-0.186481 3.008986,0.392812 4.456645,0.656385 1.776666,1.144043 2.645301,3.260919 4.126913,4.749682 1.489829,2.104282 1.816249,5.05525 4.152725,6.52283 0.983536,1.645822 1.972193,3.334585 3.010973,4.947463 0.74018,1.629006 1.06471,3.414717 2.29027,4.775781 1.49907,1.216433 0.0551,1.443466 -1.20883,0.857544 -1.67054,-0.880059 -3.529292,-1.051563 -5.346057,-1.350756 -2.27558,-0.923581 -4.493056,-1.950403 -6.407679,-3.515348 -2.103215,-1.169059 -2.864621,-3.628499 -3.79866,-5.701054 -0.218722,-1.247576 0.242701,-2.832151 1.703159,-2.943409 0.40007,-0.03802 1.420647,-0.302105 1.487579,0.208481"
         stroke="inherit"
         stroke-width="inherit"
         fill="none"
         id="path16-8-2-3-1"
         style="stroke:#000000;stroke-width:0.8;stroke-linecap:round;stroke-linejoin:round;stroke-dasharray:none" /><path
         d="m 91.068694,70.840681 c 0.14581,1.020907 1.067942,2.111759 1.867369,2.870182 1.542555,1.959702 4.280184,1.633077 6.257247,2.846449 0.429629,0.105767 0.785164,0.375407 1.17414,0.573707"
         stroke="inherit"
         stroke-width="inherit"
         fill="none"
         id="path17-30-6-3-2"
         style="stroke:#000000;stroke-width:0.8;stroke-linecap:round;stroke-linejoin:round;stroke-dasharray:none" /><path
         d="m 96.720882,70.20253 c 0.801001,1.685576 1.550204,3.369584 2.73493,4.83171"
         stroke="inherit"
         stroke-width="inherit"
         fill="none"
         id="path18-9-7-5-9"
         style="stroke:#000000;stroke-width:0.8;stroke-linecap:round;stroke-linejoin:round;stroke-dasharray:none" /><path
         d="m 93.256637,71.569997 c 1.245913,0.881255 2.491825,1.76251 3.737738,2.643765"
         stroke="inherit"
         stroke-width="inherit"
         fill="none"
         id="path19-0-9-1-9"
         style="stroke:#000000;stroke-width:0.8;stroke-linecap:round;stroke-linejoin:round;stroke-dasharray:none" /><path
         d="m 85.872326,60.174455 c -1.801489,-0.281285 0.747056,2.403291 0.518172,0.345253 0.116884,-0.686571 -0.795067,-0.7797 -0.97398,-0.162925"
         stroke="inherit"
         stroke-width="inherit"
         fill="none"
         id="path20-7-5-0-8"
         style="stroke:#000000;stroke-width:0.8;stroke-linecap:round;stroke-linejoin:round;stroke-dasharray:none" /><path
         d="m 85.96349,60.539111 -0.09116,0.09116"
         stroke="inherit"
         stroke-width="inherit"
         fill="none"
         id="path21-6-9-93-4"
         style="stroke:#000000;stroke-width:0.8;stroke-linecap:round;stroke-linejoin:round;stroke-dasharray:none" /><path
         d="m 82.955068,58.806989 c -0.920215,1.862739 0.326535,4.011143 -0.07942,6.004193 0.0095,3.125723 -0.711065,6.440263 0.535143,9.402393 0.751961,1.540937 1.649117,3.171229 3.373174,3.737925 1.440135,1.233888 3.331966,1.925205 5.226132,1.54167 1.75973,-0.105908 3.964834,0.01823 4.984274,-1.724"
         stroke="inherit"
         stroke-width="inherit"
         fill="none"
         id="path22-8-1-8-6"
         style="stroke:#000000;stroke-width:0.8;stroke-linecap:round;stroke-linejoin:round;stroke-dasharray:none" /><path
         d="m 98.999991,78.316156 c 1.781889,2.653168 3.733179,5.253385 5.378679,8.022462 0.98733,0.973763 1.78364,2.811929 3.46426,2.279122 0.031,-0.02856 0.19704,-1.073225 0.18233,-0.72931"
         stroke="inherit"
         stroke-width="inherit"
         fill="none"
         id="path23-3-08-7-3"
         style="stroke:#000000;stroke-width:0.8;stroke-linecap:round;stroke-linejoin:round;stroke-dasharray:none" /><path
         d="m 101.46143,78.954307 c 1.58188,2.150083 2.78125,4.631917 4.61869,6.560363 1.19605,0.807559 1.97687,2.536374 3.62126,2.267677 1.65034,-0.270718 0.71138,-1.671864 -0.35009,-2.162021 -2.09082,-1.940155 -4.54104,-3.654682 -6.15771,-6.027873"
         stroke="inherit"
         stroke-width="inherit"
         fill="none"
         id="path24-8-9-1-8"
         style="stroke:#000000;stroke-width:0.8;stroke-linecap:round;stroke-linejoin:round;stroke-dasharray:none" /><path
         d="m 89.883557,79.410128 c 0.150807,1.304609 -1.729655,0.701445 -1.367471,2.461442 0.153747,0.356197 0.200871,0.771264 0.546988,1.002807"
         stroke="inherit"
         stroke-width="inherit"
         fill="none"
         id="path25-6-9-0-9"
         style="stroke:#000000;stroke-width:0.8;stroke-linecap:round;stroke-linejoin:round;stroke-dasharray:none" /><path
         d="m 89.610064,80.230608 c -0.35274,1.239024 -0.109939,1.774088 0.820479,2.643765"
         stroke="inherit"
         stroke-width="inherit"
         fill="none"
         id="path26-1-7-5-8"
         style="stroke:#000000;stroke-width:0.8;stroke-linecap:round;stroke-linejoin:round;stroke-dasharray:none" /><path
         d="m 95.262252,79.227801 c -0.160539,1.231888 -0.910935,1.14863 -0.911639,2.643765 0.07448,0.05163 0.0095,0.672738 0.18232,0.364671"
         stroke="inherit"
         stroke-width="inherit"
         fill="none"
         id="path27-9-96-4-2"
         style="stroke:#000000;stroke-width:0.8;stroke-linecap:round;stroke-linejoin:round;stroke-dasharray:none" /><path
         d="m 95.626909,79.227801 c -0.550063,1.138071 0.481937,1.948152 0.911644,2.917258"
         stroke="inherit"
         stroke-width="inherit"
         fill="none"
         id="path28-6-9-1-6"
         style="stroke:#000000;stroke-width:0.8;stroke-linecap:round;stroke-linejoin:round;stroke-dasharray:none" /><path
         d="m 93.985951,48.961242 c -0.762186,0.09133 -3.171011,0.791748 -2.525378,1.205942 0.559937,0.204604 1.108714,0.301959 1.7049,0.252692"
         stroke="inherit"
         stroke-width="inherit"
         fill="none"
         id="path29-7-05-9-0"
         style="stroke:#000000;stroke-width:0.8;stroke-linecap:round;stroke-linejoin:round;stroke-dasharray:none" /><path
         d="m 113.22162,65.735479 c -0.67488,-0.07506 -2.89866,2.917515 -6.89631,1.914438 -1.95451,0.170335 -3.86669,-0.125119 -5.61807,-1.039515 -2.050679,-1.063032 -3.952808,-2.578017 -4.806682,-4.794691 -1.545103,-2.321091 -1.68527,-5.128336 -1.701437,-7.828609 0.153593,-1.571535 -0.668654,-3.05581 -0.412785,-4.577647 0.47414,-2.103556 2.570877,-3.427309 4.650298,-3.4974 1.693656,-0.145657 3.534216,0.241527 4.516326,1.765816 1.22507,0.944549 1.44046,2.503602 2.24623,3.744795"
         stroke="inherit"
         stroke-width="inherit"
         fill="none"
         id="path30-8-7-0-9"
         style="stroke:#000000;stroke-width:0.8;stroke-linecap:round;stroke-linejoin:round;stroke-dasharray:none"
         sodipodi:nodetypes="ccccccccc" /><path
         d="m 104.01403,52.516651 c 1.47445,-1.809701 4.25813,-0.522648 5.27493,1.168925 1.43315,1.746196 3.07132,3.455152 3.8842,5.594163 0.30741,1.95807 2.1055,3.235508 3.08559,4.888423 0.15309,0.690956 2.62645,2.456248 1.29793,2.037519 -1.27297,0.61212 -2.1487,-0.873546 -3.43753,-0.624915 -1.67722,-0.444073 -3.32639,-1.216066 -4.99649,-1.766141 -0.98247,-0.647836 -2.16474,-1.035693 -3.13171,-1.617017 -0.62164,-1.067145 -1.87307,-1.557321 -2.05087,-2.891754 -0.64084,-1.451942 -1.41527,-3.140026 -0.92886,-4.69241 l 0.0912,0.09116"
         stroke="inherit"
         stroke-width="inherit"
         fill="none"
         id="path31-9-2-7-6"
         style="stroke:#000000;stroke-width:0.8;stroke-linecap:round;stroke-linejoin:round;stroke-dasharray:none" /><path
         d="m 108.84574,58.989319 c 1.12539,2.253639 2.91875,4.255406 5.19636,5.378695"
         stroke="inherit"
         stroke-width="inherit"
         fill="none"
         id="path32-7-2-3-5"
         style="stroke:#000000;stroke-width:0.8;stroke-linecap:round;stroke-linejoin:round;stroke-dasharray:none" /><path
         d="m 105.83732,59.080482 c 0.86092,1.483849 2.42817,2.5312 3.55541,3.828902"
         stroke="inherit"
         stroke-width="inherit"
         fill="none"
         id="path33-5-01-4-9"
         style="stroke:#000000;stroke-width:0.8;stroke-linecap:round;stroke-linejoin:round;stroke-dasharray:none" /><path
         d="m 111.12485,66.829451 c -0.146,0.715216 0.41364,2.170957 -0.0755,3.14219 0.069,0.605939 -0.0304,1.794076 0.16673,2.054171"
         stroke="inherit"
         stroke-width="inherit"
         fill="none"
         id="path34-5-50-8-5"
         style="stroke:#000000;stroke-width:0.8;stroke-linecap:round;stroke-linejoin:round;stroke-dasharray:none" /><path
         d="m 111.94533,68.652738 c 0.30388,0.881255 0.60776,1.76251 0.91164,2.643765"
         stroke="inherit"
         stroke-width="inherit"
         fill="none"
         id="path35-2-5-1-2"
         style="stroke:#000000;stroke-width:0.8;stroke-linecap:round;stroke-linejoin:round;stroke-dasharray:none" /><path
         d="m 106.29313,67.64993 c -0.0442,1.014344 -0.0252,1.961102 0.36467,2.917259"
         stroke="inherit"
         stroke-width="inherit"
         fill="none"
         id="path36-4-64-7-5"
         style="stroke:#000000;stroke-width:0.8;stroke-linecap:round;stroke-linejoin:round;stroke-dasharray:none" /><path
         d="m 106.29313,69.564382 c -0.3387,0.441819 -0.40884,1.324449 -0.63819,1.914449"
         stroke="inherit"
         stroke-width="inherit"
         fill="none"
         id="path37-9-5-2-6"
         style="stroke:#000000;stroke-width:0.8;stroke-linecap:round;stroke-linejoin:round;stroke-dasharray:none" /><path
         d="m 98.453004,49.14357 c -1.269797,0.576966 1.750946,1.173199 0.3199,-0.345758 -1.49565,0.515011 1.092249,1.36816 -0.137437,0.07234 l -1.26e-4,-6.3e-5"
         stroke="inherit"
         stroke-width="inherit"
         fill="none"
         id="path38-4-2-2-9"
         style="stroke:#000000;stroke-width:0.8;stroke-linecap:round;stroke-linejoin:round;stroke-dasharray:none" /><path
         d="m 113.40395,65.917808 c 2.18072,1.72139 3.92673,3.911734 5.53101,6.15223 1.01023,0.611039 1.67782,2.123308 2.94727,2.052559 0.7744,-0.177071 2.52081,-0.355917 1.71385,-1.721713 -1.57665,-2.333671 -4.5746,-3.536881 -6.18094,-5.844912"
         stroke="inherit"
         stroke-width="inherit"
         fill="none"
         id="path39-4-3-2-8"
         style="stroke:#000000;stroke-width:0.8;stroke-linecap:round;stroke-linejoin:round;stroke-dasharray:none" /><path
         d="m 119.05614,70.104792 c 0.45582,0.364658 3.38652,3.575421 3.84234,3.940079"
         stroke="inherit"
         stroke-width="inherit"
         fill="none"
         id="path40-7-0-6-4"
         style="stroke:#000000;stroke-width:0.8;stroke-linecap:round;stroke-linejoin:round;stroke-dasharray:none"
         sodipodi:nodetypes="cc" /><path
         d="m 50.227074,84.788825 c 4.339794,-2.026461 9.357338,-0.488348 13.850904,-1.964624 3.881506,-1.286248 8.018126,-1.576276 12.078268,-1.439881 4.935981,0.842938 9.903214,1.577524 14.885637,2.037053 2.306456,0.02011 4.580544,-0.74158 6.729941,-1.532582 0.774046,-0.309618 1.548092,-0.619237 2.322136,-0.928855"
         stroke="inherit"
         stroke-width="inherit"
         fill="none"
         id="path41-9-6-2-1"
         style="stroke:#000000;stroke-width:0.8;stroke-linecap:round;stroke-linejoin:round;stroke-dasharray:none" /><path
         d="m 104.65218,78.954307 h -0.0912"
         stroke="inherit"
         stroke-width="inherit"
         fill="none"
         id="path42-5-4-1-6"
         style="stroke:#000000;stroke-width:0.8;stroke-linecap:round;stroke-linejoin:round;stroke-dasharray:none" /><path
         d="m 104.28752,79.318964 c 1.92839,-1.001901 3.89548,-1.883538 6.0879,-2.065178 4.52005,-0.817419 9.17618,-0.299117 13.72723,-0.670227 1.05277,-0.242945 2.10553,-0.48589 3.15829,-0.728835"
         stroke="inherit"
         stroke-width="inherit"
         fill="none"
         id="path43-5-7-4-5"
         style="stroke:#000000;stroke-width:0.8;stroke-linecap:round;stroke-linejoin:round;stroke-dasharray:none" /><path
         d="m 66.089666,82.236224 c -2.10676,1.378808 -4.804517,2.837071 -5.237034,5.532859 -0.255034,0.5163 0.522622,2.981356 0.131821,2.489601"
         stroke="inherit"
         stroke-width="inherit"
         fill="none"
         id="path44-6-1-0-0"
         style="stroke:#000000;stroke-width:0.8;stroke-linecap:round;stroke-linejoin:round;stroke-dasharray:none" /><path
         d="m 61.34912,86.156289 c -1.112566,1.930063 -1.801426,4.199871 -3.190751,5.925681"
         stroke="inherit"
         stroke-width="inherit"
         fill="none"
         id="path45-1-1-6-3"
         style="stroke:#000000;stroke-width:0.8;stroke-linecap:round;stroke-linejoin:round;stroke-dasharray:none" /><path
         d="m 60.802134,86.885604 c -1.580181,0.577374 -3.160363,1.154748 -4.740544,1.732122 -0.767712,0.837551 -1.914208,2.891255 -2.279108,3.008423"
         stroke="inherit"
         stroke-width="inherit"
         fill="none"
         id="path46-5-8-7-0"
         style="stroke:#000000;stroke-width:0.8;stroke-linecap:round;stroke-linejoin:round;stroke-dasharray:none" /><path
         d="m 56.426247,88.344233 c -1.762511,0 -3.525021,0 -5.287532,0"
         stroke="inherit"
         stroke-width="inherit"
         fill="none"
         id="path47-9-5-7-8"
         style="stroke:#000000;stroke-width:0.8;stroke-linecap:round;stroke-linejoin:round;stroke-dasharray:none" /><path
         d="M 62.260765,83.056702 C 60.177223,82.807324 58.165579,81.865643 57.028079,80.039337 55.859534,79.351259 54.322991,78.982809 53.521776,77.763395"
         stroke="inherit"
         stroke-width="inherit"
         fill="none"
         id="path48-1-20-0-0"
         style="stroke:#000000;stroke-width:0.8;stroke-linecap:round;stroke-linejoin:round;stroke-dasharray:none"
         sodipodi:nodetypes="ccc" /><path
         d="M 57.064398,80.048279 C 55.636157,79.774786 54.207915,79.501294 52.779674,79.227801"
         stroke="inherit"
         stroke-width="inherit"
         fill="none"
         id="path49-3-1-8-4"
         style="stroke:#000000;stroke-width:0.8;stroke-linecap:round;stroke-linejoin:round;stroke-dasharray:none" /><path
         d="m 127.26094,70.38486 c -1.62815,0.108461 -3.34574,-0.225426 -4.92288,0.182329"
         stroke="inherit"
         stroke-width="inherit"
         fill="none"
         id="path51-8-4-1-5"
         style="stroke:#000000;stroke-width:0.8;stroke-linecap:round;stroke-linejoin:round;stroke-dasharray:none" /><path
         d="m 117.23286,70.658353 c -0.8338,-0.648688 -2.48976,-0.325692 -3.58839,-0.831471 -4.41857,-0.936016 -8.97121,-0.01271 -13.44742,-0.325166 -0.598801,0.06142 -1.118119,-0.156015 -1.652882,-0.393171"
         stroke="inherit"
         stroke-width="inherit"
         fill="none"
         id="path52-9-5-0-3"
         style="stroke:#000000;stroke-width:0.8;stroke-linecap:round;stroke-linejoin:round;stroke-dasharray:none" /><path
         d="m 82.134588,67.285273 c -0.825668,-0.01677 -2.446399,-0.03994 -3.576392,-0.05916 -2.871886,-0.124645 -5.724736,0.442458 -8.591357,0.05915 -2.84056,0.128747 -5.587126,-0.914388 -8.435389,-0.638148 -0.402861,-0.180271 -0.93199,-0.182349 -1.276306,-0.455826"
         stroke="inherit"
         stroke-width="inherit"
         fill="none"
         id="path53-4-5-3-3"
         style="stroke:#000000;stroke-width:0.8;stroke-linecap:round;stroke-linejoin:round;stroke-dasharray:none" /><path
         d="m 54.329468,65.461986 c -0.941273,-0.0702 -4.607925,-0.143551 -5.548456,0.06517"
         stroke="inherit"
         stroke-width="inherit"
         fill="none"
         id="path54-3-2-0-2"
         style="stroke:#000000;stroke-width:0.8;stroke-linecap:round;stroke-linejoin:round;stroke-dasharray:none"
         sodipodi:nodetypes="cc" /><path
         d="m 48.266605,65.52057 c 0.972119,-0.02079 4.43844,0.866127 5.424712,0.761895"
         stroke="inherit"
         stroke-width="inherit"
         fill="none"
         id="path55-9-3-8-1"
         style="stroke:#000000;stroke-width:0.8;stroke-linecap:round;stroke-linejoin:round;stroke-dasharray:none"
         sodipodi:nodetypes="cc" /><path
         d="m 59.109167,67.4676 c 4.792675,0.951709 9.159855,1.594281 14.037639,1.835043 3.085138,0.07762 6.18328,-0.04054 9.261276,0.170546"
         stroke="inherit"
         stroke-width="inherit"
         fill="none"
         id="path56-5-23-42-9"
         style="stroke:#000000;stroke-width:0.8;stroke-linecap:round;stroke-linejoin:round;stroke-dasharray:none"
         sodipodi:nodetypes="ccc" /><path
         d="m 99.911632,71.296503 c 4.284488,0.285564 8.604078,0.03095 12.854178,0.729315 -3.01215,1.265749 -5.9491,2.706762 -8.76671,4.343215 -0.51454,0.161502 -0.99663,0.541919 -1.53487,0.57966"
         stroke="inherit"
         stroke-width="inherit"
         fill="none"
         id="path57-1-1-2-8"
         style="stroke:#000000;stroke-width:0.8;stroke-linecap:round;stroke-linejoin:round;stroke-dasharray:none" /><path
         d="m 98.179511,78.58965 c 0.128964,0.05465 -1.964896,1.18554 -2.826094,1.093972"
         stroke="inherit"
         stroke-width="inherit"
         fill="none"
         id="path58-7-19-3-9"
         style="stroke:#000000;stroke-width:0.8;stroke-linecap:round;stroke-linejoin:round;stroke-dasharray:none" /><path
         d="m 88.971913,80.048279 c -3.283166,0.286165 -6.625372,0.588749 -9.886627,-0.04055 -2.082176,-0.214794 -4.245773,-0.0036 -6.282441,0.416205 -1.991082,0.619825 -2.994719,0.857908 -5.01858,1.390845"
         stroke="inherit"
         stroke-width="inherit"
         fill="none"
         id="path59-4-8-0-7"
         style="stroke:#000000;stroke-width:0.8;stroke-linecap:round;stroke-linejoin:round;stroke-dasharray:none"
         sodipodi:nodetypes="cccc" /><path
         d="m 77.94103,79.774786 c -1.333997,-0.508934 -2.498526,-1.245836 -3.456657,-2.292788 -0.397575,-0.238545 -0.79515,-0.47709 -1.192725,-0.715635"
         stroke="inherit"
         stroke-width="inherit"
         fill="none"
         id="path60-5-0-1-8"
         style="stroke:#000000;stroke-width:0.8;stroke-linecap:round;stroke-linejoin:round;stroke-dasharray:none" /><path
         d="m 75.02377,79.957115 c -2.871939,-0.819215 -5.88271,-1.222814 -8.582638,-2.592444 -1.39507,-0.851348 -2.955373,0.02553 -4.462188,-0.32758 -1.120064,0.01995 -3.655176,-0.134366 -4.667349,-0.635385"
         stroke="inherit"
         stroke-width="inherit"
         fill="none"
         id="path61-1-9-7-2"
         style="stroke:#000000;stroke-width:0.8;stroke-linecap:round;stroke-linejoin:round;stroke-dasharray:none"
         sodipodi:nodetypes="cccc" /><path
         d="m 64.631037,76.766363 c -2.023034,-1.078807 -3.901663,-2.535219 -6.016845,-3.373067 l 0.197697,0.04942 0.166959,0.04173"
         stroke="inherit"
         stroke-width="inherit"
         fill="none"
         id="path62-4-52-3-3"
         style="stroke:#000000;stroke-width:0.8;stroke-linecap:round;stroke-linejoin:round;stroke-dasharray:none" /><path
         d="m 67.00131,77.404514 c -1.063584,-1.12436 -2.127169,-2.248721 -3.190753,-3.373081"
         stroke="inherit"
         stroke-width="inherit"
         fill="none"
         id="path63-6-4-42-0"
         style="stroke:#000000;stroke-width:0.8;stroke-linecap:round;stroke-linejoin:round;stroke-dasharray:none" /><path
         d="m 78.657485,69.193151 c -1.167665,-0.04848 -3.123559,1.333911 -3.807266,2.210139 -0.622173,0.589929 -6.128768,1.036415 -6.775237,1.267224"
         stroke="inherit"
         stroke-width="inherit"
         fill="none"
         id="path64-0-2-0-6"
         style="stroke:#000000;stroke-width:0.8;stroke-linecap:round;stroke-linejoin:round;stroke-dasharray:none"
         sodipodi:nodetypes="ccc" /><path
         d="m 114.40677,60.447948 c 1.24038,-0.909254 2.98989,-1.027113 4.48317,-1.412962 2.74905,-0.605947 5.47368,-1.115719 8.27982,-0.50149"
         stroke="inherit"
         stroke-width="inherit"
         fill="none"
         id="path65-3-3-7-5"
         style="stroke:#000000;stroke-width:0.8;stroke-linecap:round;stroke-linejoin:round;stroke-dasharray:none" /><path
         d="m 119.32963,58.442332 c 0.42603,-0.926839 0.1585,-2.393112 -0.0739,-3.474648 -1.77019,-1.064254 -2.53645,-3.167795 -4.09776,-4.518331 -1.63567,-1.402239 -2.08494,-3.702215 -3.18347,-5.511824 -1.3722,-2.195072 -2.30308,-6.610693 -4.30109,-8.400932"
         stroke="inherit"
         stroke-width="inherit"
         fill="none"
         id="path66-2-58-1-8"
         style="stroke:#000000;stroke-width:0.8;stroke-linecap:round;stroke-linejoin:round;stroke-dasharray:none"
         sodipodi:nodetypes="ccccc" /><path
         d="m 110.94252,43.491382 c -1.14144,-1.372473 -2.88079,-2.111 -4.28472,-3.190752"
         stroke="inherit"
         stroke-width="inherit"
         fill="none"
         id="path67-2-4-8-1"
         style="stroke:#000000;stroke-width:0.8;stroke-linecap:round;stroke-linejoin:round;stroke-dasharray:none" /><path
         d="m 114.58909,49.872885 c -1.6093,-0.699856 -3.57177,-0.303851 -5.19315,-1.153677"
         stroke="inherit"
         stroke-width="inherit"
         fill="none"
         id="path68-1-5-0-4"
         style="stroke:#000000;stroke-width:0.8;stroke-linecap:round;stroke-linejoin:round;stroke-dasharray:none"
         sodipodi:nodetypes="cc" /><path
         d="m 112.58348,49.508228 c -1.36747,-1.367465 -2.73493,-2.734929 -4.1024,-4.102394"
         stroke="inherit"
         stroke-width="inherit"
         fill="none"
         id="path69-4-11-1-3"
         style="stroke:#000000;stroke-width:0.8;stroke-linecap:round;stroke-linejoin:round;stroke-dasharray:none" /><path
         d="m 120.15011,58.442332 c -0.12499,-1.354289 -0.002,-2.888667 -0.27349,-4.136583 -1.09938,-1.337062 -1.74539,-3.363156 -1.54979,-5.221173 0.27375,-2.10966 -1.10183,-3.956464 -2.2626,-5.57393 -1.52824,-1.849776 -2.57519,-4.061652 -4.30123,-5.762617 -0.43672,-1.162699 -0.8531,-2.332677 -1.36747,-3.464244"
         stroke="inherit"
         stroke-width="inherit"
         fill="none"
         id="path70-7-041-47-2"
         style="stroke:#000000;stroke-width:0.8;stroke-linecap:round;stroke-linejoin:round;stroke-dasharray:none" /><path
         d="m 113.40395,39.480151 c 0.42288,-1.664055 0.0166,-3.518768 0.12545,-5.255044 0.11469,-1.004311 -0.2776,-2.260445 0.14803,-3.132075"
         stroke="inherit"
         stroke-width="inherit"
         fill="none"
         id="path71-7-6-2-9"
         style="stroke:#000000;stroke-width:0.8;stroke-linecap:round;stroke-linejoin:round;stroke-dasharray:none" /><path
         d="m 116.41238,43.673712 c -0.30565,-2.732672 -0.95014,-5.449991 -0.5179,-8.198913 0.0511,-1.4302 0.10216,-2.860401 0.15324,-4.290601"
         stroke="inherit"
         stroke-width="inherit"
         fill="none"
         id="path72-0-1-1-6"
         style="stroke:#000000;stroke-width:0.8;stroke-linecap:round;stroke-linejoin:round;stroke-dasharray:none" /><path
         d="m 118.05334,46.773298 c 0.89763,-2.828334 1.98191,-5.672632 1.68997,-8.697429 -0.0239,-1.600908 -0.19152,-3.195492 -0.23138,-4.794892"
         stroke="inherit"
         stroke-width="inherit"
         fill="none"
         id="path73-9-4-0-8"
         style="stroke:#000000;stroke-width:0.8;stroke-linecap:round;stroke-linejoin:round;stroke-dasharray:none" /><path
         d="m 119.87662,37.748029 c 1.0057,-1.560565 1.91502,-3.165842 2.73493,-4.83171"
         stroke="inherit"
         stroke-width="inherit"
         fill="none"
         id="path74-5-5-37-7"
         style="stroke:#000000;stroke-width:0.8;stroke-linecap:round;stroke-linejoin:round;stroke-dasharray:none" /><path
         d="m 120.51477,58.168839 c 0.0885,-1.555746 -0.17457,-3.236977 0.12904,-4.715932 1.58348,-1.775336 1.18911,-4.420142 1.66337,-6.620005 0.42515,-3.068841 0.32644,-6.194618 0.66903,-9.261842 -0.0498,-0.165328 0.0563,-1.758789 0.0912,-1.008167"
         stroke="inherit"
         stroke-width="inherit"
         fill="none"
         id="path75-7-2-4-4"
         style="stroke:#000000;stroke-width:0.8;stroke-linecap:round;stroke-linejoin:round;stroke-dasharray:none" /><path
         d="m 120.9706,53.154801 c 1.33268,-1.51051 2.21754,-2.455675 2.82608,-3.555409 0.0608,-0.455822 0.12155,-0.911643 0.18233,-1.367465"
         stroke="inherit"
         stroke-width="inherit"
         fill="none"
         id="path76-2-3-9-2"
         style="stroke:#000000;stroke-width:0.8;stroke-linecap:round;stroke-linejoin:round;stroke-dasharray:none"
         sodipodi:nodetypes="ccc" /><path
         d="m 123.79668,49.508228 c 0.42544,-0.334269 0.85087,-0.668538 1.27631,-1.002807"
         stroke="inherit"
         stroke-width="inherit"
         fill="none"
         id="path77-9-3-1-4"
         style="stroke:#000000;stroke-width:0.8;stroke-linecap:round;stroke-linejoin:round;stroke-dasharray:none" /><path
         d="m 122.52039,46.590969 c -0.0602,-2.125512 1.68506,-3.73021 3.09959,-5.105202 0.0304,-0.273493 0.0608,-0.546987 0.0912,-0.82048"
         stroke="inherit"
         stroke-width="inherit"
         fill="none"
         id="path78-7-6-9-8"
         style="stroke:#000000;stroke-width:0.8;stroke-linecap:round;stroke-linejoin:round;stroke-dasharray:none" /><path
         d="m 95.353417,60.539111 c -0.803695,-0.02832 -1.433084,0.187658 -2.09678,0.638147"
         stroke="inherit"
         stroke-width="inherit"
         fill="none"
         id="path79-6-8-0-8"
         style="stroke:#000000;stroke-width:0.8;stroke-linecap:round;stroke-linejoin:round;stroke-dasharray:none" /><path
         d="m 82.59041,63.274042 c -2.067596,0.166722 -4.174646,-0.333545 -6.193777,-0.648083 -0.186353,-0.06533 -0.346664,-0.273603 -0.552369,-0.263554"
         stroke="inherit"
         stroke-width="inherit"
         fill="none"
         id="path80-8-4-1-1"
         style="stroke:#000000;stroke-width:0.8;stroke-linecap:round;stroke-linejoin:round;stroke-dasharray:none" /><path
         d="m 47.583306,56.527881 c 2.243074,-0.149664 4.457828,0.110186 6.580065,0.866302 1.639585,0.445405 3.31284,0.672699 4.997806,0.86582"
         stroke="inherit"
         stroke-width="inherit"
         fill="none"
         id="path81-2-8-6-1"
         style="stroke:#000000;stroke-width:0.8;stroke-linecap:round;stroke-linejoin:round;stroke-dasharray:none" /><path
         d="m 54.329468,57.166032 c 0.002,-1.858461 -0.318411,-3.942651 1.20129,-5.348909 1.700433,-2.200768 3.022405,-4.710246 4.712432,-6.887752 1.280737,-0.900466 2.731171,-1.584573 3.749697,-2.805453"
         stroke="inherit"
         stroke-width="inherit"
         fill="none"
         id="path82-9-3-9-7"
         style="stroke:#000000;stroke-width:0.8;stroke-linecap:round;stroke-linejoin:round;stroke-dasharray:none" /><path
         d="m 60.255149,44.950011 c 0.700139,-2.066999 1.641497,-4.000506 3.078131,-5.659925 0.219869,-0.301302 0.439738,-0.602604 0.659607,-0.903906"
         stroke="inherit"
         stroke-width="inherit"
         fill="none"
         id="path83-9-9-9-9"
         style="stroke:#000000;stroke-width:0.8;stroke-linecap:round;stroke-linejoin:round;stroke-dasharray:none" /><path
         d="m 53.600153,57.074867 c 0.159315,-1.30951 0.612688,-3.039013 0.739316,-4.536965 0.219768,-2.013344 1.299358,-3.827504 1.212244,-5.898639 0.083,-3.494544 1.213108,-6.814657 2.60667,-9.985206 -0.07911,-1.418708 0.709939,-2.839498 0.364652,-4.193545 l -0.06443,0.193326 -0.02672,0.08017"
         stroke="inherit"
         stroke-width="inherit"
         fill="none"
         id="path84-8-2-5-2"
         style="stroke:#000000;stroke-width:0.8;stroke-linecap:round;stroke-linejoin:round;stroke-dasharray:none" /><path
         d="m 58.523026,35.833579 c 0.303881,-0.212717 0.607763,-0.425434 0.911644,-0.638151"
         stroke="inherit"
         stroke-width="inherit"
         fill="none"
         id="path85-3-30-5-5"
         style="stroke:#000000;stroke-width:0.8;stroke-linecap:round;stroke-linejoin:round;stroke-dasharray:none" /><path
         d="m 55.788097,43.673712 c -0.13119,-0.732289 0.303296,-2.430779 -0.254808,-3.480664 -0.24394,-1.234151 -0.486084,-2.387319 -0.892124,-3.509895 -0.235868,-1.220137 0.04762,-2.488646 -0.311698,-3.675675"
         stroke="inherit"
         stroke-width="inherit"
         fill="none"
         id="path86-7-92-7-8"
         style="stroke:#000000;stroke-width:0.8;stroke-linecap:round;stroke-linejoin:round;stroke-dasharray:none" /><path
         d="m 53.50899,56.801374 c 0.365301,-2.00892 0.505979,-4.17491 -0.664913,-5.955722 -1.188856,-2.191361 -0.648727,-4.818405 -0.793722,-7.220217 -0.04882,-0.995621 0.07013,-1.972948 0.182329,-2.960148"
         stroke="inherit"
         stroke-width="inherit"
         fill="none"
         id="path87-12-7-8-3"
         style="stroke:#000000;stroke-width:0.8;stroke-linecap:round;stroke-linejoin:round;stroke-dasharray:none" /><path
         d="M 52.284699,49.136997 C 51.048157,47.540074 50.803722,45.880459 49.771251,44.129532"
         stroke="inherit"
         stroke-width="inherit"
         fill="none"
         id="path88-6-2-07-1"
         style="stroke:#000000;stroke-width:0.8;stroke-linecap:round;stroke-linejoin:round;stroke-dasharray:none"
         sodipodi:nodetypes="cc" /><path
         d="m 59.799327,50.875693 c -1.391875,-0.460961 0.876874,1.337408 0.195106,-0.295366 l -0.103938,-0.06929"
         stroke="inherit"
         stroke-width="inherit"
         fill="none"
         id="path89-1-2-5-5"
         style="stroke:#000000;stroke-width:0.8;stroke-linecap:round;stroke-linejoin:round;stroke-dasharray:none" /><path
         d="m 69.918568,33.463305 c -2.19023,1.418819 2.009485,0.917652 5e-6,0 z"
         stroke="inherit"
         stroke-width="inherit"
         fill="none"
         id="path90-7-79-2-7"
         style="stroke:#000000;stroke-width:0.8;stroke-linecap:round;stroke-linejoin:round;stroke-dasharray:none" /><path
         d="m 86.510477,33.372141 c -1.584718,-0.403667 -1.664774,2.379671 -0.04835,1.480109 1.184433,-0.01306 0.497828,-2.20428 -0.407469,-1.571268"
         stroke="inherit"
         stroke-width="inherit"
         fill="none"
         id="path91-6-30-7-5"
         style="stroke:#000000;stroke-width:0.8;stroke-linecap:round;stroke-linejoin:round;stroke-dasharray:none" /><path
         d="m 93.438966,40.938781 c -1.219052,-0.785299 -1.392503,2.018572 -0.02119,1.618487 1.1345,-0.02623 0.959555,-1.907517 -0.161141,-1.618501"
         stroke="inherit"
         stroke-width="inherit"
         fill="none"
         id="path92-5-9-3-0"
         style="stroke:#000000;stroke-width:0.8;stroke-linecap:round;stroke-linejoin:round;stroke-dasharray:none" /><path
         d="m 101.91725,36.2894 c -1.64672,-0.613286 -1.04774,2.007129 0.18233,0.911643 0.28334,-0.482904 0.51537,-1.291294 -0.36465,-1.185141"
         stroke="inherit"
         stroke-width="inherit"
         fill="none"
         id="path93-0-0-7-2"
         style="stroke:#000000;stroke-width:0.8;stroke-linecap:round;stroke-linejoin:round;stroke-dasharray:none" /><path
         d="m 111.94533,72.208147 c 1.51541,-0.90768 3.18809,-1.250029 4.8317,-1.823287"
         stroke="inherit"
         stroke-width="inherit"
         fill="none"
         id="path94-4-15-2-0"
         style="stroke:#000000;stroke-width:0.8;stroke-linecap:round;stroke-linejoin:round;stroke-dasharray:none" /><path
         d="m 74.476785,71.569997 -3.139029,3.151886"
         stroke="inherit"
         stroke-width="inherit"
         fill="none"
         id="path120-29-5-4"
         style="stroke:#000000;stroke-width:0.8;stroke-linecap:round;stroke-linejoin:round;stroke-dasharray:none"
         sodipodi:nodetypes="cc" /><g
         inkscape:label="strokefont"
         style="fill:none;stroke:#000000;stroke-width:0.463543;stroke-linecap:round;stroke-linejoin:round;stroke-dasharray:none"
         transform="matrix(1.8135947,0,0,1.8135947,-166.63398,-33.795534)"
         id="g1" /></g></g></svg>
