<?xml version="1.0" encoding="UTF-8" standalone="no"?>
<!-- Created with Inkscape (http://www.inkscape.org/) -->

<svg
   width="360mm"
   height="120mm"
   viewBox="0 0 360 120"
   version="1.1"
   id="svg1"
   xml:space="preserve"
   inkscape:version="1.3.2 (091e20e, 2023-11-25)"
   sodipodi:docname="CatBox.svg"
   xmlns:inkscape="http://www.inkscape.org/namespaces/inkscape"
   xmlns:sodipodi="http://sodipodi.sourceforge.net/DTD/sodipodi-0.dtd"
   xmlns:xlink="http://www.w3.org/1999/xlink"
   xmlns="http://www.w3.org/2000/svg"
   xmlns:svg="http://www.w3.org/2000/svg"><sodipodi:namedview
     id="namedview1"
     pagecolor="#ffffff"
     bordercolor="#000000"
     borderopacity="0.25"
     inkscape:showpageshadow="2"
     inkscape:pageopacity="0.0"
     inkscape:pagecheckerboard="0"
     inkscape:deskcolor="#d1d1d1"
     inkscape:document-units="mm"
     inkscape:zoom="0.20364513"
     inkscape:cx="665.37314"
     inkscape:cy="942.81656"
     inkscape:current-layer="layer1" /><defs
     id="defs1"><inkscape:path-effect
       back_thickness="0.25"
       front_thickness="1"
       stroke_width_bottom="1"
       stroke_width_top="1"
       fat_output="false"
       bottom_smth_variation="0;1"
       top_smth_variation="0;1"
       scale_tb="2"
       scale_tf="2"
       scale_bb="2"
       scale_bf="2"
       top_tgt_variation="0;1"
       bottom_tgt_variation="0;1"
       top_edge_variation="0;1"
       bottom_edge_variation="0;1"
       bender="1522.1071,406.78552 , 5,0"
       do_bend="true"
       growth="0"
       dist_rdm="0;1"
       direction="1522.1071,401.78552 , 20.946224,21.787234"
       is_visible="true"
       id="path-effect4116"
       effect="rough_hatches"
       lpeversion="0" /><linearGradient
       x1="1.9698247"
       y1="34.874969"
       x2="14.761634"
       xlink:href="#imagebot_35"
       y2="34.788586"
       id="imagebot_25"
       gradientTransform="scale(1.0944943,0.913664)"
       gradientUnits="userSpaceOnUse" /><linearGradient
       id="imagebot_35"><stop
         offset="0"
         stop-color="#9a5723"
         id="imagebot_39" /><stop
         offset="1"
         stop-color="#db9762"
         id="imagebot_38" /></linearGradient><linearGradient
       x2="6.4821496"
       y2="14.783549"
       y1="14.783549"
       xlink:href="#imagebot_35"
       id="imagebot_23"
       gradientTransform="scale(0.4868775,2.0539047)"
       x1="0.32040915"
       gradientUnits="userSpaceOnUse" /><linearGradient
       x2="14.128051"
       y2="24.911909"
       y1="12.332888"
       xlink:href="#imagebot_35"
       id="imagebot_21"
       gradientTransform="scale(1.143535,0.87448136)"
       x1="8.0067511"
       gradientUnits="userSpaceOnUse" /><linearGradient
       x1="-1.0948765"
       y1="9.0848875"
       x2="14.472001"
       xlink:href="#imagebot_35"
       y2="18.33567"
       id="imagebot_19"
       gradientTransform="scale(0.77089087,1.2972005)"
       gradientUnits="userSpaceOnUse" /><linearGradient
       x2="21.019093"
       y2="37.72084"
       y1="27.523834"
       xlink:href="#imagebot_35"
       id="imagebot_17"
       gradientTransform="scale(1.0540926,0.9486833)"
       x1="2.9940445"
       gradientUnits="userSpaceOnUse" /><linearGradient
       x2="28.298302"
       y2="13.339052"
       y1="8.3322973"
       xlink:href="#imagebot_35"
       id="imagebot_15"
       gradientTransform="scale(0.92429937,1.0819006)"
       x1="16.602846"
       gradientUnits="userSpaceOnUse" /><linearGradient
       x1="12.695371"
       y1="14.845891"
       x2="4.4375334"
       xlink:href="#imagebot_34"
       y2="13.40415"
       id="imagebot_13"
       gradientTransform="scale(0.74442254,1.3433231)"
       gradientUnits="userSpaceOnUse" /><linearGradient
       id="imagebot_34"><stop
         offset="0"
         stop-color="#7ed249"
         id="imagebot_37" /><stop
         offset="1"
         stop-color="#286325"
         id="imagebot_36" /></linearGradient><linearGradient
       x1="20.774029"
       y1="26.279816"
       x2="11.03502"
       xlink:href="#imagebot_34"
       y2="20.825972"
       id="imagebot_11"
       gradientTransform="scale(0.92514559,1.0809109)"
       gradientUnits="userSpaceOnUse" /><filter
       x="-0.153"
       height="1.3478"
       width="1.306"
       y="-0.17389999"
       id="imagebot_9"
       color-interpolation-filters="sRGB"><feGaussianBlur
         stdDeviation="0.25713"
         id="imagebot_33" /></filter><filter
       x="-0.21352001"
       height="1.4493001"
       width="1.427"
       y="-0.22465"
       id="imagebot_7"
       color-interpolation-filters="sRGB"><feGaussianBlur
         stdDeviation="0.25713"
         id="imagebot_32" /></filter><filter
       x="-0.13411"
       height="1.1229"
       width="1.2682"
       y="-0.061469998"
       id="imagebot_5"
       color-interpolation-filters="sRGB"><feGaussianBlur
         stdDeviation="0.21961"
         id="imagebot_31" /></filter><filter
       id="imagebot_3"
       color-interpolation-filters="sRGB"><feGaussianBlur
         stdDeviation="0.17322"
         id="imagebot_30" /></filter><inkscape:path-effect
       effect="rough_hatches"
       id="path-effect3982"
       is_visible="true"
       direction="1522.2031,401.90626 , 22.487883,24.510638"
       dist_rdm="0;1"
       growth="0"
       do_bend="true"
       bender="1522.2031,406.90626 , 5,0"
       bottom_edge_variation="0;1"
       top_edge_variation="0;1"
       bottom_tgt_variation="0;1"
       top_tgt_variation="0;1"
       scale_bf="2"
       scale_bb="2"
       scale_tf="2"
       scale_tb="2"
       top_smth_variation="0;1"
       bottom_smth_variation="0;1"
       fat_output="false"
       stroke_width_top="1"
       stroke_width_bottom="1"
       front_thickness="1"
       back_thickness="0.25"
       lpeversion="0" /><inkscape:path-effect
       back_thickness="0.25"
       front_thickness="1"
       stroke_width_bottom="1"
       stroke_width_top="1"
       fat_output="false"
       bottom_smth_variation="0;1"
       top_smth_variation="0;1"
       scale_tb="2"
       scale_tf="2"
       scale_bb="2"
       scale_bf="2"
       top_tgt_variation="0;1"
       bottom_tgt_variation="0;1"
       top_edge_variation="0;1"
       bottom_edge_variation="0;1"
       bender="1522.1071,406.78552 , 5,0"
       do_bend="true"
       growth="0"
       dist_rdm="0;1"
       direction="1522.1071,401.78552 , 20.946224,21.787234"
       is_visible="true"
       id="path-effect4116-3"
       effect="rough_hatches"
       lpeversion="0" /><rect
       x="761.89117"
       y="76.95871"
       width="304.75647"
       height="161.61328"
       id="rect97" /></defs><g
     inkscape:label="Layer 1"
     inkscape:groupmode="layer"
     id="layer1"
     transform="translate(-7.7985383,15)"><g
       id="g2"
       transform="translate(-9.5705395,-16.570632)"
       style="display:inline"
       inkscape:label="Cat Box"><g
         inkscape:label="Layer 1"
         id="layer1-9"><path
           d="m 78.439977,39.70785 c -1.017369,-4.643186 -2.350456,-9.226444 -2.889418,-13.960441 1.226552,-0.352111 2.321473,0.811562 3.490573,1.121017 2.521475,1.085659 4.577387,2.998569 6.889457,4.456313 1.727415,1.173859 0.756667,0.470157 1.974454,1.551666 2.351548,-0.49516 6.585465,-0.288122 8.821199,0.266084 1.168215,0.312389 1.829728,-1.177857 2.766617,-1.688429 2.444541,-2.275995 5.695381,-3.360148 8.486951,-5.137507 1.31387,-1.123331 0.50237,1.415722 0.72488,2.173018 0.0594,3.094089 -0.44917,6.181651 -0.88225,9.230868 -0.64211,1.883453 -1.20376,3.781051 -1.11285,5.793361 -0.007,2.102626 -0.25577,4.164797 -0.98617,6.146595 -0.69801,1.615507 -2.73027,2.069314 -4.06122,3.086602 C 95.527339,55.7775 86.404735,54.20708 80.37751,51.7992 79.083603,50.664463 78.601481,48.898378 77.838204,47.410738 76.932708,45.599824 76.887074,41.64742 78.35908,39.783032"
           stroke="inherit"
           stroke-width="inherit"
           fill="none"
           id="path1"
           style="stroke:#000000;stroke-width:0.8;stroke-linecap:round;stroke-linejoin:round;stroke-dasharray:none"
           sodipodi:nodetypes="cccccccccccccccc" /><path
           d="m 101.45854,42.427167 c -0.59377,0.384224 0.11112,1.535581 0.53147,0.669581 0.37212,-2.130454 -2.17603,-0.393685 -0.27532,0.23986"
           stroke="inherit"
           stroke-width="inherit"
           fill="none"
           id="path2"
           style="stroke:#000000;stroke-width:0.8;stroke-linecap:round;stroke-linejoin:round;stroke-dasharray:none"
           sodipodi:nodetypes="ccc" /><path
           d="m 85.025223,42.396054 c -1.500964,0.38726 0.0021,1.863466 0.252608,0.237445 0.05844,-0.518946 -0.603261,-0.563435 -0.848451,0.04888"
           stroke="inherit"
           stroke-width="inherit"
           fill="none"
           id="path3"
           style="stroke:#000000;stroke-width:0.8;stroke-linecap:round;stroke-linejoin:round;stroke-dasharray:none"
           sodipodi:nodetypes="ccc" /><path
           d="m 101.42317,35.197886 c 1.6009,-1.6009 3.2018,-3.201801 4.8027,-4.802702 -0.24516,2.602312 -0.50339,5.192825 -1.08448,7.746293"
           stroke="inherit"
           stroke-width="inherit"
           fill="none"
           id="path4"
           style="stroke:#000000;stroke-width:0.8;stroke-linecap:round;stroke-linejoin:round;stroke-dasharray:none" /><path
           d="m 80.043408,37.366847 c -0.464778,-2.168961 -0.929555,-4.337923 -1.394333,-6.506885 0.926565,-0.08844 1.583033,1.580827 2.397046,2.193168 0.462374,0.717888 1.41679,0.896577 1.785952,1.679978"
           stroke="inherit"
           stroke-width="inherit"
           fill="none"
           id="path5"
           style="stroke:#000000;stroke-width:0.8;stroke-linecap:round;stroke-linejoin:round;stroke-dasharray:none" /><path
           d="m 100.80347,53.63406 c 1.05201,3.972277 0.87896,8.124735 1.31085,12.188219 0.17713,1.869634 -0.0571,3.753929 -0.0714,5.628252"
           stroke="inherit"
           stroke-width="inherit"
           fill="none"
           id="path6"
           style="stroke:#000000;stroke-width:0.8;stroke-linecap:round;stroke-linejoin:round;stroke-dasharray:none" /><path
           d="m 93.212103,65.873201 c 0.257756,2.418109 -0.02034,4.955618 0.722213,7.280352 0.62842,0.924127 1.435458,1.79417 1.136897,2.998963 -0.295099,1.039306 -1.472514,1.584325 -2.52504,1.672558 -1.277589,0.215621 -2.588272,0.955051 -3.801369,0.149909 -1.195726,-0.276821 -2.155059,-0.857761 -2.671997,-2.007837 -1.297354,-1.479036 -1.050639,-3.600341 -1.563204,-5.404191 -0.291848,-1.838976 -0.634345,-4.057305 -2.452159,-4.999606"
           stroke="inherit"
           stroke-width="inherit"
           fill="none"
           id="path7"
           style="stroke:#000000;stroke-width:0.8;stroke-linecap:round;stroke-linejoin:round;stroke-dasharray:none"
           sodipodi:nodetypes="cccccccc" /><path
           d="m 102.13794,71.450531 c 0.73635,0.940993 1.84376,1.560564 1.45419,2.967925 0.0303,1.274634 -1.13448,2.708744 -2.49909,2.204859 -1.524785,-0.243828 -3.198707,-0.04667 -4.629465,-0.568517 L 95.071213,75.16875"
           stroke="inherit"
           stroke-width="inherit"
           fill="none"
           id="path8"
           style="stroke:#000000;stroke-width:0.8;stroke-linecap:round;stroke-linejoin:round;stroke-dasharray:none"
           sodipodi:nodetypes="ccccc" /><path
           d="m 84.536256,72.53501 c -1.333363,-1.223769 -3.261544,-0.373934 -4.866551,-0.354399 -0.133643,0.01484 -0.267284,0.0297 -0.400927,0.04455"
           stroke="inherit"
           stroke-width="inherit"
           fill="none"
           id="path9"
           style="stroke:#000000;stroke-width:0.8;stroke-linecap:round;stroke-linejoin:round;stroke-dasharray:none" /><path
           d="m 85.620738,76.563082 c -1.276804,0.658846 -2.355914,2.087106 -3.92407,1.612018 -1.630266,-0.116609 -3.313595,-0.03512 -4.709908,-1.025094 -1.277869,-0.759421 -2.903176,-1.129129 -3.958521,-2.138152 -1.179376,-1.520979 -1.48854,-3.487533 -1.963427,-5.295249 0.06977,-2.083136 -6.21e-4,-4.190542 0.868137,-6.13531 0.518552,-1.763988 0.98512,-3.553579 2.255598,-4.947254 1.283501,-2.379347 4.323261,-2.846575 6.009787,-4.845056 0.103287,-0.516419 0.206567,-1.032839 0.309852,-1.549258"
           stroke="inherit"
           stroke-width="inherit"
           fill="none"
           id="path10"
           style="stroke:#000000;stroke-width:0.8;stroke-linecap:round;stroke-linejoin:round;stroke-dasharray:none" /><path
           d="m 70.902784,67.577384 c -0.452871,0.974418 -4.612093,0.320822 -5.635769,-2.654132 -4.122091,-4.68596 0.54378,-21.121711 -0.299507,-24.713472 -0.598771,-2.370156 -2.658571,-4.583464 -5.122935,-5.136126 -2.406679,-0.0464 -4.096481,1.570792 -2.541217,3.734876 0.964895,1.130225 1.995976,0.665563 2.788293,2.000359 0.803451,0.73154 0.507843,2.11767 0.491452,3.11229 -1.635073,6.444459 -2.165565,12.16643 -1.664464,17.350195 1.747677,6.508017 2.042394,9.300138 7.647472,12.954973 1.786244,0.503403 4.075967,1.424619 5.853653,0.410135"
           stroke="inherit"
           stroke-width="inherit"
           fill="none"
           id="path11"
           style="stroke:#000000;stroke-width:0.8;stroke-linecap:round;stroke-linejoin:round;stroke-dasharray:none"
           sodipodi:nodetypes="cccccccccc" /><path
           d="m 104.21184,74.08427 c 0.19425,0.559277 2.02024,0.733358 2.8255,1.1484 1.07725,-0.01462 2.06756,0.434658 3.09155,0.710709 0.97059,0.159999 0.1779,2.083262 0.43491,2.95684 0.0409,4.696094 -0.15709,8.580037 -0.22242,13.275165"
           stroke="inherit"
           stroke-width="inherit"
           fill="none"
           id="path12"
           style="stroke:#000000;stroke-width:0.8;stroke-linecap:round;stroke-linejoin:round;stroke-dasharray:none"
           sodipodi:nodetypes="ccccc" /><path
           d="m 110.40887,92.210592 c -2.75025,0.879052 -5.48842,1.807149 -8.36599,2.168961 -2.48284,0.939869 -4.981035,1.819335 -7.614136,2.219731 -1.444313,0.336709 -2.220359,0.706958 -3.660688,0.860253"
           stroke="inherit"
           stroke-width="inherit"
           fill="none"
           id="path13"
           style="stroke:#000000;stroke-width:0.8;stroke-linecap:round;stroke-linejoin:round;stroke-dasharray:none"
           sodipodi:nodetypes="cccc" /><path
           d="m 72.761894,75.633528 c -2.270396,0.472898 -4.563401,0.873968 -6.816737,1.394332 0.14954,4.134653 0.195183,8.267603 -0.154926,12.394066 0.103287,0.981197 0.206567,1.962394 0.309852,2.943591"
           stroke="inherit"
           stroke-width="inherit"
           fill="none"
           id="path14"
           style="stroke:#000000;stroke-width:0.8;stroke-linecap:round;stroke-linejoin:round;stroke-dasharray:none" /><path
           d="m 66.127663,92.520444 c 0.758718,-0.107794 1.814815,0.665169 2.818311,0.896988 3.486204,0.663404 6.847428,1.896439 10.33674,2.50796 2.910501,0.506245 5.917242,0.600362 8.763876,1.380099 l 2.459588,0.07751"
           stroke="inherit"
           stroke-width="inherit"
           fill="none"
           id="path15"
           style="stroke:#000000;stroke-width:0.8;stroke-linecap:round;stroke-linejoin:round;stroke-dasharray:none"
           sodipodi:nodetypes="ccccc" /><path
           d="m 90.733291,81.520709 c 0.08425,5.264216 -0.180213,10.548899 0.154925,15.802435"
           stroke="inherit"
           stroke-width="inherit"
           fill="none"
           id="path16"
           style="stroke:#000000;stroke-width:0.8;stroke-linecap:round;stroke-linejoin:round;stroke-dasharray:none" /><path
           d="m 110.40887,76.718009 c -1.20799,-0.280153 -2.42719,0.627341 -3.6398,0.837269 -0.8563,0.278781 -1.73202,0.50103 -2.55723,0.866915"
           stroke="inherit"
           stroke-width="inherit"
           fill="none"
           id="path17"
           style="stroke:#000000;stroke-width:0.8;stroke-linecap:round;stroke-linejoin:round;stroke-dasharray:none" /><path
           d="m 101.80051,76.845354 c 2.37756,-0.486401 2.23653,1.737577 2.04585,3.388848 -0.0156,4.24504 -0.33778,8.503757 -0.15219,12.739825 0.0176,0.158656 0.0353,0.317314 0.0529,0.475971"
           stroke="inherit"
           stroke-width="inherit"
           fill="none"
           id="path18"
           style="stroke:#000000;stroke-width:0.8;stroke-linecap:round;stroke-linejoin:round;stroke-dasharray:none"
           sodipodi:nodetypes="cccc" /><path
           d="m 93.979106,77.445105 c 2.60327,0.680887 6.362234,1.355122 5.187709,4.880794 0.0067,4.224545 -0.03193,8.449006 -0.06754,12.673357"
           stroke="inherit"
           stroke-width="inherit"
           fill="none"
           id="path19"
           style="stroke:#000000;stroke-width:0.8;stroke-linecap:round;stroke-linejoin:round;stroke-dasharray:none"
           sodipodi:nodetypes="ccc" /><path
           d="M 90.638224,81.595823 98.479582,79.6616"
           stroke="inherit"
           stroke-width="inherit"
           fill="none"
           id="path20"
           style="stroke:#000000;stroke-width:0.8;stroke-linecap:round;stroke-linejoin:round;stroke-dasharray:none"
           sodipodi:nodetypes="cc" /><path
           d="m 90.888216,81.520709 c -3.697311,-0.06001 -6.916892,-0.736788 -10.38003,-1.084481"
           stroke="inherit"
           stroke-width="inherit"
           fill="none"
           id="path21"
           style="stroke:#000000;stroke-width:0.8;stroke-linecap:round;stroke-linejoin:round;stroke-dasharray:none"
           sodipodi:nodetypes="cc" /><path
           d="m 75.395633,78.88697 c -2.724722,-0.220887 -5.444866,-0.44211 -8.079549,-1.210179 -0.246266,0.02878 -1.791506,-0.564059 -1.370927,-0.184154"
           stroke="inherit"
           stroke-width="inherit"
           fill="none"
           id="path22"
           style="stroke:#000000;stroke-width:0.8;stroke-linecap:round;stroke-linejoin:round;stroke-dasharray:none" /><path
           d="m 80.198334,80.901006 c -0.07414,3.678468 -0.322834,7.363919 0.259888,11.016102 0.21895,1.314371 0.219669,2.557225 -0.104965,3.856778"
           stroke="inherit"
           stroke-width="inherit"
           fill="none"
           id="path23"
           style="stroke:#000000;stroke-width:0.8;stroke-linecap:round;stroke-linejoin:round;stroke-dasharray:none" /><path
           d="m 74.930856,79.049522 c 0.05164,5.422405 0.103287,10.372404 0.154925,15.794809"
           stroke="inherit"
           stroke-width="inherit"
           fill="none"
           id="path24"
           style="stroke:#000000;stroke-width:0.8;stroke-linecap:round;stroke-linejoin:round;stroke-dasharray:none"
           sodipodi:nodetypes="cc" /><path
           d="m 75.57814,78.732045 2.606158,-0.77463"
           stroke="inherit"
           stroke-width="inherit"
           fill="none"
           id="path25"
           style="stroke:#000000;stroke-width:0.8;stroke-linecap:round;stroke-linejoin:round;stroke-dasharray:none"
           sodipodi:nodetypes="cc" /><path
           d="m 80.508186,80.436228 c 2.060664,-0.785602 5.106543,-1.74989 7.141842,-2.593833"
           stroke="inherit"
           stroke-width="inherit"
           fill="none"
           id="path26"
           style="stroke:#000000;stroke-width:0.8;stroke-linecap:round;stroke-linejoin:round;stroke-dasharray:none"
           sodipodi:nodetypes="cc" /><path
           d="m 92.127622,45.887768 c 0.222932,-0.323388 2.125024,0.128636 2.976713,0.09561 1.6642,-0.256577 1.251504,0.867035 0.633238,1.912849 -0.485064,1.185476 -1.951452,0.998624 -2.530812,-0.06386 -0.514322,-0.418836 -0.948056,-0.873091 -1.234064,-1.479808 z"
           stroke="inherit"
           stroke-width="inherit"
           fill="none"
           id="path27"
           style="stroke:#000000;stroke-width:0.8;stroke-linecap:round;stroke-linejoin:round;stroke-dasharray:none"
           sodipodi:nodetypes="cccccc" /><path
           d="m 94.141658,48.986285 c -0.114732,1.147805 -1.136469,1.857297 -2.226684,1.820417 -0.858672,-0.09039 -1.717344,-0.180773 -2.576016,-0.271159"
           stroke="inherit"
           stroke-width="inherit"
           fill="none"
           id="path28"
           style="stroke:#000000;stroke-width:0.8;stroke-linecap:round;stroke-linejoin:round;stroke-dasharray:none" /><path
           d="m 94.237098,49.081725 c -0.0345,1.270382 1.183234,1.862974 2.099925,2.05852 0.402814,-0.219858 0.46919,0.06678 1.988007,-0.676515"
           stroke="inherit"
           stroke-width="inherit"
           fill="none"
           id="path29"
           style="stroke:#000000;stroke-width:0.8;stroke-linecap:round;stroke-linejoin:round;stroke-dasharray:none"
           sodipodi:nodetypes="ccc" /><path
           d="m 104.21184,46.042694 c 1.18904,-0.357476 2.43531,0.312488 3.53275,-0.460522 0.88785,-0.310428 1.74212,-0.734063 2.66428,-0.933811"
           stroke="inherit"
           stroke-width="inherit"
           fill="none"
           id="path30"
           style="stroke:#000000;stroke-width:0.8;stroke-linecap:round;stroke-linejoin:round;stroke-dasharray:none" /><path
           d="m 104.05691,48.986285 c 2.27225,0.154925 4.54449,0.309851 6.81674,0.464777"
           stroke="inherit"
           stroke-width="inherit"
           fill="none"
           id="path31"
           style="stroke:#000000;stroke-width:0.8;stroke-linecap:round;stroke-linejoin:round;stroke-dasharray:none" /><path
           d="m 79.733556,46.507471 c -0.913634,0.252857 -2.067167,-0.560601 -3.121804,-0.358015 -1.021654,-0.09705 -2.083842,0.03418 -3.075229,-0.261688"
           stroke="inherit"
           stroke-width="inherit"
           fill="none"
           id="path32"
           style="stroke:#000000;stroke-width:0.8;stroke-linecap:round;stroke-linejoin:round;stroke-dasharray:none" /><path
           d="m 80.663111,48.986285 c -2.065678,0.671345 -4.131355,1.34269 -6.197033,2.014036"
           stroke="inherit"
           stroke-width="inherit"
           fill="none"
           id="path33"
           style="stroke:#000000;stroke-width:0.8;stroke-linecap:round;stroke-linejoin:round;stroke-dasharray:none" /><path
           d="m 107.15543,83.37982 c 0.10329,-0.722988 0.20657,-1.445975 0.30985,-2.168963"
           stroke="inherit"
           stroke-width="inherit"
           fill="none"
           id="path34"
           style="stroke:#000000;stroke-width:0.8;stroke-linecap:round;stroke-linejoin:round;stroke-dasharray:none" /><path
           d="m 107.31035,83.37982 c 0.56806,-0.25821 1.13613,-0.51642 1.70419,-0.77463"
           stroke="inherit"
           stroke-width="inherit"
           fill="none"
           id="path35"
           style="stroke:#000000;stroke-width:0.8;stroke-linecap:round;stroke-linejoin:round;stroke-dasharray:none" /><path
           d="m 107.46528,83.689671 c 0.36304,0.716299 1.26555,1.289533 1.08448,2.168962"
           stroke="inherit"
           stroke-width="inherit"
           fill="none"
           id="path36"
           style="stroke:#000000;stroke-width:0.8;stroke-linecap:round;stroke-linejoin:round;stroke-dasharray:none" /><path
           d="m 107.0005,83.689671 c -0.30985,0.877913 -0.6197,1.755827 -0.92955,2.63374"
           stroke="inherit"
           stroke-width="inherit"
           fill="none"
           id="path37"
           style="stroke:#000000;stroke-width:0.8;stroke-linecap:round;stroke-linejoin:round;stroke-dasharray:none" /><path
           d="m 107.0005,83.689671 c -0.46478,-0.206568 -0.92955,-0.413135 -1.39433,-0.619704"
           stroke="inherit"
           stroke-width="inherit"
           fill="none"
           id="path38"
           style="stroke:#000000;stroke-width:0.8;stroke-linecap:round;stroke-linejoin:round;stroke-dasharray:none" /><path
           d="m 95.226139,86.168484 c -0.05164,-0.516419 -0.103287,-1.032839 -0.154926,-1.549258"
           stroke="inherit"
           stroke-width="inherit"
           fill="none"
           id="path39"
           style="stroke:#000000;stroke-width:0.8;stroke-linecap:round;stroke-linejoin:round;stroke-dasharray:none" /><path
           d="M 93.601767,87.030553 95.206186,86.89558"
           stroke="inherit"
           stroke-width="inherit"
           fill="none"
           id="path40"
           style="stroke:#000000;stroke-width:0.8;stroke-linecap:round;stroke-linejoin:round;stroke-dasharray:none"
           sodipodi:nodetypes="cc" /><path
           d="M 95.535991,86.633262 C 96.155694,86.220126 96.775397,85.80699 97.3951,85.393855"
           stroke="inherit"
           stroke-width="inherit"
           fill="none"
           id="path41"
           style="stroke:#000000;stroke-width:0.8;stroke-linecap:round;stroke-linejoin:round;stroke-dasharray:none" /><path
           d="m 95.381064,86.788187 c -0.49871,0.728448 1.574314,1.780991 1.394333,2.168963"
           stroke="inherit"
           stroke-width="inherit"
           fill="none"
           id="path42"
           style="stroke:#000000;stroke-width:0.8;stroke-linecap:round;stroke-linejoin:round;stroke-dasharray:none" /><path
           d="m 95.381064,87.252965 c -0.413135,1.032839 -0.82627,2.065677 -1.239406,3.098516"
           stroke="inherit"
           stroke-width="inherit"
           fill="none"
           id="path43"
           style="stroke:#000000;stroke-width:0.8;stroke-linecap:round;stroke-linejoin:round;stroke-dasharray:none" /><path
           d="m 82.212369,86.323411 c 0.507799,0.584269 2.476215,0.638357 2.885152,0.444383 -0.08873,-0.620866 -0.823981,-1.79239 -0.561265,-2.148568"
           stroke="inherit"
           stroke-width="inherit"
           fill="none"
           id="path44"
           style="stroke:#000000;stroke-width:0.8;stroke-linecap:round;stroke-linejoin:round;stroke-dasharray:none" /><path
           d="m 85.465812,86.943114 c 0.419102,-0.399181 0.689221,-1.012611 1.239407,-1.239408"
           stroke="inherit"
           stroke-width="inherit"
           fill="none"
           id="path45"
           style="stroke:#000000;stroke-width:0.8;stroke-linecap:round;stroke-linejoin:round;stroke-dasharray:none" /><path
           d="m 85.465812,87.40789 c 0.361494,0.877913 0.722987,1.755827 1.08448,2.63374"
           stroke="inherit"
           stroke-width="inherit"
           fill="none"
           id="path46"
           style="stroke:#000000;stroke-width:0.8;stroke-linecap:round;stroke-linejoin:round;stroke-dasharray:none" /><path
           d="m 85.465812,87.098039 c -0.774629,0.722987 -1.549257,1.445975 -2.323887,2.168962"
           stroke="inherit"
           stroke-width="inherit"
           fill="none"
           id="path47"
           style="stroke:#000000;stroke-width:0.8;stroke-linecap:round;stroke-linejoin:round;stroke-dasharray:none" /><path
           d="m 70.128154,85.393855 c -0.516418,0.464778 -1.032839,0.929554 -1.549258,1.394332"
           stroke="inherit"
           stroke-width="inherit"
           fill="none"
           id="path48"
           style="stroke:#000000;stroke-width:0.8;stroke-linecap:round;stroke-linejoin:round;stroke-dasharray:none" /><path
           d="m 70.438006,85.084003 c 0.361494,0.929555 0.722987,1.859111 1.084481,2.788666"
           stroke="inherit"
           stroke-width="inherit"
           fill="none"
           id="path49"
           style="stroke:#000000;stroke-width:0.8;stroke-linecap:round;stroke-linejoin:round;stroke-dasharray:none" /><path
           d="m 70.128154,84.774151 c 0.929555,0.103287 1.859111,0.206568 2.788666,0.309852"
           stroke="inherit"
           stroke-width="inherit"
           fill="none"
           id="path50"
           style="stroke:#000000;stroke-width:0.8;stroke-linecap:round;stroke-linejoin:round;stroke-dasharray:none" /><path
           d="M 70.283081,85.393855 C 69.663378,84.515942 69.043673,83.638028 68.42397,82.760115"
           stroke="inherit"
           stroke-width="inherit"
           fill="none"
           id="path51"
           style="stroke:#000000;stroke-width:0.8;stroke-linecap:round;stroke-linejoin:round;stroke-dasharray:none" /><path
           d="M 70.747858,84.4643 C 70.090597,83.54418 70.058871,82.609581 70.128154,81.520709"
           stroke="inherit"
           stroke-width="inherit"
           fill="none"
           id="path52"
           style="stroke:#000000;stroke-width:0.8;stroke-linecap:round;stroke-linejoin:round;stroke-dasharray:none" /></g></g></g></svg>
