<?xml version="1.0" encoding="UTF-8" standalone="no"?>
<!-- Created with Inkscape (http://www.inkscape.org/) -->

<svg
   width="360mm"
   height="120mm"
   viewBox="0 0 360 120"
   version="1.1"
   id="svg1"
   xml:space="preserve"
   inkscape:version="1.3.2 (091e20e, 2023-11-25)"
   sodipodi:docname="CatWreath.svg"
   xmlns:inkscape="http://www.inkscape.org/namespaces/inkscape"
   xmlns:sodipodi="http://sodipodi.sourceforge.net/DTD/sodipodi-0.dtd"
   xmlns:xlink="http://www.w3.org/1999/xlink"
   xmlns="http://www.w3.org/2000/svg"
   xmlns:svg="http://www.w3.org/2000/svg"><sodipodi:namedview
     id="namedview1"
     pagecolor="#ffffff"
     bordercolor="#000000"
     borderopacity="0.25"
     inkscape:showpageshadow="2"
     inkscape:pageopacity="0.0"
     inkscape:pagecheckerboard="0"
     inkscape:deskcolor="#d1d1d1"
     inkscape:document-units="mm"
     inkscape:zoom="0.20364513"
     inkscape:cx="665.37314"
     inkscape:cy="942.81656"
     inkscape:current-layer="layer1" /><defs
     id="defs1"><inkscape:path-effect
       back_thickness="0.25"
       front_thickness="1"
       stroke_width_bottom="1"
       stroke_width_top="1"
       fat_output="false"
       bottom_smth_variation="0;1"
       top_smth_variation="0;1"
       scale_tb="2"
       scale_tf="2"
       scale_bb="2"
       scale_bf="2"
       top_tgt_variation="0;1"
       bottom_tgt_variation="0;1"
       top_edge_variation="0;1"
       bottom_edge_variation="0;1"
       bender="1522.1071,406.78552 , 5,0"
       do_bend="true"
       growth="0"
       dist_rdm="0;1"
       direction="1522.1071,401.78552 , 20.946224,21.787234"
       is_visible="true"
       id="path-effect4116"
       effect="rough_hatches"
       lpeversion="0" /><linearGradient
       x1="1.9698247"
       y1="34.874969"
       x2="14.761634"
       xlink:href="#imagebot_35"
       y2="34.788586"
       id="imagebot_25"
       gradientTransform="scale(1.0944943,0.913664)"
       gradientUnits="userSpaceOnUse" /><linearGradient
       id="imagebot_35"><stop
         offset="0"
         stop-color="#9a5723"
         id="imagebot_39" /><stop
         offset="1"
         stop-color="#db9762"
         id="imagebot_38" /></linearGradient><linearGradient
       x2="6.4821496"
       y2="14.783549"
       y1="14.783549"
       xlink:href="#imagebot_35"
       id="imagebot_23"
       gradientTransform="scale(0.4868775,2.0539047)"
       x1="0.32040915"
       gradientUnits="userSpaceOnUse" /><linearGradient
       x2="14.128051"
       y2="24.911909"
       y1="12.332888"
       xlink:href="#imagebot_35"
       id="imagebot_21"
       gradientTransform="scale(1.143535,0.87448136)"
       x1="8.0067511"
       gradientUnits="userSpaceOnUse" /><linearGradient
       x1="-1.0948765"
       y1="9.0848875"
       x2="14.472001"
       xlink:href="#imagebot_35"
       y2="18.33567"
       id="imagebot_19"
       gradientTransform="scale(0.77089087,1.2972005)"
       gradientUnits="userSpaceOnUse" /><linearGradient
       x2="21.019093"
       y2="37.72084"
       y1="27.523834"
       xlink:href="#imagebot_35"
       id="imagebot_17"
       gradientTransform="scale(1.0540926,0.9486833)"
       x1="2.9940445"
       gradientUnits="userSpaceOnUse" /><linearGradient
       x2="28.298302"
       y2="13.339052"
       y1="8.3322973"
       xlink:href="#imagebot_35"
       id="imagebot_15"
       gradientTransform="scale(0.92429937,1.0819006)"
       x1="16.602846"
       gradientUnits="userSpaceOnUse" /><linearGradient
       x1="12.695371"
       y1="14.845891"
       x2="4.4375334"
       xlink:href="#imagebot_34"
       y2="13.40415"
       id="imagebot_13"
       gradientTransform="scale(0.74442254,1.3433231)"
       gradientUnits="userSpaceOnUse" /><linearGradient
       id="imagebot_34"><stop
         offset="0"
         stop-color="#7ed249"
         id="imagebot_37" /><stop
         offset="1"
         stop-color="#286325"
         id="imagebot_36" /></linearGradient><linearGradient
       x1="20.774029"
       y1="26.279816"
       x2="11.03502"
       xlink:href="#imagebot_34"
       y2="20.825972"
       id="imagebot_11"
       gradientTransform="scale(0.92514559,1.0809109)"
       gradientUnits="userSpaceOnUse" /><filter
       x="-0.153"
       height="1.3478"
       width="1.306"
       y="-0.17389999"
       id="imagebot_9"
       color-interpolation-filters="sRGB"><feGaussianBlur
         stdDeviation="0.25713"
         id="imagebot_33" /></filter><filter
       x="-0.21352001"
       height="1.4493001"
       width="1.427"
       y="-0.22465"
       id="imagebot_7"
       color-interpolation-filters="sRGB"><feGaussianBlur
         stdDeviation="0.25713"
         id="imagebot_32" /></filter><filter
       x="-0.13411"
       height="1.1229"
       width="1.2682"
       y="-0.061469998"
       id="imagebot_5"
       color-interpolation-filters="sRGB"><feGaussianBlur
         stdDeviation="0.21961"
         id="imagebot_31" /></filter><filter
       id="imagebot_3"
       color-interpolation-filters="sRGB"><feGaussianBlur
         stdDeviation="0.17322"
         id="imagebot_30" /></filter><inkscape:path-effect
       effect="rough_hatches"
       id="path-effect3982"
       is_visible="true"
       direction="1522.2031,401.90626 , 22.487883,24.510638"
       dist_rdm="0;1"
       growth="0"
       do_bend="true"
       bender="1522.2031,406.90626 , 5,0"
       bottom_edge_variation="0;1"
       top_edge_variation="0;1"
       bottom_tgt_variation="0;1"
       top_tgt_variation="0;1"
       scale_bf="2"
       scale_bb="2"
       scale_tf="2"
       scale_tb="2"
       top_smth_variation="0;1"
       bottom_smth_variation="0;1"
       fat_output="false"
       stroke_width_top="1"
       stroke_width_bottom="1"
       front_thickness="1"
       back_thickness="0.25"
       lpeversion="0" /><inkscape:path-effect
       back_thickness="0.25"
       front_thickness="1"
       stroke_width_bottom="1"
       stroke_width_top="1"
       fat_output="false"
       bottom_smth_variation="0;1"
       top_smth_variation="0;1"
       scale_tb="2"
       scale_tf="2"
       scale_bb="2"
       scale_bf="2"
       top_tgt_variation="0;1"
       bottom_tgt_variation="0;1"
       top_edge_variation="0;1"
       bottom_edge_variation="0;1"
       bender="1522.1071,406.78552 , 5,0"
       do_bend="true"
       growth="0"
       dist_rdm="0;1"
       direction="1522.1071,401.78552 , 20.946224,21.787234"
       is_visible="true"
       id="path-effect4116-3"
       effect="rough_hatches"
       lpeversion="0" /><rect
       x="761.89117"
       y="76.95871"
       width="304.75647"
       height="161.61328"
       id="rect97" /></defs><g
     inkscape:label="Layer 1"
     inkscape:groupmode="layer"
     id="layer1"
     transform="translate(-7.7985383,15)"><g
       inkscape:label="Cat Wreath"
       id="layer1-5"
       transform="translate(-5.4379421,-14.944367)"
       style="display:inline"><path
         d="m 85.107041,41.089543 c 0.466143,-0.327283 5.693491,-1.538262 10.208609,0.359614"
         stroke="inherit"
         stroke-width="1.07817"
         fill="none"
         id="path2-8"
         style="stroke:#000000;stroke-width:0.8;stroke-linecap:round;stroke-linejoin:round;stroke-dasharray:none"
         sodipodi:nodetypes="cc" /><path
         d="m 95.40886,41.561541 c 3.380351,-2.583736 6.48629,-5.56542 10.05505,-7.875935 1.44769,-1.279115 1.81405,-0.68488 2.46233,0.805974 0.94941,1.466361 0.36967,3.426824 0.65512,5.107722 0.15849,2.615043 0.32122,5.221548 -0.3329,7.784909"
         stroke="inherit"
         stroke-width="1.07817"
         fill="none"
         id="path3-1"
         style="stroke:#000000;stroke-width:0.8;stroke-linecap:round;stroke-linejoin:round;stroke-dasharray:none" /><path
         d="m 108.37948,46.829671 c 0.48318,3.675931 1.17178,7.357737 1.52796,11.030036 -0.655,3.380073 -1.16012,7.030411 -3.67887,9.601721 -1.49693,2.451042 -4.56166,2.882845 -7.020239,3.906643 -5.897228,0.07681 -11.794703,-0.08362 -17.648024,-0.847669 -2.210029,-0.192205 -4.444384,-0.285781 -6.429118,-1.391466 -1.609901,-1.002461 -2.255437,-3.013738 -3.080662,-4.633137 -0.493638,-3.051575 -1.311802,-6.082639 -0.865153,-9.193643 -0.09497,-2.647522 0.811875,-5.147219 1.107773,-7.755904 -0.38621,-1.125099 -0.135109,-2.813565 -0.205198,-4.195958 -0.115889,-3.71116 0.335874,-7.440637 1.178855,-11.048474 0.01273,-2.118181 1.11909,-1.156858 2.168648,-0.15545 2.409233,2.383831 5.449922,4.051407 7.75465,6.522565 0.585344,0.757589 1.307049,1.728473 2.014994,2.454798"
         stroke="inherit"
         stroke-width="1.07817"
         fill="none"
         id="path4-4"
         style="stroke:#000000;stroke-width:0.8;stroke-linecap:round;stroke-linejoin:round;stroke-dasharray:none"
         sodipodi:nodetypes="cccccccccccccc" /><path
         d="m 78.376729,54.870501 c -1.323941,-0.849964 -1.330001,2.642263 0.259816,1.825753 1.684369,-0.30425 -0.0438,-3.295023 -0.494227,-1.760182 -1.030062,2.071212 1.406393,1.423743 0.275466,0.189792 -0.491356,-0.352121 -0.669026,0.400688 -0.05411,0.503517"
         stroke="inherit"
         stroke-width="1.07817"
         fill="none"
         id="path5-7"
         style="stroke:#000000;stroke-width:0.8;stroke-linecap:round;stroke-linejoin:round;stroke-dasharray:none"
         sodipodi:nodetypes="ccccc" /><path
         d="m 102.87679,54.870501 c -1.6289,-0.674084 -1.92687,2.229101 -0.30128,1.905468 1.58558,-0.140306 -0.25185,-3.286791 -0.60794,-1.254063 -0.69551,2.2145 2.33342,-0.905884 0.75744,-0.629433 -0.15742,0.282007 -0.64626,0.465125 -0.63432,0.809839"
         stroke="inherit"
         stroke-width="1.07817"
         fill="none"
         id="path6-1"
         style="stroke:#000000;stroke-width:0.8;stroke-linecap:round;stroke-linejoin:round;stroke-dasharray:none" /><path
         d="m 87.809906,57.365932 c 1.703208,0.04645 3.405319,0.15519 5.109638,0.138634 0.232661,1.404195 -0.733666,2.76753 -1.310161,4.020416 -1.501579,-0.681347 -3.098571,-2.676013 -3.799179,-4.118671"
         stroke="inherit"
         stroke-width="1.07817"
         fill="none"
         id="path7-3"
         style="stroke:#000000;stroke-width:0.8;stroke-linecap:round;stroke-linejoin:round;stroke-dasharray:none"
         sodipodi:nodetypes="cccc" /><path
         d="m 91.47837,61.524982 c 0.678685,2.083108 3.373386,3.095116 5.246446,1.948601 0.517032,-0.132419 0.871756,-0.553038 1.304367,-0.839521"
         stroke="inherit"
         stroke-width="1.07817"
         fill="none"
         id="path8-8"
         style="stroke:#000000;stroke-width:0.8;stroke-linecap:round;stroke-linejoin:round;stroke-dasharray:none" /><path
         d="m 91.085316,61.386347 c -0.261868,1.818849 -1.994456,2.175695 -3.31072,2.9806 -1.116955,0.439004 -3.02372,0.791153 -3.98514,-0.2079"
         stroke="inherit"
         stroke-width="1.07817"
         fill="none"
         id="path9-4"
         style="stroke:#000000;stroke-width:0.8;stroke-linecap:round;stroke-linejoin:round;stroke-dasharray:none"
         sodipodi:nodetypes="ccc" /><path
         d="m 100.78053,43.086527 c -0.73875,0.451295 1.49533,-1.778881 1.9312,-2.38709 1.29284,-2.105394 1.35475,0.166898 1.21319,1.490621 0.10677,1.024576 0.17139,3.43378 -1.36968,2.043377 -0.78337,-0.431863 -0.84871,-1.338065 -1.78777,-1.139564"
         stroke="inherit"
         stroke-width="1.07817"
         fill="none"
         id="path10-8"
         style="stroke:#000000;stroke-width:0.8;stroke-linecap:round;stroke-linejoin:round;stroke-dasharray:none"
         sodipodi:nodetypes="ccccc" /><path
         d="m 76.572296,43.079312 c 0.232351,-1.27192 -0.567121,-2.153476 0.142751,-3.225335 0.683831,0.82042 2.2065,1.428114 2.578797,2.400739 -0.815273,0.209176 -2.089495,0.791901 -2.620323,0.831811"
         stroke="inherit"
         stroke-width="1.07817"
         fill="none"
         id="path11-0"
         style="stroke:#000000;stroke-width:0.8;stroke-linecap:round;stroke-linejoin:round;stroke-dasharray:none"
         sodipodi:nodetypes="cccc" /><path
         d="m 104.97305,60.831807 c 0.90252,-0.327862 2.56835,-0.04298 3.75665,-0.138635 1.73611,0.04818 3.52379,-0.251436 5.15246,-0.831811"
         stroke="inherit"
         stroke-width="1.07817"
         fill="none"
         id="path12-4"
         style="stroke:#000000;stroke-width:0.8;stroke-linecap:round;stroke-linejoin:round;stroke-dasharray:none" /><path
         d="m 105.23509,63.327236 c -0.0987,-0.159868 2.35184,0.488805 3.27068,0.538358 1.77111,0.336152 3.62682,0.652371 5.37639,0.154818"
         stroke="inherit"
         stroke-width="1.07817"
         fill="none"
         id="path13-6"
         style="stroke:#000000;stroke-width:0.8;stroke-linecap:round;stroke-linejoin:round;stroke-dasharray:none" /><path
         d="m 73.39811,58.752282 c -1.307762,0.439894 -2.604774,0.450442 -3.887924,-0.09272 -1.333327,-0.403414 -2.791679,-1.106788 -3.44899,-2.402715"
         stroke="inherit"
         stroke-width="1.07817"
         fill="none"
         id="path14-0"
         style="stroke:#000000;stroke-width:0.8;stroke-linecap:round;stroke-linejoin:round;stroke-dasharray:none" /><path
         d="m 74.315225,61.940887 c -2.547481,0.155732 -5.156662,0.06939 -7.665747,0.375771 -0.400495,0.109738 -2.758957,1.486334 -1.89845,1.010578"
         stroke="inherit"
         stroke-width="1.07817"
         fill="none"
         id="path15-3"
         style="stroke:#000000;stroke-width:0.8;stroke-linecap:round;stroke-linejoin:round;stroke-dasharray:none" /><path
         d="m 90.954302,86.340649 c -0.779797,-0.821149 -2.807,-0.812532 -3.857451,0.245088 -2.662851,1.032987 -1.374301,7.414672 2.776119,6.825297 1.591248,0.255632 3.02071,-0.924615 3.570641,-2.356793 1.048937,1.63831 2.689124,2.844286 4.413504,3.604509 1.369408,0.144857 2.650595,-0.02117 3.709515,-0.970445 -0.55771,-1.553149 0.83583,-2.590031 1.44118,-3.88178 0.22319,-1.696205 -0.80149,-3.176825 -2.29252,-3.908567 -1.16588,-1.17873 -8.589036,-0.564574 -9.78876,0.464533"
         stroke="inherit"
         stroke-width="1.07817"
         fill="none"
         id="path16-2"
         style="stroke:#000000;stroke-width:0.8;stroke-linecap:round;stroke-linejoin:round;stroke-dasharray:none"
         sodipodi:nodetypes="ccccccccc" /><path
         d="m 91.085316,86.479288 1.485265,1.473964 c 0.308417,0.200675 0.981585,2.661021 0.742017,3.37826"
         stroke="inherit"
         stroke-width="1.07817"
         fill="none"
         id="path17-6"
         style="stroke:#000000;stroke-width:0.8;stroke-linecap:round;stroke-linejoin:round;stroke-dasharray:none"
         sodipodi:nodetypes="ccc" /><path
         d="m 93.574631,89.251984 c 0.860536,-0.325946 2.053251,-0.359784 2.751344,0.27727"
         stroke="inherit"
         stroke-width="1.07817"
         fill="none"
         id="path19-9"
         style="stroke:#000000;stroke-width:0.8;stroke-linecap:round;stroke-linejoin:round;stroke-dasharray:none" /><path
         d="m 85.58263,87.172462 c -1.809463,-0.666479 -3.466663,-2.014499 -5.379523,-2.218164 -1.219853,0.142001 -1.50874,2.002956 -2.313177,2.875972 -0.798033,1.127196 -1.54797,2.609789 -1.053545,3.927869 1.135992,0.985292 2.283114,2.334755 3.720705,2.711395 1.930199,-0.354303 3.317643,-2.075459 5.15656,-2.722119"
         stroke="inherit"
         stroke-width="1.07817"
         fill="none"
         id="path20-4"
         style="stroke:#000000;stroke-width:0.8;stroke-linecap:round;stroke-linejoin:round;stroke-dasharray:none" /><path
         d="m 85.81548,89.288382 c -2.082987,-1.373627 -3.653828,-0.842235 -3.873961,0.423185"
         stroke="inherit"
         stroke-width="1.07817"
         fill="none"
         id="path21-1"
         style="stroke:#000000;stroke-width:0.8;stroke-linecap:round;stroke-linejoin:round;stroke-dasharray:none"
         sodipodi:nodetypes="cc" /><path
         d="m 86.892792,92.301957 c -0.782635,2.266595 -2.638033,3.887555 -3.799471,5.961308 1.362637,0.544879 2.672755,1.423193 4.192524,0.97045 0.734673,-1.952737 1.249369,-3.736754 1.179148,-5.837299"
         stroke="inherit"
         stroke-width="1.07817"
         fill="none"
         id="path22-3"
         style="stroke:#000000;stroke-width:0.8;stroke-linecap:round;stroke-linejoin:round;stroke-dasharray:none"
         sodipodi:nodetypes="cccc" /><path
         d="m 89.609619,93.53029 c 0.551469,0.925064 2.286657,6.174869 3.567878,5.855439 0.875796,-0.291758 3.50627,-0.184153 2.70929,-1.570791 -1.04681,-1.75982 -2.836299,-2.968459 -4.14639,-4.542536"
         stroke="inherit"
         stroke-width="1.07817"
         fill="none"
         id="path23-7"
         style="stroke:#000000;stroke-width:0.8;stroke-linecap:round;stroke-linejoin:round;stroke-dasharray:none"
         sodipodi:nodetypes="cccc" /><path
         d="m 102.48374,90.915609 c 0.94372,-0.631511 4.02995,-1.290503 7.59895,0.277264 -0.309,-1.493951 0.33696,-2.646743 1.4002,-3.650455 1.38199,-1.213876 3.40929,-1.815713 5.22801,-1.821442 2.10151,0.947322 -0.62923,-1.237392 -0.2084,-2.261429 0.25556,-1.49182 2.08859,-2.164335 3.22271,-3.010095 0.57186,-0.848932 3.60285,-0.802871 1.68871,-1.827347 -1.57104,-0.665996 -1.23191,-2.487437 -0.64541,-3.744194 0.44512,-1.291645 2.19546,-1.552452 3.20192,-2.400764 l 2.88236,-0.554542"
         stroke="inherit"
         stroke-width="1.07817"
         fill="none"
         id="path24-8"
         style="stroke:#000000;stroke-width:0.8;stroke-linecap:round;stroke-linejoin:round;stroke-dasharray:none"
         sodipodi:nodetypes="cccccccccc" /><path
         d="m 126.85279,71.368071 c -0.79696,-0.936116 -1.11829,-2.418416 -1.51603,-3.624181 -0.52974,-1.867196 1.04956,-3.509038 2.03869,-4.949479 0.80337,-1.125679 2.18298,-1.69062 0.57413,-2.765552 -0.76335,-1.511932 -2.01544,-2.898072 -1.62086,-4.708031 -0.17345,-2.024963 1.25754,-3.707993 2.48931,-5.163916 -1.44703,0.232885 -2.67777,-0.12447 -3.61422,-1.284981 -1.6027,-1.239235 -1.23315,-3.401179 -1.02855,-5.161881 -0.11387,-0.988315 2.1266,-3.231213 0.35436,-2.783354 -2.13264,0.530081 -3.32343,-1.636387 -4.35867,-3.108301 -0.44305,-1.381192 -0.0856,-2.705135 0.39305,-4.020414 -1.75484,-0.07181 -3.58058,0.104742 -5.00744,-1.116101 -1.67405,-1.203007 -0.70074,-3.394507 -0.75728,-5.122475 -1.35432,-0.01296 -3.06934,0.842259 -3.95647,-0.612501 -0.89372,-0.623978 -1.61799,-2.623994 -2.12789,-2.778668 -0.19376,1.569509 -2.35467,0.617611 -3.45927,0.778987 -1.21731,-0.305853 -2.62866,-0.96831 -2.94531,-2.329744 -0.87899,-2.42189 -0.88021,0.131789 -2.24805,0.334785 -1.562557,0.541232 -3.337274,0.831928 -4.73994,-0.239565 -1.045505,-0.350935 -2.037459,-2.501224 -2.914679,-1.663769 -1.004397,0.979639 -2.548139,0.906938 -3.811664,1.38098 -1.276638,-0.309982 -1.982652,-1.47847 -3.144391,-1.940889 -1.396021,1.554591 -3.166782,3.031001 -5.392166,2.744654 -1.095519,0.330026 -2.934101,-0.807809 -3.529565,0.168742 -0.254237,1.271289 -1.33202,2.240273 -2.29808,2.962663 -1.791403,0.609357 -3.680438,0.601187 -5.550287,0.639785 -0.158333,1.942497 -0.960432,4.02625 -2.751342,4.99086 -0.97632,0.223185 -3.192913,-0.716998 -3.352355,0.300005 0.333407,2.089932 0.666012,4.571694 -0.971183,6.215841 -1.084277,0.414383 -2.996422,0.353305 -3.602062,1.042579 0.738516,1.871691 1.045151,4.017483 0.470835,5.949084 -0.921142,1.12236 -2.554261,1.694692 -3.822097,2.479414 -1.104693,0.627845 1.348492,2.053734 0.882644,3.343441 0.133171,1.712208 1.062115,3.544396 -0.04254,5.104319 -0.504739,1.436514 -1.347185,2.69838 -2.140812,3.985493 1.203177,1.057758 2.114946,2.291815 2.421389,3.892089 0.64409,1.756654 0.152927,3.719783 -0.0631,5.535094 1.889349,0.953858 3.403886,2.780963 3.698572,4.905046 0.540857,1.593095 0.383927,3.284344 0.493952,4.938041 1.320749,-0.317553 2.612366,0.551274 3.930491,0.693174 1.169702,1.729866 0.433844,4.066165 1.572195,5.822669 1.091209,-0.313326 2.59262,-0.795034 3.694019,-0.398608 1.197624,1.131085 2.463352,2.218533 2.756762,3.928963 0.199967,1.369536 0.531307,2.560896 2.25136,2.215123 1.457977,-0.182668 2.733995,0.348317 3.992164,0.91635"
         stroke="inherit"
         stroke-width="1.07817"
         fill="none"
         id="path25-8"
         style="stroke:#000000;stroke-width:0.8;stroke-linecap:round;stroke-linejoin:round;stroke-dasharray:none"
         sodipodi:nodetypes="ccccccccccccccccccccccccccccccccccccccccccccc" /><path
         d="m 76.5425,69.981715 c -0.539022,1.20294 -1.269768,3.050986 -1.543624,4.348706"
         stroke="inherit"
         stroke-width="1.07817"
         fill="none"
         id="path26-3"
         style="stroke:#000000;stroke-width:0.8;stroke-linecap:round;stroke-linejoin:round;stroke-dasharray:none"
         sodipodi:nodetypes="cc" /><path
         d="m 105.49712,68.734 c 1.49439,0.563318 3.0416,2.845844 3.66907,4.31218"
         stroke="inherit"
         stroke-width="1.07817"
         fill="none"
         id="path27-8"
         style="stroke:#000000;stroke-width:0.8;stroke-linecap:round;stroke-linejoin:round;stroke-dasharray:none"
         sodipodi:nodetypes="cc" /><path
         d="m 101.98067,80.352471 c 1.61626,-0.364012 1.36858,-2.42487 1.7682,-3.119981 1.46645,0.482291 3.04364,0.214213 4.0019,-1.060229 0.8517,-1.436685 1.79609,-2.926274 1.80785,-4.665558 1.62571,0.371688 2.86187,-0.819043 4.07577,-1.691509 1.18372,-1.033831 1.93722,-2.437763 1.63683,-4.043093 0.51724,-1.231748 -1.42025,-2.842402 -0.13828,-2.735787 1.89336,-0.254757 0.35611,-2.044429 1.203,-3.204002 0.52182,-1.554392 1.13702,-3.425459 -0.19725,-4.763292 -0.70154,-1.120705 -2.13224,-2.207106 -0.4589,-3.03238 0.92523,-1.368123 0.75592,-3.166225 -0.4616,-4.292465 -1.22573,-0.753632 -2.37542,0.111324 -1.75585,-1.986086 0.35856,-1.594541 -0.98552,-2.171499 -2.27026,-2.562456 -0.48116,-0.581971 -3.74228,0.264096 -1.76447,-0.386376 M 85.844663,83.013408 c 0.500169,1.03116 1.011627,-0.584818 2.094579,-0.765889 1.315841,-1.136571 3.488047,-0.71772 4.63714,1.419901 1.817305,0.434021 2.229218,-1.414732 3.959638,-2.193758 m 0.03147,-1.801914 0.319675,3.674556 c 0.735337,2.34401 4.949325,1.523689 5.019465,-0.350195 l -0.0427,-4.394611"
         stroke="inherit"
         stroke-width="1.07817"
         fill="none"
         id="path28-1"
         style="stroke:#000000;stroke-width:0.8;stroke-linecap:round;stroke-linejoin:round;stroke-dasharray:none"
         sodipodi:nodetypes="cccccccccccccccccccccc" /><path
         d="m 99.601379,35.73887 c -1.33583,-0.912392 -2.891275,-1.73813 -4.524791,-1.572353 -1.2338,0.607127 -2.236778,1.488815 -2.89175,-0.243476 -0.438394,-1.279485 -2.029113,-1.615008 -3.143557,-1.857939 -1.709221,-0.219498 -1.983976,1.84807 -2.81752,1.976515 -1.227287,-0.686466 -2.9282,-1.158806 -3.870807,0.208294 -0.646898,0.494764 -1.032881,1.242769 -1.486909,1.904865"
         stroke="inherit"
         stroke-width="1.07817"
         fill="none"
         id="path29-5"
         style="stroke:#000000;stroke-width:0.8;stroke-linecap:round;stroke-linejoin:round;stroke-dasharray:none" /><path
         d="m 71.825916,44.472876 c -1.679883,0.147888 -3.039855,1.323505 -3.999917,2.612052 -0.87143,1.067635 -0.716738,2.349545 -0.585661,3.626524 -1.50768,-0.126144 -1.486339,1.846424 -2.227277,2.772699 -0.758589,1.547054 -0.940588,3.417418 0.253587,4.803042 1.01957,0.824828 -0.127537,1.934285 0.910149,3.066532 0.762471,1.34731 1.13376,3.238457 2.766755,3.775767 -0.487421,1.052099 -1.828216,2.751995 -0.3754,3.570748 2.092628,0.343003 1.164953,0.98658 0.988162,2.492996 0.512723,1.230938 1.525583,2.418356 2.942273,2.630258 0.923898,0.839012 3.289307,0.01177 3.25782,1.396113 0.005,1.568504 -0.263586,3.207449 0.853469,4.489746 1.065357,1.052615 2.476318,0.756851 3.958925,0.505924 1.744076,0.01624 4.60127,0.678386 5.294147,2.928812"
         stroke="inherit"
         stroke-width="1.07817"
         fill="none"
         id="path30-3"
         style="stroke:#000000;stroke-width:0.8;stroke-linecap:round;stroke-linejoin:round;stroke-dasharray:none"
         sodipodi:nodetypes="cccccccccccccc" /><path
         d="m 119.90892,68.456729 c -0.6144,-1.400767 -2.39662,-1.299444 -3.67679,-1.002027 -1.60052,0.658547 -2.21446,2.596308 -2.04227,4.236724 -0.38628,1.630686 0.97496,2.754049 2.34145,3.288171 3.46875,1.388255 5.92859,-3.32227 3.49189,-6.522344"
         stroke="inherit"
         stroke-width="1.07817"
         fill="none"
         id="path31-5"
         style="stroke:#000000;stroke-width:0.8;stroke-linecap:round;stroke-linejoin:round;stroke-dasharray:none"
         sodipodi:nodetypes="ccccc" /><path
         d="m 106.02118,84.122485 c 1.93318,-1.221221 4.15759,-2.099855 5.91048,-3.533164 0.99655,-1.269565 2.12751,-2.431777 2.7366,-3.953124"
         stroke="inherit"
         stroke-width="1.07817"
         fill="none"
         id="path32-4"
         style="stroke:#000000;stroke-width:0.8;stroke-linecap:round;stroke-linejoin:round;stroke-dasharray:none" /><path
         d="m 119.77791,65.268127 c 0.58999,-2.76866 1.66503,-5.484751 1.94117,-8.287426 0.10744,-3.049065 -0.72375,-6.046819 -2.07219,-8.76468"
         stroke="inherit"
         stroke-width="1.07817"
         fill="none"
         id="path33-3"
         style="stroke:#000000;stroke-width:0.8;stroke-linecap:round;stroke-linejoin:round;stroke-dasharray:none"
         sodipodi:nodetypes="ccc" /><path
         d="m 117.4196,38.372935 c -1.73092,-0.430964 -2.43774,1.595778 -2.72089,2.945238 -0.31138,1.763887 0.74854,3.152281 1.67277,4.541053 1.40664,0.866589 3.49676,0.603279 4.19252,-0.55454 1.9132,-1.09245 0.49226,-5.860766 -3.22396,-6.881748"
         stroke="inherit"
         stroke-width="1.07817"
         fill="none"
         id="path34-6"
         style="stroke:#000000;stroke-width:0.8;stroke-linecap:round;stroke-linejoin:round;stroke-dasharray:none"
         sodipodi:nodetypes="ccccc" /><path
         d="m 86.953145,26.38243 c -0.731891,1.40358 -1.088234,2.339016 0.120221,3.502565 0.753041,1.470446 3.916807,1.975994 5.220677,0.590298 1.567103,-1.449445 0.953685,-3.010892 -0.116181,-4.827533 -1.463263,-0.850124 -2.38093,-1.242934 -3.289929,-0.779175 -0.713723,0.351743 -1.494114,0.603483 -1.911879,1.399162"
         stroke="inherit"
         stroke-width="1.07817"
         fill="none"
         id="path35-5"
         style="stroke:#000000;stroke-width:0.8;stroke-linecap:round;stroke-linejoin:round;stroke-dasharray:none"
         sodipodi:nodetypes="cccccc" /><path
         d="m 59.77241,52.236436 c -4.654115,0.414406 -3.458347,5.056909 -0.958169,5.82267 1.815292,0.224112 3.94401,-0.621451 4.476691,-2.438327 0.252817,-2.030321 -1.023759,-2.744025 -2.569293,-3.357894 z"
         stroke="inherit"
         stroke-width="1.07817"
         fill="none"
         id="path36-9"
         style="stroke:#000000;stroke-width:0.8;stroke-linecap:round;stroke-linejoin:round;stroke-dasharray:none"
         sodipodi:nodetypes="ccccc" /><path
         d="m 68.038883,75.082028 c -1.316476,0.606772 -2.038068,0.891101 -2.493311,2.475434 -0.888613,1.624135 0.505605,3.43036 2.057,4.039204 1.67513,0.324121 3.846368,-0.233584 4.814125,-1.81663 0.461361,-1.208547 -0.0029,-2.714053 -0.938622,-3.492058 -0.891532,-0.818283 -2.507406,-1.204325 -3.439192,-1.20595 z"
         stroke="inherit"
         stroke-width="1.07817"
         fill="none"
         id="path37-5"
         style="stroke:#000000;stroke-width:0.8;stroke-linecap:round;stroke-linejoin:round;stroke-dasharray:none"
         sodipodi:nodetypes="cccccc" /><path
         d="m 115.7164,36.154776 c -1.47914,-2.566949 -4.30794,-3.969159 -6.93772,-5.081115 -4.57368,-1.371976 -8.68399,-3.63047 -13.50084,-3.37562"
         stroke="inherit"
         stroke-width="1.07817"
         fill="none"
         id="path38-4"
         style="stroke:#000000;stroke-width:0.8;stroke-linecap:round;stroke-linejoin:round;stroke-dasharray:none"
         sodipodi:nodetypes="ccc" /><path
         d="m 83.224334,27.698041 c -1.888848,0.743439 -3.819617,1.363293 -5.764719,1.940889"
         stroke="inherit"
         stroke-width="1.07817"
         fill="none"
         id="path39-9"
         style="stroke:#000000;stroke-width:0.8;stroke-linecap:round;stroke-linejoin:round;stroke-dasharray:none"
         sodipodi:nodetypes="cc" /><path
         d="m 69.074572,36.154776 c -1.411989,1.019002 -3.14225,2.463731 -4.319864,3.814761 -1.52293,2.314579 -3.603756,5.751792 -4.073384,8.595389"
         stroke="inherit"
         stroke-width="1.07817"
         fill="none"
         id="path40-1"
         style="stroke:#000000;stroke-width:0.8;stroke-linecap:round;stroke-linejoin:round;stroke-dasharray:none"
         sodipodi:nodetypes="ccc" /><path
         d="m 59.248342,60.415901 c -0.05773,0.8721 0.668214,2.467713 0.907385,3.610281 1.012471,2.952833 1.219106,6.371132 3.632666,8.618288 0.233533,0.267707 0.467067,0.535415 0.700601,0.803122"
         stroke="inherit"
         stroke-width="1.07817"
         fill="none"
         id="path41-7"
         style="stroke:#000000;stroke-width:0.8;stroke-linecap:round;stroke-linejoin:round;stroke-dasharray:none" /><path
         d="m 72.087949,82.597505 c 0.990733,1.769426 2.112255,3.121866 3.668458,3.881783"
         stroke="inherit"
         stroke-width="1.07817"
         fill="none"
         id="path42-5"
         style="stroke:#000000;stroke-width:0.8;stroke-linecap:round;stroke-linejoin:round;stroke-dasharray:none"
         sodipodi:nodetypes="cc" /><path
         style="fill:#000000;fill-opacity:0;stroke:#000000;stroke-width:0.8;stroke-linecap:round;stroke-dasharray:none;stroke-opacity:1"
         d="m 98.463031,82.237354 0.05837,1.92607"
         id="path839"
         sodipodi:nodetypes="cc" /><path
         style="fill:#000000;fill-opacity:0;stroke:#000000;stroke-width:0.8;stroke-linecap:round;stroke-dasharray:none;stroke-opacity:1"
         d="m 100.3891,81.770427 -0.0583,2.2179"
         id="path840"
         sodipodi:nodetypes="cc" /></g></g></svg>
