<?xml version="1.0" encoding="UTF-8" standalone="no"?>
<!-- Created with Inkscape (http://www.inkscape.org/) -->

<svg
   width="360mm"
   height="120mm"
   viewBox="0 0 360 120"
   version="1.1"
   id="svg1"
   xml:space="preserve"
   inkscape:version="1.3.2 (091e20e, 2023-11-25)"
   sodipodi:docname="GardenParty.svg"
   xmlns:inkscape="http://www.inkscape.org/namespaces/inkscape"
   xmlns:sodipodi="http://sodipodi.sourceforge.net/DTD/sodipodi-0.dtd"
   xmlns:xlink="http://www.w3.org/1999/xlink"
   xmlns="http://www.w3.org/2000/svg"
   xmlns:svg="http://www.w3.org/2000/svg"><sodipodi:namedview
     id="namedview1"
     pagecolor="#ffffff"
     bordercolor="#000000"
     borderopacity="0.25"
     inkscape:showpageshadow="2"
     inkscape:pageopacity="0.0"
     inkscape:pagecheckerboard="0"
     inkscape:deskcolor="#d1d1d1"
     inkscape:document-units="mm"
     inkscape:zoom="0.20364513"
     inkscape:cx="665.37314"
     inkscape:cy="942.81656"
     inkscape:current-layer="layer1" /><defs
     id="defs1"><inkscape:path-effect
       back_thickness="0.25"
       front_thickness="1"
       stroke_width_bottom="1"
       stroke_width_top="1"
       fat_output="false"
       bottom_smth_variation="0;1"
       top_smth_variation="0;1"
       scale_tb="2"
       scale_tf="2"
       scale_bb="2"
       scale_bf="2"
       top_tgt_variation="0;1"
       bottom_tgt_variation="0;1"
       top_edge_variation="0;1"
       bottom_edge_variation="0;1"
       bender="1522.1071,406.78552 , 5,0"
       do_bend="true"
       growth="0"
       dist_rdm="0;1"
       direction="1522.1071,401.78552 , 20.946224,21.787234"
       is_visible="true"
       id="path-effect4116"
       effect="rough_hatches"
       lpeversion="0" /><linearGradient
       x1="1.9698247"
       y1="34.874969"
       x2="14.761634"
       xlink:href="#imagebot_35"
       y2="34.788586"
       id="imagebot_25"
       gradientTransform="scale(1.0944943,0.913664)"
       gradientUnits="userSpaceOnUse" /><linearGradient
       id="imagebot_35"><stop
         offset="0"
         stop-color="#9a5723"
         id="imagebot_39" /><stop
         offset="1"
         stop-color="#db9762"
         id="imagebot_38" /></linearGradient><linearGradient
       x2="6.4821496"
       y2="14.783549"
       y1="14.783549"
       xlink:href="#imagebot_35"
       id="imagebot_23"
       gradientTransform="scale(0.4868775,2.0539047)"
       x1="0.32040915"
       gradientUnits="userSpaceOnUse" /><linearGradient
       x2="14.128051"
       y2="24.911909"
       y1="12.332888"
       xlink:href="#imagebot_35"
       id="imagebot_21"
       gradientTransform="scale(1.143535,0.87448136)"
       x1="8.0067511"
       gradientUnits="userSpaceOnUse" /><linearGradient
       x1="-1.0948765"
       y1="9.0848875"
       x2="14.472001"
       xlink:href="#imagebot_35"
       y2="18.33567"
       id="imagebot_19"
       gradientTransform="scale(0.77089087,1.2972005)"
       gradientUnits="userSpaceOnUse" /><linearGradient
       x2="21.019093"
       y2="37.72084"
       y1="27.523834"
       xlink:href="#imagebot_35"
       id="imagebot_17"
       gradientTransform="scale(1.0540926,0.9486833)"
       x1="2.9940445"
       gradientUnits="userSpaceOnUse" /><linearGradient
       x2="28.298302"
       y2="13.339052"
       y1="8.3322973"
       xlink:href="#imagebot_35"
       id="imagebot_15"
       gradientTransform="scale(0.92429937,1.0819006)"
       x1="16.602846"
       gradientUnits="userSpaceOnUse" /><linearGradient
       x1="12.695371"
       y1="14.845891"
       x2="4.4375334"
       xlink:href="#imagebot_34"
       y2="13.40415"
       id="imagebot_13"
       gradientTransform="scale(0.74442254,1.3433231)"
       gradientUnits="userSpaceOnUse" /><linearGradient
       id="imagebot_34"><stop
         offset="0"
         stop-color="#7ed249"
         id="imagebot_37" /><stop
         offset="1"
         stop-color="#286325"
         id="imagebot_36" /></linearGradient><linearGradient
       x1="20.774029"
       y1="26.279816"
       x2="11.03502"
       xlink:href="#imagebot_34"
       y2="20.825972"
       id="imagebot_11"
       gradientTransform="scale(0.92514559,1.0809109)"
       gradientUnits="userSpaceOnUse" /><filter
       x="-0.153"
       height="1.3478"
       width="1.306"
       y="-0.17389999"
       id="imagebot_9"
       color-interpolation-filters="sRGB"><feGaussianBlur
         stdDeviation="0.25713"
         id="imagebot_33" /></filter><filter
       x="-0.21352001"
       height="1.4493001"
       width="1.427"
       y="-0.22465"
       id="imagebot_7"
       color-interpolation-filters="sRGB"><feGaussianBlur
         stdDeviation="0.25713"
         id="imagebot_32" /></filter><filter
       x="-0.13411"
       height="1.1229"
       width="1.2682"
       y="-0.061469998"
       id="imagebot_5"
       color-interpolation-filters="sRGB"><feGaussianBlur
         stdDeviation="0.21961"
         id="imagebot_31" /></filter><filter
       id="imagebot_3"
       color-interpolation-filters="sRGB"><feGaussianBlur
         stdDeviation="0.17322"
         id="imagebot_30" /></filter><inkscape:path-effect
       effect="rough_hatches"
       id="path-effect3982"
       is_visible="true"
       direction="1522.2031,401.90626 , 22.487883,24.510638"
       dist_rdm="0;1"
       growth="0"
       do_bend="true"
       bender="1522.2031,406.90626 , 5,0"
       bottom_edge_variation="0;1"
       top_edge_variation="0;1"
       bottom_tgt_variation="0;1"
       top_tgt_variation="0;1"
       scale_bf="2"
       scale_bb="2"
       scale_tf="2"
       scale_tb="2"
       top_smth_variation="0;1"
       bottom_smth_variation="0;1"
       fat_output="false"
       stroke_width_top="1"
       stroke_width_bottom="1"
       front_thickness="1"
       back_thickness="0.25"
       lpeversion="0" /><inkscape:path-effect
       back_thickness="0.25"
       front_thickness="1"
       stroke_width_bottom="1"
       stroke_width_top="1"
       fat_output="false"
       bottom_smth_variation="0;1"
       top_smth_variation="0;1"
       scale_tb="2"
       scale_tf="2"
       scale_bb="2"
       scale_bf="2"
       top_tgt_variation="0;1"
       bottom_tgt_variation="0;1"
       top_edge_variation="0;1"
       bottom_edge_variation="0;1"
       bender="1522.1071,406.78552 , 5,0"
       do_bend="true"
       growth="0"
       dist_rdm="0;1"
       direction="1522.1071,401.78552 , 20.946224,21.787234"
       is_visible="true"
       id="path-effect4116-3"
       effect="rough_hatches"
       lpeversion="0" /><rect
       x="761.89117"
       y="76.95871"
       width="304.75647"
       height="161.61328"
       id="rect97" /></defs><g
     inkscape:label="Layer 1"
     inkscape:groupmode="layer"
     id="layer1"
     transform="translate(-7.7985383,15)"><g
       inkscape:label="Garden Party"
       id="layer1-1"
       transform="translate(4.6329086,-17.481707)"
       style="display:inline"><path
         d="m 92.496004,53.006406 c -1.302938,0.143127 -2.185645,2.344132 -1.019277,2.969777 1.50767,0.20046 2.323538,-2.176284 0.915673,-2.866172"
         stroke="inherit"
         stroke-width="0.828831"
         fill="none"
         id="path18-4"
         style="stroke:#000000;stroke-width:0.8;stroke-linecap:round;stroke-linejoin:round;stroke-dasharray:none"
         sodipodi:nodetypes="ccc" /><path
         d="m 94.671687,56.321735 c -1.758548,-1.035826 -3.149745,2.081807 -1.450456,2.900913 1.698046,0.82898 2.542898,-1.332323 2.175689,-2.693704 -0.351171,-0.427679 -1.129168,-0.411718 -1.554065,-0.207201"
         stroke="inherit"
         stroke-width="0.828831"
         fill="none"
         id="path19-8"
         style="stroke:#000000;stroke-width:0.8;stroke-linecap:round;stroke-linejoin:round;stroke-dasharray:none" /><path
         d="m 93.739251,59.844271 c -1.439112,-1.112244 -2.297618,1.805691 -1.025169,2.421804 1.09083,1.126349 2.653718,-0.774272 1.587692,-1.766204 -0.289736,-0.397767 -0.398825,-0.864885 -0.976939,-0.551988"
         stroke="inherit"
         stroke-width="0.828831"
         fill="none"
         id="path20-87"
         style="stroke:#000000;stroke-width:0.8;stroke-linecap:round;stroke-linejoin:round;stroke-dasharray:none" /><path
         d="m 92.3924,62.123558 c -2.85876,-2.578152 -3.291328,0.769393 -1.554061,2.382901 1.741445,0.392799 2.915382,-1.738968 1.636707,-2.286294"
         stroke="inherit"
         stroke-width="0.828831"
         fill="none"
         id="path21-19"
         style="stroke:#000000;stroke-width:0.8;stroke-linecap:round;stroke-linejoin:round;stroke-dasharray:none"
         sodipodi:nodetypes="ccc" /><path
         d="m 90.734735,57.150567 c -1.22436,-0.730206 -3.061503,0.188477 -2.503694,1.72724 0.251612,1.320645 1.585112,2.399815 2.782049,1.331585 1.721772,-1.065545 0.986148,-2.225735 -0.217934,-3.058825"
         stroke="inherit"
         stroke-width="0.828831"
         fill="none"
         id="path22-31"
         style="stroke:#000000;stroke-width:0.8;stroke-linecap:round;stroke-linejoin:round;stroke-dasharray:none"
         sodipodi:nodetypes="cccc" /><path
         d="m 89.284279,53.524428 c -1.447736,-0.92197 -2.119765,1.656783 -1.242774,2.383127 1.11299,1.131695 2.756479,-0.803086 1.436255,-2.285971"
         stroke="inherit"
         stroke-width="0.828831"
         fill="none"
         id="path23-14"
         style="stroke:#000000;stroke-width:0.8;stroke-linecap:round;stroke-linejoin:round;stroke-dasharray:none"
         sodipodi:nodetypes="ccc" /><path
         d="m 88.144635,57.668588 c 0.41396,-1.378351 -3.436344,-2.536652 -4.002627,0.0453 -0.497993,2.460085 2.834409,2.617886 4.040626,0.0863"
         stroke="inherit"
         stroke-width="0.828831"
         fill="none"
         id="path24-9"
         style="stroke:#000000;stroke-width:0.8;stroke-linecap:round;stroke-linejoin:round;stroke-dasharray:none"
         sodipodi:nodetypes="ccc" /><path
         d="m 88.455448,60.776707 c -1.104074,-0.07478 -3.236961,1.240377 -1.729737,2.399991 1.303403,0.891863 2.93555,-0.283657 2.869388,-1.778383 -0.311162,-0.249652 -0.755998,-1.213554 -1.139644,-0.725221"
         stroke="inherit"
         stroke-width="0.828831"
         fill="none"
         id="path25-5"
         style="stroke:#000000;stroke-width:0.8;stroke-linecap:round;stroke-linejoin:round;stroke-dasharray:none" /><path
         d="m 93.324835,53.006406 c 0.907616,-2.118361 2.631342,-3.918532 4.457482,-5.281123 2.480103,-1.108569 4.834613,-2.533692 7.308643,-3.591146 1.73421,-1.105719 1.69562,0.171683 2.02424,0.397814 1.4761,-0.726454 3.09494,-1.065873 4.65115,-1.575132 -1.06637,1.693492 -2.84228,3.089524 -2.79187,5.251203 -0.4035,2.418588 -1.74579,4.764029 -4.10225,5.724317 -2.7758,1.535818 -5.60615,3.364852 -8.853693,3.52904 -0.178599,-1.329575 -0.01719,-2.231512 1.010273,-3.274109 0.576375,-1.425584 1.737616,-2.218995 3.12041,-2.772945 1.41853,-0.671065 3.07073,-0.68339 4.46845,-1.412451 -1.96989,1.166491 -4.23531,1.595676 -6.423447,2.175685 0.900722,-1.676558 1.816637,-3.650186 3.936957,-3.936951 1.4872,-0.410717 2.58225,-2.646235 1.0073,-0.346973 -0.61321,0.615794 1.88569,-0.488984 2.20442,-0.171048"
         stroke="inherit"
         stroke-width="0.828831"
         fill="none"
         id="path26-9"
         style="stroke:#000000;stroke-width:0.8;stroke-linecap:round;stroke-linejoin:round;stroke-dasharray:none" /><path
         d="m 94.982499,60.880311 c 1.80987,0.367665 3.112057,2.017461 4.715856,2.905542 2.104215,1.709507 4.388595,3.401942 5.748155,5.797203 0.32124,1.933654 -0.56653,3.691961 -0.82884,5.540982 0.26849,1.956931 0.19584,2.60061 -1.60719,1.192517 -2.25015,-0.693619 -5.12857,-0.27971 -6.814947,-2.334249 -2.17111,-2.773812 -2.771648,-6.411616 -4.21755,-9.57945 1.243252,-1.087137 1.966454,1.190715 3.237067,1.39215 1.305804,0.627395 1.953313,1.878395 1.425115,3.270036 0.176136,1.198743 -0.388562,-2.983106 1.41894,-1.80181 1.4743,-0.311272 2.732985,-0.03103 3.544035,1.361138 1.92647,0.64451 -4.708457,-0.180551 -1.811055,0.561211 1.171435,0.650004 2.084245,1.674193 3.064315,2.573181 -0.75928,1.96861 -3.211564,-0.859639 -5.925356,-4.428822"
         stroke="inherit"
         stroke-width="0.828831"
         fill="none"
         id="path27-09"
         style="stroke:#000000;stroke-width:0.8;stroke-linecap:round;stroke-linejoin:round;stroke-dasharray:none"
         sodipodi:nodetypes="cccccccccccccc" /><path
         d="m 89.180676,63.263202 c 0.539918,4.280804 1.20007,8.950056 -0.873445,12.922025 -1.443084,1.441544 -2.379017,3.521838 -4.203152,4.483447 0.818257,-1.600936 -0.937748,-0.578028 -1.191145,0.853975 -0.35864,1.75694 -2.891598,4.428937 -2.973703,1.305269 -0.756594,-1.021266 -0.01165,-3.126989 -1.465881,-3.411509 -1.660774,-0.189554 -0.360498,-2.497427 -0.464354,-3.636421 0.476864,-3.583016 1.67189,-7.195172 4.03713,-9.984963 0.930182,-1.434805 2.415137,-2.402736 3.71561,-3.464258 1.419033,0.854759 0.946063,2.164803 0.828824,3.493887 0.326237,2.770736 -1.853713,4.938682 -3.096747,7.225161 -0.625911,0.820772 -2.105616,2.490677 -2.036488,2.883529 3.427457,-5.210713 1.594105,1.981159 0.781867,3.906492 0.878243,-2.675926 1.911262,-5.434311 2.31673,-8.161954 0.713184,-0.910952 1.572335,-3.146351 1.86592,-3.497782 0.01738,1.610892 0.892603,3.742108 0.686738,5.339892"
         stroke="inherit"
         stroke-width="0.828831"
         fill="none"
         id="path28-3"
         style="stroke:#000000;stroke-width:0.8;stroke-linecap:round;stroke-linejoin:round;stroke-dasharray:none"
         sodipodi:nodetypes="cccccccccccccccc" /><path
         d="m 90.734735,52.902802 c -0.579604,-0.614381 0.03368,-2.701327 -0.652243,-3.803322 -0.545088,-2.175052 -1.948899,-4.039461 -3.19867,-5.8494 -2.227105,-2.438482 -5.054566,-4.284962 -8.063554,-5.577065 -0.454426,-1.75528 -1.355811,-2.669322 -0.911382,-0.244309 0.198095,1.778932 0.686188,3.516245 0.807777,5.320905 -0.959915,-1.577025 0.241298,1.741252 0.46087,2.47819 0.59051,2.436308 0.70591,5.155032 2.47548,7.123775 0.832696,1.266802 1.943517,2.350846 3.072683,3.348535 -0.03453,-0.172673 -0.06908,-0.345346 -0.103608,-0.518019"
         stroke="inherit"
         stroke-width="0.828831"
         fill="none"
         id="path29-4"
         style="stroke:#000000;stroke-width:0.8;stroke-linecap:round;stroke-linejoin:round;stroke-dasharray:none" /><path
         d="m 82.55002,53.524428 c -3.470041,-2.059085 -7.424723,-3.32135 -11.44641,-3.626141 -1.676756,-0.291138 -3.051434,0.859806 -4.61221,1.243249 0.501178,1.554979 2.442995,2.264347 2.984497,3.895185 1.203723,1.779207 1.898682,4.553108 4.490364,4.581437 2.990442,0.893158 6.087709,-0.154875 9.101771,0.01892 l -0.103609,-0.103609"
         stroke="inherit"
         stroke-width="0.828831"
         fill="none"
         id="path30-0"
         style="stroke:#000000;stroke-width:0.8;stroke-linecap:round;stroke-linejoin:round;stroke-dasharray:none" /><path
         d="m 74.883323,60.051479 c -2.523325,-0.369831 -4.003321,1.940606 -5.373796,3.655558 -1.471254,1.661374 -2.007114,3.98904 -3.950564,5.254394 -0.73273,1.110068 2.505018,0.680517 3.485961,1.124744 1.595505,0.500514 2.640127,-0.607705 2.780249,0.532928 2.155,-0.154658 4.295055,-0.891767 6.361213,-1.472992 1.098359,-0.719742 2.347497,-1.393973 3.016783,-2.567564"
         stroke="inherit"
         stroke-width="0.828831"
         fill="none"
         id="path31-7"
         style="stroke:#000000;stroke-width:0.8;stroke-linecap:round;stroke-linejoin:round;stroke-dasharray:none" /><path
         d="m 82.757227,59.637063 c 1.601053,-0.760325 3.094892,0.115423 1.397817,1.435501 -3.478649,2.743652 -7.973411,3.507365 -12.276236,3.848311 2.097667,0.01071 4.152049,-0.405648 6.21624,-0.725236 -1.862572,1.299954 -4.080943,1.983659 -5.905429,3.315328 2.228371,-1.069538 4.426895,-2.447557 6.568784,-3.686559 -0.571447,0.813963 -1.100897,1.995745 -1.595785,2.857727"
         stroke="inherit"
         stroke-width="0.828831"
         fill="none"
         id="path32-57"
         style="stroke:#000000;stroke-width:0.8;stroke-linecap:round;stroke-linejoin:round;stroke-dasharray:none"
         sodipodi:nodetypes="ccccccc" /><path
         d="m 82.653623,59.32625 c 0.03285,-1.252051 1.202093,-3.420357 -0.975656,-2.889984 -1.278747,-0.772845 -2.676469,-1.219176 -4.204544,-1.254182 -2.20409,-0.662377 -4.350994,-1.618425 -6.630656,-1.968485 1.519416,0.311275 3.0836,0.433949 4.558576,0.932436 -1.557997,-1.794017 -1.107259,-1.247179 0.386394,-0.05322 1.975752,1.452442 -1.02491,-3.229335 0.672011,-0.638473 0.484079,1.537013 2.043933,1.558038 3.321489,1.97778 1.575014,0.459351 -1.691546,1.274173 -2.322732,1.794117 -0.167695,0.07839 -0.341565,0.143684 -0.503101,0.235121"
         stroke="inherit"
         stroke-width="0.828831"
         fill="none"
         id="path33-5"
         style="stroke:#000000;stroke-width:0.8;stroke-linecap:round;stroke-linejoin:round;stroke-dasharray:none" /><path
         d="m 84.414892,55.078487 c -0.118791,0.414597 0.336559,0.624706 0.51802,0.932436"
         stroke="inherit"
         stroke-width="0.828831"
         fill="none"
         id="path34-0"
         style="stroke:#000000;stroke-width:0.8;stroke-linecap:round;stroke-linejoin:round;stroke-dasharray:none" /><path
         d="M 87.73022,56.632547 86.68111,53.07081 C 86.086466,51.807194 85.40682,50.623327 85.1887,49.307818 80.75381,43.491184 80.69742,42.72454 85.14012,48.96585 l -2.072073,-5.491012"
         stroke="inherit"
         stroke-width="0.828831"
         fill="none"
         id="path35-6"
         style="stroke:#000000;stroke-width:0.8;stroke-linecap:round;stroke-linejoin:round;stroke-dasharray:none"
         sodipodi:nodetypes="ccccc" /><path
         d="m 91.045547,53.006406 c 1.227562,-0.205629 2.479728,-1.119459 3.222631,-2.279296 1.740024,-2.311491 2.628596,-5.223575 3.293872,-8.002252 -0.531363,-2.07512 0.79029,-1.468726 0.195287,-3.219511 -0.834043,-2.9151 -1.785981,-5.817053 -1.842418,-8.877412 -0.784996,1.352056 -1.640237,2.62638 -3.211722,3.108121 -1.656219,0.518449 -0.595612,2.45302 -2.106437,2.589946 -2.185878,1.836363 -2.410654,4.94188 -2.970152,7.563245 h 0.232193 0.07863"
         stroke="inherit"
         stroke-width="0.828831"
         fill="none"
         id="path36-47"
         style="stroke:#000000;stroke-width:0.8;stroke-linecap:round;stroke-linejoin:round;stroke-dasharray:none" /><path
         d="m 90.941943,52.695595 c 0.344862,-2.593135 1.136963,-5.147518 1.139644,-7.770301 -1.031845,-1.798032 -0.859572,-4.182109 0.207208,-5.905427 l 0.103608,0.103608"
         stroke="inherit"
         stroke-width="0.828831"
         fill="none"
         id="path37-8"
         style="stroke:#000000;stroke-width:0.8;stroke-linecap:round;stroke-linejoin:round;stroke-dasharray:none" /><path
         d="m 92.081587,45.443315 c 0.725229,-1.830337 1.450457,-3.660675 2.175685,-5.491012 -0.236623,0.454435 -0.293304,1.648435 -0.725237,1.657656"
         stroke="inherit"
         stroke-width="0.828831"
         fill="none"
         id="path38-40"
         style="stroke:#000000;stroke-width:0.8;stroke-linecap:round;stroke-linejoin:round;stroke-dasharray:none" /><path
         d="m 91.874379,47.722602 c 0.787292,-0.904548 1.501076,-1.875964 2.382893,-2.693703"
         stroke="inherit"
         stroke-width="0.828831"
         fill="none"
         id="path39-0"
         style="stroke:#000000;stroke-width:0.8;stroke-linecap:round;stroke-linejoin:round;stroke-dasharray:none" /><path
         d="m 89.905903,71.965939 c -0.442472,1.818192 0.725352,3.65821 1.187749,5.413887 0.557397,0.828569 0.93141,3.698669 1.75208,3.102258 0.60277,-0.745528 1.064786,2.131986 1.787138,2.749005 0.613806,1.964373 1.495523,1.678692 1.570105,-0.337647 0.62211,-2.499135 1.045945,-5.027137 0.955209,-7.612175"
         stroke="inherit"
         stroke-width="0.828831"
         fill="none"
         id="path40-6"
         style="stroke:#000000;stroke-width:0.8;stroke-linecap:round;stroke-linejoin:round;stroke-dasharray:none" /><path
         d="m 89.698695,65.542491 c 0.785508,1.256566 1.946824,2.401414 1.554061,4.008244 0.05674,1.75467 -0.369818,3.636474 0.914017,5.068353 1.161366,0.403744 1.123597,3.572959 1.245831,2.27169 0.633049,-2.426555 1.229064,1.321283 1.673502,1.80943"
         stroke="inherit"
         stroke-width="0.828831"
         fill="none"
         id="path41-2"
         style="stroke:#000000;stroke-width:0.8;stroke-linecap:round;stroke-linejoin:round;stroke-dasharray:none" /><path
         d="m 102.02758,65.438887 c 0.46554,-0.03278 2.73495,0.144026 3.84932,-0.289087 2.32721,-0.21903 4.32374,-1.457462 5.99306,-3.026242 -1.49113,0.791427 -2.23463,-0.11221 -0.243,-1.110573 1.02459,-0.920663 2.67882,0.406039 3.45472,-1.065118 -1.40563,-0.828427 -2.5293,-2.108645 -3.85948,-2.94416 -2.1876,-0.74006 -4.55657,-1.545555 -6.60452,-2.339644"
         stroke="inherit"
         stroke-width="0.828831"
         fill="none"
         id="path42-4"
         style="stroke:#000000;stroke-width:0.8;stroke-linecap:round;stroke-linejoin:round;stroke-dasharray:none" /><path
         d="m 96.743773,57.461379 c -0.3042,0.709149 -2.582837,3.743909 -1.056092,2.296475 1.50932,-0.895535 3.144449,-0.410716 4.785829,-0.431602 0.66115,1.688959 2.09138,0.748997 3.34008,0.424961 1.52286,-0.615522 4.16582,-2.519162 2.61166,0.40388 0.43046,0.115423 2.03032,0.315964 2.9553,0.26908"
         stroke="inherit"
         stroke-width="0.828831"
         fill="none"
         id="path43-7"
         style="stroke:#000000;stroke-width:0.8;stroke-linecap:round;stroke-linejoin:round;stroke-dasharray:none"
         sodipodi:nodetypes="cccccc" /><path
         d="m 114.66726,70.308274 c -0.77311,-1.439868 -2.73599,0.121336 -2.38289,1.475441 -0.52918,1.611838 1.41785,2.446191 2.54224,1.554784 1.3241,-0.679968 0.60133,-1.854724 0.005,-2.949665"
         stroke="inherit"
         stroke-width="0.828831"
         fill="none"
         id="path44-4"
         style="stroke:#000000;stroke-width:0.8;stroke-linecap:round;stroke-linejoin:round;stroke-dasharray:none"
         sodipodi:nodetypes="cccc" /><path
         d="m 116.32493,72.173148 c -1.41431,0.460025 -1.46176,2.905805 0.28216,2.590099 1.40045,0.204462 2.49324,-1.794925 0.94801,-2.456317 -0.37909,-0.151646 -1.09683,-0.415711 -1.33378,-0.03017"
         stroke="inherit"
         stroke-width="0.828831"
         fill="none"
         id="path45-1"
         style="stroke:#000000;stroke-width:0.8;stroke-linecap:round;stroke-linejoin:round;stroke-dasharray:none" /><path
         d="m 114.25285,74.038019 c -1.09448,-0.782563 -3.0209,0.132377 -2.69371,1.771454 0.87797,2.117614 2.55683,0.740007 2.66807,-1.632046"
         stroke="inherit"
         stroke-width="0.828831"
         fill="none"
         id="path46-85"
         style="stroke:#000000;stroke-width:0.8;stroke-linecap:round;stroke-linejoin:round;stroke-dasharray:none"
         sodipodi:nodetypes="ccc" /><path
         d="m 111.38485,72.762049 c -4.90755,-0.356056 -1.5302,3.965184 0.58869,0.861554 -0.17266,-0.276277 -0.34534,-0.552555 -0.51802,-0.828833"
         stroke="inherit"
         stroke-width="0.828831"
         fill="none"
         id="path47-8"
         style="stroke:#000000;stroke-width:0.8;stroke-linecap:round;stroke-linejoin:round;stroke-dasharray:none"
         sodipodi:nodetypes="ccc" /><path
         d="m 117.46457,75.07406 c -1.42134,-0.37829 -2.89389,1.115569 -1.70946,2.258574 0.92221,1.291305 2.81511,-0.864047 1.80201,-2.200596"
         stroke="inherit"
         stroke-width="0.828831"
         fill="none"
         id="path48-99"
         style="stroke:#000000;stroke-width:0.8;stroke-linecap:round;stroke-linejoin:round;stroke-dasharray:none"
         sodipodi:nodetypes="ccc" /><path
         d="m 115.18528,76.938931 c -2.44539,-0.253348 -3.04817,1.54548 -0.50495,2.205862 1.47926,-0.252814 1.40157,-1.414354 0.57056,-2.169856"
         stroke="inherit"
         stroke-width="0.828831"
         fill="none"
         id="path49-9"
         style="stroke:#000000;stroke-width:0.8;stroke-linecap:round;stroke-linejoin:round;stroke-dasharray:none"
         sodipodi:nodetypes="ccc" /><path
         d="m 117.25736,71.965939 c 1.72307,-1.320829 3.65287,-2.57716 4.30144,-4.792988 0.86096,-2.336288 0.29548,-4.975917 0.25721,-7.432284 -0.36127,-1.357202 -0.50536,-2.742259 -0.51809,-4.14416 -1.41629,0.521404 -2.35785,1.893386 -3.83335,2.382891 -0.35757,0.562012 -0.5433,1.27729 -1.65861,2.279761 -2.49696,0.970322 -2.90005,3.851226 -2.86657,6.199351 -0.007,1.105352 -0.10632,2.311511 0.38101,3.331746"
         stroke="inherit"
         stroke-width="0.828831"
         fill="none"
         id="path50-3"
         style="stroke:#000000;stroke-width:0.8;stroke-linecap:round;stroke-linejoin:round;stroke-dasharray:none" /><path
         d="m 114.66726,69.85358 c 0.0843,-2.069599 0.497,-6.178436 1.55116,-8.030663"
         stroke="inherit"
         stroke-width="0.828831"
         fill="none"
         id="path51-3"
         style="stroke:#000000;stroke-width:0.8;stroke-linecap:round;stroke-linejoin:round;stroke-dasharray:none"
         sodipodi:nodetypes="cc" /><path
         d="m 115.08168,70.308274 c 1.41846,-1.558613 3.04771,-3.049677 4.33842,-4.649234 -0.75675,0.589397 -3.14699,1.530413 -2.2483,-0.395967 0.21717,-0.384233 1.37818,-3.233672 2.39931,-4.787009"
         stroke="inherit"
         stroke-width="0.828831"
         fill="none"
         id="path52-77"
         style="stroke:#000000;stroke-width:0.8;stroke-linecap:round;stroke-linejoin:round;stroke-dasharray:none"
         sodipodi:nodetypes="cccc" /><path
         d="m 112.80239,69.893859 c -0.22967,-2.146739 0.14228,-4.762375 -1.65767,-6.319844 l 0.0563,0.22526 0.0473,0.189157"
         stroke="inherit"
         stroke-width="0.828831"
         fill="none"
         id="path53-3"
         style="stroke:#000000;stroke-width:0.8;stroke-linecap:round;stroke-linejoin:round;stroke-dasharray:none" /><path
         d="m 109.38346,72.708401 c -1.27633,0.115206 -2.31682,-1.236585 -3.41893,-1.77851"
         stroke="inherit"
         stroke-width="0.828831"
         fill="none"
         id="path54-2"
         style="stroke:#000000;stroke-width:0.8;stroke-linecap:round;stroke-linejoin:round;stroke-dasharray:none"
         sodipodi:nodetypes="cc" /><path
         d="m 112.59518,69.583047 c -1.23345,1.348435 -1.93584,0.174638 -2.76112,-0.996107 -0.65591,-0.860805 -2.30793,-3.02667 -3.3673,-3.432915"
         stroke="inherit"
         stroke-width="0.828831"
         fill="none"
         id="path55-5"
         style="stroke:#000000;stroke-width:0.8;stroke-linecap:round;stroke-linejoin:round;stroke-dasharray:none"
         sodipodi:nodetypes="ccc" /><path
         d="m 109.98494,76.97921 c -2.29075,0.611224 -4.74834,0.852398 -7.01415,1.187158 -1.57103,1.129354 -2.6623,2.341318 -3.263625,4.196569 -1.476935,2.305809 -1.251657,5.196154 -2.652589,7.526502 3.148234,-2.12494 7.406174,-1.498134 10.337904,-4.06009 2.32896,-1.601427 5.22388,-3.804849 4.89189,-6.968241 -0.0228,-1.196793 -3.04487,-1.663813 -2.23634,-2.076325 -1.20915,1.301885 -0.80147,2.664911 -2.30207,3.7498 -1.55158,1.511959 -2.88597,3.369438 -4.59679,4.645379 -1.41539,0.711386 2.19531,-2.248405 2.03781,-1.148829 0.14895,2.710534 0.30969,-0.159156 0.46674,-1.290378 1.23675,-1.68348 1.44269,-1.346996 -0.66978,-0.844674 -0.47136,0.183861 -4.20349,1.202967 -2.64555,0.533863"
         stroke="inherit"
         stroke-width="0.828831"
         fill="none"
         id="path56-6"
         style="stroke:#000000;stroke-width:0.8;stroke-linecap:round;stroke-linejoin:round;stroke-dasharray:none"
         sodipodi:nodetypes="ccccccccccccc" /><path
         d="m 110.7274,76.397866 c -0.28313,-1.342371 -7.01613,-0.745214 -5.96294,-1.11079"
         stroke="inherit"
         stroke-width="0.828831"
         fill="none"
         id="path57-3"
         style="stroke:#000000;stroke-width:0.8;stroke-linecap:round;stroke-linejoin:round;stroke-dasharray:none"
         sodipodi:nodetypes="cc" /><path
         d="m 108.76183,72.898375 c -1.10511,0.06907 -2.21022,0.138144 -3.31532,0.207208"
         stroke="inherit"
         stroke-width="0.828831"
         fill="none"
         id="path58-4"
         style="stroke:#000000;stroke-width:0.8;stroke-linecap:round;stroke-linejoin:round;stroke-dasharray:none" /><path
         d="m 120.77991,68.961423 c 1.15268,-1.583039 3.50391,-0.830943 5.21512,-0.873708 1.70704,0.193606 3.36119,0.659499 5.10864,0.401262 1.5611,0.07788 3.07975,-0.228354 4.59521,-0.563595 -1.85868,2.236153 -3.39535,4.781067 -5.34857,6.903794 -1.50678,1.158368 -3.64707,0.78232 -5.42626,1.280922 -2.18457,0.0393 -4.78497,1.326906 -6.67408,-0.179706 -0.0611,-0.29214 -1.39717,-1.203452 -0.37099,-0.959938"
         stroke="inherit"
         stroke-width="0.828831"
         fill="none"
         id="path59-0"
         style="stroke:#000000;stroke-width:0.8;stroke-linecap:round;stroke-linejoin:round;stroke-dasharray:none" /><path
         d="m 111.14472,82.740755 c -0.25791,0.930632 -0.54991,2.668598 -0.42561,3.928681 0.0944,2.097983 2.04674,3.505401 2.95967,5.31161 0.87015,0.630841 1.7785,3.333527 2.2842,1.094163 0.66983,-1.974044 1.87229,-3.764903 2.44494,-5.737751 0.79584,-2.804433 -0.92263,-5.467898 -2.2902,-7.808428 -1.27265,0.168603 -2.56085,1.119517 -1.7775,2.950035 l 0.63785,5.338294 c 0.52647,0.07793 0.60874,0.359619 0.72523,0.828832"
         stroke="inherit"
         stroke-width="0.828831"
         fill="none"
         id="path60-6"
         style="stroke:#000000;stroke-width:0.8;stroke-linecap:round;stroke-linejoin:round;stroke-dasharray:none"
         sodipodi:nodetypes="ccccccccc" /><path
         d="m 123.05919,76.731723 c 2.32005,0.75959 3.79704,3.083887 5.49101,4.765793 1.16702,2.65598 2.10144,5.404831 3.21172,8.081112 -1.37563,-1.109292 -3.16248,-1.367447 -4.86939,-1.139636 -0.84764,-1.579768 -2.94923,-1.428172 -4.15685,-2.652005 -1.26224,-1.103021 -3.11622,-1.524511 -4.30179,-2.54339 -0.20942,-1.71363 -1.50719,-3.073948 -1.79815,-4.696955 0.50943,-0.05034 2.15335,0.02671 3.07816,-0.214463 1.54953,1.198187 2.75637,2.756867 4.17411,4.097779 0.51729,0.256991 1.77051,1.88595 2.7326,2.532568 -0.39854,-1.083171 -1.40368,-2.660586 -2.52539,-3.568607 0.28325,0.106002 3.43403,1.285423 2.93684,1.034578"
         stroke="inherit"
         stroke-width="0.828831"
         fill="none"
         id="path61-0"
         style="stroke:#000000;stroke-width:0.8;stroke-linecap:round;stroke-linejoin:round;stroke-dasharray:none"
         sodipodi:nodetypes="cccccccccccc" /><path
         d="m 121.71233,56.218131 c 1.62717,0.224557 2.2451,-0.803586 3.7011,-0.828833 1.14212,0.04968 0.39125,-2.312253 2.49378,-2.095007 0.97486,-0.427752 0.13363,-2.475319 1.86739,-2.812579 1.73245,-0.368141 1.43215,-1.96507 0.95114,-3.277128 0.0188,-1.830487 1.64025,-3.137962 2.59859,-4.584886 1.01147,-1.021004 2.79843,-2.550337 0.23168,-1.997275 -2.7437,0.09165 -5.49434,0.08148 -8.21776,0.469524 0.43066,-1.385188 0.44628,-2.884338 -1.22698,-1.410812 -1.87905,0.954971 -3.71371,2.12958 -5.71455,2.757664 0.79678,-2.121947 -1.7001,0.405781 -1.62881,1.40806 -0.77529,1.208321 -1.21248,2.514614 -1.59652,3.869851 -1.57806,2.952551 -3.2096,5.9377 -5.37379,8.501421"
         stroke="inherit"
         stroke-width="0.828831"
         fill="none"
         id="path62-4"
         style="stroke:#000000;stroke-width:0.8;stroke-linecap:round;stroke-linejoin:round;stroke-dasharray:none" /><path
         d="m 115.80691,44.718086 c 0.0345,-1.588593 0.0691,-3.177189 0.10356,-4.765783 -1.14105,1.47734 -2.15428,1.699303 -0.43446,0.05251 1.00888,-2.299994 -0.27208,-4.924426 -0.21854,-7.370469 0.0566,-1.872122 -1.78232,0.866443 -2.49961,1.318654 -1.56323,1.531263 -3.18806,3.005604 -4.51408,4.756057 -0.30954,-2.217773 -1.83786,-1.257424 -2.50972,0.211788 -0.81148,0.790463 -1.76923,2.514882 -2.39103,2.810994 -0.82128,-1.099554 -0.48787,2.211456 -1.00468,2.986249 2.8e-4,0.177967 -0.57761,0.832749 -0.3108,0.828833"
         stroke="inherit"
         stroke-width="0.828831"
         fill="none"
         id="path63-0"
         style="stroke:#000000;stroke-width:0.8;stroke-linecap:round;stroke-linejoin:round;stroke-dasharray:none" /><path
         d="m 106.58614,55.182092 c 0.30665,-1.004642 1.55662,-2.2158 2.21809,-3.295923 1.28578,-1.767065 4.04477,-2.934102 3.48015,-5.510426"
         stroke="inherit"
         stroke-width="0.828831"
         fill="none"
         id="path64-5"
         style="stroke:#000000;stroke-width:0.8;stroke-linecap:round;stroke-linejoin:round;stroke-dasharray:none" /><path
         d="m 111.35194,57.357775 c 1.63371,-1.956887 4.34238,-2.30341 5.8821,-4.272415 1.95938,-0.816003 2.70413,-3.478558 4.19948,-5.024953 2.06448,-1.76129 4.10623,-3.548905 5.97703,-5.518005 -0.49513,0.771425 -1.59759,2.909689 0.62017,1.780518"
         stroke="inherit"
         stroke-width="0.828831"
         fill="none"
         id="path65-6"
         style="stroke:#000000;stroke-width:0.8;stroke-linecap:round;stroke-linejoin:round;stroke-dasharray:none"
         sodipodi:nodetypes="ccccc" /><path
         d="m 115.26875,54.592031 c 1.07613,-3.335464 3.68667,-8.065345 5.42088,-11.069949 1.93646,-2.523033 -0.53577,2.366974 0.71331,1.295995 0.27709,-0.08693 0.70242,-0.309455 1.63175,-1.300053"
         stroke="inherit"
         stroke-width="0.828831"
         fill="none"
         id="path66-8"
         style="stroke:#000000;stroke-width:0.8;stroke-linecap:round;stroke-linejoin:round;stroke-dasharray:none"
         sodipodi:nodetypes="cccc" /><path
         d="m 120.13688,49.138591 c 0.52048,-0.847482 5.99608,-0.544384 7.33356,-0.776385 0.24533,-0.04993 0.51696,0.0013 0.76886,-0.01797"
         stroke="inherit"
         stroke-width="0.828831"
         fill="none"
         id="path67-5"
         style="stroke:#000000;stroke-width:0.8;stroke-linecap:round;stroke-linejoin:round;stroke-dasharray:none"
         sodipodi:nodetypes="ccc" /><path
         d="m 122.33395,61.709144 c 1.47792,-1.398632 3.43696,-2.037168 5.24496,-2.759634 1.05983,-1.402212 2.54053,0.208214 3.47583,-1.130036 1.89562,-0.72637 3.91333,-0.343948 5.88738,-0.358095 -1.50739,1.264867 -1.47477,3.274921 -1.45045,5.076596 -2.10831,1.230636 -4.4645,4.666531 -6.62615,5.873329"
         stroke="inherit"
         stroke-width="0.828831"
         fill="none"
         id="path68-3"
         style="stroke:#000000;stroke-width:0.8;stroke-linecap:round;stroke-linejoin:round;stroke-dasharray:none"
         sodipodi:nodetypes="cccccc" /><path
         d="m 123.6808,67.821779 c 1.66105,-1.03165 3.7781,-1.470772 4.973,-3.10812 l -0.10347,0.103608"
         stroke="inherit"
         stroke-width="0.828831"
         fill="none"
         id="path69-7"
         style="stroke:#000000;stroke-width:0.8;stroke-linecap:round;stroke-linejoin:round;stroke-dasharray:none" /><path
         d="m 122.02315,66.267718 c 1.46119,-1.390107 2.95577,-2.725338 4.9698,-3.206966 1.30755,-0.635291 2.90494,-0.879856 4.04374,-1.766025"
         stroke="inherit"
         stroke-width="0.828831"
         fill="none"
         id="path70-6"
         style="stroke:#000000;stroke-width:0.8;stroke-linecap:round;stroke-linejoin:round;stroke-dasharray:none" /><path
         d="m 130.51868,74.866852 c 0.94194,1.297119 2.20679,2.727975 3.62708,3.626611 1.73417,0.894282 2.55729,3.034918 3.33055,4.734555 -0.50693,0.65103 -2.80917,-0.352628 -4.03243,-0.361822 -1.23962,-0.314693 -3.64772,0.449593 -4.39435,-0.665053"
         stroke="inherit"
         stroke-width="0.828831"
         fill="none"
         id="path71-8"
         style="stroke:#000000;stroke-width:0.8;stroke-linecap:round;stroke-linejoin:round;stroke-dasharray:none"
         sodipodi:nodetypes="ccccc" /><path
         d="m 122.64478,85.641668 c 1.02938,2.38125 2.60988,4.901873 2.07748,7.566291 -0.29125,2.230156 -1.8715,0.555831 -3.07702,0.01657 -1.1421,-1.230416 -2.651,-3.206289 -3.55614,-4.617174"
         stroke="inherit"
         stroke-width="0.828831"
         fill="none"
         id="path72-6"
         style="stroke:#000000;stroke-width:0.8;stroke-linecap:round;stroke-linejoin:round;stroke-dasharray:none"
         sodipodi:nodetypes="cccc" /><path
         d="m 101.18151,79.813892 c -1.352932,0.05616 -1.98628,0.0012 -3.464069,-0.558622 -0.229239,0.237292 -0.879568,-0.638733 -0.352051,-0.244258"
         stroke="inherit"
         stroke-width="0.828831"
         fill="none"
         id="path73-7"
         style="stroke:#000000;stroke-width:0.8;stroke-linecap:round;stroke-linejoin:round;stroke-dasharray:none"
         sodipodi:nodetypes="ccc" /><path
         d="m 94.878895,83.362379 c -1.305998,1.640948 -1.530997,4.124856 -3.22263,5.594617 -1.320085,1.574073 -2.635765,3.152246 -4.029649,4.66218 -0.257448,-1.554398 -0.369094,-3.177245 -1.707192,-4.224314 -1.69255,-0.546114 -0.720765,-1.684453 -0.640981,-3.144624 0.361283,-1.896113 0.266676,-3.830785 -0.241927,-5.685168 l 0.207207,0.103609"
         stroke="inherit"
         stroke-width="0.828831"
         fill="none"
         id="path74"
         style="stroke:#000000;stroke-width:0.8;stroke-linecap:round;stroke-linejoin:round;stroke-dasharray:none" /><path
         d="m 90.838339,78.700199 c -0.803476,0.852599 -0.709313,2.666055 -1.612039,3.701705 -0.609076,1.282986 2.318023,-1.020922 0.368792,1.271287 0.515977,1.918553 -0.291888,3.671527 -0.828832,5.491012"
         stroke="inherit"
         stroke-width="0.828831"
         fill="none"
         id="path75"
         style="stroke:#000000;stroke-width:0.8;stroke-linecap:round;stroke-linejoin:round;stroke-dasharray:none" /><path
         d="m 77.266214,78.803803 c -1.769371,2.243137 -3.61813,4.559186 -5.077067,6.941705 -1.035513,0.009 -1.996116,-2.455249 -2.97602,-0.145873 -0.934245,2.034094 -3.481403,2.236115 -5.44054,2.667039 -2.17101,0.472273 0.958078,-3.03792 -1.471,-1.064077 -1.666211,0.761493 -2.980047,2.501967 -4.92734,2.376034 1.169425,-1.308716 1.36397,-3.011306 1.172482,-4.684833 0.647797,-1.330978 -1.011998,-2.892027 0.465085,-3.896739 1.380432,-1.962507 3.676574,-3.479995 4.164265,-5.922989 1.533213,-1.038167 2.906892,-2.45497 4.133624,-3.838866 0.249454,-0.313003 0.417026,-1.448795 0.735758,-1.341341"
         stroke="inherit"
         stroke-width="0.828831"
         fill="none"
         id="path76"
         style="stroke:#000000;stroke-width:0.8;stroke-linecap:round;stroke-linejoin:round;stroke-dasharray:none" /><path
         d="m 78.900835,71.365907 c -2.318841,1.572332 -4.969152,3.962038 -7.225068,5.776659 -1.216735,0.9951 -2.731765,2.352648 -2.702957,3.904875 0.242438,-1.332672 1.054796,-3.091572 -0.522581,-1.09434 -1.30308,1.575923 -2.66757,3.10774 -4.23811,4.445319 l 3.108121,-4.14416 c -1.177936,0.894507 -2.588043,1.286676 -4.040557,1.450464 h 0.232192 0.182224"
         stroke="inherit"
         stroke-width="0.828831"
         fill="none"
         id="path77"
         style="stroke:#000000;stroke-width:0.8;stroke-linecap:round;stroke-linejoin:round;stroke-dasharray:none"
         sodipodi:nodetypes="ccccccccc" /><path
         d="m 79.649108,46.375751 c -1.162714,-1.034769 -1.607035,-2.896562 -2.589877,-4.195592 -1.669376,-2.822161 -4.109615,-5.288088 -7.062636,-6.741928 -1.79915,-0.534625 -3.698305,-0.55552 -5.272675,-1.690038 -1.252052,-0.63513 -2.838733,-2.162084 -1.797568,0.214854 1.18424,2.361246 1.327071,5.092371 0.767733,7.646912 0.879213,1.221186 2.59614,1.488903 3.004515,3.10812 1.201091,1.400914 2.531245,2.699738 3.211725,4.454972 l 0.207208,0.103608"
         stroke="inherit"
         stroke-width="0.828831"
         fill="none"
         id="path78"
         style="stroke:#000000;stroke-width:0.8;stroke-linecap:round;stroke-linejoin:round;stroke-dasharray:none" /><path
         d="M 81.631913,52.442296 C 79.421268,51.251443 78.229906,49.912574 77.419924,49.48458 75.342451,47.568332 72.737301,46.13137 71.360787,43.578442 69.543841,41.918691 67.901602,40.098197 66.751554,37.913886 66.392482,37.701546 65.426803,35.272248 65.537365,36.100268"
         stroke="inherit"
         stroke-width="0.828831"
         fill="none"
         id="path79-1"
         style="stroke:#000000;stroke-width:0.8;stroke-linecap:round;stroke-linejoin:round;stroke-dasharray:none"
         sodipodi:nodetypes="ccccc" /><path
         d="M 77.04032,48.819063 73.22566,41.402759"
         stroke="inherit"
         stroke-width="0.828831"
         fill="none"
         id="path80-8"
         style="stroke:#000000;stroke-width:0.8;stroke-linecap:round;stroke-linejoin:round;stroke-dasharray:none"
         sodipodi:nodetypes="cc" /><path
         d="m 63.279675,74.763247 c -1.280715,-0.424103 -2.384122,1.143543 -3.39548,1.810795 -2.18229,1.596339 -4.666088,2.775477 -6.757719,4.509057 1.004049,-2.162946 0.31345,-1.593754 -1.221796,-1.071751 -0.972546,-1.659169 -1.905516,-1.094438 -2.94182,0.08607 -1.36069,0.282444 -2.70001,-0.592168 -4.089907,0.0607 -2.112697,0.662755 0.08697,-1.677482 0.383585,-2.545261 1.048895,-2.105167 2.739287,-3.961679 3.000557,-6.372146 2.083977,-1.085903 3.957919,-2.521709 5.913807,-3.815978 1.650942,-0.897712 3.598027,-0.395037 5.297251,-1.195193 2.385189,-0.558376 4.799633,-0.670872 7.230454,-0.376229 0.241743,-0.138143 0.483485,-0.276276 0.725228,-0.414415"
         stroke="inherit"
         stroke-width="0.828831"
         fill="none"
         id="path81-4"
         style="stroke:#000000;stroke-width:0.8;stroke-linecap:round;stroke-linejoin:round;stroke-dasharray:none" /><path
         d="m 66.427875,67.97002 c -2.535965,-0.101312 -8.847494,3.046538 -10.808069,4.315463 -1.19964,1.563966 -3.13096,1.303975 -4.67231,2.272207 -0.610625,-0.05513 -0.01651,0.06022 -1.65436,1.241597"
         stroke="inherit"
         stroke-width="0.828831"
         fill="none"
         id="path82-9"
         style="stroke:#000000;stroke-width:0.8;stroke-linecap:round;stroke-linejoin:round;stroke-dasharray:none"
         sodipodi:nodetypes="cccc" /><path
         d="m 56.130999,72.794771 c -1.208713,1.070574 -2.417427,2.14115 -3.62614,3.211725"
         stroke="inherit"
         stroke-width="0.828831"
         fill="none"
         id="path83-7"
         style="stroke:#000000;stroke-width:0.8;stroke-linecap:round;stroke-linejoin:round;stroke-dasharray:none" /><path
         d="m 55.509376,66.371323 c -1.082799,-0.557713 -2.802643,0.359182 -3.978851,-0.534768 -0.719925,-0.419764 2.055255,-1.406639 -0.589936,-1.515228 -1.133185,-0.833669 -3.082242,-0.02441 -3.305125,-1.783352 -1.84168,-1.04504 -3.385281,-2.445548 -4.765785,-4.040556 -1.804171,-0.889705 1.914933,-1.443324 2.757974,-2.166012 2.397213,-0.53009 4.830732,-1.344465 7.287075,-1.419782 1.804693,0.25836 3.576305,-0.116292 5.337133,-0.318061 2.793153,0.166044 4.294281,3.060485 6.628399,4.284469 1.432759,1.019664 3.013081,2.047771 4.664437,2.553403 0.649187,-0.01242 1.181874,0.04544 1.608874,0.588542"
         stroke="inherit"
         stroke-width="0.828831"
         fill="none"
         id="path84-3"
         style="stroke:#000000;stroke-width:0.8;stroke-linecap:round;stroke-linejoin:round;stroke-dasharray:none" /><path
         d="m 57.477851,54.353259 c -1.657665,-1.415921 -3.315328,-2.831844 -4.972992,-4.247765 -0.90162,0.449804 -2.817107,-0.332268 -3.535778,-1.275073 -0.865149,-1.061452 2.085652,-2.053397 1.317986,-3.157268 -1.102954,-2.032849 -2.782798,-3.673738 -3.998447,-5.617246 2.402158,-0.08816 4.917077,-0.656009 7.259508,-0.21982 1.969106,1.290913 4.320915,1.184077 6.519822,1.773872 1.231425,0.201306 3.423063,-1.129528 3.433192,0.803708 0.187586,2.175451 2.76441,3.275028 2.679454,5.516128 0.424564,0.313434 1.490907,3.055702 1.450455,2.072079"
         stroke="inherit"
         stroke-width="0.828831"
         fill="none"
         id="path85"
         style="stroke:#000000;stroke-width:0.8;stroke-linecap:round;stroke-linejoin:round;stroke-dasharray:none" /><path
         d="m 70.324748,61.087519 c -1.795802,-2.313823 -3.591606,-4.627646 -5.387409,-6.941469 -1.433129,-0.328218 -2.216379,-2.132213 -3.54672,-2.570823 -0.829975,-0.179198 -4.003894,1.353579 -2.771707,0.498037 1.236034,-0.856888 3.38057,-0.634015 1.129314,-1.864397 -2.076619,-1.88927 -4.55288,-3.211593 -6.725346,-4.97276 1.396786,0.911746 2.824195,1.758736 4.454971,2.175684 -0.877034,-2.040965 -3.299278,-2.782521 -4.022138,-4.932437 -0.0984,-0.97984 -2.107067,-1.264226 -0.329229,-0.558574"
         stroke="inherit"
         stroke-width="0.828831"
         fill="none"
         id="path86"
         style="stroke:#000000;stroke-width:0.8;stroke-linecap:round;stroke-linejoin:round;stroke-dasharray:none" /><path
         d="m 69.118873,64.050304 c -2.041555,0.629636 -4.770764,-0.704248 -6.771633,-0.890705 -1.310045,-1.47475 -2.441345,-2.020988 -2.070627,-0.119384 -1.809838,-4.078734 -6.24757,-3.712538 -9.196074,-3.912197 -1.048599,-0.782543 7.276508,0.224241 7.252344,3.022863 0.853106,2.034946 -4.414705,-0.783043 -5.660826,-0.316543"
         stroke="inherit"
         stroke-width="0.828831"
         fill="none"
         id="path87"
         style="stroke:#000000;stroke-width:0.8;stroke-linecap:round;stroke-linejoin:round;stroke-dasharray:none"
         sodipodi:nodetypes="cccccc" /><path
         d="m 118.33368,73.252372 c 0.80151,-0.513099 2.38536,-0.573791 3.61084,-0.872024 1.4905,-0.129034 3.11965,0.187372 4.50609,0.06017 2.18606,-1.246752 -1.06912,-0.753037 -2.05188,-0.986189 0.41493,-0.142831 1.30035,-0.882702 1.76849,-1.353273"
         stroke="inherit"
         stroke-width="0.828831"
         fill="none"
         id="path88"
         style="stroke:#000000;stroke-width:0.8;stroke-linecap:round;stroke-linejoin:round;stroke-dasharray:none"
         sodipodi:nodetypes="ccccc" /><path
         d="m 125.02766,76.420912 c 1.82705,-0.308587 3.2312,1.442187 4.85538,2.104443 0.76001,0.47304 4.02559,2.229928 1.75259,1.148874 -2.0079,-1.168371 -0.39563,0.316258 0.4371,0.683627"
         stroke="inherit"
         stroke-width="0.828831"
         fill="none"
         id="path89"
         style="stroke:#000000;stroke-width:0.8;stroke-linecap:round;stroke-linejoin:round;stroke-dasharray:none" /></g></g></svg>
