<?xml version="1.0" encoding="UTF-8" standalone="no"?>
<!-- Created with Inkscape (http://www.inkscape.org/) -->

<svg
   width="360mm"
   height="120mm"
   viewBox="0 0 360 120"
   version="1.1"
   id="svg1"
   xml:space="preserve"
   inkscape:version="1.3.2 (091e20e, 2023-11-25)"
   sodipodi:docname="HotCoaco.svg"
   xmlns:inkscape="http://www.inkscape.org/namespaces/inkscape"
   xmlns:sodipodi="http://sodipodi.sourceforge.net/DTD/sodipodi-0.dtd"
   xmlns:xlink="http://www.w3.org/1999/xlink"
   xmlns="http://www.w3.org/2000/svg"
   xmlns:svg="http://www.w3.org/2000/svg"><sodipodi:namedview
     id="namedview1"
     pagecolor="#ffffff"
     bordercolor="#000000"
     borderopacity="0.25"
     inkscape:showpageshadow="2"
     inkscape:pageopacity="0.0"
     inkscape:pagecheckerboard="0"
     inkscape:deskcolor="#d1d1d1"
     inkscape:document-units="mm"
     inkscape:zoom="0.20364513"
     inkscape:cx="665.37314"
     inkscape:cy="942.81656"
     inkscape:current-layer="layer1" /><defs
     id="defs1"><inkscape:path-effect
       back_thickness="0.25"
       front_thickness="1"
       stroke_width_bottom="1"
       stroke_width_top="1"
       fat_output="false"
       bottom_smth_variation="0;1"
       top_smth_variation="0;1"
       scale_tb="2"
       scale_tf="2"
       scale_bb="2"
       scale_bf="2"
       top_tgt_variation="0;1"
       bottom_tgt_variation="0;1"
       top_edge_variation="0;1"
       bottom_edge_variation="0;1"
       bender="1522.1071,406.78552 , 5,0"
       do_bend="true"
       growth="0"
       dist_rdm="0;1"
       direction="1522.1071,401.78552 , 20.946224,21.787234"
       is_visible="true"
       id="path-effect4116"
       effect="rough_hatches"
       lpeversion="0" /><linearGradient
       x1="1.9698247"
       y1="34.874969"
       x2="14.761634"
       xlink:href="#imagebot_35"
       y2="34.788586"
       id="imagebot_25"
       gradientTransform="scale(1.0944943,0.913664)"
       gradientUnits="userSpaceOnUse" /><linearGradient
       id="imagebot_35"><stop
         offset="0"
         stop-color="#9a5723"
         id="imagebot_39" /><stop
         offset="1"
         stop-color="#db9762"
         id="imagebot_38" /></linearGradient><linearGradient
       x2="6.4821496"
       y2="14.783549"
       y1="14.783549"
       xlink:href="#imagebot_35"
       id="imagebot_23"
       gradientTransform="scale(0.4868775,2.0539047)"
       x1="0.32040915"
       gradientUnits="userSpaceOnUse" /><linearGradient
       x2="14.128051"
       y2="24.911909"
       y1="12.332888"
       xlink:href="#imagebot_35"
       id="imagebot_21"
       gradientTransform="scale(1.143535,0.87448136)"
       x1="8.0067511"
       gradientUnits="userSpaceOnUse" /><linearGradient
       x1="-1.0948765"
       y1="9.0848875"
       x2="14.472001"
       xlink:href="#imagebot_35"
       y2="18.33567"
       id="imagebot_19"
       gradientTransform="scale(0.77089087,1.2972005)"
       gradientUnits="userSpaceOnUse" /><linearGradient
       x2="21.019093"
       y2="37.72084"
       y1="27.523834"
       xlink:href="#imagebot_35"
       id="imagebot_17"
       gradientTransform="scale(1.0540926,0.9486833)"
       x1="2.9940445"
       gradientUnits="userSpaceOnUse" /><linearGradient
       x2="28.298302"
       y2="13.339052"
       y1="8.3322973"
       xlink:href="#imagebot_35"
       id="imagebot_15"
       gradientTransform="scale(0.92429937,1.0819006)"
       x1="16.602846"
       gradientUnits="userSpaceOnUse" /><linearGradient
       x1="12.695371"
       y1="14.845891"
       x2="4.4375334"
       xlink:href="#imagebot_34"
       y2="13.40415"
       id="imagebot_13"
       gradientTransform="scale(0.74442254,1.3433231)"
       gradientUnits="userSpaceOnUse" /><linearGradient
       id="imagebot_34"><stop
         offset="0"
         stop-color="#7ed249"
         id="imagebot_37" /><stop
         offset="1"
         stop-color="#286325"
         id="imagebot_36" /></linearGradient><linearGradient
       x1="20.774029"
       y1="26.279816"
       x2="11.03502"
       xlink:href="#imagebot_34"
       y2="20.825972"
       id="imagebot_11"
       gradientTransform="scale(0.92514559,1.0809109)"
       gradientUnits="userSpaceOnUse" /><filter
       x="-0.153"
       height="1.3478"
       width="1.306"
       y="-0.17389999"
       id="imagebot_9"
       color-interpolation-filters="sRGB"><feGaussianBlur
         stdDeviation="0.25713"
         id="imagebot_33" /></filter><filter
       x="-0.21352001"
       height="1.4493001"
       width="1.427"
       y="-0.22465"
       id="imagebot_7"
       color-interpolation-filters="sRGB"><feGaussianBlur
         stdDeviation="0.25713"
         id="imagebot_32" /></filter><filter
       x="-0.13411"
       height="1.1229"
       width="1.2682"
       y="-0.061469998"
       id="imagebot_5"
       color-interpolation-filters="sRGB"><feGaussianBlur
         stdDeviation="0.21961"
         id="imagebot_31" /></filter><filter
       id="imagebot_3"
       color-interpolation-filters="sRGB"><feGaussianBlur
         stdDeviation="0.17322"
         id="imagebot_30" /></filter><inkscape:path-effect
       effect="rough_hatches"
       id="path-effect3982"
       is_visible="true"
       direction="1522.2031,401.90626 , 22.487883,24.510638"
       dist_rdm="0;1"
       growth="0"
       do_bend="true"
       bender="1522.2031,406.90626 , 5,0"
       bottom_edge_variation="0;1"
       top_edge_variation="0;1"
       bottom_tgt_variation="0;1"
       top_tgt_variation="0;1"
       scale_bf="2"
       scale_bb="2"
       scale_tf="2"
       scale_tb="2"
       top_smth_variation="0;1"
       bottom_smth_variation="0;1"
       fat_output="false"
       stroke_width_top="1"
       stroke_width_bottom="1"
       front_thickness="1"
       back_thickness="0.25"
       lpeversion="0" /><inkscape:path-effect
       back_thickness="0.25"
       front_thickness="1"
       stroke_width_bottom="1"
       stroke_width_top="1"
       fat_output="false"
       bottom_smth_variation="0;1"
       top_smth_variation="0;1"
       scale_tb="2"
       scale_tf="2"
       scale_bb="2"
       scale_bf="2"
       top_tgt_variation="0;1"
       bottom_tgt_variation="0;1"
       top_edge_variation="0;1"
       bottom_edge_variation="0;1"
       bender="1522.1071,406.78552 , 5,0"
       do_bend="true"
       growth="0"
       dist_rdm="0;1"
       direction="1522.1071,401.78552 , 20.946224,21.787234"
       is_visible="true"
       id="path-effect4116-3"
       effect="rough_hatches"
       lpeversion="0" /><rect
       x="761.89117"
       y="76.95871"
       width="304.75647"
       height="161.61328"
       id="rect97" /></defs><g
     inkscape:label="Layer 1"
     inkscape:groupmode="layer"
     id="layer1"
     transform="translate(-7.7985383,15)"><g
       id="1"
       inkscape:label="Hot Coaco"
       stroke="#000000"
       stroke-width="0.8"
       fill="none"
       stroke-linecap="round"
       stroke-linejoin="round"
       transform="translate(-12.803214,-14.424056)"
       style="display:inline"><path
         d="m 121.22359,41.469191 c -0.66713,3.528334 -3.31772,5.541085 -6.28543,6.698664 -2.91733,1.619345 -7.1575,2.148927 -10.46368,2.42476 -5.189087,1.026821 -10.53205,0.703831 -15.762097,0.329973 -4.063885,-0.689873 -8.174737,-1.323476 -11.921996,-3.146866 -2.754747,-1.224792 -5.879826,-3.611938 -6.137176,-6.861913 0.408589,-3.113423 3.64423,-5.554359 6.358124,-6.889816 l 2.448506,-0.616575"
         stroke="inherit"
         stroke-width="inherit"
         fill="none"
         id="path1-2"
         style="stroke-width:0.898139;stroke-dasharray:none"
         sodipodi:nodetypes="cccccccc" /><path
         d="m 121.21312,41.467376 c -0.19291,-2.996208 -2.92215,-5.283582 -5.70436,-6.584022 -3.30034,-0.954321 -6.47944,-2.412749 -9.87941,-2.987204"
         stroke="inherit"
         stroke-width="inherit"
         fill="none"
         id="path3-0"
         style="stroke-width:0.898139;stroke-dasharray:none"
         sodipodi:nodetypes="ccc" /><path
         d="m 95.970913,31.253193 c -0.89339,-0.264953 -4.093086,-0.1578 -5.13843,-0.210205"
         stroke="inherit"
         stroke-width="inherit"
         fill="none"
         id="path4-7"
         style="stroke-width:0.981935;stroke-dasharray:none"
         sodipodi:nodetypes="cc" /><path
         d="m 120.51835,39.349852 c -0.28941,3.062257 -1.22782,3.419499 -3.12078,5.679238 -2.77775,2.846967 -6.98986,2.698935 -10.62884,3.440568 -3.37067,0.188679 -6.70212,0.719045 -10.080027,0.706578 C 92.929888,49.018512 88.956151,49.443207 85.249734,48.323855 81.845491,47.1894 78.343195,46.297842 75.126427,44.767378 71.943421,42.927198 71.535914,37.902683 74.36593,35.655856"
         stroke="inherit"
         stroke-width="inherit"
         fill="none"
         id="path5-4"
         style="stroke-width:0.898139;stroke-dasharray:none"
         sodipodi:nodetypes="ccccccc" /><path
         d="m 120.205,44.36788 c -1.00895,2.551813 0.17951,5.802696 -0.38562,8.622409 0.0975,5.681817 -0.65354,11.338998 -0.65269,17.024239 -0.40288,4.297271 -0.71633,8.595524 -1.0577,12.886848 -1.73275,2.734657 -4.4809,4.607242 -7.52086,5.647145 -3.19419,1.363886 -6.7902,1.295853 -10.01008,2.486509 -3.610507,0.15438 -7.184297,-0.07629 -10.770087,-0.394246 -3.261108,-0.168023 -6.211288,-1.865092 -9.28806,-2.784783 -3.270441,-2.0626 -6.173043,-4.870053 -7.061656,-8.795953 -0.268166,-3.678592 0.326237,-7.436063 -0.127498,-11.140004 -1.056251,-3.742707 -0.03014,-7.576154 -0.21378,-11.378121 0.21973,-3.030972 -0.207406,-5.902418 -0.09665,-9.081364 -0.09235,-1.120447 0.323396,0.442259 -0.12528,-2.021609"
         stroke="inherit"
         stroke-width="inherit"
         fill="none"
         id="path6-85"
         style="stroke-width:0.898139;stroke-dasharray:none"
         sodipodi:nodetypes="ccccccccccccc" /><path
         d="m 72.647076,51.730719 c -3.03164,-0.801541 -6.762489,-2.345042 -9.976748,-0.932671 -2.970104,1.06772 -3.265337,4.586115 -3.02091,7.275694 0.285914,3.767328 1.153211,8.331733 5.37767,9.462372 2.393812,1.125424 5.932393,2.262711 8.0709,2.751951"
         stroke="inherit"
         stroke-width="inherit"
         fill="none"
         id="path7-8"
         style="stroke-width:0.898139;stroke-dasharray:none" /><path
         d="m 73.022731,46.471549 c -3.296908,-0.792916 -6.862866,-1.98599 -10.206532,-0.612532 -3.778924,1.026929 -6.589987,4.630443 -6.589466,9.057627 -0.448052,2.839399 0.528078,5.59253 0.631116,8.448594 0.98917,3.253045 2.670643,5.666865 5.37943,7.66398 2.613217,2.342665 5.956632,3.658085 8.963273,5.306297 0.661952,-0.07172 1.252799,0.279491 1.897425,0.338662"
         stroke="inherit"
         stroke-width="inherit"
         fill="none"
         id="path8-3"
         style="stroke-width:0.898139;stroke-dasharray:none"
         sodipodi:nodetypes="ccccccc" /><path
         d="m 98.514903,36.573387 c -3.09934,-0.864659 -6.342369,2.873695 -5.545487,5.887154 -0.255999,4.015592 6.425717,4.183161 7.166954,0.601015 0.95642,-2.307772 -0.217717,-4.648199 -1.533967,-6.357042 1.680837,2.493146 6.128497,3.12029 6.651617,5.78507 -0.16195,0.464699 -0.0855,1.008425 -0.3757,1.427487"
         stroke="inherit"
         stroke-width="inherit"
         fill="none"
         id="path9-0"
         style="stroke-width:0.898139;stroke-dasharray:none"
         sodipodi:nodetypes="cccccc" /><path
         d="m 101.49738,45.269453 c -1.708077,-2.202559 -4.719077,2.198712 -3.381147,3.456027"
         stroke="inherit"
         stroke-width="inherit"
         fill="none"
         id="path10-6"
         style="stroke-width:0.898139;stroke-dasharray:none" /><path
         d="m 101.27199,44.893797 c 0.63047,1.084847 1.97418,2.208385 0.15035,3.380894"
         stroke="inherit"
         stroke-width="inherit"
         fill="none"
         id="path11-2"
         style="stroke-width:0.898139;stroke-dasharray:none"
         sodipodi:nodetypes="cc" /><path
         d="m 101.49556,45.068639 c 2.46494,1.268065 4.06823,0.740341 5.72108,2.172129 0.33406,0.02287 0.81004,0.241301 0.59191,0.65825"
         stroke="inherit"
         stroke-width="inherit"
         fill="none"
         id="path12-2"
         style="stroke-width:0.898139;stroke-dasharray:none"
         sodipodi:nodetypes="ccc" /><path
         d="m 114.6453,46.471549 c 1.716,-2.22526 0.83096,-5.162275 -2.40652,-4.96914 -3.92312,-0.216144 -2.66591,6.129411 0.85395,5.513864 0.55987,-0.0031 1.27719,-0.27799 1.32745,-0.92038"
         stroke="inherit"
         stroke-width="inherit"
         fill="none"
         id="path13-5"
         style="stroke-width:0.898139;stroke-dasharray:none" /><path
         d="m 111.56494,41.738295 c -2.11867,0.845133 -3.87383,2.681888 -3.80727,5.486367"
         stroke="inherit"
         stroke-width="inherit"
         fill="none"
         id="path14-2"
         style="stroke-width:0.898139;stroke-dasharray:none"
         sodipodi:nodetypes="cc" /><path
         d="m 105.10366,43.466309 c -0.56218,0.565352 -0.48486,1.552859 -1.27735,2.028534"
         stroke="inherit"
         stroke-width="inherit"
         fill="none"
         id="path15-2"
         style="stroke-width:0.898139;stroke-dasharray:none" /><path
         d="m 87.523011,36.479126 c 2.299464,1.344672 4.182089,-4.793185 0.612434,-5.73442 -4.277417,-2.549732 -7.873492,4.415503 -0.870124,5.701245"
         stroke="inherit"
         stroke-width="inherit"
         fill="none"
         id="path16-7"
         style="stroke-width:0.898139;stroke-dasharray:none"
         sodipodi:nodetypes="ccc" /><path
         d="m 84.818302,30.694039 c -2.075096,1.435352 -6.088743,2.10304 -6.723302,5.332042 0.608292,3.041009 4.289969,4.499148 6.950738,3.130395 1.194484,-0.605639 2.3629,-1.263353 3.130568,-2.460611"
         stroke="inherit"
         stroke-width="inherit"
         fill="none"
         id="path17-1"
         style="stroke-width:0.898139;stroke-dasharray:none"
         sodipodi:nodetypes="cccc" /><path
         d="m 74.039509,43.455836 c 0.783575,-2.701793 3.806529,-4.040384 5.821028,-4.077203 0.066,-0.629681 2.122776,0.541828 1.952477,0.180866"
         stroke="inherit"
         stroke-width="inherit"
         fill="none"
         id="path18-5"
         style="stroke-width:0.898139;stroke-dasharray:none"
         sodipodi:nodetypes="ccc" /><path
         d="m 88.199193,30.844301 c 2.961827,-1.210925 6.40234,3.598359 2.857213,5.042428 -0.488505,0.145557 -1.000321,0.172849 -1.504858,0.216741"
         stroke="inherit"
         stroke-width="inherit"
         fill="none"
         id="path20-2"
         style="stroke-width:0.898139;stroke-dasharray:none" /><path
         d="m 91.384303,31.209483 c 1.477212,1.879767 4.09605,2.669128 5.00498,5.206813"
         stroke="inherit"
         stroke-width="inherit"
         fill="none"
         id="path21-11"
         style="stroke-width:0.898139;stroke-dasharray:none"
         sodipodi:nodetypes="cc" /><path
         d="m 89.355767,36.594334 c -3.544797,1.857409 -0.26133,5.375104 1.683642,5.699882 4.482344,0.690638 0.290282,-7.150336 -1.484245,-5.948038"
         stroke="inherit"
         stroke-width="inherit"
         fill="none"
         id="path22-0"
         style="stroke-width:0.898139;stroke-dasharray:none"
         sodipodi:nodetypes="ccc" /><path
         d="m 84.496823,39.482549 c -3.06423,1.315613 -3.413089,6.049732 -0.193289,7.402227 3.4211,0.674003 5.611156,-2.380058 8.004918,-4.191753 l 0.420337,-0.363865"
         stroke="inherit"
         stroke-width="inherit"
         fill="none"
         id="path23-1"
         style="stroke-width:0.898139;stroke-dasharray:none"
         sodipodi:nodetypes="cccc" /><path
         d="m 104.20209,29.416812 c -1.02303,-2.401529 -5.100857,-1.876884 -3.38919,1.185299 0.35155,2.870768 6.16751,5.000156 4.8479,0.99573 -0.55209,-0.899424 -0.70695,-1.571508 -1.51108,-2.177393"
         stroke="inherit"
         stroke-width="inherit"
         fill="none"
         id="path24-87"
         style="stroke-width:0.898139;stroke-dasharray:none"
         sodipodi:nodetypes="cccc" /><path
         d="m 101.7979,27.763929 c -2.390717,1.428023 -5.749757,3.082168 -6.518647,6.06807 l -0.0713,0.102517 0.20352,0.06527"
         stroke="inherit"
         stroke-width="inherit"
         fill="none"
         id="path25-6"
         style="stroke-width:0.898139;stroke-dasharray:none" /><path
         d="m 106.00524,32.947969 c -1.02512,2.021706 -5.05187,4.763226 -8.114147,2.930101 -1.04394,-0.4124 -1.32016,-1.527683 -1.95345,-2.329058"
         stroke="inherit"
         stroke-width="inherit"
         fill="none"
         id="path26-0"
         style="stroke-width:0.898139;stroke-dasharray:none" /><path
         d="m 105.32906,34.300327 c 2.81083,-2.224182 7.93008,1.894852 5.33917,4.282463 -2.50444,1.66316 -6.32305,-1.770518 -5.78991,-4.132199"
         stroke="inherit"
         stroke-width="inherit"
         fill="none"
         id="path27-0"
         style="stroke-width:0.898139;stroke-dasharray:none" /><path
         d="m 104.80315,35.427291 c -1.32747,0.02785 -1.43869,3.238096 -2.10371,4.282468"
         stroke="inherit"
         stroke-width="inherit"
         fill="none"
         id="path28-9"
         style="stroke-width:0.898139;stroke-dasharray:none" /><path
         d="m 111.41467,38.883318 c -1.1796,2.641764 -2.85525,7.799079 -6.30935,4.637169"
         stroke="inherit"
         stroke-width="inherit"
         fill="none"
         id="path29-56"
         style="stroke-width:0.898139;stroke-dasharray:none"
         sodipodi:nodetypes="cc" /><path
         d="m 111.56494,38.582793 c 2.02386,1.710746 6.30067,-0.723431 2.71793,-2.469685 -1.08009,-0.363415 -2.29006,-0.920727 -3.39424,-0.385288"
         stroke="inherit"
         stroke-width="inherit"
         fill="none"
         id="path30-2"
         style="stroke-width:0.898139;stroke-dasharray:none" /><path
         d="m 116.22305,38.056876 c 0.11003,1.590808 -0.49519,3.379932 -0.97678,4.658123"
         stroke="inherit"
         stroke-width="inherit"
         fill="none"
         id="path31-8"
         style="stroke-width:0.898139;stroke-dasharray:none" /><path
         d="m 116.82411,39.258972 c 3.00405,0.366863 1.56328,5.949733 -1.46096,5.771187"
         stroke="inherit"
         stroke-width="inherit"
         fill="none"
         id="path32-5"
         style="stroke-width:0.898139;stroke-dasharray:none"
         sodipodi:nodetypes="cc" /><path
         d="m 90.453126,44.818666 c 2.074368,-0.880645 4.223105,1.716668 4.507987,3.456022"
         stroke="inherit"
         stroke-width="inherit"
         fill="none"
         id="path33-9"
         style="stroke-width:0.898139;stroke-dasharray:none" /><path
         d="m 90.648916,44.794087 c -1.427854,-0.08873 -2.140557,3.720799 -0.796968,3.856258"
         stroke="inherit"
         stroke-width="inherit"
         fill="none"
         id="path34-4"
         style="stroke-width:0.898139;stroke-dasharray:none"
         sodipodi:nodetypes="cc" /><path
         d="m 83.165413,46.321286 c -0.528565,-0.647402 -1.000997,2.733837 -0.564994,0.105083 -0.206536,-3.708349 -6.28387,-5.788232 -6.722923,-1.41791"
         stroke="inherit"
         stroke-width="inherit"
         fill="none"
         id="path35-3"
         style="stroke-width:0.898139;stroke-dasharray:none"
         sodipodi:nodetypes="ccc" /></g></g></svg>
