<?xml version="1.0" encoding="UTF-8" standalone="no"?>
<!-- Created with Inkscape (http://www.inkscape.org/) -->

<svg
   width="360mm"
   height="120mm"
   viewBox="0 0 360 120"
   version="1.1"
   id="svg1"
   xml:space="preserve"
   inkscape:version="1.3.2 (091e20e, 2023-11-25)"
   sodipodi:docname="PeaceBird.svg"
   xmlns:inkscape="http://www.inkscape.org/namespaces/inkscape"
   xmlns:sodipodi="http://sodipodi.sourceforge.net/DTD/sodipodi-0.dtd"
   xmlns:xlink="http://www.w3.org/1999/xlink"
   xmlns="http://www.w3.org/2000/svg"
   xmlns:svg="http://www.w3.org/2000/svg"><sodipodi:namedview
     id="namedview1"
     pagecolor="#ffffff"
     bordercolor="#000000"
     borderopacity="0.25"
     inkscape:showpageshadow="2"
     inkscape:pageopacity="0.0"
     inkscape:pagecheckerboard="0"
     inkscape:deskcolor="#d1d1d1"
     inkscape:document-units="mm"
     inkscape:zoom="0.20364513"
     inkscape:cx="665.37314"
     inkscape:cy="942.81656"
     inkscape:current-layer="layer1" /><defs
     id="defs1"><inkscape:path-effect
       back_thickness="0.25"
       front_thickness="1"
       stroke_width_bottom="1"
       stroke_width_top="1"
       fat_output="false"
       bottom_smth_variation="0;1"
       top_smth_variation="0;1"
       scale_tb="2"
       scale_tf="2"
       scale_bb="2"
       scale_bf="2"
       top_tgt_variation="0;1"
       bottom_tgt_variation="0;1"
       top_edge_variation="0;1"
       bottom_edge_variation="0;1"
       bender="1522.1071,406.78552 , 5,0"
       do_bend="true"
       growth="0"
       dist_rdm="0;1"
       direction="1522.1071,401.78552 , 20.946224,21.787234"
       is_visible="true"
       id="path-effect4116"
       effect="rough_hatches"
       lpeversion="0" /><linearGradient
       x1="1.9698247"
       y1="34.874969"
       x2="14.761634"
       xlink:href="#imagebot_35"
       y2="34.788586"
       id="imagebot_25"
       gradientTransform="scale(1.0944943,0.913664)"
       gradientUnits="userSpaceOnUse" /><linearGradient
       id="imagebot_35"><stop
         offset="0"
         stop-color="#9a5723"
         id="imagebot_39" /><stop
         offset="1"
         stop-color="#db9762"
         id="imagebot_38" /></linearGradient><linearGradient
       x2="6.4821496"
       y2="14.783549"
       y1="14.783549"
       xlink:href="#imagebot_35"
       id="imagebot_23"
       gradientTransform="scale(0.4868775,2.0539047)"
       x1="0.32040915"
       gradientUnits="userSpaceOnUse" /><linearGradient
       x2="14.128051"
       y2="24.911909"
       y1="12.332888"
       xlink:href="#imagebot_35"
       id="imagebot_21"
       gradientTransform="scale(1.143535,0.87448136)"
       x1="8.0067511"
       gradientUnits="userSpaceOnUse" /><linearGradient
       x1="-1.0948765"
       y1="9.0848875"
       x2="14.472001"
       xlink:href="#imagebot_35"
       y2="18.33567"
       id="imagebot_19"
       gradientTransform="scale(0.77089087,1.2972005)"
       gradientUnits="userSpaceOnUse" /><linearGradient
       x2="21.019093"
       y2="37.72084"
       y1="27.523834"
       xlink:href="#imagebot_35"
       id="imagebot_17"
       gradientTransform="scale(1.0540926,0.9486833)"
       x1="2.9940445"
       gradientUnits="userSpaceOnUse" /><linearGradient
       x2="28.298302"
       y2="13.339052"
       y1="8.3322973"
       xlink:href="#imagebot_35"
       id="imagebot_15"
       gradientTransform="scale(0.92429937,1.0819006)"
       x1="16.602846"
       gradientUnits="userSpaceOnUse" /><linearGradient
       x1="12.695371"
       y1="14.845891"
       x2="4.4375334"
       xlink:href="#imagebot_34"
       y2="13.40415"
       id="imagebot_13"
       gradientTransform="scale(0.74442254,1.3433231)"
       gradientUnits="userSpaceOnUse" /><linearGradient
       id="imagebot_34"><stop
         offset="0"
         stop-color="#7ed249"
         id="imagebot_37" /><stop
         offset="1"
         stop-color="#286325"
         id="imagebot_36" /></linearGradient><linearGradient
       x1="20.774029"
       y1="26.279816"
       x2="11.03502"
       xlink:href="#imagebot_34"
       y2="20.825972"
       id="imagebot_11"
       gradientTransform="scale(0.92514559,1.0809109)"
       gradientUnits="userSpaceOnUse" /><filter
       x="-0.153"
       height="1.3478"
       width="1.306"
       y="-0.17389999"
       id="imagebot_9"
       color-interpolation-filters="sRGB"><feGaussianBlur
         stdDeviation="0.25713"
         id="imagebot_33" /></filter><filter
       x="-0.21352001"
       height="1.4493001"
       width="1.427"
       y="-0.22465"
       id="imagebot_7"
       color-interpolation-filters="sRGB"><feGaussianBlur
         stdDeviation="0.25713"
         id="imagebot_32" /></filter><filter
       x="-0.13411"
       height="1.1229"
       width="1.2682"
       y="-0.061469998"
       id="imagebot_5"
       color-interpolation-filters="sRGB"><feGaussianBlur
         stdDeviation="0.21961"
         id="imagebot_31" /></filter><filter
       id="imagebot_3"
       color-interpolation-filters="sRGB"><feGaussianBlur
         stdDeviation="0.17322"
         id="imagebot_30" /></filter><inkscape:path-effect
       effect="rough_hatches"
       id="path-effect3982"
       is_visible="true"
       direction="1522.2031,401.90626 , 22.487883,24.510638"
       dist_rdm="0;1"
       growth="0"
       do_bend="true"
       bender="1522.2031,406.90626 , 5,0"
       bottom_edge_variation="0;1"
       top_edge_variation="0;1"
       bottom_tgt_variation="0;1"
       top_tgt_variation="0;1"
       scale_bf="2"
       scale_bb="2"
       scale_tf="2"
       scale_tb="2"
       top_smth_variation="0;1"
       bottom_smth_variation="0;1"
       fat_output="false"
       stroke_width_top="1"
       stroke_width_bottom="1"
       front_thickness="1"
       back_thickness="0.25"
       lpeversion="0" /><inkscape:path-effect
       back_thickness="0.25"
       front_thickness="1"
       stroke_width_bottom="1"
       stroke_width_top="1"
       fat_output="false"
       bottom_smth_variation="0;1"
       top_smth_variation="0;1"
       scale_tb="2"
       scale_tf="2"
       scale_bb="2"
       scale_bf="2"
       top_tgt_variation="0;1"
       bottom_tgt_variation="0;1"
       top_edge_variation="0;1"
       bottom_edge_variation="0;1"
       bender="1522.1071,406.78552 , 5,0"
       do_bend="true"
       growth="0"
       dist_rdm="0;1"
       direction="1522.1071,401.78552 , 20.946224,21.787234"
       is_visible="true"
       id="path-effect4116-3"
       effect="rough_hatches"
       lpeversion="0" /><rect
       x="761.89117"
       y="76.95871"
       width="304.75647"
       height="161.61328"
       id="rect97" /></defs><g
     inkscape:label="Layer 1"
     inkscape:groupmode="layer"
     id="layer1"
     transform="translate(-7.7985383,15)"><g
       id="g4"
       transform="translate(-10.925326,-13.94162)"
       style="display:inline"
       inkscape:label="Peace Bird"><g
         inkscape:label="guidelines"
         id="layer1-57" /><g
         id="layer3"
         inkscape:label="design"><path
           d="m 88.237028,59.237375 c -1.872968,0.17748 -4.145629,0.913622 -5.57217,-0.717835 -1.507506,-1.113697 -3.02052,-2.215174 -3.93491,-3.866113 -1.369064,-2.244306 -3.956486,-3.09874 -6.286507,-3.924815 -1.596581,-0.292999 -3.448634,-0.580734 -4.60113,0.823875 -1.76715,1.182656 -2.04068,3.90173 -1.145977,5.674423 2.025905,2.068813 5.329157,3.124738 6.128215,6.156961 0.869055,2.034759 1.213138,4.240866 2.406879,6.153839 1.515818,3.478037 3.374195,6.983669 6.538828,9.236533 3.08658,1.535062 6.282404,3.07371 9.721814,3.727085 3.088134,0.93018 6.402782,0.246403 9.59856,0.413344 1.2252,-0.07841 2.72925,0.111008 3.8045,-0.126141"
           stroke="inherit"
           stroke-width="0.765891"
           fill="none"
           id="path1-1"
           style="stroke:#000000;stroke-width:0.8;stroke-linecap:round;stroke-linejoin:round;stroke-dasharray:none" /><path
           d="m 85.747881,61.152104 c 0.346925,-0.135873 2.050322,-1.741277 2.967829,-2.393407 2.401296,-2.165155 4.936467,-4.303672 6.366447,-7.278749 2.137707,-3.244136 5.595393,-5.255414 8.436543,-7.826724 2.11532,-1.512563 4.2642,-2.970795 5.83291,-5.094114 1.54284,-1.882806 3.71645,-3.015282 5.07784,-5.083147 1.7634,-1.985726 5.3141,-5.818295 7.34565,-7.487006 9.07299,-8.034781 -4.36287,12.354516 -4.66026,11.571784 3.47792,-3.108537 6.59269,-7.853823 10.21546,-10.771989 1.05625,0.281508 0.0423,2.662132 -0.30438,3.631178 -1.98901,4.012197 -8.88832,10.993437 -13.22668,13.693114 -1.83259,1.285971 6.45458,-3.818247 6.96274,-4.347924 1.67168,-1.734698 3.94372,-2.914792 5.98413,-4.412218 1.34557,-0.781447 2.61814,-1.699103 1.53589,0.626733 -1.10933,2.036109 -1.64484,4.193009 -3.18637,6.216662 -2.06296,2.18092 -4.24254,4.378098 -7.11886,5.413192 -1.59,0.897327 -3.12982,1.887417 -4.75246,2.724405 3.47819,-2.069427 7.09715,-3.953516 10.74199,-5.679451 1.41544,-0.628292 3.25259,-1.237868 2.47653,1.049398 -0.57324,2.264097 -2.79158,3.656646 -4.53797,5.010171 -1.89515,0.655831 -3.64097,1.658493 -5.4136,2.520721 -0.84126,0.305003 -4.08979,0.925463 -3.35823,1.024358 2.11281,-0.167286 10.66504,-5.024451 10.21597,-2.635967 -0.52609,2.408288 -2.99911,3.796255 -5.05587,4.813353 -2.24961,1.653097 -5.00288,1.49827 -7.55794,2.130761 2.5647,0.01835 5.02105,-0.833687 7.56318,-1.053105 -0.32916,1.9187 -1.36824,3.688413 -3.24515,4.438019 -3.15815,1.433893 -6.64016,1.63442 -10.06218,1.689117 0.28696,0.421424 2.68182,0.01804 3.73097,-0.119261 1.13211,0.08571 3.03549,-0.746601 3.64074,0.310727 -0.35866,1.716288 -1.61771,3.063981 -3.40091,3.281047 -2.29185,0.455606 -4.60113,1.505859 -6.93863,0.644147 1.79124,0.232508 3.85914,-0.502243 5.45413,0.438108 0.61891,0.948491 -1.34582,2.462662 -2.34984,2.739531 -2.38414,0.929678 -5.06286,0.505868 -7.543964,0.474266 -0.887458,0.02399 -3.094837,-1.781338 -3.314972,-0.779809"
           stroke="inherit"
           stroke-width="0.765891"
           fill="none"
           id="path2-2"
           style="stroke:#000000;stroke-width:0.8;stroke-linecap:round;stroke-linejoin:round;stroke-dasharray:none"
           sodipodi:nodetypes="cccccccccccccccccccccccccccccccccccc" /><path
           d="m 101.54439,82.980011 c 0.23459,0.821162 1.82674,2.280159 2.58401,3.346897 2.03351,1.991373 3.98778,4.080828 6.09974,6.007003 1.37255,1.427291 3.2272,2.465511 5.2603,2.289363 1.70749,-0.288043 -0.28137,-2.155477 -1.06702,-2.759477 -1.74711,-1.609851 -1.44922,-1.423558 0.18025,-0.01805 2.04841,0.441576 4.76978,2.083767 6.8559,1.378056 2.55363,-0.550143 -3.53256,-3.983861 -4.98657,-5.672456 2.48693,1.219731 4.05414,2.350928 7.58314,3.210105 2.55677,-0.167096 3.35973,-1.313309 0.35442,-3.403998 -1.98081,-1.042904 -3.76978,-2.382956 -5.63153,-3.611562 2.85214,1.436094 5.93661,2.730455 9.09496,3.057709 1.53985,-0.752596 1.52835,-2.972988 -0.24064,-3.471092 -1.88189,-1.289305 -4.17663,-1.476517 -6.26944,-2.171501 1.84405,0.541242 3.89294,0.975805 5.74134,0.519257 2.12711,-0.306719 4.35282,-2.117991 2.33439,-3.582822"
           stroke="inherit"
           stroke-width="0.765891"
           fill="none"
           id="path3-9"
           style="stroke:#000000;stroke-width:0.8;stroke-linecap:round;stroke-linejoin:round;stroke-dasharray:none"
           sodipodi:nodetypes="cccccccccccccccc" /><path
           d="m 101.3706,71.714863 c 1.00236,3.412572 5.56182,4.230898 8.40713,5.520954 3.54009,0.324323 6.75815,0.666892 10.18192,0.692312 l 3.92679,-0.02215 c 1.80754,-0.0018 3.61434,0.06643 5.42156,0.09574"
           stroke="inherit"
           stroke-width="0.765891"
           fill="none"
           id="path4-75"
           style="stroke:#000000;stroke-width:0.8;stroke-linecap:round;stroke-linejoin:round;stroke-dasharray:none"
           sodipodi:nodetypes="ccccc" /><path
           d="m 84.981989,58.854429 c -1.894044,-3.756699 -4.520304,-7.184558 -5.839922,-11.201162 0.05396,-6.380282 0.401223,-12.784729 -0.277894,-19.143922 -0.918284,-2.231882 0.737431,-1.48491 1.65887,-0.186951 1.71589,2.169164 2.968572,4.69329 2.989703,7.512459 0.148351,2.454539 0.5311,-1.364125 0.971073,-2.131881 0.435589,-2.566465 1.398495,-0.761043 1.869211,0.740945 0.701977,1.875511 0.790273,3.940185 0.735161,5.933387 0.628966,-1.006284 0.999073,-3.175901 2.165105,-3.165212 1.069142,1.694954 1.587801,3.754324 1.377143,5.772228 -0.04167,1.917731 -0.335257,2.675039 0.569752,0.40361 0.341421,-0.84243 1.491438,-3.884478 1.85174,-1.686741 0.553491,2.195449 0.879721,4.748153 -0.219554,6.813707 0.54082,-1.361696 2.007306,-2.634758 2.275088,-0.383089 0.218481,0.796399 0.158973,2.006452 0.02258,2.680767"
           stroke="inherit"
           stroke-width="0.765891"
           fill="none"
           id="path6-6"
           style="stroke:#000000;stroke-width:0.8;stroke-linecap:round;stroke-linejoin:round;stroke-dasharray:none" /><path
           d="m 66.217648,55.216445 c -0.990234,0.09443 -3.609641,1.712038 -2.867665,1.914728 1.147361,0 2.294723,0 3.442084,0"
           stroke="inherit"
           stroke-width="0.765891"
           fill="none"
           id="path7-5"
           style="stroke:#000000;stroke-width:0.8;stroke-linecap:round;stroke-linejoin:round;stroke-dasharray:none" /><path
           d="M 65.711043,59.524584 C 65.4013,59.631175 65.279663,58.261706 65.1011,57.164122"
           stroke="inherit"
           stroke-width="0.765891"
           fill="none"
           id="path15-30"
           style="stroke:#000000;stroke-width:0.8;stroke-linecap:round;stroke-linejoin:round;stroke-dasharray:none"
           sodipodi:nodetypes="cc" /><path
           d="m 71.866098,54.25908 c -1.739422,1.697578 2.321397,0.06634 -0.09574,-0.09573"
           stroke="inherit"
           stroke-width="0.765891"
           fill="none"
           id="path16-4"
           style="stroke:#000000;stroke-width:0.8;stroke-linecap:round;stroke-linejoin:round;stroke-dasharray:none" /><path
           d="m 58.207958,66.164134 c -2.307543,1.64803 2.253149,2.26767 0.9968,4.94e-4 -0.706981,-0.378701 -0.851087,0.08604 -1.054096,0.01872"
           stroke="inherit"
           stroke-width="0.765891"
           fill="none"
           id="path29-8"
           style="stroke:#000000;stroke-width:0.8;stroke-linecap:round;stroke-linejoin:round;stroke-dasharray:none"
           sodipodi:nodetypes="ccc" /><path
           d="m 58.47173,65.068383 c 0,-0.765892 0,-1.531783 0,-2.297675"
           stroke="inherit"
           stroke-width="0.765891"
           fill="none"
           id="path30-5"
           style="stroke:#000000;stroke-width:0.8;stroke-linecap:round;stroke-linejoin:round;stroke-dasharray:none" /><path
           d="m 60.29073,66.791639 c 0.09744,-0.512306 1.00782,0.504133 1.43604,0.09573"
           stroke="inherit"
           stroke-width="0.765891"
           fill="none"
           id="path31-55"
           style="stroke:#000000;stroke-width:0.8;stroke-linecap:round;stroke-linejoin:round;stroke-dasharray:none" /><path
           d="m 58.85468,68.706367 c 0,0.829716 0,1.659432 0,2.489148"
           stroke="inherit"
           stroke-width="0.765891"
           fill="none"
           id="path32-42"
           style="stroke:#000000;stroke-width:0.8;stroke-linecap:round;stroke-linejoin:round;stroke-dasharray:none" /><path
           d="m 56.55701,66.600166 c -0.638243,0 -1.276487,0 -1.91473,0"
           stroke="inherit"
           stroke-width="0.765891"
           fill="none"
           id="path33-1"
           style="stroke:#000000;stroke-width:0.8;stroke-linecap:round;stroke-linejoin:round;stroke-dasharray:none" /><path
           d="m 133.77134,72.550596 c -0.99868,0.411152 1.23192,2.665216 0.87791,0.472818 -0.28246,-0.389131 -0.28996,-0.741175 -0.86162,-0.478679"
           stroke="inherit"
           stroke-width="0.765891"
           fill="none"
           id="path34-9"
           style="stroke:#000000;stroke-width:0.8;stroke-linecap:round;stroke-linejoin:round;stroke-dasharray:none"
           sodipodi:nodetypes="ccc" /><path
           d="m 134.45778,71.204429 c -0.0136,-0.403552 0.15924,-0.880531 0.0957,-0.957361"
           stroke="inherit"
           stroke-width="0.765891"
           fill="none"
           id="path35-2"
           style="stroke:#000000;stroke-width:0.8;stroke-linecap:round;stroke-linejoin:round;stroke-dasharray:none"
           sodipodi:nodetypes="cc" /><path
           d="m 135.70235,73.023422 c 0.31912,-0.06382 0.63825,-0.127649 0.95737,-0.191473"
           stroke="inherit"
           stroke-width="0.765891"
           fill="none"
           id="path36-4"
           style="stroke:#000000;stroke-width:0.8;stroke-linecap:round;stroke-linejoin:round;stroke-dasharray:none" /><path
           d="m 134.36204,74.842414 c -0.0319,0.382946 -0.0638,0.765891 -0.0957,1.148837"
           stroke="inherit"
           stroke-width="0.765891"
           fill="none"
           id="path37-58"
           style="stroke:#000000;stroke-width:0.8;stroke-linecap:round;stroke-linejoin:round;stroke-dasharray:none" /><path
           d="m 132.73453,72.831949 c -0.38295,-0.03191 -0.76589,-0.06383 -1.14884,-0.09574"
           stroke="inherit"
           stroke-width="0.765891"
           fill="none"
           id="path38-6"
           style="stroke:#000000;stroke-width:0.8;stroke-linecap:round;stroke-linejoin:round;stroke-dasharray:none" /><path
           d="m 124.21398,61.056367 c -1.22258,1.447601 2.26968,0.500669 0.0502,-0.10159"
           stroke="inherit"
           stroke-width="0.765891"
           fill="none"
           id="path39-2"
           style="stroke:#000000;stroke-width:0.8;stroke-linecap:round;stroke-linejoin:round;stroke-dasharray:none"
           sodipodi:nodetypes="cc" /><path
           d="m 124.30972,59.716057 c 0,-0.382946 0,-0.765891 0,-1.148837"
           stroke="inherit"
           stroke-width="0.765891"
           fill="none"
           id="path40-5"
           style="stroke:#000000;stroke-width:0.8;stroke-linecap:round;stroke-linejoin:round;stroke-dasharray:none" /><path
           d="m 124.59693,62.87536 c 0.0319,0.44677 0.0638,0.89354 0.0957,1.34031"
           stroke="inherit"
           stroke-width="0.765891"
           fill="none"
           id="path41-1"
           style="stroke:#000000;stroke-width:0.8;stroke-linecap:round;stroke-linejoin:round;stroke-dasharray:none" /><path
           d="m 126.03297,61.343577 c 0.54251,-0.06382 1.08501,-0.127649 1.62752,-0.191473"
           stroke="inherit"
           stroke-width="0.765891"
           fill="none"
           id="path42-3"
           style="stroke:#000000;stroke-width:0.8;stroke-linecap:round;stroke-linejoin:round;stroke-dasharray:none" /><path
           d="m 123.16088,61.343577 c -0.38295,-0.06382 -0.76589,-0.127649 -1.14884,-0.191473"
           stroke="inherit"
           stroke-width="0.765891"
           fill="none"
           id="path43-9"
           style="stroke:#000000;stroke-width:0.8;stroke-linecap:round;stroke-linejoin:round;stroke-dasharray:none" /><path
           d="m 133.40468,48.514894 c -2.65133,-0.248888 0.96904,2.950022 0.21366,-0.06188"
           stroke="inherit"
           stroke-width="0.765891"
           fill="none"
           id="path44-7"
           style="stroke:#000000;stroke-width:0.8;stroke-linecap:round;stroke-linejoin:round;stroke-dasharray:none"
           sodipodi:nodetypes="cc" /><path
           d="m 133.11747,47.270321 c -0.0319,-0.223385 -0.0638,-0.44677 -0.0957,-0.670155"
           stroke="inherit"
           stroke-width="0.765891"
           fill="none"
           id="path45-3"
           style="stroke:#000000;stroke-width:0.8;stroke-linecap:round;stroke-linejoin:round;stroke-dasharray:none" /><path
           d="m 133.40468,50.52536 c -0.0319,0.159561 -0.0638,0.319121 -0.0957,0.478682"
           stroke="inherit"
           stroke-width="0.765891"
           fill="none"
           id="path46-7"
           style="stroke:#000000;stroke-width:0.8;stroke-linecap:round;stroke-linejoin:round;stroke-dasharray:none" /><path
           d="m 134.55352,49.185049 c 0.32698,0.0078 0.64573,0.02215 0.95736,-0.09574"
           stroke="inherit"
           stroke-width="0.765891"
           fill="none"
           id="path47-5"
           style="stroke:#000000;stroke-width:0.8;stroke-linecap:round;stroke-linejoin:round;stroke-dasharray:none" /><path
           d="m 131.96863,48.993577 c -0.32555,-0.09632 -0.79719,0.04301 -1.05306,-0.19148"
           stroke="inherit"
           stroke-width="0.765891"
           fill="none"
           id="path48-0"
           style="stroke:#000000;stroke-width:0.8;stroke-linecap:round;stroke-linejoin:round;stroke-dasharray:none" /><path
           d="m 133.60787,26.585394 c -0.10304,0.767389 1.88452,1.422372 0.94568,-0.664298 -0.51379,-0.104654 -0.69175,0.05772 -0.95737,0.478682"
           stroke="inherit"
           stroke-width="0.765891"
           fill="none"
           id="path49-2"
           style="stroke:#000000;stroke-width:0.8;stroke-linecap:round;stroke-linejoin:round;stroke-dasharray:none"
           sodipodi:nodetypes="ccc" /><path
           d="m 134.26631,24.485049 c -0.18338,-0.466075 -0.44882,-0.835038 0,-1.244573"
           stroke="inherit"
           stroke-width="0.765891"
           fill="none"
           id="path50-1"
           style="stroke:#000000;stroke-width:0.8;stroke-linecap:round;stroke-linejoin:round;stroke-dasharray:none" /><path
           d="m 135.89383,26.208305 c 0.31912,0.127649 0.63824,0.255297 0.95736,0.382946"
           stroke="inherit"
           stroke-width="0.765891"
           fill="none"
           id="path51-8"
           style="stroke:#000000;stroke-width:0.8;stroke-linecap:round;stroke-linejoin:round;stroke-dasharray:none" /><path
           d="m 134.26631,28.314507 c -0.0638,0.478682 -0.12765,0.957364 -0.19147,1.436046"
           stroke="inherit"
           stroke-width="0.765891"
           fill="none"
           id="path52-7"
           style="stroke:#000000;stroke-width:0.8;stroke-linecap:round;stroke-linejoin:round;stroke-dasharray:none" /><path
           d="m 132.73453,26.974197 c -0.57442,0.06382 -1.14884,0.127649 -1.72326,0.191473"
           stroke="inherit"
           stroke-width="0.765891"
           fill="none"
           id="path53"
           style="stroke:#000000;stroke-width:0.8;stroke-linecap:round;stroke-linejoin:round;stroke-dasharray:none" /><path
           d="m 44.422897,35.443964 c -1.988118,0.119503 1.400117,2.643159 0.478687,0.191469 -0.195603,-0.0031 -0.835165,-0.521704 -0.861628,-0.287206"
           stroke="inherit"
           stroke-width="0.765891"
           fill="none"
           id="path54"
           style="stroke:#000000;stroke-width:0.8;stroke-linecap:round;stroke-linejoin:round;stroke-dasharray:none" /><path
           d="m 44.422897,34.007918 c 0.03191,-0.382946 0.06383,-0.765892 0.09574,-1.148838"
           stroke="inherit"
           stroke-width="0.765891"
           fill="none"
           id="path55"
           style="stroke:#000000;stroke-width:0.8;stroke-linecap:round;stroke-linejoin:round;stroke-dasharray:none" /><path
           d="m 46.433363,35.82691 c 0.414858,-0.06382 0.829715,-0.127649 1.244573,-0.191473"
           stroke="inherit"
           stroke-width="0.765891"
           fill="none"
           id="path56"
           style="stroke:#000000;stroke-width:0.8;stroke-linecap:round;stroke-linejoin:round;stroke-dasharray:none" /><path
           d="m 44.518634,38.028848 c 0.03191,0.478682 0.06383,0.957364 0.09574,1.436046"
           stroke="inherit"
           stroke-width="0.765891"
           fill="none"
           id="path57"
           style="stroke:#000000;stroke-width:0.8;stroke-linecap:round;stroke-linejoin:round;stroke-dasharray:none" /><path
           d="M 42.699642,36.209856 C 42.061399,36.082207 41.423156,35.954559 40.784913,35.82691"
           stroke="inherit"
           stroke-width="0.765891"
           fill="none"
           id="path58"
           style="stroke:#000000;stroke-width:0.8;stroke-linecap:round;stroke-linejoin:round;stroke-dasharray:none" /><path
           d="m 95.30158,26.974197 c -2.220734,-0.787686 0.301484,2.597798 0.287205,0.191466 -0.223385,-0.127649 -0.44677,-0.255297 -0.670155,-0.382946"
           stroke="inherit"
           stroke-width="0.765891"
           fill="none"
           id="path59"
           style="stroke:#000000;stroke-width:0.8;stroke-linecap:round;stroke-linejoin:round;stroke-dasharray:none" /><path
           d="m 95.205843,25.346677 c 0.06382,-0.44677 0.127649,-0.89354 0.191473,-1.34031"
           stroke="inherit"
           stroke-width="0.765891"
           fill="none"
           id="path60"
           style="stroke:#000000;stroke-width:0.8;stroke-linecap:round;stroke-linejoin:round;stroke-dasharray:none" /><path
           d="m 96.737626,27.261406 c 0.414858,0.06382 0.829716,0.127649 1.244574,0.191473"
           stroke="inherit"
           stroke-width="0.765891"
           fill="none"
           id="path61"
           style="stroke:#000000;stroke-width:0.8;stroke-linecap:round;stroke-linejoin:round;stroke-dasharray:none" /><path
           d="m 95.110107,29.176135 c 0.03191,0.44677 0.06383,0.89354 0.09574,1.34031"
           stroke="inherit"
           stroke-width="0.765891"
           fill="none"
           id="path62"
           style="stroke:#000000;stroke-width:0.8;stroke-linecap:round;stroke-linejoin:round;stroke-dasharray:none" /><path
           d="m 64.282975,34.441639 c -1.435341,-1.212348 -2.013089,2.084505 -0.477209,1.765637 1.9951,-0.178339 0.706148,-1.692119 -0.09722,-2.24433"
           stroke="inherit"
           stroke-width="0.765891"
           fill="none"
           id="path63"
           style="stroke:#000000;stroke-width:0.8;stroke-linecap:round;stroke-linejoin:round;stroke-dasharray:none" /><path
           d="m 64.187239,33.005592 c 0,-0.287209 0,-0.574419 0,-0.861628"
           stroke="inherit"
           stroke-width="0.765891"
           fill="none"
           id="path64-1"
           style="stroke:#000000;stroke-width:0.8;stroke-linecap:round;stroke-linejoin:round;stroke-dasharray:none" /><path
           d="m 66.006231,35.303267 c 0.382946,-0.03191 0.765891,-0.06383 1.148837,-0.09574"
           stroke="inherit"
           stroke-width="0.765891"
           fill="none"
           id="path65-5"
           style="stroke:#000000;stroke-width:0.8;stroke-linecap:round;stroke-linejoin:round;stroke-dasharray:none" /><path
           d="m 62.27251,34.920321 c -0.382946,0.06382 -0.765891,0.127649 -1.148837,0.191473"
           stroke="inherit"
           stroke-width="0.765891"
           fill="none"
           id="path66-5"
           style="stroke:#000000;stroke-width:0.8;stroke-linecap:round;stroke-linejoin:round;stroke-dasharray:none" /><path
           d="m 64.187239,37.313732 c 0.03191,0.542506 0.06383,1.085013 0.09574,1.627519"
           stroke="inherit"
           stroke-width="0.765891"
           fill="none"
           id="path67-8"
           style="stroke:#000000;stroke-width:0.8;stroke-linecap:round;stroke-linejoin:round;stroke-dasharray:none" /><path
           d="m 63.708556,87.192414 c -1.919658,-0.231158 -0.0575,2.992787 0.8424,1.321288 0.465924,-0.893927 -0.174917,-1.008549 -0.851193,-1.299135"
           stroke="inherit"
           stroke-width="0.765891"
           fill="none"
           id="path69"
           style="stroke:#000000;stroke-width:0.8;stroke-linecap:round;stroke-linejoin:round;stroke-dasharray:none"
           sodipodi:nodetypes="ccc" /><path
           d="m 63.995766,85.756367 c 0.06382,-0.414858 0.127649,-0.829715 0.191473,-1.244573"
           stroke="inherit"
           stroke-width="0.765891"
           fill="none"
           id="path70"
           style="stroke:#000000;stroke-width:0.8;stroke-linecap:round;stroke-linejoin:round;stroke-dasharray:none" /><path
           d="m 65.623285,88.054042 c 0.382946,0 0.765891,0 1.148837,0"
           stroke="inherit"
           stroke-width="0.765891"
           fill="none"
           id="path71"
           style="stroke:#000000;stroke-width:0.8;stroke-linecap:round;stroke-linejoin:round;stroke-dasharray:none" /><path
           d="m 64.091502,89.873034 c 0.03191,0.319121 0.06383,0.638243 0.09574,0.957364"
           stroke="inherit"
           stroke-width="0.765891"
           fill="none"
           id="path72"
           style="stroke:#000000;stroke-width:0.8;stroke-linecap:round;stroke-linejoin:round;stroke-dasharray:none" /><path
           d="m 62.176773,87.958305 c -0.702067,-0.06382 -1.404134,-0.127649 -2.106201,-0.191473"
           stroke="inherit"
           stroke-width="0.765891"
           fill="none"
           id="path73"
           style="stroke:#000000;stroke-width:0.8;stroke-linecap:round;stroke-linejoin:round;stroke-dasharray:none" /><path
           style="fill:none;stroke:#000000;stroke-width:0.8;stroke-linecap:round;stroke-dasharray:none;stroke-opacity:1"
           d="m 64.790444,55.396702 c -0.175899,-3.708716 -2.85028,-6.728619 -5.638072,-8.782098"
           id="path90"
           sodipodi:nodetypes="cc" /><path
           style="fill:none;stroke:#000000;stroke-width:0.8;stroke-linecap:round;stroke-dasharray:none;stroke-opacity:1"
           d="m 64.240389,51.565103 c 1.406437,-1.164778 2.157635,-6.911544 -0.09008,-3.504207 1.348202,4.055452 -6.050473,4.981165 -5.728201,1.941599 2.019153,-0.790828 3.467232,1.596772 5.268229,1.150021"
           id="path91" /><path
           style="fill:none;stroke:#000000;stroke-width:0.8;stroke-linecap:round;stroke-dasharray:none;stroke-opacity:1"
           d="m 60.802539,47.714713 c 1.648556,-1.47066 -0.032,-6.800373 -0.507895,-2.424513 0.01081,0.834504 0.282985,1.630876 0.507895,2.424513 z"
           id="path92" /><path
           style="fill:none;stroke:#000000;stroke-width:0.8;stroke-linecap:round;stroke-dasharray:none;stroke-opacity:1"
           d="m 58.73983,46.202058 c -1.636684,-1.805371 -6.003181,0.257346 -2.115528,1.272227 4.528712,1.203858 -0.421768,-6.961297 2.260467,-4.375401 0.177163,1.015958 0.479365,2.169943 -0.144939,3.103174 z"
           id="path93" /><path
           style="fill:none;stroke:#000000;stroke-width:0.8;stroke-linecap:round;stroke-dasharray:none;stroke-opacity:1"
           d="m 93.046222,80.993093 c 0.190782,0.349919 1.409587,3.201963 1.650161,1.100058"
           id="path94" /><path
           style="fill:none;stroke:#000000;stroke-width:0.8;stroke-linecap:round;stroke-dasharray:none;stroke-opacity:1"
           d="m 93.733791,80.443036 c 0.316602,0.670785 1.42332,1.987028 1.787681,0.550059"
           id="path95" /><path
           style="fill:none;stroke:#000000;stroke-width:0.8;stroke-linecap:round;stroke-dasharray:none;stroke-opacity:1"
           d="m 87.545664,81.680663 c 0.619191,0.498838 0.343086,1.469502 1.78768,0.962598"
           id="path96" /><path
           style="fill:none;stroke:#000000;stroke-width:0.8;stroke-linecap:round;stroke-dasharray:none;stroke-opacity:1"
           d="m 86.720578,81.130606 c -0.657817,1.188924 0.871952,3.132497 1.78765,1.650163"
           id="path97-5" /></g></g></g></svg>
