<?xml version="1.0" encoding="UTF-8" standalone="no"?>
<!-- Created with Inkscape (http://www.inkscape.org/) -->

<svg
   width="360mm"
   height="120mm"
   viewBox="0 0 360 120"
   version="1.1"
   id="svg1"
   xml:space="preserve"
   inkscape:version="1.3.2 (091e20e, 2023-11-25)"
   sodipodi:docname="SNOWFLAKE.svg"
   xmlns:inkscape="http://www.inkscape.org/namespaces/inkscape"
   xmlns:sodipodi="http://sodipodi.sourceforge.net/DTD/sodipodi-0.dtd"
   xmlns:xlink="http://www.w3.org/1999/xlink"
   xmlns="http://www.w3.org/2000/svg"
   xmlns:svg="http://www.w3.org/2000/svg"><sodipodi:namedview
     id="namedview1"
     pagecolor="#ffffff"
     bordercolor="#000000"
     borderopacity="0.25"
     inkscape:showpageshadow="2"
     inkscape:pageopacity="0.0"
     inkscape:pagecheckerboard="0"
     inkscape:deskcolor="#d1d1d1"
     inkscape:document-units="mm"
     inkscape:zoom="0.47818658"
     inkscape:cx="689.06158"
     inkscape:cy="453.79776"
     inkscape:current-layer="layer1" /><defs
     id="defs1"><inkscape:path-effect
       back_thickness="0.25"
       front_thickness="1"
       stroke_width_bottom="1"
       stroke_width_top="1"
       fat_output="false"
       bottom_smth_variation="0;1"
       top_smth_variation="0;1"
       scale_tb="2"
       scale_tf="2"
       scale_bb="2"
       scale_bf="2"
       top_tgt_variation="0;1"
       bottom_tgt_variation="0;1"
       top_edge_variation="0;1"
       bottom_edge_variation="0;1"
       bender="1522.1071,406.78552 , 5,0"
       do_bend="true"
       growth="0"
       dist_rdm="0;1"
       direction="1522.1071,401.78552 , 20.946224,21.787234"
       is_visible="true"
       id="path-effect4116"
       effect="rough_hatches"
       lpeversion="0" /><linearGradient
       x1="1.9698247"
       y1="34.874969"
       x2="14.761634"
       xlink:href="#imagebot_35"
       y2="34.788586"
       id="imagebot_25"
       gradientTransform="scale(1.0944943,0.913664)"
       gradientUnits="userSpaceOnUse" /><linearGradient
       id="imagebot_35"><stop
         offset="0"
         stop-color="#9a5723"
         id="imagebot_39" /><stop
         offset="1"
         stop-color="#db9762"
         id="imagebot_38" /></linearGradient><linearGradient
       x2="6.4821496"
       y2="14.783549"
       y1="14.783549"
       xlink:href="#imagebot_35"
       id="imagebot_23"
       gradientTransform="scale(0.4868775,2.0539047)"
       x1="0.32040915"
       gradientUnits="userSpaceOnUse" /><linearGradient
       x2="14.128051"
       y2="24.911909"
       y1="12.332888"
       xlink:href="#imagebot_35"
       id="imagebot_21"
       gradientTransform="scale(1.143535,0.87448136)"
       x1="8.0067511"
       gradientUnits="userSpaceOnUse" /><linearGradient
       x1="-1.0948765"
       y1="9.0848875"
       x2="14.472001"
       xlink:href="#imagebot_35"
       y2="18.33567"
       id="imagebot_19"
       gradientTransform="scale(0.77089087,1.2972005)"
       gradientUnits="userSpaceOnUse" /><linearGradient
       x2="21.019093"
       y2="37.72084"
       y1="27.523834"
       xlink:href="#imagebot_35"
       id="imagebot_17"
       gradientTransform="scale(1.0540926,0.9486833)"
       x1="2.9940445"
       gradientUnits="userSpaceOnUse" /><linearGradient
       x2="28.298302"
       y2="13.339052"
       y1="8.3322973"
       xlink:href="#imagebot_35"
       id="imagebot_15"
       gradientTransform="scale(0.92429937,1.0819006)"
       x1="16.602846"
       gradientUnits="userSpaceOnUse" /><linearGradient
       x1="12.695371"
       y1="14.845891"
       x2="4.4375334"
       xlink:href="#imagebot_34"
       y2="13.40415"
       id="imagebot_13"
       gradientTransform="scale(0.74442254,1.3433231)"
       gradientUnits="userSpaceOnUse" /><linearGradient
       id="imagebot_34"><stop
         offset="0"
         stop-color="#7ed249"
         id="imagebot_37" /><stop
         offset="1"
         stop-color="#286325"
         id="imagebot_36" /></linearGradient><linearGradient
       x1="20.774029"
       y1="26.279816"
       x2="11.03502"
       xlink:href="#imagebot_34"
       y2="20.825972"
       id="imagebot_11"
       gradientTransform="scale(0.92514559,1.0809109)"
       gradientUnits="userSpaceOnUse" /><filter
       x="-0.153"
       height="1.3478"
       width="1.306"
       y="-0.17389999"
       id="imagebot_9"
       color-interpolation-filters="sRGB"><feGaussianBlur
         stdDeviation="0.25713"
         id="imagebot_33" /></filter><filter
       x="-0.21352001"
       height="1.4493001"
       width="1.427"
       y="-0.22465"
       id="imagebot_7"
       color-interpolation-filters="sRGB"><feGaussianBlur
         stdDeviation="0.25713"
         id="imagebot_32" /></filter><filter
       x="-0.13411"
       height="1.1229"
       width="1.2682"
       y="-0.061469998"
       id="imagebot_5"
       color-interpolation-filters="sRGB"><feGaussianBlur
         stdDeviation="0.21961"
         id="imagebot_31" /></filter><filter
       id="imagebot_3"
       color-interpolation-filters="sRGB"><feGaussianBlur
         stdDeviation="0.17322"
         id="imagebot_30" /></filter><inkscape:path-effect
       effect="rough_hatches"
       id="path-effect3982"
       is_visible="true"
       direction="1522.2031,401.90626 , 22.487883,24.510638"
       dist_rdm="0;1"
       growth="0"
       do_bend="true"
       bender="1522.2031,406.90626 , 5,0"
       bottom_edge_variation="0;1"
       top_edge_variation="0;1"
       bottom_tgt_variation="0;1"
       top_tgt_variation="0;1"
       scale_bf="2"
       scale_bb="2"
       scale_tf="2"
       scale_tb="2"
       top_smth_variation="0;1"
       bottom_smth_variation="0;1"
       fat_output="false"
       stroke_width_top="1"
       stroke_width_bottom="1"
       front_thickness="1"
       back_thickness="0.25"
       lpeversion="0" /><inkscape:path-effect
       back_thickness="0.25"
       front_thickness="1"
       stroke_width_bottom="1"
       stroke_width_top="1"
       fat_output="false"
       bottom_smth_variation="0;1"
       top_smth_variation="0;1"
       scale_tb="2"
       scale_tf="2"
       scale_bb="2"
       scale_bf="2"
       top_tgt_variation="0;1"
       bottom_tgt_variation="0;1"
       top_edge_variation="0;1"
       bottom_edge_variation="0;1"
       bender="1522.1071,406.78552 , 5,0"
       do_bend="true"
       growth="0"
       dist_rdm="0;1"
       direction="1522.1071,401.78552 , 20.946224,21.787234"
       is_visible="true"
       id="path-effect4116-3"
       effect="rough_hatches"
       lpeversion="0" /><rect
       x="761.89117"
       y="76.95871"
       width="304.75647"
       height="161.61328"
       id="rect97" /></defs><g
     inkscape:label="Layer 1"
     inkscape:groupmode="layer"
     id="layer1"
     transform="translate(-7.7985383,15)"><g
       id="1-0"
       inkscape:label="Snow Flake"
       stroke="#000000"
       stroke-width="0.8"
       fill="none"
       stroke-linecap="round"
       stroke-linejoin="round"
       transform="translate(0.39717322,-14.999995)"
       style="display:inline"><path
         d="m 89.195242,59.86858 v 0.59088 l 0.26261,0.13131 0.26262,0.13131 0.39392,-0.52523 v -0.26262 l -0.26261,-0.26261 -0.32827,-0.32827 h -0.26262 l -0.0657,0.59088"
         stroke="inherit"
         stroke-width="inherit"
         fill="none"
         id="path1-5"
         inkscape:transform-center-x="-8.1832462"
         inkscape:transform-center-y="41.300892"
         style="stroke-width:0.7;stroke-dasharray:none" /><path
         d="m 89.720472,62.36342 -0.19696,0.0657 -0.98481,-0.72219 -0.52523,-0.26261 V 61.0504 l -0.0657,-0.13131 v -1.90401 l -0.13131,-0.39392 0.0657,-0.32827 0.59089,-0.26262 0.13131,-0.1313 0.52523,-0.26262 0.0657,-0.13131 0.26261,-0.0657 0.26262,0.19696 0.19696,0.0657 0.19696,0.19697 0.65654,0.39392 0.0656,0.0657 0.32827,0.19696 0.45958,0.45958 v 0.52523 l -0.0657,0.0657 v 0.59089 l 0.19696,0.59088 v 0.32827 h -0.1313 l -0.0657,0.0656 -0.52523,0.0657 -0.0657,0.1313 -0.45958,0.13131 -0.65653,0.65654 h -0.13131 l -0.13131,0.13131 h 0.32827"
         stroke="inherit"
         stroke-width="inherit"
         fill="none"
         id="path2-70"
         inkscape:transform-center-x="-8.3145312"
         inkscape:transform-center-y="41.202407"
         style="stroke-width:0.7;stroke-dasharray:none" /><path
         d="m 89.195242,64.85826 v 0.26262 l -1.83831,-1.18177 -0.39392,-0.39392 -0.39392,-0.26262 -0.32827,-0.19696 -0.59088,-0.65654 v -1.05046 l -0.19696,-0.65653 v -1.37873 l -0.0657,-0.39392 v -0.32827 l 0.0657,-0.0657 v -0.1313"
         stroke="inherit"
         stroke-width="inherit"
         fill="none"
         id="path3-05"
         inkscape:transform-center-x="-5.8197158"
         inkscape:transform-center-y="43.040697"
         style="stroke-width:0.7;stroke-dasharray:none" /><path
         d="m 85.059052,57.43939 0.0657,0.0657 0.26261,-0.0657 0.13131,-0.13131 1.57569,-1.11611 0.78784,-0.39392 0.39393,-0.0657 0.0657,-0.1313 0.59088,-0.32827 0.45958,-0.39393 h 0.45958 l 0.19696,0.13131 0.45957,0.26262 0.13131,0.1313 0.39392,0.13131 0.32827,0.32827 0.59089,0.26262 0.1313,0.1313 0.26262,0.13131 0.19696,0.13131 0.32827,0.13131 0.0656,0.0656 0.52523,0.13131 0.39392,0.19696 0.26262,0.32827 v 0.52523 l -0.0656,0.39392 -0.39393,1.31307 v 1.44439 l -0.0657,0.39392 -0.0657,0.39392 0.0657,0.52523 -0.45958,0.39392 -0.8535,0.39393 -0.19696,0.19696 -0.52523,0.19696 -0.1313,0.0657 -0.7222,0.32827 -0.32826,0.0657 -0.19697,0.19697 -0.45957,0.32826 -0.52523,0.13131 -0.0657,0.13131 v 0"
         stroke="inherit"
         stroke-width="inherit"
         fill="none"
         id="path4-6"
         inkscape:transform-center-x="-8.1176362"
         inkscape:transform-center-y="41.103912"
         style="stroke-width:0.7;stroke-dasharray:none" /><path
         d="m 92.084002,61.50992 v 0.19696 l 0.8535,0.26262 0.0657,0.0657 h 0.19696"
         stroke="inherit"
         stroke-width="inherit"
         fill="none"
         id="path5-78"
         inkscape:transform-center-x="-11.170536"
         inkscape:transform-center-y="43.040737"
         style="stroke-width:0.7;stroke-dasharray:none" /><path
         d="m 92.084002,58.4242 v 0.19696 l 0.91916,-0.65654 0.59088,-0.52523 h 0.19696"
         stroke="inherit"
         stroke-width="inherit"
         fill="none"
         id="path6-0"
         inkscape:transform-center-x="-11.465956"
         inkscape:transform-center-y="39.298452"
         style="stroke-width:0.7;stroke-dasharray:none" /><path
         d="m 89.523512,56.84851 0.19696,0.1313 v -2.03526"
         stroke="inherit"
         stroke-width="inherit"
         fill="none"
         id="path7-6"
         inkscape:transform-center-x="-8.1504462"
         inkscape:transform-center-y="37.230357"
         style="stroke-width:0.7;stroke-dasharray:none" /><path
         d="m 86.897362,58.35854 -0.13131,0.0657 -0.32827,-0.13131 -0.45957,-0.52523 -0.45958,-0.13131"
         stroke="inherit"
         stroke-width="inherit"
         fill="none"
         id="path8-5"
         inkscape:transform-center-x="-4.7364508"
         inkscape:transform-center-y="39.298492"
         style="stroke-width:0.7;stroke-dasharray:none" /><path
         d="m 86.240822,61.57558 v 0.39392 l 1.31308,-0.78785 -0.0657,-0.0656"
         stroke="inherit"
         stroke-width="inherit"
         fill="none"
         id="path9-7"
         inkscape:transform-center-x="-5.4258158"
         inkscape:transform-center-y="42.810952"
         style="stroke-width:0.7;stroke-dasharray:none" /><path
         d="m 89.195242,64.20173 -0.0657,0.1313 0.1313,-0.1313 0.45958,-0.91916 0.13131,-0.26261 v -0.0657"
         stroke="inherit"
         stroke-width="inherit"
         fill="none"
         id="path10-3"
         inkscape:transform-center-x="-8.0190912"
         inkscape:transform-center-y="44.911822"
         style="stroke-width:0.7;stroke-dasharray:none" /><path
         d="m 85.321672,57.63635 v 0.0657 l -1.37873,-0.91915 -0.52523,-0.32827 -0.13131,-0.0656 h -0.0657"
         stroke="inherit"
         stroke-width="inherit"
         fill="none"
         id="path11-4"
         inkscape:transform-center-x="-2.7996408"
         inkscape:transform-center-y="38.313717"
         style="stroke-width:0.7;stroke-dasharray:none" /><path
         d="m 86.043862,56.06066 -0.0656,-0.59088 -0.45958,-0.65654 -0.32827,-0.52523 -0.0657,-0.0657 h 0.0657"
         stroke="inherit"
         stroke-width="inherit"
         fill="none"
         id="path12-3"
         inkscape:transform-center-x="-4.1127408"
         inkscape:transform-center-y="36.409662"
         style="stroke-width:0.7;stroke-dasharray:none" /><path
         d="m 86.963012,55.73239 -0.0657,-0.1313 -0.19696,-0.39393 -0.13131,-0.19696 v -0.19696 l -0.13131,-0.13131 -0.0657,-0.39392 -0.32827,-0.39392"
         stroke="inherit"
         stroke-width="inherit"
         fill="none"
         id="path13-0"
         inkscape:transform-center-x="-5.0318408"
         inkscape:transform-center-y="36.081417"
         style="stroke-width:0.7;stroke-dasharray:none" /><path
         d="m 87.685202,55.20716 v -0.9848 l -0.39392,-1.18177 v -0.13131 h 0.0656"
         stroke="inherit"
         stroke-width="inherit"
         fill="none"
         id="path14-4"
         inkscape:transform-center-x="-6.0166958"
         inkscape:transform-center-y="35.326397"
         style="stroke-width:0.7;stroke-dasharray:none" /><path
         d="m 89.457852,54.28801 v -0.59088 l -0.0657,-0.39393 v -0.9848 l 0.0657,-0.13131 v -0.13131 h 0.26262"
         stroke="inherit"
         stroke-width="inherit"
         fill="none"
         id="path15-8"
         inkscape:transform-center-x="-8.0847662"
         inkscape:transform-center-y="34.440072"
         style="stroke-width:0.7;stroke-dasharray:none" /><path
         d="m 91.164852,55.53543 -0.0656,0.0657 V 54.3537 l 0.19696,-0.45957 0.0657,-0.52523 0.26262,-0.26262"
         stroke="inherit"
         stroke-width="inherit"
         fill="none"
         id="path16-75"
         inkscape:transform-center-x="-9.8903462"
         inkscape:transform-center-y="35.621882"
         style="stroke-width:0.7;stroke-dasharray:none" /><path
         d="m 91.690082,55.8637 -0.13131,0.0657 0.45958,-0.39392 0.32827,-0.91915 0.26261,-0.98481 0.26262,-0.19696 v 0.13131"
         stroke="inherit"
         stroke-width="inherit"
         fill="none"
         id="path17-9"
         inkscape:transform-center-x="-10.743766"
         inkscape:transform-center-y="35.950157"
         style="stroke-width:0.7;stroke-dasharray:none" /><path
         d="m 92.543582,56.45458 -0.13131,0.0657 V 56.0607 l 0.39392,-0.59088 0.45958,-0.52523 0.39392,-0.45958 v 0.0657"
         stroke="inherit"
         stroke-width="inherit"
         fill="none"
         id="path18-53"
         inkscape:transform-center-x="-11.564436"
         inkscape:transform-center-y="36.770822"
         style="stroke-width:0.7;stroke-dasharray:none" /><path
         d="m 93.856652,57.11112 0.0657,0.0657 0.45957,-0.0657 0.52523,-0.39392 1.18177,-1.11611 1.31308,-0.45958 0.26261,-0.26262 0.32827,-0.19696 0.19696,-0.1313 0.39392,-0.0657 h 0.26262"
         stroke="inherit"
         stroke-width="inherit"
         fill="none"
         id="path19-2"
         inkscape:transform-center-x="-14.879971"
         inkscape:transform-center-y="37.099052"
         style="stroke-width:0.7;stroke-dasharray:none" /><path
         d="m 93.922312,58.88377 h 1.24742 l 1.57569,-0.32827 v 0 l -0.0657,0.0657"
         stroke="inherit"
         stroke-width="inherit"
         fill="none"
         id="path20-7"
         inkscape:transform-center-x="-13.862321"
         inkscape:transform-center-y="39.987812"
         style="stroke-width:0.7;stroke-dasharray:none" /><path
         d="m 94.250582,59.93423 0.1313,0.0657 1.57569,-0.0657 h 0.91916 l -0.13131,0.0657 h -0.45958"
         stroke="inherit"
         stroke-width="inherit"
         fill="none"
         id="path21-3"
         inkscape:transform-center-x="-14.092111"
         inkscape:transform-center-y="41.235257"
         style="stroke-width:0.7;stroke-dasharray:none" /><path
         d="m 93.922312,60.72208 -0.0657,0.1313 h 1.57569 l 1.31308,0.26262 -0.39392,-0.0657"
         stroke="inherit"
         stroke-width="inherit"
         fill="none"
         id="path22-9"
         inkscape:transform-center-x="-13.829451"
         inkscape:transform-center-y="42.187217"
         style="stroke-width:0.7;stroke-dasharray:none" /><path
         d="m 93.659692,62.16646 c 0,0 -0.0657,0.0657 -0.0657,0.13131 l 2.16657,1.05046"
         stroke="inherit"
         stroke-width="inherit"
         fill="none"
         id="path23-77"
         inkscape:transform-center-x="-13.205731"
         inkscape:transform-center-y="44.025522"
         style="stroke-width:0.7;stroke-dasharray:none" /><path
         d="m 93.922312,64.6613 v 0.26262 l 0.26261,0.19696 -0.26261,-0.52523 -0.32827,-0.32827 -0.39392,-0.59088 -0.0657,-0.39393"
         stroke="inherit"
         stroke-width="inherit"
         fill="none"
         id="path24-95"
         inkscape:transform-center-x="-12.188126"
         inkscape:transform-center-y="45.469902"
         style="stroke-width:0.7;stroke-dasharray:none" /><path
         d="m 92.871852,65.31784 0.0656,0.13131 -0.39392,-0.91916 -0.26262,-0.59088 V 63.6765 h 0.0657"
         stroke="inherit"
         stroke-width="inherit"
         fill="none"
         id="path25-3"
         inkscape:transform-center-x="-11.137636"
         inkscape:transform-center-y="45.831002"
         style="stroke-width:0.7;stroke-dasharray:none" /><path
         d="m 92.018352,66.04003 v 0.13131 l -0.13131,-0.13131 -0.19696,-1.64134"
         stroke="inherit"
         stroke-width="inherit"
         fill="none"
         id="path26-33"
         inkscape:transform-center-x="-10.382671"
         inkscape:transform-center-y="46.553192"
         style="stroke-width:0.7;stroke-dasharray:none" /><path
         d="m 89.457852,66.82787 -0.0657,0.0657 0.32827,-0.32827 0.13131,-1.11611 -0.13131,-0.8535"
         stroke="inherit"
         stroke-width="inherit"
         fill="none"
         id="path27-85"
         inkscape:transform-center-x="-8.1503962"
         inkscape:transform-center-y="47.012807"
         style="stroke-width:0.7;stroke-dasharray:none" /><path
         d="m 87.094322,66.82787 v 0 l 0.13131,-0.0656 0.26261,-0.91915 0.39392,-0.59088 0.65654,-0.8535 -0.26261,0.1313"
         stroke="inherit"
         stroke-width="inherit"
         fill="none"
         id="path28-8"
         inkscape:transform-center-x="-6.3449659"
         inkscape:transform-center-y="46.881482"
         style="stroke-width:0.7;stroke-dasharray:none" /><path
         d="m 86.043862,66.17134 -0.0656,0.19696 0.32826,-0.59089 0.32827,-0.85349 0.59089,-0.8535 0.0657,-0.52523 -0.26261,0.19696"
         stroke="inherit"
         stroke-width="inherit"
         fill="none"
         id="path29-9"
         inkscape:transform-center-x="-5.1632758"
         inkscape:transform-center-y="46.224922"
         style="stroke-width:0.7;stroke-dasharray:none" /><path
         d="m 85.321672,65.5148 0.0657,-0.32827 0.45958,-0.65654 0.52523,-0.52523 0.32827,-0.59088 h -0.0657"
         stroke="inherit"
         stroke-width="inherit"
         fill="none"
         id="path30-6"
         inkscape:transform-center-x="-4.5395158"
         inkscape:transform-center-y="45.732517"
         style="stroke-width:0.7;stroke-dasharray:none" /><path
         d="m 83.286402,64.20173 -0.13131,0.0657 0.7222,-0.39392 0.52523,-0.19696 0.26261,-0.26262 0.8535,-0.59088 0.19696,-0.13131 h 0.0657"
         stroke="inherit"
         stroke-width="inherit"
         fill="none"
         id="path31-0"
         inkscape:transform-center-x="-2.9966458"
         inkscape:transform-center-y="44.747762"
         style="stroke-width:0.7;stroke-dasharray:none" /><path
         d="m 82.498562,60.85338 0.0657,0.26262 0.72219,0.0656 1.707,-0.1313 h 0.39392 l -0.26261,-0.13131"
         stroke="inherit"
         stroke-width="inherit"
         fill="none"
         id="path32-423"
         inkscape:transform-center-x="-2.4714208"
         inkscape:transform-center-y="42.285667"
         style="stroke-width:0.7;stroke-dasharray:none" /><path
         d="m 82.498562,60.19685 -0.13131,-0.0657 1.05046,0.0657 h 1.77265 l -0.0657,-0.0657"
         stroke="inherit"
         stroke-width="inherit"
         fill="none"
         id="path33-37"
         inkscape:transform-center-x="-2.3072608"
         inkscape:transform-center-y="41.432177"
         style="stroke-width:0.7;stroke-dasharray:none" /><path
         d="m 82.629862,59.21204 0.0657,-0.13131 h 1.24742 l 1.11611,0.13131 h 0.0657"
         stroke="inherit"
         stroke-width="inherit"
         fill="none"
         id="path34-00"
         inkscape:transform-center-x="-2.4057808"
         inkscape:transform-center-y="40.414562"
         style="stroke-width:0.7;stroke-dasharray:none" /><path
         d="m 82.564212,55.40412 0.0656,0.0657 0.0657,-0.0657 1.8383,-0.91915 0.8535,-0.26261 1.05046,-0.59089 0.26262,-0.0657 0.91915,-0.52523 0.26261,-0.0657 0.32827,-0.26262 0.72219,-0.26261 0.19697,-0.13131 0.1313,-0.13131"
         stroke="inherit"
         stroke-width="inherit"
         fill="none"
         id="path35-1"
         inkscape:transform-center-x="-4.4410008"
         inkscape:transform-center-y="35.096582"
         style="stroke-width:0.7;stroke-dasharray:none" /><path
         d="m 96.088882,55.46978 v 0.13131 l -1.05046,-0.39393 -0.65654,-0.39392 -1.8383,-0.91915 -1.24742,-0.59089 -0.91915,-0.59088 -0.26262,-0.0657 -0.52523,-0.32827"
         stroke="inherit"
         stroke-width="inherit"
         fill="none"
         id="path36-0"
         inkscape:transform-center-x="-11.367476"
         inkscape:transform-center-y="35.227897"
         style="stroke-width:0.7;stroke-dasharray:none" /><path
         d="m 96.417152,63.6765 -0.0657,0.0657 0.1313,-0.13131 0.13131,-2.23223 -0.13131,-0.78784 v -1.51004 l 0.13131,-0.39392 v -1.24742 l -0.13131,-0.65654 v -0.65653 l 0.13131,-0.39393 0.0657,-0.19696 v 0.19696"
         stroke="inherit"
         stroke-width="inherit"
         fill="none"
         id="path37-3"
         inkscape:transform-center-x="-15.044061"
         inkscape:transform-center-y="40.907017"
         style="stroke-width:0.7;stroke-dasharray:none" /><path
         d="m 89.392202,67.74703 -0.13131,0.0657 1.83831,-1.05046 1.11611,-0.72219 0.59088,-0.52523 1.57569,-0.65654 0.19697,-0.26261 1.77265,-0.98481 0.65653,-0.26261 -0.52523,0.0657"
         stroke="inherit"
         stroke-width="inherit"
         fill="none"
         id="path38-0"
         inkscape:transform-center-x="-11.662916"
         inkscape:transform-center-y="46.848682"
         style="stroke-width:0.7;stroke-dasharray:none" /><path
         d="m 89.195242,68.00964 -0.0657,0.0657 -0.59089,-0.0657 -0.8535,-0.59088 -1.31307,-0.91915 -1.05046,-0.65654 -0.78785,-0.39392 -0.1313,-0.19696 h -0.19697 l -0.32826,-0.32827"
         stroke="inherit"
         stroke-width="inherit"
         fill="none"
         id="path39-03"
         inkscape:transform-center-x="-5.0646958"
         inkscape:transform-center-y="47.767807"
         style="stroke-width:0.7;stroke-dasharray:none" /><path
         d="m 82.695522,64.39869 -0.0657,-0.0657 0.0657,-1.05046 V 62.626 l 0.13131,-0.78785 v -2.95442 l 0.1313,-0.9848 v -0.45958 l 0.0657,-0.39392 v -0.39392"
         stroke="inherit"
         stroke-width="inherit"
         fill="none"
         id="path40-8"
         inkscape:transform-center-x="-1.3552807"
         inkscape:transform-center-y="41.793277"
         style="stroke-width:0.7;stroke-dasharray:none" /><path
         d="m 83.286402,55.46978 h -0.13131 l -0.19696,-0.19696 -0.39392,-0.32827 -0.26261,-0.26262 0.0657,-0.65653 -0.32827,-1.44439 v -1.77265 l -0.32827,-1.24742 v -1.96961 l -0.0656,-0.45958 v -0.39392 l -0.0657,-0.39392 v -0.45958 l -1.37873,-0.78784 -0.39393,-0.45958 -0.32826,-0.13131 -0.0657,0.32827 -0.0657,0.0657 v 0.65653 l 0.13131,0.65654 0.26261,1.44438 0.32827,1.64135 0.13131,1.18176 0.32827,1.05046 0.1313,0.26262 0.0657,0.0657 v 0.8535 l 0.0657,0.26262 0.13131,0.0657 0.0656,0.26261 0.0657,0.0657 0.19696,0.32827 -0.45958,-0.13131 -0.45958,-0.52523 -1.37872,-1.24742 -1.24743,-0.65654 -0.1313,-0.19696 -0.19696,-0.13131 v -1.24742 l 0.1313,-0.39392 v -2.36354 l -0.1313,-0.65653 -0.0657,-1.05046 -0.0657,-0.91916 -0.0657,-0.45957 -0.19696,-0.91915 -0.0656,-0.65654 -0.45958,-0.0657 -0.9848,0.26262 -0.39393,0.0657 v 1.31308 l 0.0657,0.65654 v 4.33314 l -0.0657,0.45958 -0.0657,0.0657 v 0.72219 l -1.24742,-1.05046 -0.32827,-0.0657 -0.13131,-0.13131 h -0.19696 l -0.1313,-0.0656 -0.59089,-0.59088 v -0.39393 l 0.45958,-0.65653 0.26261,-0.8535 0.0657,-1.18177 -0.19696,-0.78785 v -1.51003 l 0.1313,-0.39392 V 39.3192 l 0.0657,-0.39392 v -0.91916 l -0.39393,-0.0656 -0.85349,-0.8535 -0.32827,-0.39392 -0.0657,-0.0657 -0.1313,0.45958 -0.45958,0.52523 h -0.19696 l -0.0657,0.0657 h -0.19696 l -0.0657,0.0657 -0.26262,0.13131 -0.0656,0.39392 0.26262,0.45957 0.39392,1.77266 v 1.24742 l 0.19696,0.85349 0.19696,1.96962 0.13131,0.39392 v 0.59088 l 0.0656,0.0657 v 0.59088 l 0.0657,0.45958 0.1313,0.72219 0.0657,0.39392 -0.0657,-0.0657 -0.1313,-0.26262 -0.45958,-0.39392 -0.65654,-0.32827 -0.59088,-0.19696 -0.13131,-0.39392 v -4.59577 l -0.0656,-0.72219 v -4.72707 c 0,-0.0657 0.0656,-0.0657 0.0656,-0.0657 l -0.0656,-0.13131 -0.65654,-0.19696 -0.8535,-0.72219 -0.72219,-0.72219 -0.0657,-0.0657 -0.26262,0.59088 -0.26261,0.39392 v 0.65654 l 0.26261,1.24742 0.0656,1.11611 v 1.11612 l 0.26262,1.57569 0.19696,1.24742 0.13131,0.8535 v 0.65653 l 0.19696,0.7222 0.0657,1.11611 0.13131,0.59088 0.13131,0.39393 h 0.0656 l -1.24742,-1.24743 -0.39392,-0.1313 -0.8535,-0.45958 -1.24742,-1.11611 -0.26262,-0.19696 -0.32826,-0.13131 -0.13131,-0.26262 v -0.91915 l 0.13131,-1.18177 v -1.57569 l -0.13131,-0.91915 v -0.9848 l -0.26262,0.0656 -0.52523,1.44438 -0.78784,1.83831 v 0.39392 l -0.19696,0.8535 -0.0657,0.45957 -0.1313,0.0657 -0.0657,0.1313 -0.39392,-0.32826 -0.984807,-0.52523 -0.262615,-0.0657 v -0.19696 l 0.131308,-0.13131 0.393922,-1.24742 0.06565,-1.18176 v -0.59089 l -0.06565,-0.0656 -0.262615,-0.59089 -0.196961,-0.0657 -0.590884,0.78785 -0.06565,0.26261 -0.328269,0.39392 -0.06565,0.26262 -0.196961,0.19696 -0.06565,0.26261 -0.393922,0.52523 -0.590884,0.59089 -0.656537,0.19696 -0.722191,-0.39392 -0.393923,-0.59089 v -0.45957 l -0.393922,-0.59089 -0.328269,-0.45957 -0.590884,-0.26262 h -0.196961 l -0.196961,-0.26261 -0.590884,-0.19696 -0.984806,-0.45958 -0.131307,-0.0656 h -0.722191 l 0.06565,0.39392 1.510036,1.51003 0.131308,0.39393 0.196961,0.19696 0.393922,0.45957 v 0.19697 l 1.181768,1.05045 0.52523,0.13131 0.722191,0.32827 0.06565,0.0657 0.131307,0.0657 v 0.45957 l -0.787845,0.7222 -0.131307,0.32826 -0.196962,0.19697 -0.06565,0.91915 0.262615,-0.19696 0.131307,-0.19696 1.510036,-0.39393 0.853499,-0.0656 0.459576,-0.26262 0.196961,-0.1313 H 58.86299 l -0.459576,0.65653 -0.196961,0.39393 h 0.262615 l 0.06565,0.0657 h 0.853499 l 0.393922,-0.0657 h 0.52523 l 0.722183,-0.19696 -0.0657,-0.0657 -0.328264,0.45958 0.131307,0.13131 h 0.787837 l -0.787837,0.52523 -1.116113,0.39392 h -0.787845 l -0.459576,0.19696 -0.196961,0.45958 -0.52523,0.9848 -0.328269,0.19696 -0.328269,0.39393 -0.131307,0.26261 -0.06565,0.26262 -0.131307,0.0657 0.131307,0.26261 0.393922,0.32827 0.328269,0.0657 0.853499,-0.45958 0.787845,-0.52523 1.707002,-0.32827 0.8535,-0.8535 0.39392,-0.45957 0.19696,-0.13131 0.13131,-0.0657 0.52523,-0.13131 0.1313,-0.13131 h 0.13131 l 0.13131,-0.0657 0.39392,0.0657 0.45958,0.52523 1.18176,0.52523 0.8535,0.0657 c 0,0 0.13131,0.0657 0.0657,0.0657 l -2.10092,0.8535 -0.8535,0.39392 -0.59088,0.52523 -0.59089,0.19696 h -0.45957 l -0.39393,0.13131 -0.787844,0.1313 -0.919152,0.26262 -0.131308,0.0657 -0.393922,0.32827 -0.328269,0.32827 v 0.26262 h -0.06565 v 1.18176 l -0.459577,0.13131 -0.984806,0.19696 -0.853498,0.0657 v 0.19696 l -0.06565,0.0657 -0.131308,0.52523 0.196962,0.52523 0.722191,1.11611 0.328268,0.32827 0.131308,0.19696 0.06565,-0.39392 1.247421,-1.05046 1.772651,-0.9848 1.575693,-0.98481 0.85349,-0.52523 0.26262,-0.0657 0.32827,-0.19697 0.39392,-0.39392 0.26262,-0.0656 0.26261,-0.26262 h 0.13131 l 0.65653,-0.59088 1.44439,-0.8535 0.72219,-0.45957 0.39392,-0.13131 0.13131,-0.0657 0.59088,-0.0657 0.0657,-0.0657 h 0.32826 l -0.52523,0.45957 -1.11611,0.78785 -0.19696,0.19696 0.32827,0.39392 0.72219,-0.13131 0.39392,-0.26261 0.19696,-0.0657 0.45958,-0.26261 0.45958,-0.39392 0.52523,0.65653 0.45957,0.52523 -0.13131,0.13131 -0.26261,0.19696 -0.65654,0.13131 -2.6918,0.91915 -0.45958,0.32827 -0.59088,0.26262 -1.31308,0.91915 -0.9848,0.39392 -0.13131,0.26262 -0.0656,0.0656 -0.0657,0.26262 1.64135,0.32826 0.72219,0.13131 0.26261,-0.13131 0.45958,-0.32826 0.52523,-0.32827 1.24742,-0.39393 1.24742,-0.59088 0.91915,-0.72219 2.10092,-1.05046 0.65654,-0.39392 1.18177,1.24742 v 0.19696 l -0.98481,0.72219 -0.78784,0.39392 -0.65654,0.26262 -1.31308,0.59088 -0.0657,0.0657 -0.65654,0.32826 -0.1313,0.13131 -0.26262,0.13131 -0.39392,0.19696 -0.8535,0.13131 -0.98481,0.26261 -0.26261,0.19696 -0.45958,0.13131 -0.8535,0.32827 -0.1313,0.19696 -0.26262,0.0657 -0.19696,0.26261 v 1.90396 l -0.0657,0.0657 0.85349,0.0657 0.78785,0.32826 1.11611,-0.9848 1.64135,-1.05046 0.9848,-0.52523 0.13131,-0.0657 0.91915,-0.52523 0.8535,-0.45958 0.8535,-0.52523 0.26261,-0.0657 0.59089,-0.32827 0.26261,-0.19696 1.31308,-0.7222 0.26261,-0.0657 0.13131,-0.19696 1.11611,0.8535 0.98481,0.45957 0.32827,0.13131 0.0657,0.0657 0.19696,0.1313 -0.59088,0.32827 -1.57569,0.59089 -0.98481,0.32826 -0.32826,0.19697 -0.19697,0.26261 0.39393,1.05046 0.1313,0.32827 0.45958,-0.39392 1.83831,-1.11612 1.51003,-0.8535 0.98481,-0.45957 0.0657,-0.0657 -0.13131,0.91916 -0.19696,0.39392 -0.26261,0.19696 -0.78785,0.26262 -0.65653,0.39392 -0.26262,0.0657 -0.65654,0.39392 -1.18176,0.39393 -0.0657,0.0657 h -0.19696 l -0.0656,0.0657 h -0.52523 l -0.32827,-0.32827 v -0.19696"
         stroke="inherit"
         stroke-width="inherit"
         fill="none"
         id="path41-3"
         inkscape:transform-center-x="13.876496"
         inkscape:transform-center-y="27.743777"
         style="stroke-width:0.7;stroke-dasharray:none" /><path
         d="m 80.135022,55.14151 1.24742,0.91915 0.39393,0.39392 0.91915,0.39393 h 0.19696 l 0.0657,0.1313 0.26262,0.0657"
         stroke="inherit"
         stroke-width="inherit"
         fill="none"
         id="path42-6"
         inkscape:transform-center-x="-0.20636568"
         inkscape:transform-center-y="37.361687"
         style="stroke-width:0.7;stroke-dasharray:none" /><path
         d="m 88.604362,52.12144 -0.13131,-0.26262 v -0.13131 h 0.26261 v 0.32827 l 0.0657,0.0657 v -0.72219 l -0.0657,-0.65654 v -0.26262 l -0.1313,-0.0657 v 0.45958 l -0.45958,-0.13131 -0.13131,-0.13131 -0.72219,-0.0657 -0.52523,-0.13131 -0.0656,-0.13131 -0.26262,-0.19696 v -0.19696 l -0.0657,-0.0656 v -1.11612 h 0.26261 l 0.13131,-0.1313 0.78785,-0.13131 h 0.39392 l 0.59088,0.59088 0.0657,0.45958 0.1313,0.65653 0.0657,0.39393 v -1.31308 l -0.19696,-0.8535 -0.39393,-0.0657 -1.24742,-0.72219 -0.9848,-0.19696 -0.45958,-0.26262 -0.19696,-0.0657 -0.19696,-0.19696 -0.91916,-0.45958 -0.26261,-0.26261 -0.52523,-0.32827 -0.45958,-0.72219 -0.1313,-0.32827 -0.13131,-0.13131 0.13131,-0.39392 0.39392,-0.39392 0.59088,0.0657 0.98481,0.65654 1.77265,0.72219 0.91915,0.52523 0.19696,0.26261 0.26262,0.0657 0.0657,0.0657 0.59089,0.26262 0.19696,0.26261 v 0.72219 l -0.0657,0.78785 v 0.19696 l 0.0657,-0.0657 v -1.90395 l -0.26262,-0.7222 -0.19696,-0.32826 -1.37873,-0.8535 -1.44438,-0.52523 -0.8535,-0.13131 -0.45958,-0.0657 -0.0657,-0.13131 -0.52523,-0.19696 -0.98481,-1.05046 -0.65653,-0.32827 -0.32827,-0.0657 -0.19696,-0.1313 -0.78785,-0.45958 -0.1313,-0.0657 -0.19697,-0.19696 -0.65653,-0.39393 -0.13131,-0.0657 -0.45958,-0.26261 -0.19696,-0.19697 -0.32827,-0.0657 -0.0657,-0.0657 h -0.19696 l -0.0657,-0.0657 -0.65653,-0.19696 -0.0657,-0.0657 -0.78784,-0.39392 -0.26262,-0.13131 -1.57569,-1.11612 -0.78784,-0.72219 -0.52523,-0.45957 -0.59088,-0.59089 -0.59089,-0.72219 -0.39392,-0.72219 -0.91915,-0.65654 -0.0657,-0.19696 -0.0656,-0.13131 -0.13131,-0.1313 0.45958,-0.13131 h 1.51003 l 0.98481,0.26261 h 1.24742 v 0.19697 l 0.13131,0.1313 0.45957,0.59089 0.65654,0.65653 0.59089,0.52523 h 0.1313 l 0.0657,0.0657 h 1.51003 l 0.52523,0.19696 0.72219,0.0657 0.0657,0.0657 v 1.37873 l 0.13131,0.32826 v 0.52523 l 0.0656,0.13131 v 0.13131 l 0.0657,0.0657 0.26262,0.26262 0.8535,0.45957 1.05046,0.65654 1.18176,0.65654 0.91916,0.39392 0.65653,0.45958 0.26262,0.0657 1.64134,1.05046 0.65654,0.52523 0.26261,0.0656 0.32827,0.52523 0.52523,0.39393 v -0.65654 l -0.1313,-0.65654 -0.0657,-2.03526 -0.0656,-0.39393 v -0.39392 h -0.19696 l -0.0657,-0.13131 -1.11611,-0.39392 -1.77265,-0.8535 -0.78785,-0.32827 -0.45957,-0.19696 -0.52523,-0.19696 -0.65654,-0.26261 -0.0656,-0.0657 -0.45958,-0.39392 0.26261,-0.26261 0.98481,-0.26262 0.45958,-0.0657 h 0.39392 l 1.37873,0.9848 1.11611,0.65654 0.0657,0.0657 0.32826,0.26262 0.65654,0.45958 0.59089,0.39392 0.32826,-0.32827 0.19697,-0.78785 v -0.65653 l -0.59089,-0.19696 -0.9848,-0.39393 -1.707,-0.78784 -0.39392,-0.0657 -2.16658,-1.18176 -0.26261,-0.0657 -1.707,-1.11611 -0.98481,-0.72219 -0.65653,-0.78785 -0.19696,-0.39392 -0.0657,-0.0656 v -0.98481 l 0.0657,-0.26261 0.52523,-0.19696 c 0,0 0.59088,0 0.65653,0 l 2.5605,2.10092 1.05046,0.78784 0.78784,0.45958 0.39393,0.39392 0.91915,0.59088 0.59088,0.26262 0.98481,0.59088 0.78784,0.65654 0.19696,0.13131 0.26262,0.1313 -0.0657,-0.91915 -0.26262,-1.05046 -0.26261,-1.24742 V 31.7685 l -0.7222,-0.59089 -1.57569,-0.72219 -1.90395,-0.65653 -0.98481,-0.59089 -0.52523,-0.52523 -0.65654,-0.39392 -0.9848,-0.98481 -0.19696,-1.11611 0.39392,0.19696 1.51003,0.45958 1.77265,0.45957 0.78785,0.32827 0.91915,0.65654 0.8535,0.98481 0.8535,0.65653 1.11611,0.45958 0.13131,0.0657 -0.19696,-1.24742 -0.32827,-1.31307 -0.0656,-0.13131 v -0.13131 l 0.0656,-0.0656 -0.0656,-0.32827 -0.52523,-0.39392 -1.707,-0.65654 -0.52523,-0.45958 v -0.19696 l 0.19696,-0.13131 0.19696,-0.78784 h 0.45958 l 0.9848,0.32827 0.26262,0.13131 0.32827,0.32826 0.45957,0.19697 -0.0657,-0.45958 -0.13131,-0.59088 -0.78784,-1.18177 -0.39392,-0.19696 h -1.31308 l -0.45958,-0.45958 0.0657,-0.45957 0.59088,-0.52523 0.78785,-0.0657 0.45957,0.0657 0.45958,0.19696 0.19696,-0.13131 v -0.65654 l -0.19696,-0.8535 -0.19696,-1.31307 v -0.78785 l 0.52523,-2.03526 0.13131,-0.91915 0.1313,-0.91916 0.0657,-0.0656 v -0.26262 l 0.26261,-0.1313 0.19696,0.26261 1.24742,3.93923 v 0.19696 l 0.8535,-0.19696 v 0.78784 l -0.19696,0.45958 -0.39392,0.91915 h 1.18177 l 0.32826,-0.13131 0.0657,0.72219 0.26261,0.98481 0.19696,0.19696 0.65654,0.0656 0.32827,0.32827 -0.26261,0.65654 -0.7222,0.78785 -0.78784,0.45957 -0.59088,0.59088 -0.0657,0.26262 0.19696,0.8535 v 0.72219 l 0.13131,0.8535 v 0.13131 l 0.32827,-0.0657 0.19696,-0.19696 0.39392,-0.13131 1.44439,-0.78784 0.65653,-0.13131 0.39393,-0.19696 0.1313,-0.13131 0.59089,-0.26261 0.1313,0.26261 0.13131,0.13131 0.32827,0.52523 0.32827,0.32827 v 0.26261 l -1.707,1.31308 -0.26261,0.0657 -2.16658,0.91915 -0.39392,0.26262 -0.26261,0.26261 -0.32827,0.13131 -0.19696,0.78785 -0.26262,1.24742 0.13131,0.0656 0.0657,-0.0656 1.83831,-1.37873 1.31307,-0.78785 0.91915,-0.78784 0.26262,-0.0657 0.65654,-0.45958 0.32827,-0.13131 0.72219,0.52523 1.18176,0.39392 -0.0656,0.45958 -1.90396,1.90396 -0.59088,0.19696 -0.59089,0.59088 -1.37872,0.91916 -0.7222,0.26261 -0.9848,0.59088 -0.65654,0.39393 -0.59088,0.59088 -0.65654,0.52523 -0.39392,0.13131 -0.26262,0.32827 v 0.19696 l 0.39392,0.39392 0.19697,0.59088 v 0.32827 l 0.39392,0.0657 1.64134,-1.11612 0.78785,-0.72219 0.26261,-0.0656 0.65654,-0.45958 0.39392,-0.19696 0.59089,-0.32827 1.05046,-0.52523 0.26261,-0.19696 0.0657,0.52523 0.26262,0.72219 0.13131,0.0657 -0.8535,0.85349 -0.91915,0.78785 -0.59089,0.26261 -1.24742,0.65654 -0.98481,0.32827 -0.52523,0.52523 -0.65653,0.39392 -0.13131,0.19696 -0.45958,0.39393 v 0.1313 l -0.0657,0.13131 v 1.707 l -0.0657,0.78784 v 1.05046 h 0.39392 l 1.24742,-0.72219 1.8383,-1.707 0.59089,-0.19696 1.31307,-0.78784 1.24742,-0.91915 0.7222,-0.32827 0.1313,-0.0657 0.78785,-0.39392 0.72219,-0.52523 0.984798,-0.45957 1.05046,-1.11612 0.39393,-0.52523 0.72219,-2.10092 0.0657,-0.13131 v 0.78785 l -0.39392,0.72219 v 0.0657 l 0.8535,0.13131"
         stroke="inherit"
         stroke-width="inherit"
         fill="none"
         id="path43-0"
         inkscape:transform-center-x="-5.4587358"
         inkscape:transform-center-y="14.251506"
         style="stroke-width:0.7;stroke-dasharray:none" /><path
         d="m 103.17949,35.37973 -0.13131,0.0657 -0.0657,0.1313 0.52523,-0.32826 0.26262,-0.0657 0.78784,-0.59088 v 0 l -0.0656,0.0657 -0.52523,1.18177 0.32827,-0.13131 1.37873,-1.51003 0.19696,0.0657 0.39392,0.39392 0.39392,0.78785 0.13131,1.18176 -0.9848,0.98481 -1.18177,0.78785 -2.10092,1.37872 -1.18177,0.39393 -0.19696,0.1313 -0.19696,0.13131 -2.429188,0.98481 -1.18177,0.52523 -0.72219,0.39392 -0.78784,0.39392 -0.39393,0.19696 -0.85349,0.45958 -1.11612,0.98481 -0.78784,0.39392 -0.0657,0.0656 -0.72219,0.26262 -0.45957,0.0656 -0.39393,0.0657 c 0,0 -0.26261,0.0657 -0.26261,0.0657 v 2.10092 l -0.13131,0.19696 -0.45958,0.52523 1.11612,-0.52523 1.05046,-0.78785 0.65654,-0.39392 0.59088,-0.26261 0.91915,-0.59089 0.59089,-0.32827 0.59088,-0.26261 0.72219,-0.39392 0.45958,-0.19696 0.78784,-0.39393 0.45958,-0.1313 0.0657,-0.13131 0.26262,-0.0657 v 0.39393 l -0.13131,0.32827 -0.13131,2.10092 -0.0657,0.32826 -0.26262,0.0657 -0.1313,0.13131 -0.39393,0.0657 -1.57569,0.91915 -1.05046,0.32827 -0.59088,0.13131 -0.78785,0.52523 -0.65653,0.52523 -0.26262,0.0657 -0.0657,0.0656 -0.32827,0.19697 -0.13131,0.1313 -0.32827,-0.32827 -0.39392,-0.32826 -0.13131,-0.0657 v 2.16658 l -0.0657,0.0657 v 0.8535 l 0.0657,-0.26262"
         stroke="inherit"
         stroke-width="inherit"
         fill="none"
         id="path44-40"
         inkscape:transform-center-x="-17.013686"
         inkscape:transform-center-y="24.526462"
         style="stroke-width:0.7;stroke-dasharray:none" /><path
         d="m 89.589162,52.58101 v 0 -1.05046 l 0.13131,-1.05046 0.13131,-1.90395 0.19696,-1.31308 0.1313,-1.11611 v -2.82311 l 0.13131,-0.39393 v -0.9848 l -0.19696,-1.11612 -0.0657,-0.72219 -0.13131,-0.65653 V 38.2685 l -0.0657,-0.39392 -0.0657,-1.18177 v -0.52523 l -0.0657,-0.39392 -0.13131,-2.69181 v -1.37873 l 0.26262,-1.57569 0.19696,-0.78784 v -6.56537 l -0.26262,-1.24743 v -4.5301 l -0.0657,-0.39393 v -0.91915 l -0.13131,-0.13131 0.13131,0.78785 0.0657,0.45957"
         stroke="inherit"
         stroke-width="inherit"
         fill="none"
         id="path45-9"
         inkscape:transform-center-x="-8.4785912"
         inkscape:transform-center-y="15.334831"
         style="stroke-width:0.7;stroke-dasharray:none" /><path
         d="m 83.023792,56.19197 h 0.1313 l -2.42918,-0.91915 -0.72219,-0.39393 -0.59089,-0.39392 -1.31307,-0.78784 -0.19696,-0.13131 -1.24743,-0.78785 -0.32826,-0.32826 -1.05046,-0.65654 -1.44439,-1.18177 -0.91915,-0.65654 -0.39392,-0.26261 -0.26262,-0.19696 -0.91915,-0.59089 -1.64134,-0.91915 -1.44438,-0.65654 -1.57569,-0.65653 -3.87357,-2.10092 -0.59089,-0.26262 -1.24742,-0.59088 -0.590883,-0.19696 -1.313075,-0.72219 -0.262615,-0.0657 -0.919152,-0.59088 -0.328269,-0.19696 -0.262615,-0.13131 -0.853498,-0.45958 -0.196962,-0.26261 -1.247421,-0.8535 -0.590883,-0.39392 -0.196962,-0.19696 -0.459576,-0.39393 -0.984806,-0.85349 -0.52523,-0.19697 0.06565,0.0657"
         stroke="inherit"
         stroke-width="inherit"
         fill="none"
         id="path46-2"
         inkscape:transform-center-x="13.777908"
         inkscape:transform-center-y="28.465562"
         style="stroke-width:0.7;stroke-dasharray:none" /><path
         d="m 91.361812,48.97006 -0.0657,-0.0657 h -0.19696 c 0,0 0,0.0657 0,0.0657 l 2.10092,-1.24742 0.72219,-0.45958 0.59088,-0.26261 v -0.13131 l 0.59089,-0.13131 1.05046,-0.52523 0.19696,-0.13131 0.39392,-0.19696 0.19696,-0.13131 0.0657,-0.1313 -0.0657,1.05046 -0.19696,0.78784 -0.0657,0.19696"
         stroke="inherit"
         stroke-width="inherit"
         fill="none"
         id="path47-4"
         inkscape:transform-center-x="-12.582046"
         inkscape:transform-center-y="28.564067"
         style="stroke-width:0.7;stroke-dasharray:none" /><path
         d="m 90.770932,44.96518 0.32827,-0.13131 0.52523,-0.52523 0.39392,-0.26261 2.5605,-1.90396 0.32826,-0.32827 0.8535,-0.32827 0.59089,-0.26261 0.59088,-0.13131 2.03527,-1.31308 1.510028,-0.91915 0.45958,-0.19696 0.52523,-0.45958 0.52523,-0.45957 0.39392,-0.0657 0.65654,-0.26261 0.8535,-0.45958 0.39392,-0.19696 0.13131,-0.0657 h 0.19696 l 0.19696,-0.19696 0.26261,-0.26262 v -0.19696 l 0.0657,-0.13131 v -0.52523"
         stroke="inherit"
         stroke-width="inherit"
         fill="none"
         id="path48-92"
         inkscape:transform-center-x="-16.488491"
         inkscape:transform-center-y="21.440586"
         style="stroke-width:0.7;stroke-dasharray:none" /><path
         d="m 91.033542,33.8697 -0.0657,0.0657 1.11611,-1.18177 1.44439,-0.91915 0.39392,-0.13131 0.59088,-0.39392 0.26262,-0.13131 0.8535,-0.59088 0.32826,-0.39392 0.39393,-1.31308 0.0657,-0.19696 -0.0657,0.19696"
         stroke="inherit"
         stroke-width="inherit"
         fill="none"
         id="path49-91"
         inkscape:transform-center-x="-12.220951"
         inkscape:transform-center-y="12.577426"
         style="stroke-width:0.7;stroke-dasharray:none" /><path
         d="m 92.280962,29.53655 -0.0657,0.0657 v -1.05046 l 0.59088,-0.0657 1.11612,-0.72219 0.19696,-0.13131 0.26261,-0.0656 0.52523,-0.45958 0.32827,-0.0657 0.13131,-0.0657 0.45958,-0.19696 0.59088,-0.65653"
         stroke="inherit"
         stroke-width="inherit"
         fill="none"
         id="path50-0"
         inkscape:transform-center-x="-12.844636"
         inkscape:transform-center-y="9.1305611"
         style="stroke-width:0.7;stroke-dasharray:none" /><path
         d="m 69.433462,46.47522 -0.0657,-0.0657 v -1.77265 l 0.0657,-1.44438 -0.0657,-0.72219 v -0.91916 l -0.19696,-0.78784 -0.13131,-0.19696 -0.13131,-0.59088 -0.0657,-0.0657 v -0.45957 l -0.39392,0.0656 -0.19696,0.13131 0.0657,1.37873 0.19696,2.36353 v 1.51004 l 0.26262,0.0657 v 0.32827"
         stroke="inherit"
         stroke-width="inherit"
         fill="none"
         id="path51-9"
         inkscape:transform-center-x="12.629014"
         inkscape:transform-center-y="24.230882"
         style="stroke-width:0.7;stroke-dasharray:none" /><path
         d="m 72.059612,47.78829 c 0,0 -0.1313,0.26262 -0.1313,0.19696 l 0.1313,-4.59576 -0.0656,-1.05046 v -0.65654 l -0.13131,-0.45957 v 0 l 0.0657,0.1313"
         stroke="inherit"
         stroke-width="inherit"
         fill="none"
         id="path52-3"
         inkscape:transform-center-x="9.5103894"
         inkscape:transform-center-y="25.877531"
         style="stroke-width:0.7;stroke-dasharray:none" /><path
         d="m 75.933182,52.58101 -0.19696,-0.19696 -1.18177,1.18177 -1.11611,0.45958 -1.11611,0.78784 -0.39392,0.32827 -0.52523,0.13131 h -0.13131 l -0.13131,0.1313 -0.65654,0.13131 -0.52523,0.19696 -0.78784,0.39393 -0.59089,0.0657 -0.1313,0.19696 -0.32827,0.26262 -0.32827,0.0656 -0.13131,0.0657 -0.91915,0.19696 -0.0657,0.52523 -0.32827,0.72219 v 0.0657"
         stroke="inherit"
         stroke-width="inherit"
         fill="none"
         id="path53-0"
         inkscape:transform-center-x="10.331109"
         inkscape:transform-center-y="36.606692"
         style="stroke-width:0.7;stroke-dasharray:none" /><path
         d="m 59.782365,51.99013 0.06565,-0.32827 0.787845,-0.45958 0.393922,-0.1313 1.31308,-0.8535 0.32827,-0.0657 0.59088,-0.26261 0.78785,-0.32827"
         stroke="inherit"
         stroke-width="inherit"
         fill="none"
         id="path54-0"
         inkscape:transform-center-x="19.555434"
         inkscape:transform-center-y="32.043692"
         style="stroke-width:0.7;stroke-dasharray:none" /><path
         d="M 102.85122,34.32927 V 34.001 h -0.19696 v 0.13131 h 0.19696 l 0.0657,0.0657 1.96961,0.65653 h -0.32827"
         stroke="inherit"
         stroke-width="inherit"
         fill="none"
         id="path55-3"
         inkscape:transform-center-x="-22.298851"
         inkscape:transform-center-y="15.695946"
         style="stroke-width:0.7;stroke-dasharray:none" /><path
         d="m 96.679772,56.19197 -0.0657,-0.0657 0.0657,0.26261 2.10091,0.98481 0.65654,0.59088 1.116118,0.45958 0.91915,0.59088 0.72219,0.45958 0.39392,0.1313 0.39392,0.0657 0.19697,-0.39393 0.26261,-0.26261 0.13131,-0.26262 0.0656,-0.19696 -0.39392,-0.1313 -0.59088,-0.19697 -0.8535,-0.78784 -0.98481,-0.91915 -0.72219,-0.39392 -0.196958,-0.19697 -0.32827,-0.32826 0.19696,-0.13131 0.393918,0.13131 1.44439,1.24742 0.72219,0.45957 0.19696,0.19696 h 0.13131 l 0.26261,0.26262 1.64134,1.11611 0.8535,0.32827 0.0657,0.0657 1.31307,0.32827 0.45958,0.0657 h 0.1313 l 0.13131,-0.0657 1.77265,-0.65653 -0.0656,-0.0657 -0.26262,-0.91915 -0.59088,-0.26262 -1.11611,-0.26261 -1.707,-0.78784 -0.32827,-0.52523 -0.13131,-0.19697 -0.0657,-0.0657 -0.8535,-0.45958 -0.26261,-0.1313 -0.65654,-0.39393 -0.19696,-0.19696 -0.8535,-0.45957 -0.26262,-0.0657 -0.1313,-0.1313 -0.0657,-0.0657 0.19696,-0.19696 0.59089,-0.19696 0.39392,-0.13131 0.72219,-0.13131 0.13131,0.32827 0.72219,0.39393 2.16657,0.9848 1.24742,1.05046 0.59089,0.19696 0.78784,0.78785 0.78785,0.26261 0.0657,0.0657 0.26262,0.0657 0.26261,-0.26261 0.72219,-0.0657 h 0.39393 l 0.45957,0.19696 -0.13131,-0.1313 v -0.7222 l -0.0657,-0.39392 -0.0657,-0.32827 -0.0657,-0.1313 V 55.4697 l -1.77265,-1.18177 -0.0657,-0.0657 -0.8535,0.0657 -0.65654,0.19696 0.59089,-0.52523 0.39392,-0.19696 0.0657,-0.0656 h 0.19696 l -0.0657,-0.0657 h -0.65654 l -0.78784,-0.26261 -0.59089,-0.13131 -0.32827,-0.26261 -0.26261,-0.0657 -0.0657,-0.13131 -0.59089,-0.19696 -0.59088,-0.26261 -0.0657,-0.13131 h -0.13131 l -0.13131,-0.0657 -0.32827,-0.0657 0.52523,-0.19696 0.98481,-0.32827 0.65653,-0.32827 0.19697,-0.1313 0.26261,-0.13131 0.13131,-0.13131 0.52523,-0.19696 0.0657,-0.0657 0.72219,-0.26262 0.26262,0.13131 1.31307,1.11611 0.72219,0.65654 1.57569,0.91915 0.52523,0.45958 1.24742,0.59088 h 0.19697 l 0.26261,-0.26261 0.65654,-0.32827 h 0.13131 l 0.1313,-0.13131 0.19696,-0.0657 -0.0657,-0.32827 -0.0657,-0.0657 -0.26262,-0.39393 -0.72219,-0.78784 -0.91915,-0.13131 -0.0657,-0.13131 -2.75745,-1.90396 -0.0657,-0.1313 -0.26261,-0.13131 -0.52523,-0.32827 0.0657,-0.0656 0.91916,0.0656 1.70699,0.59088 0.78785,0.19697 0.1313,0.0656 -0.19696,-0.32827 -0.91915,-0.8535 -1.24742,-0.65653 0.19696,-0.13131 h 0.91915 l 0.45958,-0.13131 0.0657,-0.0657 0.52523,-0.13131 1.51004,1.31307 2.62615,1.83831 1.24742,0.72219 1.24742,0.59088 1.24742,0.59089 0.45958,0.39392 3.21703,1.77265 h 0.32827 l 0.0657,-0.26261 0.32827,-0.19697 0.26262,-0.19696 0.26261,-0.19696 0.26262,-0.26261 0.13131,-0.45958 v -0.19696 l -0.98481,-0.8535 -1.31308,-0.72219 -0.45957,-0.59088 -0.8535,-0.7222 -2.16657,-1.24742 -1.37873,-0.85349 -1.57569,-0.91916 -0.78785,-0.32827 -1.18176,-0.65653 -0.39393,-0.39393 -0.78784,-0.45957 h 1.51003 l 0.26262,-0.0657 0.0657,-0.0657 h 0.39393 l 0.78784,0.59088 0.98481,0.39393 0.72219,-0.72219 v -0.45958 l -0.78785,-0.59088 -0.59088,-0.32827 -0.39392,-0.0657 0.39392,0.19696 0.72219,0.0657 0.32827,-0.39392 0.45958,-0.65654 0.65653,-0.59089 h 0.13131 l 0.13131,-0.1313 0.32827,0.45957 0.45957,0.65654 0.59089,0.45958 0.78784,0.45957 v -0.52523 l 0.19696,-0.39392 0.52523,-0.39392 0.13131,-0.19696 v -0.32827 l -0.78785,-0.52523 -0.78784,-0.32827 0.13131,-0.0657 h 0.72219 l 0.39392,-0.0657 0.8535,-0.19696 0.59088,-0.39392 0.26262,-0.26262 2.16657,-1.57569 0.52523,-0.59088 0.13131,-0.26261 0.26261,-0.39393 c 0,0 0,-0.32827 0,-0.32827 l -2.49484,-0.72219 v 0 l 0.32827,0.13131 0.0657,0.0656 -1.64134,0.59089 h -0.78784 l -0.26262,-0.26262 -0.19696,0.13131 -0.19696,0.13131 -0.0657,0.45957 v 0.45958 l 0.13131,0.52523 v 0.13131 h -0.78784 l -0.78785,0.45957 -0.45957,0.32827 -0.26262,-0.78784 -0.19696,-0.98481 -0.0656,-0.39392 v -0.32827 h -0.13131 l -0.26262,0.26262 -0.32826,0.32826 -0.19697,0.8535 0.26262,1.44439 -0.39392,0.0657 -1.11612,0.65654 -0.1313,0.19696 -0.26262,0.0657 -0.0657,0.0657 h -0.19696 l -0.0657,-0.78784 -0.0656,-0.32827 -0.13131,-0.13131 -0.0657,-0.0657 -0.39393,0.0657 -0.65653,0.7222 -0.26262,0.52522 -0.13131,0.78785 -0.0657,0.0657 -0.0657,0.32827 -0.0657,0.0657 v 0.19696 l -0.1313,0.0656 -0.19697,0.45958 -0.59088,0.45957 -0.19696,-0.1313 -0.26262,-1.90396 V 40.8285 l 0.19697,-0.91915 v -0.65654 l -0.26262,-0.59088 -0.13131,-1.18177 -0.1313,-0.8535 -0.13131,-0.59088 -0.32827,-0.59088 -0.0657,-0.45958 v -0.45958 l 0.0657,-0.0657 0.0657,-0.26261 0.0657,-0.0657 -0.65654,-0.26261 -0.39392,-0.19696 -0.0657,-0.0657 v 0.59089 l -0.72219,1.70699 -0.0657,0.13131 -0.0657,0.32827 -0.0657,0.0657 v 1.18177 l 0.0657,0.0657 0.0657,1.18177 v 3.15138 l 0.19696,0.78785 v 0.59088 l 0.0657,0.45958 0.0657,0.0657 v 0.26261 l 0.13131,0.0657 v 0.52523 l -0.19697,-0.19696 -0.39392,-0.98481 -0.13131,-0.0657 -0.0657,-0.32827 -0.13131,0.13131 -0.78784,1.24742 -0.13131,0.19696 -0.13131,0.19696 -0.0657,0.13131 0.52523,0.65653 0.13131,0.26262 h -0.13131 l -0.13131,0.0657 -0.72219,0.32827 -1.31307,0.65654 -0.32827,0.32827 -0.32827,0.19696 0.0657,-0.59088 0.39392,-1.18177 0.32827,-1.05046 0.32827,-1.05046 0.26262,-1.31308 0.0657,-1.8383 0.13131,-0.39392 v -0.19696 l 0.0657,-0.0657 V 39.5811 l -0.72219,-0.59088 -0.78784,-0.78785 -0.32827,-0.26261 -0.39393,0.0656 -0.78784,1.24742 -0.39392,0.39393 -0.39393,0.45957 -0.26261,0.13131 1.18177,1.51004 0.32827,1.05046 v 0.45957 l -0.0657,0.0657 v 0.39392 l -0.13131,0.45957 -0.0657,1.90396 v 0.98481 l -0.0657,0.0657 v 0.78785 l -0.13131,0.32827 -0.0657,0.0657 v 0.13131 l -0.0657,0.13131 v 0.1313 l -0.0657,0.13131 -0.13131,0.19696 -0.0657,0.13131 -0.0657,0.0657 -0.26261,-2.36353 -0.0657,-0.39392 V 45.884 l -0.32826,-0.0657 -1.11612,0.65654 -0.59088,0.26261 -0.0657,0.13131 0.65653,1.44438 0.19696,0.72219 0.39393,0.26262 0.59088,-0.0657 0.72219,-0.32827 -0.13131,0.13131 -1.18176,0.52523 -0.72219,0.32827 -0.45958,0.39392 -0.19696,0.13131 0.13131,-0.78785 0.0657,-0.91915 0.13131,-0.59088 h -0.26262 l -0.9848,1.05046 -0.26262,0.45957 -0.0657,1.18177 v 0.72219 l -0.13131,0.26262 -0.0656,-0.0657 v -0.19696 l -0.13131,-0.1313 v -0.19697 l -0.13131,-0.0657 v -0.98481 l 1.11611,-2.75745 0.0657,-1.05046 0.0656,-0.45958 0.19696,-1.31307 0.0657,-0.0657 v -0.26261 l 0.0657,-0.0657 v -1.11611 l -0.19696,-0.26261 -0.8535,-1.31308 -0.26261,-0.26261 -0.39393,-0.0657 -0.26261,0.0657 -1.05046,1.8383 -0.13131,0.91915 0.13131,0.39393 0.13131,1.51003 0.19696,0.91915 0.1313,0.45958 0.0657,0.78785 0.13131,0.39392 V 49.626 l 0.0657,0.26262 0.0657,0.0657 0.0657,0.45958 v 0.52523 l -0.0657,0.13131 v 0.9848 h -0.9848 l -0.72219,0.39393 -0.131308,0.1313 h 0.196958 l 0.65654,-1.24742 0.32827,-0.91915 v -0.45958 l -0.91916,0.91916 -0.459568,0.85349 v 0.98481 l -0.19696,0.39392 v 0.26262 l -0.26262,0.0657 -0.13131,0.19696 h -0.32827 l -0.1313,-0.0657 -0.32827,-0.32827 0.13131,-0.78784 0.45957,-0.65654 0.26262,-0.98481 v -0.65654 l -0.19696,-0.52523 -0.0657,-0.65653 -0.39392,0.0656 -0.8535,0.26262 h -0.72219 l -0.0657,0.39392 0.0657,2.75746 -0.26261,0.65653 v 0.91916 l -0.0657,0.1313 v 0.13131 l -0.13131,0.0656 v 0.26262 l -0.0657,0.0656 v 0.19696 l -0.39392,0.32827 -0.39392,0.19696 -0.19697,0.19697 0.39393,-0.0657"
         stroke="inherit"
         stroke-width="inherit"
         fill="none"
         id="path56-0"
         inkscape:transform-center-x="-30.636451"
         inkscape:transform-center-y="27.907257"
         style="stroke-width:0.7;stroke-dasharray:none" /><path
         d="m 96.942382,55.20716 0.13131,-0.52523 0.78784,-0.0656 1.51004,-0.65654 0.984798,-0.26261 2.5605,-1.64135 1.18177,-0.8535 0.52523,-0.26261 0.52523,-0.32827 0.65654,-0.19696 1.70699,-0.91915 1.77265,-1.37873 0.65654,-0.39392 0.91915,-0.59089 1.44439,-0.65653 1.51003,-0.91916 0.98481,-0.65653 1.31307,-0.65654 0.65654,-0.39392 1.24742,-0.8535 1.90396,-0.91916 0.19696,-0.1313 0.26262,-0.13131 1.37872,-0.91915 1.31308,-0.59089 1.24742,-0.45957 1.05046,-0.52523 1.24742,-0.45958 0.0657,-0.13131 0.39393,-0.1313 0.0657,-0.0657 0.39392,-0.1313 0.0657,-0.0657 0.91915,-0.45957 -0.19696,0.0657"
         stroke="inherit"
         stroke-width="inherit"
         fill="none"
         id="path57-1"
         inkscape:transform-center-x="-31.260632"
         inkscape:transform-center-y="27.809032"
         style="stroke-width:0.7;stroke-dasharray:none" /><path
         d="m 114.53758,47.00045 0.91915,0.39392 1.77266,1.05046 1.31307,0.72219 1.57569,1.05046 0.59088,0.32827 0.78785,0.65653 0.26261,0.13131 1.24742,0.98481 1.57569,1.11611 1.24743,0.8535 0.0656,0.0656 0.26261,0.19697 v -0.0657"
         stroke="inherit"
         stroke-width="inherit"
         fill="none"
         id="path58-9"
         inkscape:transform-center-x="-38.876367"
         inkscape:transform-center-y="32.043692"
         style="stroke-width:0.7;stroke-dasharray:none" /><path
         d="m 106.0026,41.02596 v -0.32827 l 0.0657,0.0657 0.59088,2.03527 0.0657,0.52523 0.32827,1.31307 0.19696,2.03527 v 0.65653 l 0.0657,0.39393 0.0657,0.52523"
         stroke="inherit"
         stroke-width="inherit"
         fill="none"
         id="path59-8"
         inkscape:transform-center-x="-25.220511"
         inkscape:transform-center-y="25.740982"
         style="stroke-width:0.7;stroke-dasharray:none" /><path
         d="m 99.699842,55.53543 -0.13131,-0.13131 0.656538,-0.1313 1.11611,-0.39393 0.0657,0.32827 0.78785,0.72219 1.707,1.05046 0.59088,0.19697 1.05046,0.52522 0.59088,0.32827 0.32827,0.32827 0.59089,0.32827 0.0657,0.19696 -0.19696,-0.13131"
         stroke="inherit"
         stroke-width="inherit"
         fill="none"
         id="path60-69"
         inkscape:transform-center-x="-21.872126"
         inkscape:transform-center-y="38.149507"
         style="stroke-width:0.7;stroke-dasharray:none" /><path
         d="m 97.073692,56.45458 h 0.19696 l 0.0657,-0.0656 h 0.8535 l 0.39392,-0.13131 0.32827,0.13131 0.0657,0.26262 0.78784,0.52523 0.590878,0.59088 0.45958,0.32827 -0.26261,-0.0657"
         stroke="inherit"
         stroke-width="inherit"
         fill="none"
         id="path61-01"
         inkscape:transform-center-x="-17.473321"
         inkscape:transform-center-y="38.445002"
         style="stroke-width:0.7;stroke-dasharray:none" /><path
         d="m 98.583722,53.63147 h 0.0657 l -0.52523,-0.26261 -0.39392,-0.39392 v -1.18177 l 0.1313,-0.0657 0.13131,-0.65653 -0.0656,-0.59089 -0.0657,-0.39392 v -0.39392 l 0.0657,-0.0657 h -0.0657"
         stroke="inherit"
         stroke-width="inherit"
         fill="none"
         id="path62-6"
         inkscape:transform-center-x="-16.718301"
         inkscape:transform-center-y="32.897167"
         style="stroke-width:0.7;stroke-dasharray:none" /><path
         d="m 91.164852,52.90928 v -0.78784 l 0.39392,-0.26262 h 0.52523 l 0.32827,0.32827 0.45958,0.45958 0.45957,0.45957 h 0.8535 l 0.26262,0.13131 0.13131,0.13131 0.32826,0.32827 0.32827,0.52523 0.19696,0.1313 0.0657,0.78785 -0.13131,0.32827"
         stroke="inherit"
         stroke-width="inherit"
         fill="none"
         id="path63-4"
         inkscape:transform-center-x="-11.859901"
         inkscape:transform-center-y="34.932477"
         style="stroke-width:0.7;stroke-dasharray:none" /><path
         d="m 97.073692,57.37374 -0.19696,0.26261 0.8535,0.59088 0.39392,0.32827 0.19696,0.19696 0.13131,0.45958 -0.19697,0.39392 -0.32826,0.8535 -0.19696,0.59089 -0.19697,0.9848 -0.1313,0.0657 v 0.52523 l -0.39393,0.32826 -0.39392,0.0657 v 0.0657"
         stroke="inherit"
         stroke-width="inherit"
         fill="none"
         id="path64-4"
         inkscape:transform-center-x="-16.061721"
         inkscape:transform-center-y="41.497917"
         style="stroke-width:0.7;stroke-dasharray:none" /><path
         d="m 95.826272,64.26738 h -0.13131 l -0.0657,0.0657 -0.13131,0.0657 -0.0657,0.91915 -0.32826,0.72219 v 0.19696 l -0.59089,0.78785 -0.32827,0.45957 h -0.1313 l -0.13131,0.13131 -0.32827,0.13131 -0.0657,0.0657 -0.8535,0.19696 -0.65654,0.13131 h -0.45958 l -0.1313,-0.0657 h -0.13131 l -0.19696,-0.13131 -0.59089,-0.26262"
         stroke="inherit"
         stroke-width="inherit"
         fill="none"
         id="path65-8"
         inkscape:transform-center-x="-11.695676"
         inkscape:transform-center-y="47.472412"
         style="stroke-width:0.7;stroke-dasharray:none" /><path
         d="m 88.013472,67.94399 h -0.13131 l -0.0657,-0.26262 -0.72219,0.13131 -0.39392,0.19696 h -0.8535 l -0.65654,-0.39392 -1.37873,-1.51004 -0.0656,-0.26261 -0.13131,-0.0657 -0.13131,-0.59088 -0.19696,-0.39392 h -0.39392 v -0.19696 l -0.0656,-0.0657 -0.45958,-0.78784 -0.0657,-0.72219 V 59.8685 l -0.0657,-0.78785 v -0.72219 l -0.0657,-0.39392 0.0657,-0.52523 0.32827,-0.32827 0.32827,-0.13131 0.39392,-0.59088 -0.0657,-0.26261 h -0.19687 v -0.91916 l 0.1313,-0.0657 0.26262,-0.78785 0.39392,-0.59088 0.45958,-0.39392 0.91915,-0.32827 1.51004,-0.98481 0.32827,-0.0657 0.0657,-0.13131 h 0.19696 l 0.0656,-0.0657 0.59089,-0.0657 0.32827,0.8535 0.19696,0.65654 0.0656,0.0657"
         stroke="inherit"
         stroke-width="inherit"
         fill="none"
         id="path66-6"
         inkscape:transform-center-x="-3.8828808"
         inkscape:transform-center-y="41.136617"
         style="stroke-width:0.7;stroke-dasharray:none" /><path
         d="m 97.336302,62.75734 -0.0657,0.19696 h 0.26261 l 0.13131,0.13131 1.11611,0.59089 0.13131,0.19696 -0.45957,0.45957 v 0.26262 l 0.19696,-0.59089 0.19696,-0.59088 0.26261,-0.65654 0.0657,-0.0657 v -0.39392 l 0.26261,-0.19696 h 0.39392 l 0.722198,0.72219 0.19696,1.05046 -0.39393,0.39392 -0.590878,0.59088 -0.0656,0.0657 0.393918,-0.0657 0.13131,-0.19696 0.26261,-0.59088 0.26262,-0.65654 0.0657,-1.11611 0.19696,-0.8535 0.39392,-0.0657 0.52523,0.0657 1.05046,0.52523 0.19697,0.13131 0.32826,0.19696 0.32827,0.39392 v 0.45958 l 0.0657,0.45957 -0.0657,0.32827 -0.19696,0.13131 -0.78784,0.52523 -1.37873,0.39392 -0.65654,0.19696 h -0.45958 l 2.16658,-0.78784 1.24742,-0.72219 1.31307,-0.7222 1.31308,-0.59088 1.96961,-1.24742 0.59088,-0.32827 0.78785,-0.45958 1.37873,-0.45957 0.26261,-0.0657 v -0.1313 l 1.05046,-0.39393 0.39393,-0.32826 v -0.19697 h -0.13131"
         stroke="inherit"
         stroke-width="inherit"
         fill="none"
         id="path67-1"
         inkscape:transform-center-x="-23.579096"
         inkscape:transform-center-y="43.237602"
         style="stroke-width:0.7;stroke-dasharray:none" /><path
         d="m 112.69928,58.68681 0.13131,0.0657 0.32826,-0.32826 0.13131,-0.32827 0.39392,-0.19696 0.13131,-0.19697 0.39392,-0.19696 0.39393,-0.32826 1.24742,-0.39393 2.10092,-0.72219 0.19696,-0.19696 0.8535,-0.32827 v 0.59089 l -0.32827,1.31307 -0.13131,0.78784 -0.32827,0.65654 -0.0656,0.0657 -0.19696,0.52523 -0.0657,0.45957 -0.26261,0.26262 -2.16658,0.32827 -2.10091,0.85349 -0.52523,0.59089 -1.11612,0.65654 -0.26261,0.0656 -0.59089,0.26261 v 0 -0.32826 l -0.65653,-0.19697 h -0.13131 l -0.26262,0.59089 -0.39392,0.39392 -0.65654,0.19696 -0.45957,0.0657 -0.39393,0.0657 -0.0657,0.13131 -0.59088,0.19696 -0.13131,0.13131 h -0.13131 l -0.0657,0.0657 -1.57569,0.8535 -1.37873,0.39392 -0.39392,0.13131 -0.0657,0.1313 -0.65653,0.32827 -0.26262,0.26262 -0.39392,0.0657 h -0.19696 l -0.0657,-0.32827 -0.59088,-0.59088 -0.26261,-0.0657"
         stroke="inherit"
         stroke-width="inherit"
         fill="none"
         id="path68-4"
         inkscape:transform-center-x="-28.568676"
         inkscape:transform-center-y="42.253007"
         style="stroke-width:0.7;stroke-dasharray:none" /><path
         d="m 102.19468,66.10568 -0.13131,-0.0657 h -0.13131 v 0.39392 l 0.26262,0.0657 0.0657,0.0656 1.18177,0.45958 0.13131,0.1313 0.52523,0.45958 0.0657,-0.26262 h 0.0657 l 0.0657,-0.26261 0.8535,-0.8535 1.57569,-0.0656 0.39392,-0.0657 h 0.26261 l 0.32827,0.39393 0.13131,0.26261 0.45958,0.52523 -0.0657,0.19696 -0.26261,0.13131 -0.32827,0.32827 -2.49484,0.65654 h -0.52523 l -0.0657,-0.13131 2.23223,1.05046 0.59088,0.32827 0.13131,0.0657 0.32827,0.19696 0.0657,0.0657 h 0.39393 l 0.78784,-0.78785 0.19696,-0.0657 0.52523,-0.45958 0.65654,-0.45958 0.26262,-0.26261 0.45957,-0.19696 0.39392,-0.32827 1.44439,-0.8535 0.45957,-0.32827 1.05046,-0.8535 0.26262,-0.0657 0.0657,-0.0657 0.59088,-0.26262 h 0.39393 l 0.59088,0.32827 0.45958,0.0657 0.39392,0.0657 -0.26262,0.45957 -0.72219,1.37873 -0.26261,0.52523 -0.19696,0.13131 -0.13131,0.45958 -1.57569,0.26261 -0.52523,0.19696 -0.39392,0.13131 -1.24742,0.39392 -0.59089,0.26262 -1.31307,0.39392 -0.59089,0.0657 -0.0657,0.13131 h -0.59088 l -0.45958,0.0657 -0.0656,0.13131 0.65653,0.45958 1.37873,0.32827 0.45958,0.0657 v -0.26261 l 0.59088,-0.32827 v -0.0657 l 1.18177,-0.32827 -0.13131,0.26262 -0.1313,0.39392 -0.98481,0.32827 h -0.19696 l -0.0657,0.0657 -0.0656,0.13131 v 0.19696 l 1.05046,0.26262 h 0.39392 l 1.11612,-0.98481 0.59088,-0.26261 h 0.39392 v 0.59088 l 0.32827,0.0657 1.90396,-1.44438 0.45958,-0.26261 0.32826,-0.13131 0.13131,-0.13131 0.26262,-0.0657 0.0657,-0.13131 h 0.78785 l 0.0657,0.13131 0.26261,0.0657 0.39393,0.52523 v 0.32827 l -0.0657,0.0657 v 0.13131 l -0.1313,0.13131 -0.19697,0.65654 -0.45957,0.32827 -1.37873,0.32826 -0.0656,0.0657 -0.45958,-0.13131 -0.32827,-0.19696 -0.0657,-0.0657 v 0 l 0.8535,0.65653 0.0656,0.0657 h -0.65654 l -0.65654,0.45957 -0.72219,0.32827 -0.0657,0.19696 -0.26262,0.13131 -0.1313,0.13131 -0.32827,0.0657 0.59088,-0.13131 0.19696,-0.0657 -0.0657,-0.13131 h -0.26262 l -0.0656,0.13131 -0.0657,0.0657 0.59088,-0.0657 0.91915,-0.52523 0.59089,-0.26261 0.32827,-0.32827 0.0656,0.32827 0.59088,0.59088 0.26262,0.19696 0.78784,0.39392 -0.26261,0.26262 -1.24742,0.59088 -0.65654,0.0657 0.19696,0.13131 1.05046,0.39392 0.13131,0.0657 0.52523,0.39392 h 0.19696 l 0.32827,-0.32827 0.59088,-0.32827 0.45958,-0.19696 0.59088,-0.0657 v 0.45957 l 0.13131,0.39393 -0.26262,0.26261 -0.78784,0.19696 -0.13131,0.19696 -0.78784,0.39393 -0.13131,0.1313 h 0.91915 l 0.45958,0.13131 0.19696,0.19696 0.59088,0.45958 0.72219,0.45958 0.32827,0.1313 0.13131,0.0657 h 0.39392 l 1.05046,-0.32827 0.65654,-0.13131 0.19696,0.13131 v 0.91915 l -0.0657,0.45958 0.0657,0.45957 0.26262,0.26262 0.59088,0.0657 1.05046,0.59089 0.98481,0.85349 0.19696,0.32827 0.26261,0.26262 0.13131,0.32827 0.59088,0.45957 0.26262,0.0657 0.13131,0.19696 0.32826,0.19696 -0.0657,0.39392 -0.72219,0.65654 -1.18177,-0.65654 -0.26261,-0.26261 -0.59089,-0.32827 -0.39392,-0.32827 -0.52523,-0.32827 -0.19696,-0.19696 -0.26262,0.26261 -1.11611,0.52523 0.13131,-0.8535 0.0657,-0.32826 -0.0657,-0.52523 -0.32827,-0.45958 -0.26262,0.59088 -0.59088,0.65654 -0.39392,0.13131 -0.59088,-0.32827 v -0.13131 l -0.19697,-0.19696 -0.65653,-1.31307 -0.26262,-0.91916 -0.45957,-0.65653 -0.26262,-0.52523 -0.0657,-0.0657 -0.13131,-0.0657 -0.19696,0.91915 v 1.83831 l -0.13131,0.32827 v 0.91915 l -0.13131,0.32827 -0.52523,0.32826 v 0.0657 l -0.59088,-1.18177 v -0.13131 l -0.65654,-0.85349 0.26262,-0.26262 0.26261,-0.26261 0.13131,-0.8535 v -0.45958 l 0.13131,-0.39392 v -0.19696 l -0.13131,0.1313 -0.0657,0.19697 -1.18177,1.11611 -0.13131,-0.19696 -0.32827,-1.05046 -0.65654,-1.18177 -1.18176,-0.98481 -0.91915,-0.65653 -0.19697,-0.26262 -0.78784,-0.8535 0.26261,2.03527 0.32827,0.98481 v 0.91915 l 0.0657,0.72219 -0.0657,0.13131 -0.32827,0.78784 -0.45957,0.52523 -0.13131,0.65654 -0.19696,-0.19696 -0.39392,-1.57569 v -0.72219 l -0.19696,-0.65654 -0.13131,-1.11611 -0.0657,-0.39393 0.0657,-0.52523 0.13131,-0.32827 0.1313,-0.0657 0.32827,-0.59088 0.13131,-0.59089 0.0657,-0.0657 v -0.26262 l -0.0657,-0.0657 v -0.13131 l -0.0657,-0.1313 v -0.13131 l -0.26262,-0.19696 -0.13131,0.19696 -1.11611,1.64134 -0.13131,0.32827 -0.13131,-0.0657 -0.1313,-1.31308 0.0656,-0.45957 0.0657,-0.26262 0.13131,-0.0657 -0.78784,-0.32827 -1.37873,-1.51004 -0.26262,0.8535 0.0657,0.98481 0.52523,1.70699 0.0657,0.0657 0.26262,0.78784 v 1.707 l 0.1313,0.78785 v 1.96961 l -0.1313,0.45957 -0.0657,0.26262 -0.13131,0.0657 -0.0657,0.32827 -0.0657,0.13131 -0.0657,0.19696 -0.26261,-0.13131 -1.11612,-2.49484 v -1.31307 l 0.13131,-1.11612 -0.19696,-0.91915 -0.0657,-1.05046 v -1.11611 l -0.19696,-0.78785 -0.0657,-1.18177 v -0.85349 l 0.0657,-0.0657 0.0657,-0.0657 0.39392,0.0657 0.32827,0.19696 0.32827,0.32827 0.13131,0.0657 -0.13131,-0.19697 -0.78785,-0.39392 -1.51003,-0.59088 h -0.39392 l -0.0657,-0.0657 -0.19696,0.13131 -0.32827,1.37873 -0.65653,0.91915 V 72.7369 l -0.26262,-0.26261 -0.19696,-0.72219 v -1.57569 l 0.13131,-0.45958 h -0.8535 l -0.45958,-0.13131 -0.0657,-0.0657 -0.19696,0.65654 v 1.70699 l 0.19696,0.8535 0.0657,1.05046 0.0657,0.45958 v 1.51003 l -0.0657,0.32827 v 2.16658 l 1.18177,1.11611 0.32827,0.32827 h -0.26262 l -0.52523,0.52523 -0.39392,0.13131 -0.19696,0.19696 -0.19696,0.0657 v 0.19696 l 0.13131,0.13131 0.39392,1.05046 0.13131,1.31307 -0.13131,0.39393 -0.0657,0.9848 0.0657,0.13131 0.13131,0.0657 h -0.26262 l -0.0657,0.0657 -0.78785,0.19696 -0.78784,0.19696 -0.45958,-0.65654 -0.39392,-0.59088 0.0657,-1.77265 -0.13131,-0.8535 v -1.18177 l -0.1313,-0.72219 0.19696,-0.59088 0.52523,-1.44439 0.13131,-1.44438 v -1.44438 l -0.0657,-0.72219 v -0.65654 l 0.13131,-0.59088 0.13131,-3.28269 -0.13131,-0.78784 -0.0657,-0.45958 v -0.78785 h -0.59089 l -0.45957,-0.19696 -0.196968,-0.1313 c 0,0 -0.0657,-0.13131 -0.0657,-0.13131 v 3.61095 l 0.0657,0.7222 v 0.78784 l -0.1313,0.39392 -0.45958,-0.0657 -0.32827,-0.26262 -0.65654,-0.26261 -0.65653,-0.39392 -0.26262,-0.45958 0.19696,-0.65654 0.32827,-0.91915 0.0657,-1.44438 0.19696,-0.59089 0.0657,-0.32826 0.0657,-0.13131 0.19697,-0.13131 0.65653,0.13131 0.45958,0.19696 0.13131,-0.0657 -1.11612,-0.65654 -0.45957,-0.19696 -1.05046,-0.32827 -0.39392,-0.32827 -0.7222,-0.65654 h -0.1313 l 0.26261,0.0657"
         stroke="inherit"
         stroke-width="inherit"
         fill="none"
         id="path69-0"
         inkscape:transform-center-x="-31.096367"
         inkscape:transform-center-y="56.368652"
         style="stroke-width:0.7;stroke-dasharray:none" /><path
         d="m 97.008032,63.41388 h -0.65653 v 0.26262 l -0.26262,0.26261 0.39392,0.39392 0.78785,0.32827 3.742258,2.03527 0.78785,0.45957 1.24742,0.98481 0.26261,0.13131 0.59089,0.39392 0.26261,0.0657 1.24742,0.8535 0.39393,0.13131 0.19696,0.19696 0.26261,0.0657 1.77265,0.8535 1.57569,0.91916 0.52523,0.45957 2.49484,1.51004 1.51004,0.9848 0.26261,0.26262 1.44439,0.9848 0.26261,0.13131 0.19696,0.13131 0.39393,0.19696 1.64134,0.91915 0.8535,0.32827 1.57569,0.78785 1.18177,0.78784 1.05045,0.72219 0.45958,0.19696 0.72219,0.39393 0.26262,0.26261 2.36353,1.51004 0.19696,0.1313 1.64135,1.31308 0.19696,0.19696"
         stroke="inherit"
         stroke-width="inherit"
         fill="none"
         id="path70-8"
         inkscape:transform-center-x="-30.997946"
         inkscape:transform-center-y="54.956917"
         style="stroke-width:0.7;stroke-dasharray:none" /><path
         d="m 101.93206,66.10568 -0.1313,0.0657 0.59088,-0.0657 2.6918,-1.57569 2.29788,-1.18176 1.11612,-0.59089 1.31307,-0.72219 0.13131,-0.19696 0.72219,-0.26261 1.90396,-1.24743 0.32827,-0.0656"
         stroke="inherit"
         stroke-width="inherit"
         fill="none"
         id="path71-1"
         inkscape:transform-center-x="-25.876956"
         inkscape:transform-center-y="44.485142"
         style="stroke-width:0.7;stroke-dasharray:none" /><path
         d="m 100.94726,67.41876 v -0.32827 l -0.19696,0.19696 -0.0657,1.57569 v 1.05046 l 0.26262,1.31308 0.0657,1.44438 -0.0657,0.32827 -0.13131,1.70699 -0.0657,0.32827 -0.0657,1.77265 0.0657,0.39393 v 2.29788 l 0.0657,0.39392 0.19696,0.91915 0.0657,0.0657 v 0.52523 l 0.19696,0.65653 0.1313,1.31308 v 0.39392"
         stroke="inherit"
         stroke-width="inherit"
         fill="none"
         id="path72-0"
         inkscape:transform-center-x="-19.574126"
         inkscape:transform-center-y="56.696712"
         style="stroke-width:0.7;stroke-dasharray:none" /><path
         d="m 108.82571,81.86258 -0.0657,0.32827 -0.39392,-0.0657 -0.72219,-1.57569 -0.26262,-0.39393 -0.59088,-1.57569 -0.32827,-1.90395 -0.0657,-3.08573 0.19696,-0.52523 0.13131,-1.18177 0.0657,-0.9848 0.19696,-0.13131 v 0.19696"
         stroke="inherit"
         stroke-width="inherit"
         fill="none"
         id="path73-3"
         inkscape:transform-center-x="-26.139526"
         inkscape:transform-center-y="57.747127"
         style="stroke-width:0.7;stroke-dasharray:none" /><path
         d="m 125.50176,82.84739 -0.26262,0.1313 -0.0657,-0.1313 h -0.0657 l 0.32827,0.32827 0.91916,0.78784 0.91915,0.59088 1.05046,0.45958 0.59088,0.26262 0.72219,0.0657 h 0.52523 l -0.0657,-0.39392 -0.65654,-0.98481 0.0657,-0.0657 0.0657,0.0657"
         stroke="inherit"
         stroke-width="inherit"
         fill="none"
         id="path74-1"
         inkscape:transform-center-x="-46.163867"
         inkscape:transform-center-y="65.363012"
         style="stroke-width:0.7;stroke-dasharray:none" /><path
         d="m 87.291282,68.2066 v 1.64135 l -0.13131,0.1313 v 0.65654 l -0.0657,0.19696 h -0.26262 l -0.19696,0.13131 -0.32827,0.19696 -0.59088,0.39392 -0.52523,0.19697 h -0.13131 v 0.1313 h -0.19696 l -0.26261,0.0657 -0.32827,0.1313 -0.0657,0.19697 h -0.1313 v 0.1313 h -0.13131 v 0.13131 h -0.13131 l -0.19696,0.45958 h -0.13131 v 1.64134 h 0.26262 l 0.32827,-0.32827 0.32827,-0.13131 v -0.1313 h 0.19696 l 0.65653,-0.32827 0.91916,-0.39392 v -0.13131 h 0.19696 v -0.13131 h 0.32827 v -0.0656 h 0.45957 l -0.0657,0.85349 -0.13131,0.13131 v 0.78785 l -0.13131,0.19696 v 0.13131 h 0.13131 v -0.13131 l -0.65654,0.32827 -0.1313,0.1313 h -0.19696 l -0.26262,0.19697 h -0.19696 l -0.65654,0.45957 -0.65654,0.32827 -0.26261,0.13131 v 0.0657 l -0.78785,0.45958 -0.65653,0.65654 v 2.49484 c 0,0 0.1313,0 0.1313,0 v -0.13131 h 0.13131 l 0.19696,-0.32827 0.98481,-0.78784 1.24742,-0.65654 0.45958,-0.26262 h 0.19696 l 1.11611,-0.65653 h 0.19696 v -0.0657 l 0.45958,-0.1313 v -0.13131 h 0.65654 v 1.11611 l -0.19696,1.11612 -0.13131,0.19696 h -0.19696 l -3.02008,1.70699 -0.1313,0.0657 h -0.19696 l -0.59089,0.45957 h -0.19696 l -0.32827,0.32827 -0.32827,0.26262 v 0.0657 l -0.19696,0.13131 v 0.13131 h -0.13131 l -0.1313,0.52523 0.78784,0.45957 v 0.13131 l 0.52523,0.0657 0.59089,-0.32827 0.19696,-0.32826 1.11611,-0.78785 0.59088,-0.0657 0.32827,-0.13131 v -0.13131 l 0.45958,-0.19696 0.39392,-0.26261 v -0.0657 h 0.26262 v -0.1313 h 0.32827 v 0.32826 l -0.26262,0.32827 -0.19696,0.13131 -0.19696,0.32827 -0.91915,0.65654 -0.19697,0.32826 -0.65653,0.45958 v 0.13131 l -0.39393,0.19696 v 0.13131 h -0.0657 l -0.26261,0.52523 h -0.0657 v 0.32827 h -0.13131 v 0.26261 h 0.13131 v 0.0657 l 0.32827,0.26262 0.0657,0.19696 h 0.13131 v 0.13131 h 0.13131 v 0.13131 h 0.13131 v 0.0657 h 0.39392 l 0.32827,-0.32827 0.32827,-0.19696 0.72219,-0.65654 h 0.0657 v -0.13131 l 0.32827,-0.1313 0.13131,-0.19696 h 0.13131 v -0.13131 h 0.0657 v -0.13131 h 0.13131 l -0.65654,1.11611 -0.45958,0.7222 -0.52523,0.32826 -0.26261,0.32827 -0.39392,0.32827 h -0.26262 l -0.65654,0.45958 -0.65653,0.32827 -0.13131,0.19696 -0.52523,0.32827 h -0.26262 l -0.19696,0.19696 h -0.19696 l -1.57569,1.11611 h -0.19688 l -0.39392,0.26262 h -0.19696 l -0.65654,0.45957 -0.78785,0.52523 -0.19696,0.32827 h 0.0657 v 0.13131 h 0.1313 v 0.65654 h -0.1313 v 0.1313 h -0.32827 l -0.39392,-0.26261 h -0.45958 l -0.32827,0.45957 v 0.91916 h 0.0656 l 0.26262,0.32827 0.45958,0.19696 0.19696,0.1313 0.65653,0.0657 h 0.78785 l 0.45958,-0.19696 0.39392,-0.13131 v -0.0657 h 0.26261 v -0.13131 l 0.65654,-0.32827 v -0.13131 h 0.13131 v -0.13131 h 0.0656 l 0.26262,-0.39392 v -0.13131 h 0.0657 v -0.45957 l 0.26261,-0.45958 0.32827,-0.19696 0.45958,-0.32827 0.0657,-0.19696 0.45958,-0.26261 0.78784,-0.45958 0.65654,-0.39392 0.98481,-0.91915 0.59088,-0.65654 h 0.13131 l 0.0657,-0.19696 h 0.26262 v -0.13131 h 0.19696 v -0.13131 h 0.19696 v 0.26262 c 0,0 0.13131,-0.0657 0.13131,0 v 3.21703 l -0.13131,0.52523 v 1.57569 h -0.0656 v 0.52523 h -0.32827 l -0.45958,0.32827 -0.32827,0.26261 -0.65653,0.98481 -0.13131,0.52523 v 0.59088 l -0.13131,0.19696 v 0.78785 h 0.26262 l 0.85349,-0.45958 0.32827,-0.0656 v -0.13131 h 0.26262 l 0.19696,-0.13131 h 0.19696 v 0.32827 l 0.26262,0.32827 -0.32827,-0.19696 -0.26262,-0.32827 -0.0657,-0.19696 h -0.13131 v -0.13131 h -0.13131 v -0.1313 h -0.0657 v -0.0657 h -0.72219 l -0.32827,0.32827 -0.39392,0.72219 -0.26262,0.91915 -0.13131,0.19696 v 0.32827 l 0.26262,0.13131 v 0.13131 h 0.13131 l 0.19696,0.45957 0.45957,0.19697 v 0.1313 h 0.0657 l 0.26261,0.32827 0.78785,0.52523 h 0.0657 v 0.13131 h 0.26262 v 0.13131 h 0.0656 v 0.0657 h 0.13131 v 0.26262 h 0.13131 v 0.32826 h 0.0657 v 0.98481 l 0.13131,0.52523 v 0.59088 l 0.1313,0.19697 0.19697,0.78784 v 1.24742 h 0.1313 v 0.0657 h 0.13131 v -0.0657 h 0.0657 v -0.26261 l 0.13131,-0.0657 v -0.26261 l 0.13131,-0.0657 0.0657,-0.45957 0.65654,-2.03527 c 0.0656,0 0.13131,0 0.13131,0 v -0.19696 l 0.1313,-0.19696 0.13131,-0.59088 0.19696,-0.13131 0.19696,0.45957 h 0.13131 l 0.13131,0.26262 h 0.0657 l 0.13131,0.19696 h 0.59088 v -0.19696 l -0.1313,-0.26262 -0.26262,-0.45957 -0.52523,-0.98482 -0.13131,-0.65654 h 0.26262 v 0.13131 l 0.39392,0.19696 v 0.13131 l 0.72219,0.32827 v 0.13131 h 0.0657 v -0.45958 l -0.0657,-0.13131 v -0.19696 l -1.11611,-1.772648 -0.26262,-0.59088 v -0.0657 h 0.26262 l 0.19696,0.0657 h 0.45958 l 0.65653,0.45957 h 0.13131 v 0.13131 l 0.52523,0.0657 h 0.13131 v -1.18176 l -0.32827,-0.45958 -0.32827,-0.19696 -0.45957,-0.26261 -0.59089,-0.19697 -0.65654,-0.45957 -0.0657,-0.19696 h -0.13131 v -0.26262 l -0.1313,-0.19696 v -0.45958 l -0.0657,-0.19696 v -0.9848 l -0.26261,-1.11612 -0.13131,-1.05046 v -1.64134 l -0.0657,-0.45958 v -0.19696 l -0.13131,-0.1313 v -0.78785 l 0.65654,0.13131 1.44438,0.45957 0.26261,0.19697 0.8535,0.45957 1.11612,1.11611 0.59088,0.78785 0.19696,0.32827 0.32827,0.19696 0.19696,0.45958 0.32827,0.19696 v 0.1313 h 0.13131 v 0.13131 h 0.1313 v 0.0657 h 0.13131 v 0.1313 h 0.0657 l 0.26261,0.45958 h 0.19696 l 0.19696,0.45958 h 0.13131 l 0.19696,0.39392 h 0.13131 v 0.13131 h 0.65654 v -0.13131 l 0.32826,-0.0657 v -0.1313 l 0.32827,-0.13131 v -0.0657 h 0.59089 v -0.13131 h 0.1313 v -0.91915 l -0.32826,-0.32827 -0.26262,-0.32827 -0.32827,-0.32827 -0.32827,-0.13131 -0.1313,-0.19696 h -0.0657 l -0.1313,-0.19696 h -0.13131 v -0.13131 l -0.32827,-0.19696 -1.18177,-1.24742 -1.8383,-0.91915 -0.98481,-0.19696 -0.19696,-0.13131 -1.44438,-0.52523 -0.26262,-0.13131 -0.32827,-0.0657 v -0.13131 h -0.0657 l -0.26262,-0.32827 h -0.0657 v -0.13131 l -0.32827,-0.1313 v -0.0657 h -0.13131 v -0.45957 l 0.13131,-0.59089 v -1.18176 l -0.13131,-0.26262 c 0,0 -0.0657,0.26262 0,0.26262 l 1.96962,1.11611 0.65653,0.19696 v 0.13131 h 0.13131 v -0.26262 l -0.13131,-0.19696 -1.18176,-0.8535 -0.13131,-0.26261 -0.32827,-0.19696 -0.13131,-0.26262 -0.9848,-0.52523 h 0.26261 l 0.32827,-0.32827 0.19696,-0.32827 0.32827,-0.26261 h 0.32827 l 1.11611,0.91915 0.13131,0.19696 0.19696,0.13131 0.91915,1.11611 1.18177,0.65654 0.59089,0.32827 0.52523,0.13131 h 0.45957 l 0.19696,0.13131 h 0.45958 v -0.13131 h 0.26261 l 0.0657,-0.59089 v -0.39392 l -0.19696,-0.32827 -0.26262,-0.1313 -0.39392,-0.59089 -0.65654,-0.39392 -0.13131,-0.13131 -0.45957,-0.13131 -0.78785,-0.45957 h -0.32827 l -0.19696,-0.0657 -0.59088,-0.26261 -0.65654,-0.39392 -0.8535,-0.45958 h -0.26261 l -0.45958,-0.45957 -0.32827,-0.13131 v -0.0657 l -0.9848,-0.45957 -0.19696,-0.52523 v -0.91915 l 0.0657,-0.13131 v -0.8535 h 0.39392 l 0.65654,0.52523 0.98481,0.59088 0.9848,0.65654 0.59089,0.32827 0.85349,0.98481 0.65654,0.45957 h 0.45958 l 0.45957,0.32827 h 0.13131 v 0.13131 h 0.19696 v 0.0657 l 0.52523,0.26262 v -0.26262 h 0.13131 v -0.19696 l 0.65654,-1.31307 v -0.26262 l 0.13131,-0.19696 v 0.13131 h -0.19697 l -1.11611,-0.59089 -0.26261,-0.1313 v -0.0657 l -0.19697,-0.13131 v -0.1313 h -0.1313 v -0.19696 h -0.13131 v -0.19697 l -0.32827,-0.59088 h -0.0657 v -0.13131 h -1.90396 l -1.11612,-0.32827 -0.9848,-0.0657 v -0.13131 h -0.32827 v -0.1313 l -0.32827,-0.19697 -0.26261,-0.1313 v -0.0657 h -0.0657 v -0.1313 h -0.13131 v -0.13131 l -0.26261,-0.13131 v -0.0656 h -0.0657 l -0.13131,-0.32827 c 0,0 -0.13131,0 -0.13131,0 v -2.36354 l 0.32827,0.26262 0.91915,0.8535 0.91915,0.65653 0.39393,0.26262 0.59088,0.32827 0.52523,0.19696 h 0.45958 v -0.65654 l -0.52523,-0.78784 -0.26262,-0.13131 -0.13131,-0.19696 -1.18176,-0.65654 h -0.78785 l -0.32827,-0.26261 v -0.0657 l -0.9848,-0.45957 -0.26262,-0.45958 h -0.0657 v -0.0656 h 0.32827 l 0.19696,-0.26262 h 0.19696 l 0.39392,-0.19696 0.52523,-0.13131 1.11612,1.11612 0.52523,0.78784 1.05046,0.78785 h 0.19696 l 0.52523,0.39392 0.72219,0.26261 h 0.19696 l 0.45958,0.19696 h 0.0657 v 0.13131 l 0.45958,0.13131 v 0.0657 h 0.26261 v 0.13131 l 0.72219,0.19696 0.59089,0.13131 h 0.1313 v -0.45958 l -0.1313,-0.0657 -0.13131,-0.78785 -0.0657,-0.1313 v -0.19696 l -0.1313,-0.13131 v -0.32827 l -0.13131,-0.13131 v -0.19696 l -0.32827,-0.26261 v -0.32827 l -0.13131,-0.19696 v -0.13131 h -0.0656 v -0.0656 h -0.91915 l -0.19696,-0.13131 h -0.59089 l -0.65654,-0.32827 h -0.19696 l -0.45957,-0.32827 h -0.19696 l -0.78785,-0.59088 -0.91915,-0.39393 -0.65654,-0.45957 h -0.19696 c 0,0 -0.26262,-0.0657 -0.26262,-0.13131 v -2.5605 c 0,0 -0.19696,0.13131 -0.19696,0.13131 l -0.32827,-1.11611 -0.32826,-0.45958"
         stroke="inherit"
         stroke-width="inherit"
         fill="none"
         id="path75-1"
         inkscape:transform-center-x="-7.0016106"
         inkscape:transform-center-y="67.825212"
         style="stroke-width:0.7;stroke-dasharray:none" /><path
         d="m 88.735662,67.55007 -0.45957,0.19696 v 0.1313 h 0.1313 v -0.1313 c 0,0 0.0657,-0.0657 0.13131,0 v 2.10092 l 0.19696,1.77265 v 2.82311 l 0.19696,1.51003 0.13131,1.37873 0.13131,0.65654 0.0657,0.98481 v 1.90396 c 0,0 0.13131,0 0.13131,0.0657 v 4.33315 l -0.13131,0.59088 v 0.52523 l -0.0657,0.13131 v 0.65653 l -0.13131,0.59089 v 1.05046 l -0.13131,0.72219 v 0.72219 l -0.0657,0.59088 v 1.11612 l -0.13131,0.52523 v 2.49484 l -0.1313,0.72219 v 0.72219 l -0.0657,0.65654 v 1.18177 l -0.13131,0.45957 v 1.57569 l 0.13131,0.0657 v 0.91915 l 0.0657,0.45957 v 0.65654 l 0.1313,0.45958 v 1.51003 h -0.1313 v 0.26262 l 0.59088,-0.59088 1.11611,-2.23223 0.0657,-1.18177 0.1313,-0.45958 0.13131,-0.9848 0.0657,-1.24742 0.13131,-1.77265 v -0.19696 l 0.13131,-0.26262 v -0.32827 l -0.13131,-0.19696 v -0.32827 l -0.13131,-0.26261 v -0.32827 l -0.0657,-0.19696 h -0.13131 l -0.1313,0.52523 v 0.1313"
         stroke="inherit"
         stroke-width="inherit"
         fill="none"
         id="path76-5"
         inkscape:transform-center-x="-8.1504662"
         inkscape:transform-center-y="67.365472"
         style="stroke-width:0.7;stroke-dasharray:none" /><path
         d="m 79.609792,91.71064 -0.1313,0.26262 0.26261,-0.32827 0.8535,-0.78785 0.26261,-0.32827 0.98481,-0.78784 0.91915,-0.45958 h 0.19696 l 0.19696,-0.0657 v -0.13131 h 0.13131 l 0.13131,-0.45957 0.0657,-0.13131 V 88.2966 l 0.13131,-0.19696 v 0.32827"
         stroke="inherit"
         stroke-width="inherit"
         fill="none"
         id="path77-0"
         inkscape:transform-center-x="-0.075060682"
         inkscape:transform-center-y="71.304627"
         style="stroke-width:0.7;stroke-dasharray:none" /><path
         d="m 97.139342,85.40788 v -0.1313 0 l -0.19696,0.1313 h -0.52523 l -0.72219,-0.32827 -0.72219,-0.19696 h -0.32827 l -0.26262,-0.1313 -0.65653,-0.26262 v -0.0657 l -0.32827,-0.26262 -0.13131,-0.19696 h -0.0657"
         stroke="inherit"
         stroke-width="inherit"
         fill="none"
         id="path78-8"
         inkscape:transform-center-x="-13.698161"
         inkscape:transform-center-y="65.953842"
         style="stroke-width:0.7;stroke-dasharray:none" /><path
         d="m 93.068812,77.98901 h -0.32827 v 0.52523 l 0.32827,0.26262 v 0.19696 l 0.32827,0.32827 0.45957,0.19696 0.52523,0.26261 v 0.0657 l 0.45958,0.26261 v 0.13131 l 0.45958,0.0657 v 0.13131 h 0.0657 v 0.13131 h 0.26262 v 0.0657 h 0.9848 l 0.19696,0.13131 h 0.32827 l 0.26262,0.13131 h 0.1313 v 0.0657 h 0.0657 v 0.13131 h 0.13131 v 0.1313 h -0.19697"
         stroke="inherit"
         stroke-width="inherit"
         fill="none"
         id="path79-4"
         inkscape:transform-center-x="-13.763886"
         inkscape:transform-center-y="60.865797"
         style="stroke-width:0.7;stroke-dasharray:none" /><path
         d="m 99.174612,93.15502 v 0.26262 h 0.1313 l 0.19697,0.45958 h 0.1313 v 0.0657 h 0.0657 v 0.13131 l 0.459568,0.19696 0.13131,0.45957 h 0.13131 v 0.26262 l 0.0657,0.19696 v 0.32827 h 0.13131 v 0 l -0.13131,-0.19696 h -0.0657 v -0.13131 h -0.13131 l -0.26261,-0.32827 -0.656538,-0.32827 v -0.1313 h -0.19696 v -0.13131 l -0.59089,-0.0657 h -0.32827 l -0.19696,-0.1313 h -0.1313"
         stroke="inherit"
         stroke-width="inherit"
         fill="none"
         id="path80-9"
         inkscape:transform-center-x="-17.801611"
         inkscape:transform-center-y="75.604992"
         style="stroke-width:0.7;stroke-dasharray:none" /><path
         d="m 83.483362,65.44915 h -0.19696 v 1.57569 l -0.59088,0.0657 -0.13131,0.19696 -0.26261,0.0657 0.1313,0.32827 0.26262,0.26262 0.59088,1.24742 0.26262,0.26261 -0.19696,0.59089 -0.45958,1.11611 -0.13131,0.52523 -0.19696,0.26262 v 0.39392 l 0.13131,0.32827 0.19696,0.19696 v 1.707 l -0.32827,0.78784 -0.59088,0.52523 -0.32827,0.0657 -0.59088,-0.52523 -0.32827,-0.0657 -0.32827,-0.39392 v -0.19696 l -0.45958,0.59088 h -0.26261 l -0.52523,-0.91915 -0.26262,-0.39392 -0.13131,-0.59089 0.52523,-0.52523 h 0.52523 l 0.0657,0.0657 h 0.32827 v -0.13131 l 0.0657,-0.0657 v -0.59089 l -0.59088,-0.26261 -0.19696,-0.32827 0.0657,-0.26262 0.91915,-0.39392 0.32827,-0.45958 v -0.1313 h -0.19696 l -0.59088,-0.65654 V 69.1915 l 0.45957,-0.32827 0.32827,0.0656 0.39392,0.32827 0.13131,-0.0657 v -1.90396 l 0.13131,-0.52523 0.0657,-0.0657 0.13131,-0.59089 0.19696,-0.19696 0.78784,-0.0657 0.39393,-0.0657 0.19696,-0.32826 0.0657,-0.0657 -0.39392,-0.1313 -0.13131,-0.0657 h -0.39392 l -1.51004,1.44438 -0.59088,0.45958 -0.0657,0.13131 h 0.26261 l 0.13131,0.39392 v 1.05046 h -0.19696 l -0.26262,-0.19696 -0.45957,-0.13131 -0.39393,-0.39392 -0.26261,-0.19696 h -0.13131 l -0.65654,0.72219 h -0.45957 v 1.05046 l -0.45958,-0.0657 -0.45957,-0.45957 v -0.52523 l -0.39393,0.9848 -0.32827,1.18177 -0.19696,0.65654 v 0.59088 l 0.19696,0.78785 v 3.21703 l 0.0657,0.39392 0.0657,1.05046 v 1.05046 l 0.13131,0.0657 0.39392,1.05046 v 1.77265 l -0.19696,0.65654 -0.52523,2.36353 -0.13131,0.32827 -0.0656,0.0656 -0.0657,0.39392 h -0.52523 l -0.0657,0.45958 -0.0656,0.39392 -0.13131,0.0657 -0.32827,0.91915 -0.0657,0.13131 v 0.1313 l -0.0657,0.0657 -0.19696,0.8535 -0.1313,0.0657 -0.7222,-1.51004 -0.32826,-0.85349 -0.32827,-0.8535 -0.13131,-1.31308 -0.26261,-0.78784 0.39392,-1.64135 0.26261,-1.44438 0.32827,-0.9848 0.26262,-0.65654 -0.32827,-0.19696 -0.52523,-0.59089 0.45957,-0.59088 0.39393,-0.39392 0.59088,-0.32827 v -0.65654 l -0.19696,-0.8535 v -1.05046 l 0.26261,-0.78784 0.0657,-0.0657 0.19696,-0.85349 v -0.7222 l 0.0657,-0.0656 v -0.19696 l 0.13131,-0.0657 0.13131,-0.32827 1.11611,-0.98481 0.52523,-0.19696 0.45958,-0.39392 -0.19696,-0.19696 -0.59089,0.0657 -1.11611,1.05046 -0.59089,0.72219 -0.1313,0.26262 -1.707,0.91915 -0.19696,0.13131 -0.45958,0.32826 -0.1313,0.78785 v 2.10092 l -0.0657,0.39392 -0.0657,0.32827 -0.45958,0.0656 -0.52523,-0.1313 -0.13131,-0.13131 -0.45957,-0.19696 -0.13131,-0.13131 h -0.13131 l -0.0657,-0.72219 -0.13131,-1.57569 h 1.05046 l 0.91915,-0.32827 0.19697,-0.26261 -2.16658,1.51003 c 0,0 -0.0657,-0.0657 -0.0657,-0.0657 h 0.19696 l 0.13131,0.52523 0.0657,1.37873 v 2.56049 l -0.0657,0.26262 -0.0657,0.0657 -0.19696,1.18177 -0.32827,1.57569 -0.59088,0.0657 -0.19696,0.26262 -0.8535,0.59088 -0.39392,0.39392 -0.26262,-0.0656 v -1.18177 l 0.13131,-1.37873 V 79.302 l 0.26261,-1.24743 0.26262,-1.96961 0.0657,-0.32827 v -0.91915 l 0.0657,-0.39392 v -0.19696 l 0.1313,-0.0657 -0.1313,0.0657 -0.78785,0.72219 -0.45957,0.45957 h 0.26261 l 0.19696,0.26262 v 0.65654 l -0.19696,0.39392 -0.32827,0.39392 -0.32827,-0.13131 -0.52523,-0.59088 -0.0657,-0.72219 0.32827,-0.72219 -0.39392,1.37873 -0.0657,0.59088 -0.13131,0.0657 -0.0657,1.44439 -0.0656,0.9848 -0.52523,0.52523 -0.59089,0.65654 -0.59088,0.59088 -0.19696,-0.26261 -0.26262,-0.72219 -0.0657,-1.77265 0.0657,-0.32827 0.0657,-0.91915 0.0657,-0.26262 0.13131,-0.0656 v -0.26262 l 0.0656,0.0657 -0.72219,1.11611 -1.11611,0.59088 -0.65654,0.0657 -0.196961,-0.0657 0.328271,0.78785 0.19696,1.37873 v 0.39392 h -0.19696 l -0.459578,0.59088 -0.328269,0.26262 -0.262615,-0.13131 -0.262615,-0.32827 -0.06565,-0.9848 v -0.7222 l 0.131307,-0.59088 0.131308,-0.13131 0.196961,-0.65653 0.131307,-0.0657 0.131308,-0.32827 h -0.06565 l -0.06565,0.26262 -1.05046,1.31307 -0.393922,0.19696 -0.328269,0.39393 v 0.19696 l 0.06565,0.0657 v 0.72219 l 0.131308,0.78785 v 1.31307 l -0.459577,0.13131 -0.656537,0.13131 -0.393923,0.1313 -0.328268,0.13131 -0.196961,-0.26261 -0.06565,-0.65654 V 81.2061 l 0.262615,-0.85349 -0.459576,0.39392 -0.787845,0.32827 -0.131308,0.39392 0.196961,0.78784 -0.393922,0.0657 -0.393922,-0.0657 -0.52523,-0.39392 -0.262615,-0.19696 -0.06565,0.32827 -0.590884,0.78784 -0.590883,0.0657 -0.459577,-0.0657 h -1.050459 l -0.328269,0.0657 -0.06565,0.0657 -0.787845,0.13131 -0.06565,-0.19696 0.590883,-0.8535 0.328269,-0.52523 0.262615,-0.91915 0.459576,-0.19696 0.131308,-0.0657 h 0.722191 l 0.590883,-0.26261 0.656538,-0.59089 0.656537,-0.65653 0.196961,-0.19697 1.247421,-0.45957 0.131308,-0.19696 v -0.13131 l -0.262615,-0.13131 -0.06565,-0.0657 -0.853498,-0.13131 h -0.984933 l -0.328268,-0.19696 -0.328269,-0.32827 -0.328269,-0.32827 v -0.19696 l -0.06565,-0.0657 v -0.72219 h 0.919152 l 0.984806,0.39392 0.656538,0.8535 0.919152,0.32827 h 0.722191 l 0.853499,-0.19697 h 0.262615 l -1.116114,-0.91915 -0.328269,-0.13131 -0.196961,-0.26261 -0.52523,-0.52523 0.06565,-0.19696 h 1.247421 l 0.590884,0.19696 1.181767,0.59088 0.393922,0.19696 0.787845,0.0657 0.722188,-0.39392 0.65654,-0.65654 h 0.19696 l -1.706995,-0.91915 -0.919153,-0.26262 -0.656537,-0.32827 -0.393922,-0.26261 -0.262615,-0.39392 -0.06565,-0.59089 0.393922,-0.19696 0.853499,-0.0657 0.919152,0.39392 0.131308,0.19696 0.262615,0.0657 0.919146,0.59089 0.59089,0.39392 0.91915,0.45958 0.8535,0.45957 0.39392,-0.13131 0.39392,-0.59088 0.13131,-0.45957 -0.78784,-0.52523 -0.7222,-0.7222 -1.18176,-0.72219 -0.0657,-0.26261 0.39393,-0.0657 0.91915,0.0657 1.31307,0.52523 1.37873,0.9848 0.26262,0.0657 0.0657,0.13131 h 0.13131 l 0.19696,-0.19697 0.39392,-0.26261 0.26262,-0.26262 0.52523,-0.32826 h 1.44438 l -0.0657,-0.19697 -0.78784,-0.52523 h -0.26262 l -0.19696,-0.19696 -0.65653,-0.1313 -1.51004,-0.32827 -1.37873,-0.45958 -1.57569,-0.19696 -1.37873,-0.52523 -1.050454,-0.72219 -0.262615,-0.8535 v -0.65654 l 0.52523,-0.52523 0.656539,-0.32827 1.05046,-0.0657 0.78784,0.32827 1.90396,1.8383 1.18177,0.72219 0.39392,0.19697 1.05046,0.59088 0.8535,0.32827 0.65653,0.32827 0.8535,0.1313 h 0.91916 l 0.0657,-0.39392 0.26261,-0.39392 0.13131,-0.19696 -0.19696,-0.26262 -1.18177,-0.45957 -0.65653,-0.19696 -0.78785,-0.32827 -0.72219,-0.19696 -0.32827,-0.0657 -0.32827,-0.32827 -0.32827,-0.32827 -0.26261,-0.72219 -0.0657,-0.8535 0.39393,-0.26261 h 0.8535 l 1.64134,0.65654 0.8535,0.52523 0.59088,0.26261 1.44438,0.98481 0.45958,0.13131 0.59088,0.26261 0.19696,-0.0656 0.19697,-0.39393 V 67.2875 l -0.32827,-0.26261 -1.64135,-0.59089 -1.11611,-0.59088 -0.65654,-0.26262 -1.11611,-0.65653 -1.11611,-0.45958 -1.37873,-1.37873 -0.91916,-0.32827 -1.44438,-0.59088 v -0.0657 l -0.72219,-0.13131 -0.91915,-0.45958 -0.98481,-0.13131 -0.590878,-0.19696 -1.116113,-0.0656 -0.459576,-0.19696 -0.393923,-0.0657 h -1.838304 l -0.393923,0.0657 h -0.196961 l -0.131308,-0.65654 v -1.96961 l -0.262615,-0.98481 0.328269,-0.1313 h 1.247421 l 2.757457,0.59088 1.378724,0.78784 1.24742,0.98481 0.65654,0.13131 1.37873,0.26261 1.05046,0.52523 0.59088,0.39392 1.18177,1.18177 0.8535,0.45958 0.19696,0.13131 0.8535,0.39392 0.91915,0.65654 0.32827,0.19696 0.8535,0.78784 0.59088,0.39392 0.59089,0.45958 0.52522,0.26261 0.59089,0.39393 0.19696,0.32827 0.13131,0.19696 0.52523,0.72219 h 0.19696 l 0.0656,0.13131 0.0657,0.0657 -1.77266,0.39392 -0.1313,0.0657 0.1313,-0.32827 1.11612,-0.78785 h 0.19696 l 0.0656,-0.13131 h 1.18177 l 0.72219,-0.19696 0.26262,-0.1313 c 0,0 0.1313,-0.26262 0.0656,-0.32827 l -2.42919,-0.78785 -1.31307,-0.59088 -0.52523,-0.19696 -0.0657,-0.32827 0.59089,-0.72219 1.18176,-0.45958 0.65654,0.13131 0.65654,0.45958 0.65654,0.45957 1.24742,1.24742 0.0656,0.72219 -0.19696,0.26262 -0.78784,0.32827 h -0.26262 l 0.13131,-0.26262 0.65654,-0.59088 1.24742,-0.65654 0.39392,-0.0657 0.91915,-0.19696 0.45958,-0.26262 0.39392,-0.45957 -0.0657,-0.0657 -2.16658,-0.59088 -0.45957,-0.13131 -1.05046,-0.72219 -0.59089,-0.32827 h -0.91915 l -1.11611,-0.52523 -0.39393,-0.39392 -0.85349,-0.72219 -0.32827,-0.26262 -0.32827,-0.19696 -0.0656,-0.0657 -0.98481,-0.72219 -0.26262,-0.26262 h -0.19696 l -0.0656,-0.13131 -0.59088,-0.1313 V 58.5555 l 0.26261,-0.19696 1.11611,-0.52523 0.0657,-0.0657 0.72219,-0.0657 1.37873,1.24743 0.91915,0.59088 0.19696,0.0657 1.44438,0.52523 0.8535,0.19696 0.65654,0.39393 0.59088,0.19696 0.72219,0.32827 0.39393,0.32827 0.32827,0.19696 0.26261,0.26261 0.45958,0.26262 0.45957,0.59088 0.13131,0.39392 v 0.26262 l -0.72219,0.59088 -0.32827,0.0657 -0.32827,-0.65654"
         stroke="inherit"
         stroke-width="inherit"
         fill="none"
         id="path81-3"
         inkscape:transform-center-x="14.631341"
         inkscape:transform-center-y="53.939187"
         style="stroke-width:0.7;stroke-dasharray:none" /><path
         d="m 82.958132,63.93911 0.0657,0.0657 -1.05046,0.45958 -2.03527,1.11611 -0.39392,0.59089 -0.65654,0.59088 -0.78784,0.32827 -2.75746,1.707 -0.91915,0.65653 -1.37873,0.65654 -1.44438,0.52523 -0.78785,0.39392 -0.78784,0.59089 -1.18177,0.65654 -1.11611,0.52523 -1.05046,0.52523 -1.96962,0.85349 -1.51003,0.98481 -0.98481,0.91915 -1.18177,0.65654 -2.297876,1.37873 -1.181768,0.78784 -1.772651,0.91916 -0.393922,0.45957 -0.590884,0.32827 -0.853499,0.32827 -0.722191,0.65654 -0.787845,0.32827 -0.525229,0.32826 -1.181768,0.26262 -0.590883,0.32827 0.656537,-0.52523"
         stroke="inherit"
         stroke-width="inherit"
         fill="none"
         id="path82-0"
         inkscape:transform-center-x="14.893977"
         inkscape:transform-center-y="54.661452"
         style="stroke-width:0.7;stroke-dasharray:none" /><path
         d="m 71.928312,58.29289 v 0 h 0.26261 l 0.32827,0.26261 1.18177,0.39393 0.72219,0.32826 0.19696,0.26262 0.32827,0.0657 1.11611,0.78785 0.52523,0.13131 0.39392,0.19696 h 0.19696 l 1.57569,1.11611 0.0657,0.13131 h 0.26261 l 0.0657,0.19696 h 0.26261 l 0.98481,1.05046 h 0.19696 v 0.0656"
         stroke="inherit"
         stroke-width="inherit"
         fill="none"
         id="path83-5"
         inkscape:transform-center-x="5.2100494"
         inkscape:transform-center-y="42.055907"
         style="stroke-width:0.7;stroke-dasharray:none" /><path
         d="M 63.262012,59.21204 V 59.409 l 0.45958,0.65654 h 0.13131 v 0.13131 h 0.1313 v 0.1313 h 0.0657 v 0.0657 h 0.1313 v 0.13131 h 0.13131 v 0.1313 h 0.32827 l 0.19696,0.0657 h 0.19696 v 0.1313 l 0.59089,0.19697 v 0.1313 h 0.19696 l 0.32827,0.26262 v 0.0656 h 0.1313 v 0.13131 h 0.13131 v 0.13131 h 0.0657 v 0.0657 h 0.13131 l 0.13131,0.26262 h 0.13131 v 0.0657 h 0.0657 v 0.13131 l 0.91915,0.45957 0.65654,0.19696 0.45958,0.32827 0.52523,0.32827 v 0.13131 l 0.45957,0.19696 0.13131,0.26262 0.39392,0.19696 0.13131,0.26261 0.32827,0.0657 v 0.1313 h 0.13131 v 0.13131 h 0.19696 v 0.0656 l 0.32827,0.26262 0.32827,0.19696 0.1313,0.26261 1.90396,0.98481 0.19696,0.0656 v 0.26262 h -0.0656"
         stroke="inherit"
         stroke-width="inherit"
         fill="none"
         id="path84-2"
         inkscape:transform-center-x="12.760204"
         inkscape:transform-center-y="44.419477"
         style="stroke-width:0.7;stroke-dasharray:none" /><path
         d="m 76.195802,69.97925 h -0.13131 v 0 l -0.13131,0.19697 v 0.26261 l -0.0656,0.0657 -0.13131,1.05046 -0.13131,0.65654 v 0.52523 l -0.0657,0.59089 v 6.10579 c -0.0657,0.0657 -0.13131,0.0657 -0.13131,0.0657 v 1.24742 l -0.1313,0.19696 v 4.26749 c 0,0.0657 -0.13131,0 -0.13131,0 v 0.0657"
         stroke="inherit"
         stroke-width="inherit"
         fill="none"
         id="path85-3"
         inkscape:transform-center-x="5.8009745"
         inkscape:transform-center-y="58.896157"
         style="stroke-width:0.7;stroke-dasharray:none" /><path
         d="m 81.054182,75.42851 -0.13131,-0.26261 h -0.0657 v -0.39392 l 0.0657,-0.26262 h 0.13131 l 0.26261,-0.52523 0.32827,-0.91915 0.0656,-0.52523 0.26262,-0.98481 0.0656,-0.78784 0.26262,-0.59088 0.0657,-0.78785 0.13131,-0.0657 v -0.45958 l 0.1313,-0.19696 v -0.59088 l 0.13131,-0.19697 V 67.2874"
         stroke="inherit"
         stroke-width="inherit"
         fill="none"
         id="path86-8"
         inkscape:transform-center-x="-0.33760069"
         inkscape:transform-center-y="52.626132"
         style="stroke-width:0.7;stroke-dasharray:none" /><path
         d="m 64.706392,80.54951 -0.0657,-1.37873 v -0.65654 l -0.13131,-0.52523 v -0.45958 l -0.1313,-0.59088 v -0.65654 h 0.1313 v 0.13131 h 0.13131 v 0.13131 h -0.26261 v -0.13131 h -0.0657 v -0.13131 h -0.13131 v -0.0657 h -0.1313 v -0.26262 h -0.0657 v -0.19696 h -0.1313 v -0.26261"
         stroke="inherit"
         stroke-width="inherit"
         fill="none"
         id="path87-7"
         inkscape:transform-center-x="17.191965"
         inkscape:transform-center-y="59.289992"
         style="stroke-width:0.7;stroke-dasharray:none" /><path
         d="m 69.170852,72.40844 h -0.13131 v 0.98481 l -0.0657,0.59088 v 0.78785 l -0.26262,0.9848 -0.0657,0.19696 v 0.13131 h -0.26262"
         stroke="inherit"
         stroke-width="inherit"
         fill="none"
         id="path88-8"
         inkscape:transform-center-x="12.694669"
         inkscape:transform-center-y="55.514922"
         style="stroke-width:0.7;stroke-dasharray:none" /><path
         d="m 79.872412,39.05634 v 0.13131 l -0.39392,-0.13131 v -0.0657 h -0.19697 v -0.13131 l -0.32826,-0.13131 -0.13131,-0.19696 -0.32827,-0.19696 -0.65654,-0.45957 -0.45957,-0.32827 -0.39393,-0.13131 v -0.13131 l -0.45957,-0.19696 -0.26262,-0.13131 v -0.0657 h -0.0657 v -0.13131 h -0.26262 v -0.13131 h -0.0656 v -0.0657 h -0.13131 v -0.13131 h -0.13131 v 0.13131 h 0.13131"
         stroke="inherit"
         stroke-width="inherit"
         fill="none"
         id="path89-0"
         inkscape:transform-center-x="3.7328844"
         inkscape:transform-center-y="19.077021"
         style="stroke-width:0.7;stroke-dasharray:none" /><path
         d="m 88.932622,36.62715 -0.32826,-0.45957 -0.0657,-0.52523 v -0.13131 h -0.13131 v -0.0657 h -0.1313 l -0.13131,-0.26262 h -0.19696 l -0.19696,-0.19696 h -0.32827 l -1.11612,-0.98481 h -0.26261 l -0.52523,-0.45957 -0.13131,-0.26262 -0.32827,-0.0656 v -0.13131 h -0.19696 l -0.26261,-0.1313 h -0.19696 v -0.0657 h -0.19697 v -0.13131 l -0.78784,-0.19696 v -0.1313 h -0.91915"
         stroke="inherit"
         stroke-width="inherit"
         fill="none"
         id="path90-4"
         inkscape:transform-center-x="-4.2440258"
         inkscape:transform-center-y="15.794391"
         style="stroke-width:0.7;stroke-dasharray:none" /><path
         d="m 87.094322,75.1659 v 0.13131 h -0.13131 V 75.1659 h -0.13131 v -0.19696 h 0.13131 v -0.13131 h 0.19696 v -0.0656 h 0.26262 v -0.13131 h 0.0657 v -0.13131 l 0.45958,-0.19696 v -0.13131 h 0.13131 v -0.1313 h 0.0657 v -0.98481 l -0.52523,-0.0656 h -0.45958"
         stroke="inherit"
         stroke-width="inherit"
         fill="none"
         id="path91-5"
         inkscape:transform-center-x="-6.0167458"
         inkscape:transform-center-y="55.416497"
         style="stroke-width:0.7;stroke-dasharray:none" /><path
         d="m 88.276092,85.21092 v -0.32827 l 0.1313,-0.26261 h 0.13131 l 0.39392,-0.78785 0.45958,-0.78784 0.13131,-0.19696 h -0.26262 v -0.13131 h -0.0657 l -0.13131,-0.32827 h -0.13131 v -0.0657 h -0.0657 V 82.1908 l -0.59088,-0.13131 h -0.52523 l -0.13131,0.26262 v 0.0657"
         stroke="inherit"
         stroke-width="inherit"
         fill="none"
         id="path92-7"
         inkscape:transform-center-x="-7.0999356"
         inkscape:transform-center-y="64.903382"
         style="stroke-width:0.7;stroke-dasharray:none" /></g></g></svg>
