<?xml version="1.0" encoding="UTF-8" standalone="no"?>
<!-- Created with Inkscape (http://www.inkscape.org/) -->

<svg
   width="360mm"
   height="120mm"
   viewBox="0 0 360 120"
   version="1.1"
   id="svg1"
   xml:space="preserve"
   inkscape:version="1.3.2 (091e20e, 2023-11-25)"
   sodipodi:docname="YARN.svg"
   xmlns:inkscape="http://www.inkscape.org/namespaces/inkscape"
   xmlns:sodipodi="http://sodipodi.sourceforge.net/DTD/sodipodi-0.dtd"
   xmlns:xlink="http://www.w3.org/1999/xlink"
   xmlns="http://www.w3.org/2000/svg"
   xmlns:svg="http://www.w3.org/2000/svg"><sodipodi:namedview
     id="namedview1"
     pagecolor="#ffffff"
     bordercolor="#000000"
     borderopacity="0.25"
     inkscape:showpageshadow="2"
     inkscape:pageopacity="0.0"
     inkscape:pagecheckerboard="0"
     inkscape:deskcolor="#d1d1d1"
     inkscape:document-units="mm"
     inkscape:zoom="0.47818658"
     inkscape:cx="689.06158"
     inkscape:cy="453.79776"
     inkscape:current-layer="layer1" /><defs
     id="defs1"><inkscape:path-effect
       back_thickness="0.25"
       front_thickness="1"
       stroke_width_bottom="1"
       stroke_width_top="1"
       fat_output="false"
       bottom_smth_variation="0;1"
       top_smth_variation="0;1"
       scale_tb="2"
       scale_tf="2"
       scale_bb="2"
       scale_bf="2"
       top_tgt_variation="0;1"
       bottom_tgt_variation="0;1"
       top_edge_variation="0;1"
       bottom_edge_variation="0;1"
       bender="1522.1071,406.78552 , 5,0"
       do_bend="true"
       growth="0"
       dist_rdm="0;1"
       direction="1522.1071,401.78552 , 20.946224,21.787234"
       is_visible="true"
       id="path-effect4116"
       effect="rough_hatches"
       lpeversion="0" /><linearGradient
       x1="1.9698247"
       y1="34.874969"
       x2="14.761634"
       xlink:href="#imagebot_35"
       y2="34.788586"
       id="imagebot_25"
       gradientTransform="scale(1.0944943,0.913664)"
       gradientUnits="userSpaceOnUse" /><linearGradient
       id="imagebot_35"><stop
         offset="0"
         stop-color="#9a5723"
         id="imagebot_39" /><stop
         offset="1"
         stop-color="#db9762"
         id="imagebot_38" /></linearGradient><linearGradient
       x2="6.4821496"
       y2="14.783549"
       y1="14.783549"
       xlink:href="#imagebot_35"
       id="imagebot_23"
       gradientTransform="scale(0.4868775,2.0539047)"
       x1="0.32040915"
       gradientUnits="userSpaceOnUse" /><linearGradient
       x2="14.128051"
       y2="24.911909"
       y1="12.332888"
       xlink:href="#imagebot_35"
       id="imagebot_21"
       gradientTransform="scale(1.143535,0.87448136)"
       x1="8.0067511"
       gradientUnits="userSpaceOnUse" /><linearGradient
       x1="-1.0948765"
       y1="9.0848875"
       x2="14.472001"
       xlink:href="#imagebot_35"
       y2="18.33567"
       id="imagebot_19"
       gradientTransform="scale(0.77089087,1.2972005)"
       gradientUnits="userSpaceOnUse" /><linearGradient
       x2="21.019093"
       y2="37.72084"
       y1="27.523834"
       xlink:href="#imagebot_35"
       id="imagebot_17"
       gradientTransform="scale(1.0540926,0.9486833)"
       x1="2.9940445"
       gradientUnits="userSpaceOnUse" /><linearGradient
       x2="28.298302"
       y2="13.339052"
       y1="8.3322973"
       xlink:href="#imagebot_35"
       id="imagebot_15"
       gradientTransform="scale(0.92429937,1.0819006)"
       x1="16.602846"
       gradientUnits="userSpaceOnUse" /><linearGradient
       x1="12.695371"
       y1="14.845891"
       x2="4.4375334"
       xlink:href="#imagebot_34"
       y2="13.40415"
       id="imagebot_13"
       gradientTransform="scale(0.74442254,1.3433231)"
       gradientUnits="userSpaceOnUse" /><linearGradient
       id="imagebot_34"><stop
         offset="0"
         stop-color="#7ed249"
         id="imagebot_37" /><stop
         offset="1"
         stop-color="#286325"
         id="imagebot_36" /></linearGradient><linearGradient
       x1="20.774029"
       y1="26.279816"
       x2="11.03502"
       xlink:href="#imagebot_34"
       y2="20.825972"
       id="imagebot_11"
       gradientTransform="scale(0.92514559,1.0809109)"
       gradientUnits="userSpaceOnUse" /><filter
       x="-0.153"
       height="1.3478"
       width="1.306"
       y="-0.17389999"
       id="imagebot_9"
       color-interpolation-filters="sRGB"><feGaussianBlur
         stdDeviation="0.25713"
         id="imagebot_33" /></filter><filter
       x="-0.21352001"
       height="1.4493001"
       width="1.427"
       y="-0.22465"
       id="imagebot_7"
       color-interpolation-filters="sRGB"><feGaussianBlur
         stdDeviation="0.25713"
         id="imagebot_32" /></filter><filter
       x="-0.13411"
       height="1.1229"
       width="1.2682"
       y="-0.061469998"
       id="imagebot_5"
       color-interpolation-filters="sRGB"><feGaussianBlur
         stdDeviation="0.21961"
         id="imagebot_31" /></filter><filter
       id="imagebot_3"
       color-interpolation-filters="sRGB"><feGaussianBlur
         stdDeviation="0.17322"
         id="imagebot_30" /></filter><inkscape:path-effect
       effect="rough_hatches"
       id="path-effect3982"
       is_visible="true"
       direction="1522.2031,401.90626 , 22.487883,24.510638"
       dist_rdm="0;1"
       growth="0"
       do_bend="true"
       bender="1522.2031,406.90626 , 5,0"
       bottom_edge_variation="0;1"
       top_edge_variation="0;1"
       bottom_tgt_variation="0;1"
       top_tgt_variation="0;1"
       scale_bf="2"
       scale_bb="2"
       scale_tf="2"
       scale_tb="2"
       top_smth_variation="0;1"
       bottom_smth_variation="0;1"
       fat_output="false"
       stroke_width_top="1"
       stroke_width_bottom="1"
       front_thickness="1"
       back_thickness="0.25"
       lpeversion="0" /><inkscape:path-effect
       back_thickness="0.25"
       front_thickness="1"
       stroke_width_bottom="1"
       stroke_width_top="1"
       fat_output="false"
       bottom_smth_variation="0;1"
       top_smth_variation="0;1"
       scale_tb="2"
       scale_tf="2"
       scale_bb="2"
       scale_bf="2"
       top_tgt_variation="0;1"
       bottom_tgt_variation="0;1"
       top_edge_variation="0;1"
       bottom_edge_variation="0;1"
       bender="1522.1071,406.78552 , 5,0"
       do_bend="true"
       growth="0"
       dist_rdm="0;1"
       direction="1522.1071,401.78552 , 20.946224,21.787234"
       is_visible="true"
       id="path-effect4116-3"
       effect="rough_hatches"
       lpeversion="0" /><rect
       x="761.89117"
       y="76.95871"
       width="304.75647"
       height="161.61328"
       id="rect97" /></defs><g
     inkscape:label="Layer 1"
     inkscape:groupmode="layer"
     id="layer1"
     transform="translate(-7.7985383,15)"><g
       id="1-9"
       inkscape:label="Yarn"
       stroke="#000000"
       stroke-width="0.8"
       fill="none"
       stroke-linecap="round"
       stroke-linejoin="round"
       transform="translate(-8.9286315,-15.226315)"
       style="display:inline"><path
         d="m 101.11741,86.122429 c 5.36953,-2.121902 11.1234,-1.90151 16.65214,-3.189282 1.62056,-1.001592 8.28362,0.608828 3.19708,1.017727 -4.18981,0.492109 -8.53767,7.258447 -1.96285,7.47139 4.26741,0.710506 8.76096,0.96823 13.03207,0.265444 4.73598,-1.190775 9.22414,-3.193376 13.92371,-4.404484 5.00348,-0.577221 9.80347,-1.760758 14.71719,0.415259 4.14809,3.247907 9.71931,3.51621 14.84102,3.941481 0.976,-5.628823 -7.51035,-2.237842 -10.43152,-4.914066 -4.01427,-1.529811 -7.89467,-3.700009 -12.32536,-3.57497 -7.16883,-0.05334 -13.37429,4.209929 -20.43453,4.78193 -3.82548,1.139813 -8.174,1.694592 -11.87876,-0.112353 1.48704,0.596849 10.66154,-3.300566 6.82349,-5.742627 -5.41273,-0.200921 -10.79847,-0.80743 -16.23838,-0.783321 -0.86227,-0.139924 -4.01734,2.589581 -9.45527,4.487858"
         stroke="inherit"
         stroke-width="inherit"
         fill="none"
         id="path1-8"
         sodipodi:nodetypes="ccccccccccccccc"
         style="stroke-width:1;stroke-dasharray:none" /><path
         d="m 88.096355,29.04431 c -2.925513,4.50399 -3.933791,10.187691 -2.467211,15.366371 0.333464,4.813865 2.225965,9.359769 4.610715,13.49429 2.169103,4.517473 6.012355,7.809205 9.58515,11.228166 3.011731,1.554318 8.125221,4.700602 11.224761,5.764618 M 85.384266,28.932326 c -2.002225,5.411417 -2.808936,16.816118 3.059793,30.08238 2.169103,4.517473 6.012356,7.809206 9.585151,11.228166 3.01172,1.554318 8.12523,4.700602 11.22477,5.764619"
         stroke="inherit"
         stroke-width="inherit"
         fill="none"
         id="path2-3"
         sodipodi:nodetypes="ccccccccc"
         style="stroke-width:1;stroke-dasharray:none" /><path
         d="m 85.081881,28.963531 c -2.319214,3.836366 -2.201422,9.443767 -1.90348,14.076573 1.025727,5.247222 1.783753,10.593523 3.800609,15.596505 1.211916,5.061417 4.840973,8.976706 8.258331,12.710948 7.034329,3.795593 8.037359,3.912128 12.456039,4.703171"
         stroke="inherit"
         stroke-width="inherit"
         fill="none"
         id="path3-71"
         sodipodi:nodetypes="ccccc"
         style="stroke-width:1;stroke-dasharray:none" /><path
         d="m 72.753491,33.70522 c -1.254475,4.187988 -2.338692,9.828085 -0.07125,14.323892 2.371053,5.488166 5.366143,10.681826 8.347577,15.850445 4.880227,5.329559 11.084158,9.616183 18.190694,11.293721 0.828068,0.721125 9.055578,0.823041 3.879408,0.689696"
         stroke="inherit"
         stroke-width="inherit"
         fill="none"
         id="path4-2"
         sodipodi:nodetypes="ccccc"
         style="stroke-width:1;stroke-dasharray:none" /><path
         d="m 69.994691,33.619007 c -0.207703,3.961188 -0.646811,8.27099 0.05013,12.34883 1.048951,6.538909 4.389866,12.389512 7.105435,18.342756 2.330353,3.389289 4.828561,6.806255 8.328467,9.044276 4.696087,1.292261 8.756885,4.425801 13.618941,5.06156 4.255246,0.651716 10.191856,0.153376 14.455566,-0.491759"
         stroke="inherit"
         stroke-width="inherit"
         fill="none"
         id="path5-6"
         sodipodi:nodetypes="cccccc"
         style="stroke-width:1;stroke-dasharray:none" /><path
         d="m 118.35991,67.586738 c -1.65203,4.036564 -5.57856,6.616549 -9.21805,8.730528 -0.44517,0.949315 -3.71825,1.796047 -3.19615,2.132162"
         stroke="inherit"
         stroke-width="inherit"
         fill="none"
         id="path6-176"
         style="stroke-width:1;stroke-dasharray:none" /><path
         d="m 101.37605,85.950004 c -3.905431,2.461713 -8.722463,3.159849 -13.3681,2.979697 -4.456996,-0.942783 -9.452811,-1.195067 -13.234415,-3.911609 -3.411908,-2.495698 -6.704076,-5.240173 -8.810073,-8.981948 -2.999383,-3.701775 -5.488583,-8.04491 -5.772924,-12.915776 -0.828052,-5.719176 0.202236,-11.538552 2.648485,-16.741904 1.990334,-4.359839 3.513627,-9.345277 7.431436,-12.406237 4.545269,-2.567262 9.829602,-3.28338 14.665883,-5.151627 5.564964,-0.623133 11.34328,-0.984425 16.607628,1.29194 4.48824,1.167069 7.04115,5.336225 10.6463,7.885984 2.87614,3.521583 4.69945,7.989838 5.8696,12.365255 1.18317,5.011416 2.33081,10.203444 0.98352,15.301353 -0.96947,6.044318 -3.40066,12.736308 -9.30512,15.456916"
         stroke="inherit"
         stroke-width="inherit"
         fill="none"
         id="path7-50"
         sodipodi:nodetypes="ccccccccccccc"
         style="stroke-width:1;stroke-dasharray:none" /><path
         d="m 88.279969,52.358318 c 1.157639,0.439215 6.768856,-4.221112 9.606128,-5.351407 4.417353,-2.5178 7.964773,-6.248692 12.886643,-7.87019 0.20468,-0.02501 3.40864,-1.814117 1.72415,-0.689816"
         stroke="inherit"
         stroke-width="inherit"
         fill="none"
         id="path8-4"
         sodipodi:nodetypes="cccc"
         style="stroke-width:1;stroke-dasharray:none" /><path
         d="m 89.564932,54.396223 c 1.058566,-2.465405 6.906059,-4.054984 9.621912,-6.457602 4.286026,-2.292653 8.832746,-4.205469 12.430736,-7.544308 l 0.62637,-0.347847 0.59802,-0.220025"
         stroke="inherit"
         stroke-width="inherit"
         fill="none"
         id="path9-5"
         style="stroke-width:1;stroke-dasharray:none" /><path
         d="m 109.82487,36.377808 c -0.1221,-0.05875 -1.66655,4.181652 -0.68965,2.844994"
         stroke="inherit"
         stroke-width="inherit"
         fill="none"
         id="path10-1"
         style="stroke-width:1;stroke-dasharray:none" /><path
         d="m 110.85942,36.722658 c 0.38726,-1.338701 -1.42167,2.232758 -1.03451,2.413945"
         stroke="inherit"
         stroke-width="inherit"
         fill="none"
         id="path11-23"
         style="stroke-width:1;stroke-dasharray:none" /><path
         d="m 106.63501,44.136934 c -3.37217,3.207393 -4.4563,9.02256 -7.83983,12.733279 -1.245556,2.097675 -3.543551,3.883539 -4.746797,5.629882"
         stroke="inherit"
         stroke-width="inherit"
         fill="none"
         id="path12-72"
         style="stroke-width:1;stroke-dasharray:none" /><path
         d="m 95.686021,64.138238 c 3.6092,-4.723892 6.873879,-9.761182 10.172759,-14.742338 0.96821,-1.977973 1.77586,-3.952268 2.50003,-6.034818"
         stroke="inherit"
         stroke-width="inherit"
         fill="none"
         id="path13-4"
         style="stroke-width:1;stroke-dasharray:none" /><path
         d="m 77.408967,56.120474 c 0.250203,-3.189243 3.220289,-7.172741 4.703397,-10.503666 l 0.164754,-0.497103 0.304547,-0.379218"
         stroke="inherit"
         stroke-width="inherit"
         fill="none"
         id="path14-18"
         style="stroke-width:1;stroke-dasharray:none" /><path
         d="m 85.340519,40.947071 c 2.202051,-3.712773 6.391069,-5.912881 10.296465,-7.669172 3.035028,-1.005495 7.461606,-2.049748 10.221666,-1.038206"
         stroke="inherit"
         stroke-width="inherit"
         fill="none"
         id="path15-26"
         style="stroke-width:1;stroke-dasharray:none" /><path
         d="m 100.3415,29.825656 c -5.948653,0.802338 -11.658907,3.226567 -16.035465,7.414196"
         stroke="inherit"
         stroke-width="inherit"
         fill="none"
         id="path16-0"
         style="stroke-width:1;stroke-dasharray:none" /><path
         d="m 82.581718,39.998733 c -2.324763,4.529329 -5.2377,8.849029 -7.155561,13.621462"
         stroke="inherit"
         stroke-width="inherit"
         fill="none"
         id="path17-3"
         style="stroke-width:1;stroke-dasharray:none" /><path
         d="m 82.667931,30.170506 c -3.607316,4.58074 -5.805606,10.229896 -6.941349,15.912789 -0.124167,2.029564 -0.234428,4.034979 -0.300425,6.071315"
         stroke="inherit"
         stroke-width="inherit"
         fill="none"
         id="path18-9"
         style="stroke-width:1;stroke-dasharray:none" /><path
         d="m 72.925916,48.619985 c -0.03134,-4.231908 1.864391,-8.414947 3.244199,-12.433082 0.593111,-1.50859 1.431691,-2.90297 2.100916,-4.378341"
         stroke="inherit"
         stroke-width="inherit"
         fill="none"
         id="path19-4"
         style="stroke-width:1;stroke-dasharray:none" /><path
         d="m 75.880965,31.674687 c -1.47459,3.620591 -3.378272,6.262484 -4.287936,10.159348 -0.262749,0.210047 -0.214639,0.486079 -0.218884,0.750998"
         stroke="inherit"
         stroke-width="inherit"
         fill="none"
         id="path20-9"
         sodipodi:nodetypes="ccc"
         style="stroke-width:1;stroke-dasharray:none" /><path
         d="m 76.546842,45.343909 c 0.642698,-0.310584 1.645052,0.86343 2.069078,1.03454"
         stroke="inherit"
         stroke-width="inherit"
         fill="none"
         id="path21-6"
         style="stroke-width:1;stroke-dasharray:none" /><path
         d="m 77.408967,42.585109 c -1.196638,1.410183 2.623651,0.519484 2.413926,2.15529"
         stroke="inherit"
         stroke-width="inherit"
         fill="none"
         id="path22-5"
         style="stroke-width:1;stroke-dasharray:none" /><path
         d="m 78.012455,40.602221 c 0.564405,-0.317664 3.448068,1.072505 3.879521,1.72423"
         stroke="inherit"
         stroke-width="inherit"
         fill="none"
         id="path23-13"
         style="stroke-width:1;stroke-dasharray:none" /><path
         d="m 78.443517,38.360695 c 0.616701,0.258329 3.650017,0.14585 4.482999,2.155291"
         stroke="inherit"
         stroke-width="inherit"
         fill="none"
         id="path24-2"
         style="stroke-width:1;stroke-dasharray:none" /><path
         d="m 79.90913,36.205383 c 0.375354,-1.17782 2.375948,0.878169 3.103626,0.775905"
         stroke="inherit"
         stroke-width="inherit"
         fill="none"
         id="path25-69"
         style="stroke-width:1;stroke-dasharray:none" /><path
         d="m 81.28853,33.36037 c -1.310349,-0.746147 2.439338,0.859012 2.241516,1.20696"
         stroke="inherit"
         stroke-width="inherit"
         fill="none"
         id="path26-00"
         style="stroke-width:1;stroke-dasharray:none" /><path
         d="m 82.926568,31.205057 c -1.321174,-0.848925 0.29057,0.48114 0.51727,0.60348"
         stroke="inherit"
         stroke-width="inherit"
         fill="none"
         id="path27-3"
         style="stroke-width:1;stroke-dasharray:none" /><path
         d="M 103.70379,42.240259 C 99.521088,40.459647 95.290847,38.887211 91.030544,37.32615"
         stroke="inherit"
         stroke-width="inherit"
         fill="none"
         id="path28-95"
         style="stroke-width:1;stroke-dasharray:none" /><path
         d="m 91.54782,35.860532 c 2.572339,-0.09665 8.49683,2.063245 11.99686,3.878606 0.65342,0.484353 1.5776,0.698904 2.05553,1.3803"
         stroke="inherit"
         stroke-width="inherit"
         fill="none"
         id="path29-31"
         style="stroke-width:1;stroke-dasharray:none" /><path
         d="m 90.771907,36.80887 c 1.45165,2.144638 6.611774,5.042342 9.607143,7.176835 l 0.42058,0.404377 0.40387,0.436469"
         stroke="inherit"
         stroke-width="inherit"
         fill="none"
         id="path30-1"
         style="stroke-width:1;stroke-dasharray:none" /><path
         d="m 87.840682,38.446908 c 3.789023,0.635756 7.657738,4.07034 10.26688,6.811484 l 0.462788,0.451051 0.477898,0.496514"
         stroke="inherit"
         stroke-width="inherit"
         fill="none"
         id="path31-2"
         style="stroke-width:1;stroke-dasharray:none" /><path
         d="m 94.30662,34.308707 c 4.614589,0.811734 8.68545,3.454118 12.67287,5.776176 v 0.172425 h 0.0862"
         stroke="inherit"
         stroke-width="inherit"
         fill="none"
         id="path32-6"
         style="stroke-width:1;stroke-dasharray:none" /><path
         d="m 100.02132,32.318447 c 2.85726,1.600913 6.31833,5.075938 7.73416,8.072705"
         stroke="inherit"
         stroke-width="inherit"
         fill="none"
         id="path33-91"
         sodipodi:nodetypes="cc"
         style="stroke-width:1;stroke-dasharray:none" /><path
         d="m 104.13485,32.498244 c 0.90701,2.918703 3.67396,3.968024 4.82762,6.638298"
         stroke="inherit"
         stroke-width="inherit"
         fill="none"
         id="path34-90"
         style="stroke-width:1;stroke-dasharray:none" /><path
         d="m 87.582044,40.516008 c 3.141271,1.141151 5.81202,4.740586 7.672847,7.543515 l 0.125887,0.219804 0.218961,0.08194"
         stroke="inherit"
         stroke-width="inherit"
         fill="none"
         id="path35-61"
         style="stroke-width:1;stroke-dasharray:none" /><path
         d="m 85.340519,41.895409 c 2.635795,1.885792 5.320197,5.532456 7.79104,8.071923 l -0.45482,-0.304641"
         stroke="inherit"
         stroke-width="inherit"
         fill="none"
         id="path36-7"
         sodipodi:nodetypes="ccc"
         style="stroke-width:1;stroke-dasharray:none" /><path
         d="m 86.892344,47.41301 c 1.571921,0.02354 3.03368,2.544255 4.091366,3.652925"
         stroke="inherit"
         stroke-width="inherit"
         fill="none"
         id="path37-38"
         sodipodi:nodetypes="cc"
         style="stroke-width:1;stroke-dasharray:none" /><path
         d="m 90.340845,32.929307 c -0.790481,1.093444 -3.174761,-1.127153 -4.569216,-0.344845"
         stroke="inherit"
         stroke-width="inherit"
         fill="none"
         id="path38-70"
         style="stroke-width:1;stroke-dasharray:none" /><path
         d="m 87.582044,35.257045 c -0.5017,-0.47983 -1.788635,-0.613654 -2.241506,-0.689695"
         stroke="inherit"
         stroke-width="inherit"
         fill="none"
         id="path39-3"
         style="stroke-width:1;stroke-dasharray:none" /><path
         d="m 87.150981,29.998081 c 2.089974,-0.17002 4.674812,0.623205 6.810734,1.551805"
         stroke="inherit"
         stroke-width="inherit"
         fill="none"
         id="path40-69"
         style="stroke-width:1;stroke-dasharray:none" /><path
         d="M 95.858446,29.998081 C 94.7267,30.507165 94.452323,28.685388 93.444515,28.618696"
         stroke="inherit"
         stroke-width="inherit"
         fill="none"
         id="path41-14"
         style="stroke-width:1;stroke-dasharray:none" /><path
         d="m 98.703459,66.552188 c 0.02175,-1.157435 5.260631,-5.400317 6.570391,-8.218621 1.99032,-3.966699 4.48816,-7.677314 6.301,-11.73656 0.67562,-1.917904 1.56017,-5.111107 1.1808,-6.511984"
         stroke="inherit"
         stroke-width="inherit"
         fill="none"
         id="path42-14"
         style="stroke-width:1;stroke-dasharray:none" /><path
         d="m 97.668908,65.259 c 1.053444,-2.654912 4.816742,-6.740738 6.783802,-9.993691 2.40749,-4.085542 4.57594,-8.380775 5.95241,-12.915215 l 0.10901,-0.971897"
         stroke="inherit"
         stroke-width="inherit"
         fill="none"
         id="path43-6"
         style="stroke-width:1;stroke-dasharray:none" /><path
         d="m 90.647127,56.755156 c 1.728856,0.193159 8.908782,-4.432873 11.506613,-6.03265"
         stroke="inherit"
         stroke-width="inherit"
         fill="none"
         id="path44-1"
         sodipodi:nodetypes="cc"
         style="stroke-width:1;stroke-dasharray:none" /><path
         d="m 90.944332,59.051699 c 2.647836,-1.711442 6.452825,-3.183822 9.224688,-5.258905"
         stroke="inherit"
         stroke-width="inherit"
         fill="none"
         id="path45-0"
         style="stroke-width:1;stroke-dasharray:none" /><path
         d="m 93.185858,59.913824 c 0.500029,-1.056028 4.295454,-1.894301 5.258954,-2.758772"
         stroke="inherit"
         stroke-width="inherit"
         fill="none"
         id="path46-24"
         style="stroke-width:1;stroke-dasharray:none" /><path
         d="m 89.45575,55.555553 c 2.616347,-0.294012 7.458417,-3.616146 9.628944,-5.069453 1.244076,-0.830173 2.564876,-1.645621 4.940816,-2.829986"
         stroke="inherit"
         stroke-width="inherit"
         fill="none"
         id="path47-0"
         sodipodi:nodetypes="ccc"
         style="stroke-width:1;stroke-dasharray:none" /><path
         d="m 98.962096,67.155676 c 2.963484,-1.937289 5.328384,-5.255442 8.103614,-7.721407 3.22577,-3.270089 5.37796,-7.36032 7.92532,-11.125411 0.52998,-0.583835 1.13997,-1.153 1.38544,-1.930348"
         stroke="inherit"
         stroke-width="inherit"
         fill="none"
         id="path48-4"
         style="stroke-width:1;stroke-dasharray:none" /><path
         d="m 115.08383,42.240259 c -0.27368,2.56459 -1.61987,6.27752 -2.84486,9.138481"
         stroke="inherit"
         stroke-width="inherit"
         fill="none"
         id="path49-3"
         style="stroke-width:1;stroke-dasharray:none" /><path
         d="m 100.60013,67.672951 c 4.03717,-0.881577 6.52554,-5.142758 9.01409,-8.215635 1.41213,-1.567744 2.94977,-5.011112 2.71032,-6.095559"
         stroke="inherit"
         stroke-width="inherit"
         fill="none"
         id="path50-17"
         style="stroke-width:1;stroke-dasharray:none" /><path
         d="m 114.18229,50.275326 c -0.006,-2.115154 0.1974,7.752973 -1.54287,9.081728 -2.27806,4.153228 -5.86706,7.68818 -9.95835,10.009827 0.24339,-0.123654 -1.62293,0.829765 -0.70108,0.461271"
         stroke="inherit"
         stroke-width="inherit"
         fill="none"
         id="path51-94"
         sodipodi:nodetypes="cccc"
         style="stroke-width:1;stroke-dasharray:none" /><path
         d="m 104.22106,70.776601 c 2.37504,-1.307478 5.01936,-4.778554 6.92379,-7.395637 2.82208,-3.323042 5.31457,-7.136661 4.96726,-11.730156 0.16258,-1.183351 -0.43776,-2.206808 -0.25288,-3.37554"
         stroke="inherit"
         stroke-width="inherit"
         fill="none"
         id="path52-70"
         style="stroke-width:1;stroke-dasharray:none" /><path
         d="m 116.46323,47.41301 c 0.16785,3.661138 1.69687,8.301767 -0.32635,12.074374 -1.6656,4.920036 -4.62701,9.731917 -9.16109,12.428421 l -0.38418,0.169458 0.47482,-0.360428"
         stroke="inherit"
         stroke-width="inherit"
         fill="none"
         id="path53-11"
         style="stroke-width:1;stroke-dasharray:none" /><path
         d="m 109.39381,73.190552 c 1.88906,-2.680695 6.21981,-6.81494 7.82397,-10.881181 1.12838,-2.350951 2.19958,-4.641862 2.26243,-7.309593"
         stroke="inherit"
         stroke-width="inherit"
         fill="none"
         id="path54-5"
         style="stroke-width:1;stroke-dasharray:none" /><path
         d="m 119.22203,61.8105 c -1.65373,3.610542 -4.08152,7.007722 -6.63802,9.914368"
         stroke="inherit"
         stroke-width="inherit"
         fill="none"
         id="path55-2"
         style="stroke-width:1;stroke-dasharray:none" /><path
         d="m 113.10094,70.949026 c -0.27903,-0.349791 -1.57615,2.889919 -1.89659,3.103643"
         stroke="inherit"
         stroke-width="inherit"
         fill="none"
         id="path57-2"
         style="stroke-width:1;stroke-dasharray:none" /><path
         d="m 79.110248,60.109219 c 0.897628,-1.932795 5.058468,-3.025701 6.520074,-4.654585"
         stroke="inherit"
         stroke-width="inherit"
         fill="none"
         id="path58-2"
         sodipodi:nodetypes="cc"
         style="stroke-width:1;stroke-dasharray:none" /><path
         d="m 80.379613,62.147125 c 1.00896,-1.451593 4.501248,-2.928185 5.916595,-4.33356"
         stroke="inherit"
         stroke-width="inherit"
         fill="none"
         id="path59-4"
         sodipodi:nodetypes="cc"
         style="stroke-width:1;stroke-dasharray:none" /><path
         d="m 81.805806,63.8796 c 0.7034,-1.221531 5.891288,-3.699157 5.305749,-3.134819"
         stroke="inherit"
         stroke-width="inherit"
         fill="none"
         id="path60-9"
         sodipodi:nodetypes="cc"
         style="stroke-width:1;stroke-dasharray:none" /><path
         d="m 83.443843,65.431425 c -1.246745,0.390376 4.512484,-2.365132 4.733444,-2.774377"
         stroke="inherit"
         stroke-width="inherit"
         fill="none"
         id="path61-7"
         sodipodi:nodetypes="cc"
         style="stroke-width:1;stroke-dasharray:none" /><path
         d="m 85.081881,67.069463 c 1.331608,0.2369 3.4961,-1.536235 4.592228,-1.95906"
         stroke="inherit"
         stroke-width="inherit"
         fill="none"
         id="path62-7"
         sodipodi:nodetypes="cc"
         style="stroke-width:1;stroke-dasharray:none" /><path
         d="m 88.664239,69.976866 c 1.297104,-1.354183 3.171028,-1.702298 3.142201,-2.303895"
         stroke="inherit"
         stroke-width="inherit"
         fill="none"
         id="path63-2"
         sodipodi:nodetypes="cc"
         style="stroke-width:1;stroke-dasharray:none" /><path
         d="m 91.289182,71.207664 c 0.770878,-0.472906 2.179984,-0.758496 2.50015,-1.551813"
         stroke="inherit"
         stroke-width="inherit"
         fill="none"
         id="path64-0"
         style="stroke-width:1;stroke-dasharray:none" /><path
         d="m 94.737683,72.845702 c -0.806272,0.01981 1.415208,-0.771515 0.862115,-0.689695"
         stroke="inherit"
         stroke-width="inherit"
         fill="none"
         id="path65-9"
         style="stroke-width:1;stroke-dasharray:none" /><path
         d="m 82.409293,46.723309 c -1.82469,-0.349074 2.86963,1.076414 1.63804,1.12075"
         stroke="inherit"
         stroke-width="inherit"
         fill="none"
         id="path66-0"
         style="stroke-width:1;stroke-dasharray:none" /><path
         d="m 81.374743,47.844072 c 0.50511,0.468353 3.450999,0.743357 3.01743,1.03454"
         stroke="inherit"
         stroke-width="inherit"
         fill="none"
         id="path67-7"
         style="stroke-width:1;stroke-dasharray:none" /><path
         d="m 80.25398,49.654535 c 1.579126,0.185837 4.03405,1.24857 4.546283,1.418802"
         stroke="inherit"
         stroke-width="inherit"
         fill="none"
         id="path68-1"
         sodipodi:nodetypes="cc"
         style="stroke-width:1;stroke-dasharray:none" /><path
         d="m 79.650493,50.86151 c 1.400837,0.815924 4.205393,1.207833 4.914103,2.241505"
         stroke="inherit"
         stroke-width="inherit"
         fill="none"
         id="path69-6"
         style="stroke-width:1;stroke-dasharray:none" /><path
         d="m 78.87458,52.413335 c 0.863997,0.38881 7.699464,3.298633 6.230261,2.836771"
         stroke="inherit"
         stroke-width="inherit"
         fill="none"
         id="path70-0"
         sodipodi:nodetypes="cc"
         style="stroke-width:1;stroke-dasharray:none" /><path
         d="m 77.753817,53.361673 c -0.697853,1.352065 1.876312,1.221129 5.775383,2.977993"
         stroke="inherit"
         stroke-width="inherit"
         fill="none"
         id="path71-9"
         sodipodi:nodetypes="cc"
         style="stroke-width:1;stroke-dasharray:none" /><path
         d="m 77.753817,55.861836 c -0.521496,-0.06282 3.508817,2.080237 3.793356,2.155307"
         stroke="inherit"
         stroke-width="inherit"
         fill="none"
         id="path72-2"
         style="stroke-width:1;stroke-dasharray:none" /><path
         d="m 60.691964,52.194118 c 0.962491,-0.393808 3.721169,5.450476 5.766426,6.91059 3.326517,4.105136 7.680568,7.094 11.946052,10.144234 0.121688,-0.04425 4.15127,2.020048 3.329042,1.424997"
         stroke="inherit"
         stroke-width="inherit"
         fill="none"
         id="path73-9"
         sodipodi:nodetypes="cccc"
         style="stroke-width:1;stroke-dasharray:none" /><path
         d="M 90.425351,75.447675 C 85.616188,74.512128 78.297879,73.336398 74.295469,70.181973 66.649005,65.276486 61.807525,57.911225 60.127235,55.73638"
         stroke="inherit"
         stroke-width="inherit"
         fill="none"
         id="path74-6"
         sodipodi:nodetypes="ccc"
         style="stroke-width:1;stroke-dasharray:none" /><path
         d="M 93.350058,76.804105 C 82.725103,80.105625 75.574395,75.107211 67.684806,69.033609 64.371445,66.174325 62.297242,62.688223 59.774143,59.525192"
         stroke="inherit"
         stroke-width="inherit"
         fill="none"
         id="path75-0"
         sodipodi:nodetypes="ccc"
         style="stroke-width:1;stroke-dasharray:none" /><path
         d="m 61.028589,66.29355 c 1.215832,1.084915 5.974903,6.509826 9.206854,8.34104 5.231206,3.79878 11.775203,5.340336 18.129037,5.540187 2.155513,0.115178 5.882547,-1.558927 6.718051,-2.501258"
         stroke="inherit"
         stroke-width="inherit"
         fill="none"
         id="path76-2"
         style="stroke-width:1;stroke-dasharray:none" /><path
         d="m 61.718289,69.052351 c 4.426845,3.085522 8.211548,7.270087 13.276657,9.483293 6.141846,3.49441 13.454928,4.202683 20.403151,4.370155 5.075683,-0.408672 9.983413,-1.129194 14.686873,-2.844277 0.62181,-0.115028 -1.80006,1.499938 -0.60553,0.543205"
         stroke="inherit"
         stroke-width="inherit"
         fill="none"
         id="path77-8"
         style="stroke-width:1;stroke-dasharray:none" /><path
         d="m 102.92787,78.96679 c 0.55356,-1.778411 -4.918586,1.893189 -6.56814,2.151871 -1.546955,0.193015 -2.784479,1.321923 -4.380826,1.21038"
         stroke="inherit"
         stroke-width="inherit"
         fill="none"
         id="path78-4"
         style="stroke-width:1;stroke-dasharray:none" /><path
         d="m 70.089129,80.941453 c 2.488769,0.73678 8.260275,1.429588 9.56132,0.266856"
         stroke="inherit"
         stroke-width="inherit"
         fill="none"
         id="path79-48"
         sodipodi:nodetypes="cc"
         style="stroke-width:1;stroke-dasharray:none" /><path
         d="m 85.685369,82.587716 c -3.569437,0.281088 -9.191474,2.156747 -13.182226,0.70529"
         stroke="inherit"
         stroke-width="inherit"
         fill="none"
         id="path80-0"
         sodipodi:nodetypes="cc"
         style="stroke-width:1;stroke-dasharray:none" /><path
         d="m 73.788042,78.535728 c -2.232687,0.0021 -3.638623,1.114487 -5.823855,0.32103"
         stroke="inherit"
         stroke-width="inherit"
         fill="none"
         id="path81-1"
         sodipodi:nodetypes="cc"
         style="stroke-width:1;stroke-dasharray:none" /><path
         d="m 90.324394,82.940791 c -1.892378,0.820362 -10.729507,3.077203 -14.940793,2.447201"
         stroke="inherit"
         stroke-width="inherit"
         fill="none"
         id="path82-5"
         sodipodi:nodetypes="cc"
         style="stroke-width:1;stroke-dasharray:none" /><path
         d="m 96.007048,83.058198 c -5.060564,1.718765 -10.620882,3.809204 -16.011623,4.18495 h 0.172425"
         stroke="inherit"
         stroke-width="inherit"
         fill="none"
         id="path83-1"
         sodipodi:nodetypes="ccc"
         style="stroke-width:1;stroke-dasharray:none" /><path
         d="m 100.85877,82.846353 c -2.836307,0.735959 -6.541551,3.559693 -10.099803,4.066821 -1.855348,0.325732 -4.720285,0.8674 -5.935674,1.192092"
         stroke="inherit"
         stroke-width="inherit"
         fill="none"
         id="path84-1"
         style="stroke-width:1;stroke-dasharray:none" /><path
         d="m 97.668908,80.69104 c 3.606482,0.825694 9.618712,-0.35544 11.724682,-0.862115"
         stroke="inherit"
         stroke-width="inherit"
         fill="none"
         id="path85-1"
         style="stroke-width:1;stroke-dasharray:none" /><path
         d="m 75.825094,62.248935 c -0.98011,-0.792696 -5.565238,-5.850851 -7.456766,-8.339394 -1.598256,-2.021187 -3.480097,-5.629573 -5.474253,-6.872567"
         stroke="inherit"
         stroke-width="inherit"
         fill="none"
         id="path86-5"
         sodipodi:nodetypes="ccc"
         style="stroke-width:1;stroke-dasharray:none" /><path
         d="m 61.718289,49.654535 c 2.999855,2.410163 5.315807,6.871715 8.641247,9.489103 2.518616,2.688247 5.069498,5.500386 8.170073,7.494658"
         stroke="inherit"
         stroke-width="inherit"
         fill="none"
         id="path87-1"
         style="stroke-width:1;stroke-dasharray:none" /><path
         d="M 73.615617,56.810174 C 71.474121,53.72045 67.896568,51.158899 65.730479,47.726031 65.520305,47.293211 63.617741,43.019107 63.8892,44.081966"
         stroke="inherit"
         stroke-width="inherit"
         fill="none"
         id="path88-7"
         sodipodi:nodetypes="ccc"
         style="stroke-width:1;stroke-dasharray:none" /><path
         d="m 65.214435,41.316597 c 1.173033,3.139087 3.180002,4.727994 5.038869,7.56202 0.02874,-0.08621 0.344843,0.114949 0.258636,-0.08621"
         stroke="inherit"
         stroke-width="inherit"
         fill="none"
         id="path89-08"
         sodipodi:nodetypes="ccc"
         style="stroke-width:1;stroke-dasharray:none" /><path
         d="m 69.296766,43.368394 c -0.259901,-0.795471 -2.36046,-2.947037 -3.009198,-3.973142"
         stroke="inherit"
         stroke-width="inherit"
         fill="none"
         id="path90-5"
         sodipodi:nodetypes="cc"
         style="stroke-width:1;stroke-dasharray:none" /><path
         d="m 69.046353,39.395246 c -0.579401,-1.04986 -1.303063,-1.39462 -1.904899,-2.077317"
         stroke="inherit"
         stroke-width="inherit"
         fill="none"
         id="path91-3"
         sodipodi:nodetypes="cc"
         style="stroke-width:1;stroke-dasharray:none" /><path
         d="m 72.236216,44.999059 c 0.115304,4.099953 2.08386,8.492285 3.880465,12.308759 2.603387,3.956384 4.718722,8.401125 8.134469,11.65812 3.286531,2.98936 15.84674,9.292949 22.13587,9.244808"
         stroke="inherit"
         stroke-width="inherit"
         fill="none"
         id="path93-7"
         sodipodi:nodetypes="cccc"
         style="stroke-width:1;stroke-dasharray:none" /><path
         d="m 122.49811,83.622266 c -0.33889,-0.110525 2.26571,-1.47982 3.74483,-1.543593"
         stroke="inherit"
         stroke-width="inherit"
         fill="none"
         id="path94-96"
         sodipodi:nodetypes="cc"
         style="stroke-width:1;stroke-dasharray:none" /><path
         d="m 120.66468,87.753094 c -1.46158,-0.199547 -1.99803,-0.644194 -3.42532,-1.02716"
         stroke="inherit"
         stroke-width="inherit"
         fill="none"
         id="path95-3"
         sodipodi:nodetypes="cc"
         style="stroke-width:1;stroke-dasharray:none" /></g></g></svg>
